<?xml version="1.0"?>
<!-- Converted with SVG Converter - Version 0.9.5 (Compiled Mon May 30 09:08:51 2011) - Copyright (C) 2011 Nokia -->
<svg xmlns="http://www.w3.org/2000/svg" width="30px" x="0px" version="1.1" y="0px" height="30px" viewBox="0 0 30 30" xmlns:xlink="http://www.w3.org/1999/xlink" baseProfile="tiny" xml:space="preserve">
 <g id="DO_NOT_EDIT_-_BOUNDING_BOX">
  <rect width="30" fill="none" height="30" id="BOUNDING_BOX"/>
 </g>
 <g id="PLACE_YOUR_GRAPHIC_HERE">
  <path stroke-opacity="0.3" fill-opacity="0.3" d="M26,12H11l5.293-5.293c0.389-0.391,0.389-1.025,0-1.414l-1.586-1.586c-0.389-0.391-1.025-0.391-1.414,0&#xd;&#xa;&#x9;&#x9;l-9.586,9.586c-0.389,0.389-0.389,1.023,0,1.414l9.586,9.586c0.389,0.389,1.025,0.389,1.414,0l1.586-1.586&#xd;&#xa;&#x9;&#x9;c0.389-0.389,0.389-1.025,0-1.414L11,16h15c0.55,0,1-0.451,1-1v-2C27,12.449,26.55,12,26,12z"/>
  <path stroke-opacity="0.15" fill-opacity="0.15" d="M14,26.585c-0.535,0-1.037-0.208-1.414-0.585L3,16.414c-0.779-0.782-0.779-2.051,0-2.829L12.586,4&#xd;&#xa;&#x9;&#x9;C12.961,3.623,13.464,3.414,14,3.414s1.039,0.208,1.416,0.587L17,5.586c0.778,0.778,0.778,2.046,0.002,2.827L13.414,12H26&#xd;&#xa;&#x9;&#x9;c1.103,0,2,0.897,2,2v2c0,1.103-0.897,2-2,2H13.414L17,21.586c0.78,0.779,0.78,2.049,0,2.828L15.414,26&#xd;&#xa;&#x9;&#x9;C15.037,26.377,14.535,26.585,14,26.585z"/>
  <path stroke-opacity="0.15" fill-opacity="0.15" d="M26,13H11l5.293-5.293c0.389-0.391,0.389-1.025,0-1.414l-1.586-1.586c-0.389-0.391-1.025-0.391-1.414,0&#xd;&#xa;&#x9;&#x9;l-9.586,9.586c-0.389,0.389-0.389,1.023,0,1.414l9.586,9.586c0.389,0.389,1.025,0.389,1.414,0l1.586-1.586&#xd;&#xa;&#x9;&#x9;c0.389-0.389,0.389-1.025,0-1.414L11,17h15c0.55,0,1-0.451,1-1v-2C27,13.449,26.55,13,26,13z"/>
  <path fill="#FFFFFF" d="M26,13H11l5.293-5.293c0.389-0.391,0.389-1.025,0-1.414l-1.586-1.586c-0.389-0.391-1.025-0.391-1.414,0&#xd;&#xa;&#x9;&#x9;l-9.586,9.586c-0.389,0.389-0.389,1.023,0,1.414l9.586,9.586c0.389,0.389,1.025,0.389,1.414,0l1.586-1.586&#xd;&#xa;&#x9;&#x9;c0.389-0.389,0.389-1.025,0-1.414L11,17h15c0.55,0,1-0.451,1-1v-2C27,13.449,26.55,13,26,13z"/>
  <rect width="30" fill="none" height="30"/>
 </g>
</svg>
