<?xml version="1.0" encoding="UTF-8" standalone="no"?>
<!-- Generator: Adobe Illustrator 15.0.0, SVG Export Plug-In . SVG Version: 6.00 Build 0)  -->

<svg
   xmlns:dc="http://purl.org/dc/elements/1.1/"
   xmlns:cc="http://creativecommons.org/ns#"
   xmlns:rdf="http://www.w3.org/1999/02/22-rdf-syntax-ns#"
   xmlns:svg="http://www.w3.org/2000/svg"
   xmlns="http://www.w3.org/2000/svg"
   xmlns:sodipodi="http://sodipodi.sourceforge.net/DTD/sodipodi-0.dtd"
   xmlns:inkscape="http://www.inkscape.org/namespaces/inkscape"
   version="1.1"
   x="0px"
   y="0px"
   width="30px"
   height="30px"
   viewBox="0 0 30 30"
   enable-background="new 0 0 30 30"
   xml:space="preserve"
   id="svg2"
   inkscape:version="0.48.2 r9819"
   sodipodi:docname="bluetooth_paired_inverted.svg"><metadata
   id="metadata23"><rdf:RDF><cc:Work
       rdf:about=""><dc:format>image/svg+xml</dc:format><dc:type
         rdf:resource="http://purl.org/dc/dcmitype/StillImage" /><dc:title></dc:title></cc:Work></rdf:RDF></metadata><defs
   id="defs21">
	

		
		
		
		
		
	</defs><sodipodi:namedview
   pagecolor="#ffffff"
   bordercolor="#666666"
   borderopacity="1"
   objecttolerance="10"
   gridtolerance="10"
   guidetolerance="10"
   inkscape:pageopacity="0"
   inkscape:pageshadow="2"
   inkscape:window-width="962"
   inkscape:window-height="770"
   id="namedview19"
   showgrid="false"
   inkscape:zoom="7.8666667"
   inkscape:cx="-4.6398305"
   inkscape:cy="15"
   inkscape:window-x="155"
   inkscape:window-y="14"
   inkscape:window-maximized="0"
   inkscape:current-layer="svg2" />


<g
   id="g3825"><path
     style="opacity:0.3"
     inkscape:connector-curvature="0"
     id="path9"
     d="M 13.98679,10.278907 8.2932227,4.5992078 V 12.293194 L 5.0655102,9.0663481 3.9690933,10.161031 l 3.9479674,3.967903 -4.0381076,4.036374 1.0981503,1.096417 3.3135191,-3.311786 v 7.717388 L 13.98679,17.984161 10.109028,14.128934 13.98679,10.278907 z M 9.842074,8.3252916 11.780955,10.258106 9.842074,12.199587 V 8.3252916 z m 2.003886,9.7186734 -2.0047528,1.999552 v -4.005171 l 2.0047528,2.005619 z" /><path
     style="opacity:0.15"
     inkscape:connector-curvature="0"
     id="path13"
     d="m 8.2906225,25.400792 c -0.1118085,0 -0.2244838,-0.02167 -0.3319586,-0.06587 C 7.6345058,25.200577 7.4238898,24.884219 7.4238898,24.534059 V 18.908098 L 5.5898835,20.741237 C 5.4208706,20.91025 5.198987,20.99519 4.9771034,20.99519 c -0.2218835,0 -0.4429004,-0.08494 -0.61278,-0.253086 L 3.2661731,19.645687 C 3.1032274,19.482741 3.0122205,19.262591 3.0122205,19.03204 c 0,-0.229684 0.091007,-0.450701 0.2539526,-0.61278 L 6.6932342,14.993933 3.3554466,11.638811 c -0.337159,-0.338893 -0.3362923,-0.886668 0.00173,-1.224694 L 4.4535969,9.319434 c 0.1690129,-0.1690129 0.3908964,-0.2530859 0.61278,-0.2530859 0.2218836,0 0.4437671,0.08494 0.61278,0.2539526 L 7.4273567,11.067634 V 5.4659405 c 0,-0.35016 0.2106161,-0.6665174 0.5347741,-0.800861 0.1057414,-0.044203 0.2184166,-0.065872 0.3310919,-0.065872 0.2253505,0 0.4463673,0.08754 0.6119133,0.253086 l 5.693567,5.6796992 c 0.162946,0.162946 0.254819,0.383963 0.254819,0.614514 0,0.23055 -0.09187,0.451567 -0.255686,0.613646 l -3.258915,3.235513 3.258915,3.240714 c 0.162946,0.162946 0.255686,0.383096 0.255686,0.613647 0,0.23055 -0.09101,0.451567 -0.254819,0.614513 l -5.6961672,5.683166 c -0.165546,0.164679 -0.3865628,0.253086 -0.6119133,0.253086 z" /><path
     style="opacity:0.15"
     inkscape:connector-curvature="0"
     id="path15"
     d="M 13.98679,11.14564 8.2932227,5.4659405 V 13.159927 L 5.0655102,9.9330808 3.9690933,11.027764 7.9170607,14.995666 3.8789531,19.03204 4.9771034,20.128457 8.2906225,16.816672 v 7.717387 L 13.98679,18.850893 10.109028,14.995666 13.98679,11.14564 z M 9.842074,9.1920243 11.780955,11.124838 9.842074,13.066319 V 9.1920243 z M 11.84596,18.910698 9.8412072,20.91025 v -4.005172 l 2.0047528,2.00562 z" /><path
     style="fill:#000000;fill-opacity:1"
     inkscape:connector-curvature="0"
     id="path17"
     d="M 13.98679,11.14564 8.2932227,5.4659405 V 13.159927 L 5.0655102,9.9330808 3.9690933,11.027764 7.9170607,14.995666 3.8789531,19.03204 4.9771034,20.128457 8.2906225,16.816672 v 7.717387 L 13.98679,18.850893 10.109028,14.995666 13.98679,11.14564 z M 9.842074,9.1920243 11.780955,11.124838 9.842074,13.066319 V 9.1920243 z M 11.84596,18.910698 9.8412072,20.91025 v -4.005172 l 2.0047528,2.00562 z" /><path
     d="M 26.121047,10.278907 20.42748,4.5992078 v 7.6939862 l -3.227713,-3.2268459 -1.096416,1.0946829 3.947967,3.967903 -4.038108,4.036374 1.098151,1.096417 3.313519,-3.311786 v 7.717388 l 5.696167,-5.683166 -3.877762,-3.855227 3.877762,-3.850027 z m -4.144716,-1.9536154 1.938881,1.9328144 -1.938881,1.941481 V 8.3252916 z m 2.003886,9.7186734 -2.004753,1.999552 v -4.005171 l 2.004753,2.005619 z"
     id="path3019"
     inkscape:connector-curvature="0"
     style="opacity:0.3" /><path
     d="m 20.42488,25.400792 c -0.111809,0 -0.224484,-0.02167 -0.331959,-0.06587 -0.324158,-0.134343 -0.534774,-0.450701 -0.534774,-0.800861 v -5.625961 l -1.834006,1.833139 c -0.169013,0.169013 -0.390897,0.253953 -0.61278,0.253953 -0.221884,0 -0.442901,-0.08494 -0.61278,-0.253086 L 15.40043,19.645687 c -0.162945,-0.162946 -0.253952,-0.383096 -0.253952,-0.613647 0,-0.229684 0.09101,-0.450701 0.253952,-0.61278 l 3.427061,-3.425327 -3.337787,-3.355122 c -0.337159,-0.338893 -0.336292,-0.886668 0.0017,-1.224694 l 1.096417,-1.094683 c 0.169013,-0.1690129 0.390897,-0.2530859 0.61278,-0.2530859 0.221884,0 0.443767,0.08494 0.61278,0.2539526 l 1.7482,1.7473333 V 5.4659405 c 0,-0.35016 0.210616,-0.6665174 0.534774,-0.800861 0.105741,-0.044203 0.218417,-0.065872 0.331092,-0.065872 0.22535,0 0.446367,0.08754 0.611913,0.253086 l 5.693567,5.6796992 c 0.162946,0.162946 0.25482,0.383963 0.25482,0.614514 0,0.23055 -0.09187,0.451567 -0.255687,0.613646 l -3.258914,3.235513 3.258914,3.240714 c 0.162946,0.162946 0.255687,0.383096 0.255687,0.613647 0,0.23055 -0.09101,0.451567 -0.25482,0.614513 l -5.696167,5.683166 c -0.165546,0.164679 -0.386563,0.253086 -0.611913,0.253086 z"
     id="path3021"
     inkscape:connector-curvature="0"
     style="opacity:0.15" /><path
     d="M 26.121047,11.14564 20.42748,5.4659405 v 7.6939865 l -3.227713,-3.2268462 -1.096416,1.0946832 3.947967,3.967902 -4.038108,4.036374 1.098151,1.096417 3.313519,-3.311785 v 7.717387 l 5.696167,-5.683166 -3.877762,-3.855227 3.877762,-3.850026 z m -4.144716,-1.9536157 1.938881,1.9328137 -1.938881,1.941481 V 9.1920243 z m 2.003886,9.7186737 -2.004753,1.999552 v -4.005172 l 2.004753,2.00562 z"
     id="path3023"
     inkscape:connector-curvature="0"
     style="opacity:0.15" /><path
     d="M 26.121047,11.14564 20.42748,5.4659405 v 7.6939865 l -3.227713,-3.2268462 -1.096416,1.0946832 3.947967,3.967902 -4.038108,4.036374 1.098151,1.096417 3.313519,-3.311785 v 7.717387 l 5.696167,-5.683166 -3.877762,-3.855227 3.877762,-3.850026 z m -4.144716,-1.9536157 1.938881,1.9328137 -1.938881,1.941481 V 9.1920243 z m 2.003886,9.7186737 -2.004753,1.999552 v -4.005172 l 2.004753,2.00562 z"
     id="path3025"
     inkscape:connector-curvature="0"
     style="fill:#000000;fill-opacity:1" /></g></svg>