<?xml version="1.0" encoding="UTF-8" standalone="no"?>
<!-- Generator: Adobe Illustrator 15.0.0, SVG Export Plug-In . SVG Version: 6.00 Build 0)  -->

<svg
   xmlns:dc="http://purl.org/dc/elements/1.1/"
   xmlns:cc="http://creativecommons.org/ns#"
   xmlns:rdf="http://www.w3.org/1999/02/22-rdf-syntax-ns#"
   xmlns:svg="http://www.w3.org/2000/svg"
   xmlns="http://www.w3.org/2000/svg"
   xmlns:sodipodi="http://sodipodi.sourceforge.net/DTD/sodipodi-0.dtd"
   xmlns:inkscape="http://www.inkscape.org/namespaces/inkscape"
   version="1.1"
   x="0px"
   y="0px"
   width="30px"
   height="30px"
   viewBox="0 0 30 30"
   enable-background="new 0 0 30 30"
   xml:space="preserve"
   id="svg2"
   inkscape:version="0.48.2 r9819"
   sodipodi:docname="bluetooth_paired.svg"><metadata
   id="metadata23"><rdf:RDF><cc:Work
       rdf:about=""><dc:format>image/svg+xml</dc:format><dc:type
         rdf:resource="http://purl.org/dc/dcmitype/StillImage" /></cc:Work></rdf:RDF></metadata><defs
   id="defs21">
	

		
		
		
		
		
	</defs><sodipodi:namedview
   pagecolor="#ffffff"
   bordercolor="#666666"
   borderopacity="1"
   objecttolerance="10"
   gridtolerance="10"
   guidetolerance="10"
   inkscape:pageopacity="0"
   inkscape:pageshadow="2"
   inkscape:window-width="962"
   inkscape:window-height="770"
   id="namedview19"
   showgrid="false"
   inkscape:zoom="7.8666667"
   inkscape:cx="-0.19067797"
   inkscape:cy="15"
   inkscape:window-x="0"
   inkscape:window-y="0"
   inkscape:window-maximized="0"
   inkscape:current-layer="svg2" />


<g
   id="g3027"
   transform="translate(-5.1567796,1.5992078)"><g
     transform="matrix(0.86673268,0,0,0.86673268,1.0886608,0.39980197)"
     id="g3011"><path
       d="M 20.831,9.553 14.262,3 v 8.877 l -3.724,-3.723 -1.265,1.263 4.555,4.578 -4.659,4.657 1.267,1.265 3.823,-3.821 V 25 l 6.572,-6.557 -4.474,-4.448 4.474,-4.442 z m -4.782,-2.254 2.237,2.23 -2.237,2.24 v -4.47 z m 2.312,11.213 -2.313,2.307 v -4.621 l 2.313,2.314 z"
       id="path9"
       inkscape:connector-curvature="0"
       style="opacity:0.3" /><path
       d="M 14.259,27 C 14.13,27 14,26.975 13.876,26.924 13.502,26.769 13.259,26.404 13.259,26 v -6.491 l -2.116,2.115 c -0.195,0.195 -0.451,0.293 -0.707,0.293 -0.256,0 -0.511,-0.098 -0.707,-0.292 L 8.462,20.36 C 8.274,20.172 8.169,19.918 8.169,19.652 c 0,-0.265 0.105,-0.52 0.293,-0.707 L 12.416,14.993 8.565,11.122 C 8.176,10.731 8.177,10.099 8.567,9.709 L 9.832,8.446 c 0.195,-0.195 0.451,-0.292 0.707,-0.292 0.256,0 0.512,0.098 0.707,0.293 l 2.017,2.016 V 4 c 0,-0.404 0.243,-0.769 0.617,-0.924 C 14.002,3.025 14.132,3 14.262,3 c 0.26,0 0.515,0.101 0.706,0.292 l 6.569,6.553 c 0.188,0.188 0.294,0.443 0.294,0.709 0,0.266 -0.106,0.521 -0.295,0.708 l -3.76,3.733 3.76,3.739 c 0.188,0.188 0.295,0.442 0.295,0.708 0,0.266 -0.105,0.521 -0.294,0.709 l -6.572,6.557 C 14.774,26.898 14.519,27 14.259,27 z"
       id="path13"
       inkscape:connector-curvature="0"
       style="opacity:0.15" /><path
       d="M 20.831,10.553 14.262,4 v 8.877 l -3.724,-3.723 -1.265,1.263 4.555,4.578 -4.659,4.657 1.267,1.265 3.823,-3.821 V 26 l 6.572,-6.557 -4.474,-4.448 4.474,-4.442 z m -4.782,-2.254 2.237,2.23 -2.237,2.24 v -4.47 z m 2.312,11.213 -2.313,2.307 v -4.621 l 2.313,2.314 z"
       id="path15"
       inkscape:connector-curvature="0"
       style="opacity:0.15" /><path
       d="M 20.831,10.553 14.262,4 v 8.877 l -3.724,-3.723 -1.265,1.263 4.555,4.578 -4.659,4.657 1.267,1.265 3.823,-3.821 V 26 l 6.572,-6.557 -4.474,-4.448 4.474,-4.442 z m -4.782,-2.254 2.237,2.23 -2.237,2.24 v -4.47 z m 2.312,11.213 -2.313,2.307 v -4.621 l 2.313,2.314 z"
       id="path17"
       inkscape:connector-curvature="0"
       style="fill:#ffffff" /></g><g
     transform="matrix(0.86673268,0,0,0.86673268,13.222918,0.39980197)"
     id="g3017"><path
       style="opacity:0.3"
       inkscape:connector-curvature="0"
       id="path3019"
       d="M 20.831,9.553 14.262,3 v 8.877 l -3.724,-3.723 -1.265,1.263 4.555,4.578 -4.659,4.657 1.267,1.265 3.823,-3.821 V 25 l 6.572,-6.557 -4.474,-4.448 4.474,-4.442 z m -4.782,-2.254 2.237,2.23 -2.237,2.24 v -4.47 z m 2.312,11.213 -2.313,2.307 v -4.621 l 2.313,2.314 z" /><path
       style="opacity:0.15"
       inkscape:connector-curvature="0"
       id="path3021"
       d="M 14.259,27 C 14.13,27 14,26.975 13.876,26.924 13.502,26.769 13.259,26.404 13.259,26 v -6.491 l -2.116,2.115 c -0.195,0.195 -0.451,0.293 -0.707,0.293 -0.256,0 -0.511,-0.098 -0.707,-0.292 L 8.462,20.36 C 8.274,20.172 8.169,19.918 8.169,19.652 c 0,-0.265 0.105,-0.52 0.293,-0.707 L 12.416,14.993 8.565,11.122 C 8.176,10.731 8.177,10.099 8.567,9.709 L 9.832,8.446 c 0.195,-0.195 0.451,-0.292 0.707,-0.292 0.256,0 0.512,0.098 0.707,0.293 l 2.017,2.016 V 4 c 0,-0.404 0.243,-0.769 0.617,-0.924 C 14.002,3.025 14.132,3 14.262,3 c 0.26,0 0.515,0.101 0.706,0.292 l 6.569,6.553 c 0.188,0.188 0.294,0.443 0.294,0.709 0,0.266 -0.106,0.521 -0.295,0.708 l -3.76,3.733 3.76,3.739 c 0.188,0.188 0.295,0.442 0.295,0.708 0,0.266 -0.105,0.521 -0.294,0.709 l -6.572,6.557 C 14.774,26.898 14.519,27 14.259,27 z" /><path
       style="opacity:0.15"
       inkscape:connector-curvature="0"
       id="path3023"
       d="M 20.831,10.553 14.262,4 v 8.877 l -3.724,-3.723 -1.265,1.263 4.555,4.578 -4.659,4.657 1.267,1.265 3.823,-3.821 V 26 l 6.572,-6.557 -4.474,-4.448 4.474,-4.442 z m -4.782,-2.254 2.237,2.23 -2.237,2.24 v -4.47 z m 2.312,11.213 -2.313,2.307 v -4.621 l 2.313,2.314 z" /><path
       style="fill:#ffffff"
       inkscape:connector-curvature="0"
       id="path3025"
       d="M 20.831,10.553 14.262,4 v 8.877 l -3.724,-3.723 -1.265,1.263 4.555,4.578 -4.659,4.657 1.267,1.265 3.823,-3.821 V 26 l 6.572,-6.557 -4.474,-4.448 4.474,-4.442 z m -4.782,-2.254 2.237,2.23 -2.237,2.24 v -4.47 z m 2.312,11.213 -2.313,2.307 v -4.621 l 2.313,2.314 z" /></g></g></svg>