<?xml version="1.0" encoding="UTF-8" standalone="no"?>
<!-- Created with Inkscape (http://www.inkscape.org/) -->

<svg
   xmlns:dc="http://purl.org/dc/elements/1.1/"
   xmlns:cc="http://creativecommons.org/ns#"
   xmlns:rdf="http://www.w3.org/1999/02/22-rdf-syntax-ns#"
   xmlns:svg="http://www.w3.org/2000/svg"
   xmlns="http://www.w3.org/2000/svg"
   xmlns:sodipodi="http://sodipodi.sourceforge.net/DTD/sodipodi-0.dtd"
   xmlns:inkscape="http://www.inkscape.org/namespaces/inkscape"
   width="30"
   height="30"
   id="svg3765"
   version="1.1"
   inkscape:version="0.48.2 r9819"
   sodipodi:docname="chart_inverted.svg">
  <defs
     id="defs3767">
    <inkscape:path-effect
       effect="skeletal"
       id="path-effect3777"
       is_visible="true"
       pattern="M 0,5 10,10 10,0 z"
       copytype="single_stretched"
       prop_scale="1"
       scale_y_rel="false"
       spacing="0"
       normal_offset="0"
       tang_offset="0"
       prop_units="false"
       vertical_pattern="false"
       fuse_tolerance="0" />
  </defs>
  <sodipodi:namedview
     id="base"
     pagecolor="#ffffff"
     bordercolor="#666666"
     borderopacity="1.0"
     inkscape:pageopacity="0"
     inkscape:pageshadow="2"
     inkscape:zoom="25.933333"
     inkscape:cx="9.0424165"
     inkscape:cy="15"
     inkscape:document-units="px"
     inkscape:current-layer="layer3"
     showgrid="false"
     inkscape:window-width="1920"
     inkscape:window-height="955"
     inkscape:window-x="-4"
     inkscape:window-y="-4"
     inkscape:window-maximized="1" />
  <metadata
     id="metadata3770">
    <rdf:RDF>
      <cc:Work
         rdf:about="">
        <dc:format>image/svg+xml</dc:format>
        <dc:type
           rdf:resource="http://purl.org/dc/dcmitype/StillImage" />
        <dc:title />
      </cc:Work>
    </rdf:RDF>
  </metadata>
  <g
     inkscape:groupmode="layer"
     id="layer2"
     inkscape:label="Shadow"
     style="display:inline"
     transform="translate(0,-30)"
     sodipodi:insensitive="true">
    <path
       sodipodi:type="arc"
       style="fill:none;stroke:#000000;stroke-width:1.67758811;stroke-linecap:round;stroke-linejoin:round;stroke-miterlimit:4;stroke-opacity:0.23529412;stroke-dasharray:none"
       id="path3794"
       sodipodi:cx="22.727272"
       sodipodi:cy="25.212122"
       sodipodi:rx="13.757576"
       sodipodi:ry="11.030303"
       d="m 36.484848,25.212122 c 0,6.091868 -6.159477,11.030303 -13.757576,11.030303 -7.598099,0 -13.757576,-4.938435 -13.757576,-11.030303 0,-6.091868 6.159477,-11.030303 13.757576,-11.030303 0.800892,0 1.600254,0.05607 2.388978,0.167575 l -2.388978,10.862728 z"
       transform="matrix(0.82755186,0,0,1.0321664,-6.1048864,20.371415)"
       sodipodi:start="0"
       sodipodi:end="4.8869219" />
    <path
       sodipodi:type="arc"
       style="fill:none;stroke:#000000;stroke-width:1.67758811;stroke-linecap:round;stroke-linejoin:round;stroke-miterlimit:4;stroke-opacity:0.23529412;stroke-dasharray:none"
       id="path3794-1"
       sodipodi:cx="22.727272"
       sodipodi:cy="25.212122"
       sodipodi:rx="13.757576"
       sodipodi:ry="11.030303"
       d="m 25.11625,14.349394 c 6.575034,0.929528 11.368598,5.509792 11.368598,10.862728 l -13.757576,0 z"
       transform="matrix(0.82755186,0,0,1.0321664,-1.5249524,16.355362)"
       sodipodi:start="4.8869219"
       sodipodi:end="6.2831853" />
    <path
       sodipodi:end="4.8869219"
       sodipodi:start="0"
       transform="matrix(0.82755186,0,0,1.0321664,-6.1048864,20.371415)"
       d="m 36.484848,25.212122 c 0,6.091868 -6.159477,11.030303 -13.757576,11.030303 -7.598099,0 -13.757576,-4.938435 -13.757576,-11.030303 0,-6.091868 6.159477,-11.030303 13.757576,-11.030303 0.800892,0 1.600254,0.05607 2.388978,0.167575 l -2.388978,10.862728 z"
       sodipodi:ry="11.030303"
       sodipodi:rx="13.757576"
       sodipodi:cy="25.212122"
       sodipodi:cx="22.727272"
       id="path2985"
       style="fill:none;stroke:#000000;stroke-width:1.67758811;stroke-linecap:round;stroke-linejoin:round;stroke-miterlimit:4;stroke-opacity:0.23529412;stroke-dasharray:none"
       sodipodi:type="arc" />
    <path
       sodipodi:end="6.2831853"
       sodipodi:start="4.8869219"
       transform="matrix(0.82755186,0,0,1.0321664,-1.5249524,16.355362)"
       d="m 25.11625,14.349394 c 6.575034,0.929528 11.368598,5.509792 11.368598,10.862728 l -13.757576,0 z"
       sodipodi:ry="11.030303"
       sodipodi:rx="13.757576"
       sodipodi:cy="25.212122"
       sodipodi:cx="22.727272"
       id="path2987"
       style="fill:none;stroke:#000000;stroke-width:1.67758811;stroke-linecap:round;stroke-linejoin:round;stroke-miterlimit:4;stroke-opacity:0.23529412;stroke-dasharray:none"
       sodipodi:type="arc" />
  </g>
  <g
     inkscape:groupmode="layer"
     id="layer4"
     inkscape:label="Glow"
     style="display:inline"
     transform="translate(0,-30)"
     sodipodi:insensitive="true">
    <path
       sodipodi:type="inkscape:offset"
       inkscape:radius="0.66218096"
       inkscape:original="M 22.71875 14.1875 C 15.120651 14.1875 8.96875 19.126882 8.96875 25.21875 C 8.96875 31.310618 15.120651 36.25 22.71875 36.25 C 30.316849 36.25 36.5 31.310618 36.5 25.21875 L 22.71875 25.21875 L 25.125 14.34375 C 24.336276 14.232246 23.519642 14.1875 22.71875 14.1875 z "
       style="fill:none;stroke:#000000;stroke-width:1.67758811;stroke-linecap:round;stroke-linejoin:round;stroke-miterlimit:4;stroke-opacity:0.14901961;stroke-dasharray:none"
       id="path3867"
       d="m 22.71875,13.53125 c -7.88508,0 -14.40625,5.149828 -14.40625,11.6875 0,6.537672 6.52117,11.6875 14.40625,11.6875 7.88508,0 14.4375,-5.147563 14.4375,-11.6875 A 0.66224718,0.66224718 0 0 0 36.5,24.5625 l -12.9375,0 L 25.78125,14.5 a 0.66224718,0.66224718 0 0 0 -0.5625,-0.8125 c -0.82714,-0.116935 -1.674444,-0.15625 -2.5,-0.15625 z"
       transform="matrix(0.82755186,0,0,1.0321664,-6.1048864,21.037022)" />
    <path
       sodipodi:type="inkscape:offset"
       inkscape:radius="0.66218096"
       inkscape:original="M 25.125 14.34375 L 22.71875 25.21875 L 36.5 25.21875 C 36.5 19.865814 31.700034 15.273278 25.125 14.34375 z "
       style="fill:none;stroke:#000000;stroke-width:1.67758811;stroke-linecap:round;stroke-linejoin:round;stroke-miterlimit:4;stroke-opacity:0.14901961;stroke-dasharray:none"
       id="path3865"
       d="m 25.03125,13.6875 a 0.66224718,0.66224718 0 0 0 -0.5625,0.5 l -2.40625,10.875 a 0.66224718,0.66224718 0 0 0 0.65625,0.8125 l 13.78125,0 a 0.66224718,0.66224718 0 0 0 0.65625,-0.65625 c 0,-5.748787 -5.107365,-10.565658 -11.9375,-11.53125 a 0.66224718,0.66224718 0 0 0 -0.1875,0 z"
       transform="matrix(0.82755186,0,0,1.0321664,-1.5249524,17.020968)" />
  </g>
  <g
     inkscape:groupmode="layer"
     id="layer3"
     inkscape:label="Icon"
     style="display:inline"
     transform="translate(0,-30)">
    <path
       sodipodi:type="arc"
       style="fill:none;stroke:#ffffff;stroke-width:1.67758811;stroke-linecap:round;stroke-linejoin:round;stroke-miterlimit:4;stroke-opacity:1;stroke-dasharray:none"
       id="path3794-17"
       sodipodi:cx="22.727272"
       sodipodi:cy="25.212122"
       sodipodi:rx="13.757576"
       sodipodi:ry="11.030303"
       d="M 36.484848,25.212122 A 13.757576,11.030303 0 1 1 25.11625,14.349394 l -2.388978,10.862728 z"
       transform="matrix(0.82755186,0,0,1.0321664,-6.1048864,21.037022)"
       sodipodi:start="0"
       sodipodi:end="4.8869219" />
    <path
       sodipodi:type="arc"
       style="fill:none;stroke:#ffffff;stroke-width:1.67758811;stroke-linecap:round;stroke-linejoin:round;stroke-miterlimit:4;stroke-opacity:1;stroke-dasharray:none"
       id="path3794-1-4"
       sodipodi:cx="22.727272"
       sodipodi:cy="25.212122"
       sodipodi:rx="13.757576"
       sodipodi:ry="11.030303"
       d="m 25.11625,14.349394 a 13.757576,11.030303 0 0 1 11.368598,10.862728 l -13.757576,0 z"
       transform="matrix(0.82755186,0,0,1.0321664,-1.5249524,17.020968)"
       sodipodi:start="4.8869219"
       sodipodi:end="6.2831853" />
    <path
       sodipodi:end="4.8869219"
       sodipodi:start="0"
       transform="matrix(0.82755186,0,0,1.0321664,-6.1048864,21.037022)"
       d="M 36.484848,25.212122 A 13.757576,11.030303 0 1 1 25.11625,14.349394 l -2.388978,10.862728 z"
       sodipodi:ry="11.030303"
       sodipodi:rx="13.757576"
       sodipodi:cy="25.212122"
       sodipodi:cx="22.727272"
       id="path2985-0"
       style="fill:none;stroke:#000000;stroke-width:1.67758811000000010;stroke-linecap:round;stroke-linejoin:round;stroke-miterlimit:4;stroke-opacity:1;stroke-dasharray:none"
       sodipodi:type="arc" />
    <path
       sodipodi:end="6.2831853"
       sodipodi:start="4.8869219"
       transform="matrix(0.82755186,0,0,1.0321664,-1.5249524,17.020968)"
       d="m 25.11625,14.349394 a 13.757576,11.030303 0 0 1 11.368598,10.862728 l -13.757576,0 z"
       sodipodi:ry="11.030303"
       sodipodi:rx="13.757576"
       sodipodi:cy="25.212122"
       sodipodi:cx="22.727272"
       id="path2987-9"
       style="fill:none;stroke:#000000;stroke-width:1.67758811000000010;stroke-linecap:round;stroke-linejoin:round;stroke-miterlimit:4;stroke-opacity:1;stroke-dasharray:none"
       sodipodi:type="arc" />
  </g>
</svg>
