<?xml version="1.0" encoding="UTF-8" standalone="no"?>
<!-- Converted with SVG Converter - Version 0.9.5 (Compiled Mon May 30 09:08:51 2011) - Copyright (C) 2011 Nokia -->

<svg
   xmlns:dc="http://purl.org/dc/elements/1.1/"
   xmlns:cc="http://creativecommons.org/ns#"
   xmlns:rdf="http://www.w3.org/1999/02/22-rdf-syntax-ns#"
   xmlns:svg="http://www.w3.org/2000/svg"
   xmlns="http://www.w3.org/2000/svg"
   xmlns:sodipodi="http://sodipodi.sourceforge.net/DTD/sodipodi-0.dtd"
   xmlns:inkscape="http://www.inkscape.org/namespaces/inkscape"
   width="30px"
   x="0px"
   version="1.1"
   y="0px"
   height="30px"
   viewBox="0 0 30 30"
   xml:space="preserve"
   id="svg2"
   inkscape:version="0.48.2 r9819"
   sodipodi:docname="close_stop_inverted.svg"><metadata
   id="metadata23"><rdf:RDF><cc:Work
       rdf:about=""><dc:format>image/svg+xml</dc:format><dc:type
         rdf:resource="http://purl.org/dc/dcmitype/StillImage" /></cc:Work></rdf:RDF></metadata><defs
   id="defs21">
  
 
   
   
   
   
   
  </defs><sodipodi:namedview
   pagecolor="#ffffff"
   bordercolor="#666666"
   borderopacity="1"
   objecttolerance="10"
   gridtolerance="10"
   guidetolerance="10"
   inkscape:pageopacity="0"
   inkscape:pageshadow="2"
   inkscape:window-width="675"
   inkscape:window-height="480"
   id="namedview19"
   showgrid="false"
   inkscape:zoom="7.8666667"
   inkscape:cx="15"
   inkscape:cy="15"
   inkscape:window-x="0"
   inkscape:window-y="0"
   inkscape:window-maximized="0"
   inkscape:current-layer="svg2" />
 <g
   id="DO_NOT_EDIT_-_BOUNDING_BOX">
  <rect
   width="30"
   fill="none"
   height="30"
   id="BOUNDING_BOX" />
 </g>
 <path
   d="m 18.654,14 8.043,-8.042 c 0.404,-0.403 0.404,-1.06 0,-1.462 L 24.504,2.303 C 24.1,1.899 23.445,1.899 23.043,2.303 L 15,10.344 6.959,2.303 C 6.555,1.899 5.9,1.899 5.496,2.303 L 3.303,4.496 c -0.404,0.402 -0.404,1.059 0,1.462 L 11.346,14 3.303,22.041 c -0.404,0.404 -0.404,1.059 0,1.463 l 2.193,2.193 c 0.404,0.404 1.059,0.404 1.463,0 L 15,17.654 l 8.043,8.043 c 0.402,0.404 1.057,0.404 1.461,0 l 2.193,-2.193 c 0.404,-0.404 0.404,-1.059 0,-1.463 L 18.654,14 z"
   id="path9"
   inkscape:connector-curvature="0"
   style="fill-opacity:0.3;stroke-opacity:0.3" /><path
   d="m 23.772,28.001 c -0.544,0 -1.055,-0.213 -1.438,-0.599 L 15,20.068 7.666,27.404 c -0.384,0.385 -0.895,0.597 -1.438,0.597 -0.543,0 -1.054,-0.212 -1.438,-0.597 L 2.597,25.211 c -0.793,-0.793 -0.793,-2.084 0,-2.877 L 9.931,15 2.596,7.665 C 2.211,7.282 1.999,6.77 2,6.226 2.001,5.682 2.212,5.17 2.597,4.787 L 4.789,2.596 C 5.173,2.211 5.684,2 6.228,2 6.772,2 7.282,2.212 7.666,2.596 L 15,9.93 22.336,2.596 C 22.718,2.212 23.229,2 23.772,2 c 0.543,0 1.054,0.212 1.438,0.596 l 2.193,2.193 c 0.385,0.381 0.597,0.892 0.598,1.437 0,0.544 -0.212,1.056 -0.598,1.44 L 20.068,15 l 7.336,7.334 c 0.793,0.793 0.793,2.084 0,2.877 l -2.193,2.193 c -0.385,0.385 -0.896,0.597 -1.439,0.597 z"
   id="path11"
   inkscape:connector-curvature="0"
   style="fill-opacity:0.15;stroke-opacity:0.15" /><path
   d="m 18.654,15 8.043,-8.042 c 0.404,-0.403 0.404,-1.06 0,-1.462 L 24.504,3.303 C 24.1,2.899 23.445,2.899 23.043,3.303 L 15,11.344 6.959,3.303 C 6.555,2.899 5.9,2.899 5.496,3.303 L 3.303,5.496 c -0.404,0.402 -0.404,1.059 0,1.462 L 11.346,15 3.303,23.041 c -0.404,0.404 -0.404,1.059 0,1.463 l 2.193,2.193 c 0.404,0.404 1.059,0.404 1.463,0 L 15,18.654 l 8.043,8.043 c 0.402,0.404 1.057,0.404 1.461,0 l 2.193,-2.193 c 0.404,-0.404 0.404,-1.059 0,-1.463 L 18.654,15 z"
   id="path13"
   inkscape:connector-curvature="0"
   style="fill-opacity:0.15;stroke-opacity:0.15" /><path
   d="m 18.654,15 8.043,-8.042 c 0.404,-0.403 0.404,-1.06 0,-1.462 L 24.504,3.303 C 24.1,2.899 23.445,2.899 23.043,3.303 L 15,11.344 6.959,3.303 C 6.555,2.899 5.9,2.899 5.496,3.303 L 3.303,5.496 c -0.404,0.402 -0.404,1.059 0,1.462 L 11.346,15 3.303,23.041 c -0.404,0.404 -0.404,1.059 0,1.463 l 2.193,2.193 c 0.404,0.404 1.059,0.404 1.463,0 L 15,18.654 l 8.043,8.043 c 0.402,0.404 1.057,0.404 1.461,0 l 2.193,-2.193 c 0.404,-0.404 0.404,-1.059 0,-1.463 L 18.654,15 z"
   id="path15"
   inkscape:connector-curvature="0"
   style="fill:#000000;fill-opacity:1" /><rect
   width="30"
   height="30"
   id="rect17"
   x="0"
   y="0"
   style="fill:none" />
</svg>