<?xml version="1.0"?>
<!-- Converted with SVG Converter - Version 0.9.5 (Compiled Mon May 30 09:08:51 2011) - Copyright (C) 2011 Nokia -->
<svg xmlns="http://www.w3.org/2000/svg" width="64" version="1.1" height="64" xmlns:xlink="http://www.w3.org/1999/xlink" baseProfile="tiny" id="svg2">
 <defs id="defs4">
  <linearGradient id="linearGradient4354-9" y1="13.241934" x1="32.258224" y2="50.758102" x2="32.517971" gradientUnits="userSpaceOnUse">
   <stop offset="0" style="stop-color:#ffffff;stop-opacity:1;" id="stop4348-8"/>
   <stop offset="1" style="stop-color:#ffffff;stop-opacity:0;" id="stop4350-8"/>
  </linearGradient>
  <linearGradient id="linearGradient4346-4">
   <stop offset="0" style="stop-color:#ffffff;stop-opacity:1;" id="stop4348-8"/>
   <stop offset="1" style="stop-color:#ffffff;stop-opacity:0;" id="stop4350-8"/>
  </linearGradient>
  <linearGradient id="linearGradient4371" y1="13.241934" y2="50.758102" x1="32.258224" x2="32.517971" gradientUnits="userSpaceOnUse">
   <stop offset="0" style="stop-color:#ffffff;stop-opacity:1;" id="stop4348-8"/>
   <stop offset="1" style="stop-color:#ffffff;stop-opacity:0;" id="stop4350-8"/>
  </linearGradient>
  <linearGradient id="linearGradient4407" y1="56.824329" x1="32.699635" y2="3.266762" x2="31.817829" gradientUnits="userSpaceOnUse">
   <stop offset="0" style="stop-color:#ffffff;stop-opacity:1;" id="stop4348-8"/>
   <stop offset="1" style="stop-color:#ffffff;stop-opacity:0;" id="stop4350-8"/>
  </linearGradient>
  <linearGradient id="linearGradient4425" y1="56.824329" x1="32.699635" y2="3.266762" gradientUnits="userSpaceOnUse" x2="31.817829">
   <stop offset="0" style="stop-color:#ffffff;stop-opacity:1;" id="stop4348-8"/>
   <stop offset="1" style="stop-color:#ffffff;stop-opacity:0;" id="stop4350-8"/>
  </linearGradient>
 </defs>
 <metadata id="metadata7"/>
 <g style="display:inline" id="layer1" transform="translate(0,-988.36218)">
  <path style="fill:#000000;fill-opacity:0.90196078;fill-rule:nonzero;stroke:none" id="path2985" d="m 48.743433,30.383839  c 0.0022 12.8548 -10.2443 23.2768 -22.8848 23.2768 c -12.6405 0.0000 -22.8871 -10.4220 -22.8848 -23.2768 c -0.0022 -12.8548 10.2443 -23.2768 22.8848 -23.2768 c 12.6405 -0.0000 22.8871 10.4220 22.8848 23.2768 z" transform="matrix(1.3109111,0,0,1.2890625,-1.8983057,981.19551)"/>
  <path style="fill:none;fill-opacity:0.90196078000000002;fill-rule:nonzero;stroke:#ffffff;display:inline;stroke-opacity:1;stroke-width:3.07706297;stroke-miterlimit:4;stroke-dasharray:none" id="path2985-1" d="m 48.743433,30.383839  c 0.0022 12.8548 -10.2443 23.2768 -22.8848 23.2768 c -12.6405 0.0000 -22.8871 -10.4220 -22.8848 -23.2768 c -0.0022 -12.8548 10.2443 -23.2768 22.8848 -23.2768 c 12.6405 -0.0000 22.8871 10.4220 22.8848 23.2768 z" transform="matrix(1.3109111,0,0,1.2890625,-1.8983057,981.19551)"/>
 </g>
 <g style="display:inline" id="layer2">
  <path style="fill:#ffffff;fill-opacity:1;fill-rule:nonzero;stroke:none" id="rect2987-1-7" d="m 14.322324,14.32232 c 1.958685,-1.9587 5.112382,-1.9587 7.071082,0 l 28.284271,28.2843 c 1.958686,1.9587 1.958686,5.1124 0,7.0711 -1.958686,1.9587 -5.112382,1.9587 -7.071068,0 L 14.322338,21.39342 c -1.9587,-1.9587 -1.9587,-5.1124 -1.4e-5,-7.0711 z m 1.5e-5,28.2843 28.284271,-28.2843 c 1.958686,-1.9587 5.112382,-1.9587 7.071068,0 1.958685,1.9587 1.958685,5.1124 0,7.0711 l -28.284272,28.2843 c -1.958685,1.9587 -5.112382,1.9587 -7.071067,0 -1.958686,-1.9587 -1.958686,-5.1124 0,-7.0711 z"/>
 </g>
 <g style="display:none" id="layer4">
  <path style="fill:url(#linearGradient4425);fill-opacity:1;fill-rule:nonzero;stroke:none;display:inline" id="path4423" d="m 17.84375,12.09375 c -1.462343,0 -2.911838,0.599329 -4.03125,1.71875 -2.239259,2.239275 -2.239277,5.854473 0,8.09375 l 9.90625,9.90625  c 0.0320 0.0351 0.0536 0.0784 0.0625 0.1250 c 0.0162 0.0508 0.0162 0.1054 -0.0000 0.1562 c -0.0137 0.0355 -0.0350 0.0675 -0.0625 0.0937 l -9.90625,9.90625 c -2.239261,2.239277 -2.239261,5.854473 0,8.09375 2.239265,2.239282 5.854485,2.239282 8.09375,0 l 9.90625,-9.90625 a 0.25752872,0.25752872 0 0 1 0.125,-0.0625 0.25752872,0.25752872 0 0 1 0.15625,0 0.25752872,0.25752872 0 0 1 0.09375,0.0625 l 9.90625,9.90625 c 2.239266,2.239282 5.854484,2.239282 8.09375,0 2.239261,-2.239277 2.239261,-5.854473 0,-8.09375 L 40.28125,32.1875 a 0.25752872,0.25752872 0 0 1 -0.0625,-0.125 0.25752872,0.25752872 0 0 1 0,-0.15625 0.25752872,0.25752872 0 0 1 0.0625,-0.09375 l 9.90625,-9.90625 c 2.23926,-2.239277 2.23926,-5.854473 0,-8.09375 -2.239266,-2.239282 -5.854484,-2.239282 -8.09375,0 l -9.90625,9.90625 a 0.25752872,0.25752872 0 0 1 -0.125,0.0625 0.25752872,0.25752872 0 0 1 -0.15625,0 0.25752872,0.25752872 0 0 1 -0.09375,-0.0625 L 21.90625,13.8125 c -1.12556,-1.12556 -2.599322,-1.71875 -4.0625,-1.71875 z"/>
 </g>
</svg>
