<?xml version="1.0" encoding="UTF-8" standalone="no"?>
<!-- Converted with SVG Converter - Version 0.9.5 (Compiled Mon May 30 09:08:51 2011) - Copyright (C) 2011 Nokia -->

<svg
   xmlns:dc="http://purl.org/dc/elements/1.1/"
   xmlns:cc="http://creativecommons.org/ns#"
   xmlns:rdf="http://www.w3.org/1999/02/22-rdf-syntax-ns#"
   xmlns:svg="http://www.w3.org/2000/svg"
   xmlns="http://www.w3.org/2000/svg"
   xmlns:sodipodi="http://sodipodi.sourceforge.net/DTD/sodipodi-0.dtd"
   xmlns:inkscape="http://www.inkscape.org/namespaces/inkscape"
   width="30"
   version="1.1"
   height="30"
   id="svg3836"
   inkscape:version="0.48.2 r9819"
   sodipodi:docname="cloud_add.svg">
  <sodipodi:namedview
     pagecolor="#ffffff"
     bordercolor="#666666"
     borderopacity="1"
     objecttolerance="10"
     gridtolerance="10"
     guidetolerance="10"
     inkscape:pageopacity="0"
     inkscape:pageshadow="2"
     inkscape:window-width="1920"
     inkscape:window-height="1032"
     id="namedview9"
     showgrid="false"
     inkscape:zoom="27.133333"
     inkscape:cx="2.2297297"
     inkscape:cy="14.594595"
     inkscape:window-x="0"
     inkscape:window-y="0"
     inkscape:window-maximized="0"
     inkscape:current-layer="svg3836" />
  <defs
     id="defs3838" />
  <metadata
     id="metadata3841">
    <rdf:RDF>
      <cc:Work
         rdf:about="">
        <dc:format>image/svg+xml</dc:format>
        <dc:type
           rdf:resource="http://purl.org/dc/dcmitype/StillImage" />
        <dc:title />
      </cc:Work>
    </rdf:RDF>
  </metadata>
  <path
     style="fill:#ffffff;fill-opacity:1;stroke:#000000;stroke-width:0.7590906;stroke-opacity:1;display:inline"
     d="M 9.6521278,24.537027 C 4.4674204,24.491656 4.7531231,24.519234 3.6347541,23.956034 2.4113118,23.33992 1.5316328,22.436062 0.96273308,21.210573 0.58457311,20.395973 0.4306394,19.681448 0.4306394,18.740775 c 0,-1.556112 0.51965598,-2.881087 1.5749946,-4.015784 0.6634521,-0.713342 1.7480446,-1.367995 2.6647444,-1.608427 L 5.154493,12.98959 5.160713,12.456749 c 0.025483,-2.187393 2.0786604,-3.8861713 4.2474491,-3.5142655 0.5666217,0.097165 1.2062199,0.3512623 1.5348469,0.60976 l 0.191439,0.1505869 0.186553,-0.3508578 c 0.77708,-1.4614863 1.928722,-2.5543399 3.432886,-3.2576473 2.40467,-1.1243589 5.350455,-0.8100696 7.431957,0.7929233 1.694298,1.3048032 2.670075,3.0935183 2.87931,5.2781204 l 0.08891,0.928331 0.416646,0.120389 c 0.229155,0.06622 0.670705,0.252233 0.981228,0.413377 3.670674,1.904903 4.210926,6.908531 1.03656,9.600448 -0.591647,0.501728 -1.289576,0.873057 -2.1281,1.132243 l -0.677501,0.209413 -5.231781,0.0042 c -2.877485,0.0023 -7.332027,-0.01423 -9.8989883,-0.03669 z"
     id="path4967" />
  <path
     style="fill:#ffffff;fill-opacity:1;stroke:#000000;stroke-width:0.75909059999999984;stroke-opacity:1"
     d="M 9.6521278,24.537027 C 4.4674204,24.491656 4.7531231,24.519234 3.6347541,23.956034 2.4113118,23.33992 1.5316328,22.436062 0.96273308,21.210573 0.58457311,20.395973 0.4306394,19.681448 0.4306394,18.740775 c 0,-1.556112 0.51965598,-2.881087 1.5749946,-4.015784 0.6634521,-0.713342 1.7480446,-1.367995 2.6647444,-1.608427 L 5.154493,12.98959 5.160713,12.456749 c 0.025483,-2.187393 2.0786604,-3.8861713 4.2474491,-3.5142655 0.5666217,0.097165 1.2062199,0.3512623 1.5348469,0.60976 l 0.191439,0.1505869 0.186553,-0.3508578 c 0.77708,-1.4614863 1.928722,-2.5543399 3.432886,-3.2576473 2.40467,-1.1243589 5.350455,-0.8100696 7.431957,0.7929233 1.694298,1.3048032 2.670075,3.0935183 2.87931,5.2781204 l 0.08891,0.928331 0.416646,0.120389 c 0.229155,0.06622 0.670705,0.252233 0.981228,0.413377 3.670674,1.904903 4.210926,6.908531 1.03656,9.600448 -0.591647,0.501728 -1.289576,0.873057 -2.1281,1.132243 l -0.677501,0.209413 -5.231781,0.0042 c -2.877485,0.0023 -7.332027,-0.01423 -9.8989883,-0.03669 z"
     id="path3766" />
  <path
     style="fill:#ffffff;fill-opacity:1;stroke:#000000;stroke-width:0.75909059999999984;stroke-opacity:1"
     d="m 25.218511,24.031391 c 0.992845,-0.282867 1.736484,-0.719852 2.465333,-1.448702 0.932205,-0.932204 1.409529,-1.90983 1.581767,-3.239694 0.133412,-1.030054 -0.169676,-2.403894 -0.738865,-3.349125 -0.357036,-0.592917 -1.125664,-1.38815 -1.709129,-1.768293 -0.396704,-0.258463 -1.678575,-0.804355 -1.733404,-0.73818 -0.0098,0.01188 -0.04831,0.153941 -0.08549,0.315699 -0.04243,0.184585 -0.114869,0.301042 -0.194533,0.312735 -0.114529,0.01681 -0.126719,-0.09654 -0.124717,-1.159796 0.0019,-1.01411 -0.02366,-1.278143 -0.183533,-1.893562 C 24.176297,9.8319031 23.624237,8.8197188 22.803252,7.9590026 20.312151,5.3473414 16.283663,5.080329 13.473896,7.3406436 c -0.887758,0.7141555 -1.509033,1.5329517 -2.043811,2.6936054 -0.329509,0.715154 -0.512669,0.830925 -0.479994,0.303395 0.01708,-0.275639 -0.0047,-0.309606 -0.33875,-0.5282813 C 9.313275,8.9595995 7.6348315,9.1350306 6.518689,10.237129 c -0.6492077,0.641039 -0.9668765,1.374804 -0.9683704,2.236797 -9.109e-4,0.42057 0.015167,0.470483 0.1497427,0.470483 0.096882,0 0.150555,0.05018 0.150555,0.140773 0,0.105087 -0.090642,0.163647 -0.3575689,0.231015 -1.7953047,0.453102 -2.740059,1.010319 -3.5685526,2.104736 -2.56026008,3.382024 -0.4709208,8.306438 3.700289,8.721306 0.310519,0.03088 4.7142492,0.05615 9.7860712,0.05615 l 9.221488,0 0.586168,-0.167001 z"
     id="path4907" />
  <g
     id="layer2"
     transform="matrix(0.58329169,0,0,0.58329169,1.0006685,0.99653411)">
    <g
       id="g3779"
       transform="translate(-1.920287,2)">
      <path
         style="fill:#000000;fill-opacity:1"
         id="path5072"
         d="m 27.85914,22.487101 5.3e-4,-8.535412 c 5.31e-4,-0.42823 -0.348102,-0.776864 -0.775802,-0.775802 l -2.327405,0 c -0.428761,0 -0.776333,0.347572 -0.775272,0.775271 l -10e-4,8.534883 -8.53382,0 c -0.428761,0 -0.776333,0.347571 -0.776333,0.776332 l 0,2.327405 c -10e-4,0.4277 0.347572,0.776333 0.775802,0.775802 l 8.535413,-5.31e-4 -10e-4,8.534883 c 0,0.42876 0.347572,0.776332 0.776332,0.776332 l 2.327407,0 c 0.42876,0 0.776332,-0.347572 0.776332,-0.776332 l -10e-4,-8.534883 8.535943,0 c 0.4277,0.0011 0.775272,-0.346511 0.775272,-0.775271 l 0,-2.327405 c 0,-0.428761 -0.347572,-0.776332 -0.776333,-0.776332 l -8.534882,0.001 z"
         inkscape:connector-curvature="0" />
      <g
         id="g3775"
         transform="translate(-1.1696814,0.82411584)">
        <path
           style="fill:#000000;fill-opacity:0.14901961"
           id="path3771"
           d="m 38.643934,25.846062 c -0.28867,0.288671 -0.672857,0.446802 -1.080922,0.445211 l -7.78349,0 0.0011,7.784551 c 5.31e-4,0.408065 -0.158132,0.791721 -0.446272,1.07986 -0.28814,0.288141 -0.671796,0.446803 -1.07986,0.446273 l -2.327406,0 c -0.841603,0 -1.526663,-0.685062 -1.526663,-1.526664 l 0,-7.78349 -7.784552,0 c -0.407524,0.0011 -0.79171,-0.158132 -1.07985,-0.447333 -0.28814,-0.289201 -0.447864,-0.672857 -0.446802,-1.080391 l 5.3e-4,-2.325814 c -5.3e-4,-0.408066 0.158662,-0.791191 0.447333,-1.079861 0.28867,-0.288671 0.671795,-0.446802 1.079331,-0.446802 l 7.783489,0 0.001,-7.784551 c -0.001,-0.406473 0.157601,-0.790129 0.445741,-1.078269 0.28814,-0.28814 0.671796,-0.446802 1.079331,-0.446802 l 2.327406,0 c 0.406473,-0.0021 0.790129,0.15654 1.07986,0.44521 0.28867,0.288671 0.447864,0.672857 0.446802,1.081453 l -5.3e-4,7.78402 7.784551,-0.0011 c 0.841602,0 1.526664,0.685061 1.526664,1.526663 l 0,2.327406 c 0,0.408596 -0.158663,0.792252 -0.446803,1.080392 z"
           inkscape:connector-curvature="0" />
        <path
           style="fill:#000000;fill-opacity:0.40392157"
           id="path3773"
           d="m 29.028821,22.341653 5.3e-4,-8.535412 c 5.31e-4,-0.42823 -0.348102,-0.776864 -0.775802,-0.775802 l -2.327405,0 c -0.428761,0 -0.776333,0.347572 -0.775272,0.775271 l -0.001,8.534883 -8.53382,0 c -0.428761,0 -0.776333,0.347571 -0.776333,0.776332 l 0,2.327405 c -0.001,0.4277 0.347572,0.776333 0.775802,0.775802 l 8.535413,-5.31e-4 -0.001,8.534883 c 0,0.42876 0.347572,0.776332 0.776332,0.776332 l 2.327407,0 c 0.42876,0 0.776332,-0.347572 0.776332,-0.776332 l -10e-4,-8.534883 8.535943,0 c 0.4277,0.0011 0.775272,-0.346511 0.775272,-0.775271 l 0,-2.327405 c 0,-0.428761 -0.347572,-0.776332 -0.776333,-0.776332 l -8.534882,0.001 z"
           inkscape:connector-curvature="0" />
      </g>
    </g>
  </g>
</svg>
