<?xml version="1.0" encoding="UTF-8" standalone="no"?>
<!-- Converted with SVG Converter - Version 0.9.5 (Compiled Mon May 30 09:08:51 2011) - Copyright (C) 2011 Nokia -->

<svg
   xmlns:dc="http://purl.org/dc/elements/1.1/"
   xmlns:cc="http://creativecommons.org/ns#"
   xmlns:rdf="http://www.w3.org/1999/02/22-rdf-syntax-ns#"
   xmlns:svg="http://www.w3.org/2000/svg"
   xmlns="http://www.w3.org/2000/svg"
   xmlns:sodipodi="http://sodipodi.sourceforge.net/DTD/sodipodi-0.dtd"
   xmlns:inkscape="http://www.inkscape.org/namespaces/inkscape"
   width="30"
   version="1.1"
   height="30"
   id="svg3836"
   inkscape:version="0.48.2 r9819"
   sodipodi:docname="cloud_remove.svg">
  <sodipodi:namedview
     pagecolor="#ffffff"
     bordercolor="#666666"
     borderopacity="1"
     objecttolerance="10"
     gridtolerance="10"
     guidetolerance="10"
     inkscape:pageopacity="0"
     inkscape:pageshadow="2"
     inkscape:window-width="1920"
     inkscape:window-height="1032"
     id="namedview9"
     showgrid="false"
     inkscape:zoom="27.133333"
     inkscape:cx="8.4766585"
     inkscape:cy="15"
     inkscape:window-x="0"
     inkscape:window-y="0"
     inkscape:window-maximized="0"
     inkscape:current-layer="svg3836" />
  <defs
     id="defs3838" />
  <metadata
     id="metadata3841">
    <rdf:RDF>
      <cc:Work
         rdf:about="">
        <dc:format>image/svg+xml</dc:format>
        <dc:type
           rdf:resource="http://purl.org/dc/dcmitype/StillImage" />
        <dc:title />
      </cc:Work>
    </rdf:RDF>
  </metadata>
  <g
     id="layer1"
     transform="matrix(0.62498971,0,0,0.62498971,0.05109436,2.4692413e-4)"
     style="stroke:#000000;stroke-opacity:1">
    <g
       style="fill:#ffffff;fill-opacity:1;stroke:#000000;stroke-opacity:1;display:inline"
       id="g4990"
       transform="matrix(1.214565,0,0,1.214565,-26.404448,-26.404448)">
      <path
         style="fill:#ffffff;fill-opacity:1;stroke:#000000;stroke-opacity:1;display:inline"
         id="path4967"
         d="m 34.387912,54.063753 c -6.830156,-0.05977 -6.453781,-0.02344 -7.927082,-0.765381 -1.611721,-0.811647 -2.77058,-2.002359 -3.520029,-3.616776 -0.498175,-1.073126 -0.700962,-2.014417 -0.700962,-3.253627 0,-2.049969 0.684577,-3.795446 2.074844,-5.290257 0.874009,-0.939732 2.302814,-1.802149 3.510443,-2.118886 l 0.637756,-0.167271 0.0082,-0.701947 c 0.03357,-2.881597 2.738356,-5.119509 5.595444,-4.629573 0.746448,0.128002 1.589033,0.462741 2.021955,0.803277 l 0.252196,0.198378 0.245758,-0.462208 c 1.023698,-1.925312 2.540832,-3.365 4.522367,-4.291513 3.167829,-1.481192 7.048505,-1.067158 9.790605,1.04457 2.23201,1.718903 3.517465,4.075295 3.793104,6.953215 l 0.117128,1.222952 0.548875,0.158596 c 0.301881,0.08723 0.883564,0.332283 1.292636,0.544568 4.83562,2.509454 5.547329,9.101063 1.365529,12.647302 -0.779416,0.660959 -1.698844,1.150135 -2.803487,1.491578 l -0.892516,0.275874 -6.892169,0.0055 c -3.7907,0.003 -9.658961,-0.01875 -13.040589,-0.04834 z"
         inkscape:connector-curvature="0" />
      <path
         style="fill:#ffffff;fill-opacity:1;stroke:#000000;stroke-opacity:1"
         id="path4907"
         d="m 34.387912,54.063753 c -6.830156,-0.05977 -6.453781,-0.02344 -7.927082,-0.765381 -1.611721,-0.811647 -2.77058,-2.002359 -3.520029,-3.616776 -0.498175,-1.073126 -0.700962,-2.014417 -0.700962,-3.253627 0,-2.049969 0.684577,-3.795446 2.074844,-5.290257 0.874009,-0.939732 2.302814,-1.802149 3.510443,-2.118886 l 0.637756,-0.167271 0.0082,-0.701947 c 0.03357,-2.881597 2.738356,-5.119509 5.595444,-4.629573 0.746448,0.128002 1.589033,0.462741 2.021955,0.803277 l 0.252196,0.198378 0.245758,-0.462208 c 1.023698,-1.925312 2.540832,-3.365 4.522367,-4.291513 3.167829,-1.481192 7.048505,-1.067158 9.790605,1.04457 2.23201,1.718903 3.517465,4.075295 3.793104,6.953215 l 0.117128,1.222952 0.548875,0.158596 c 0.301881,0.08723 0.883564,0.332283 1.292636,0.544568 4.83562,2.509454 5.547329,9.101063 1.365529,12.647302 -0.779416,0.660959 -1.698844,1.150135 -2.803487,1.491578 l -0.892516,0.275874 -6.892169,0.0055 c -3.7907,0.003 -9.658961,-0.01875 -13.040589,-0.04834 z m 20.50662,-0.666108 c 1.30794,-0.372639 2.287585,-0.948309 3.247746,-1.90847 1.228054,-1.228054 1.856864,-2.515945 2.083765,-4.267862 0.175753,-1.356958 -0.223525,-3.166808 -0.973355,-4.412023 -0.470347,-0.781089 -1.482911,-1.828701 -2.251549,-2.329489 -0.522603,-0.34049 -2.211296,-1.059629 -2.283527,-0.972453 -0.01297,0.01565 -0.06364,0.202797 -0.112627,0.415891 -0.05589,0.243166 -0.151325,0.396583 -0.256272,0.411987 -0.150876,0.02215 -0.166935,-0.127183 -0.164298,-1.527876 0.0025,-1.335953 -0.03117,-1.683782 -0.24178,-2.494514 -0.42108,-1.62111 -1.148345,-2.954527 -2.229882,-4.088405 -3.281692,-3.440513 -8.588683,-3.792266 -12.290175,-0.814605 -1.169502,0.940804 -1.987948,2.019458 -2.692446,3.548463 -0.434084,0.94212 -0.675373,1.094633 -0.632328,0.399683 0.0225,-0.363118 -0.0062,-0.407865 -0.446258,-0.69594 -1.710027,-1.119449 -3.921151,-0.888342 -5.391519,0.563525 -0.855244,0.844482 -1.27373,1.81112 -1.275698,2.946679 -0.0012,0.554045 0.01998,0.619799 0.197266,0.619799 0.127629,0 0.198336,0.06611 0.198336,0.185449 0,0.138438 -0.119409,0.215583 -0.471049,0.304331 -2.365073,0.596901 -3.60966,1.33096 -4.701089,2.772707 -3.372799,4.455363 -0.620375,10.942617 4.874634,11.489151 0.409067,0.04068 6.21039,0.07397 12.891835,0.07397 l 12.148073,0 0.772197,-0.220002 z"
         inkscape:connector-curvature="0" />
    </g>
  </g>
  <g
     id="layer2"
     transform="matrix(0.41244951,-0.41244951,0.41244951,0.41244951,-5.7985403,15.999691)">
    <g
       id="g3779"
       transform="translate(-1.920287,2)">
      <path
         style="fill:#000000;fill-opacity:1"
         id="path5072"
         d="m 27.85914,22.487101 5.3e-4,-8.535412 c 5.31e-4,-0.42823 -0.348102,-0.776864 -0.775802,-0.775802 l -2.327405,0 c -0.428761,0 -0.776333,0.347572 -0.775272,0.775271 l -10e-4,8.534883 -8.53382,0 c -0.428761,0 -0.776333,0.347571 -0.776333,0.776332 l 0,2.327405 c -10e-4,0.4277 0.347572,0.776333 0.775802,0.775802 l 8.535413,-5.31e-4 -10e-4,8.534883 c 0,0.42876 0.347572,0.776332 0.776332,0.776332 l 2.327407,0 c 0.42876,0 0.776332,-0.347572 0.776332,-0.776332 l -10e-4,-8.534883 8.535943,0 c 0.4277,0.0011 0.775272,-0.346511 0.775272,-0.775271 l 0,-2.327405 c 0,-0.428761 -0.347572,-0.776332 -0.776333,-0.776332 l -8.534882,0.001 z"
         inkscape:connector-curvature="0" />
      <g
         id="g3775"
         transform="translate(-1.1696814,0.82411584)">
        <path
           style="fill:#000000;fill-opacity:0.14901961"
           id="path3771"
           d="m 38.643934,25.846062 c -0.28867,0.288671 -0.672857,0.446802 -1.080922,0.445211 l -7.78349,0 0.0011,7.784551 c 5.31e-4,0.408065 -0.158132,0.791721 -0.446272,1.07986 -0.28814,0.288141 -0.671796,0.446803 -1.07986,0.446273 l -2.327406,0 c -0.841603,0 -1.526663,-0.685062 -1.526663,-1.526664 l 0,-7.78349 -7.784552,0 c -0.407524,0.0011 -0.79171,-0.158132 -1.07985,-0.447333 -0.28814,-0.289201 -0.447864,-0.672857 -0.446802,-1.080391 l 5.3e-4,-2.325814 c -5.3e-4,-0.408066 0.158662,-0.791191 0.447333,-1.079861 0.28867,-0.288671 0.671795,-0.446802 1.079331,-0.446802 l 7.783489,0 0.001,-7.784551 c -0.001,-0.406473 0.157601,-0.790129 0.445741,-1.078269 0.28814,-0.28814 0.671796,-0.446802 1.079331,-0.446802 l 2.327406,0 c 0.406473,-0.0021 0.790129,0.15654 1.07986,0.44521 0.28867,0.288671 0.447864,0.672857 0.446802,1.081453 l -5.3e-4,7.78402 7.784551,-0.0011 c 0.841602,0 1.526664,0.685061 1.526664,1.526663 l 0,2.327406 c 0,0.408596 -0.158663,0.792252 -0.446803,1.080392 z"
           inkscape:connector-curvature="0" />
        <path
           style="fill:#000000;fill-opacity:0.40392157"
           id="path3773"
           d="m 29.028821,22.341653 5.3e-4,-8.535412 c 5.31e-4,-0.42823 -0.348102,-0.776864 -0.775802,-0.775802 l -2.327405,0 c -0.428761,0 -0.776333,0.347572 -0.775272,0.775271 l -0.001,8.534883 -8.53382,0 c -0.428761,0 -0.776333,0.347571 -0.776333,0.776332 l 0,2.327405 c -0.001,0.4277 0.347572,0.776333 0.775802,0.775802 l 8.535413,-5.31e-4 -0.001,8.534883 c 0,0.42876 0.347572,0.776332 0.776332,0.776332 l 2.327407,0 c 0.42876,0 0.776332,-0.347572 0.776332,-0.776332 l -10e-4,-8.534883 8.535943,0 c 0.4277,0.0011 0.775272,-0.346511 0.775272,-0.775271 l 0,-2.327405 c 0,-0.428761 -0.347572,-0.776332 -0.776333,-0.776332 l -8.534882,0.001 z"
           inkscape:connector-curvature="0" />
      </g>
    </g>
  </g>
</svg>
