<?xml version="1.0" encoding="UTF-8" standalone="no"?>
<!-- Created with Inkscape (http://www.inkscape.org/) -->

<svg
   xmlns:dc="http://purl.org/dc/elements/1.1/"
   xmlns:cc="http://creativecommons.org/ns#"
   xmlns:rdf="http://www.w3.org/1999/02/22-rdf-syntax-ns#"
   xmlns:svg="http://www.w3.org/2000/svg"
   xmlns="http://www.w3.org/2000/svg"
   xmlns:sodipodi="http://sodipodi.sourceforge.net/DTD/sodipodi-0.dtd"
   xmlns:inkscape="http://www.inkscape.org/namespaces/inkscape"
   width="48px"
   height="48px"
   id="svg3836"
   version="1.1"
   inkscape:version="0.48.2 r9819"
   sodipodi:docname="New document 1">
  <defs
     id="defs3838" />
  <sodipodi:namedview
     id="base"
     pagecolor="#ffffff"
     bordercolor="#666666"
     borderopacity="1.0"
     inkscape:pageopacity="0.0"
     inkscape:pageshadow="2"
     inkscape:zoom="11.333333"
     inkscape:cx="13.455882"
     inkscape:cy="24"
     inkscape:current-layer="layer1"
     showgrid="true"
     inkscape:grid-bbox="true"
     inkscape:document-units="px"
     inkscape:window-width="1920"
     inkscape:window-height="955"
     inkscape:window-x="-4"
     inkscape:window-y="-4"
     inkscape:window-maximized="1" />
  <metadata
     id="metadata3841">
    <rdf:RDF>
      <cc:Work
         rdf:about="">
        <dc:format>image/svg+xml</dc:format>
        <dc:type
           rdf:resource="http://purl.org/dc/dcmitype/StillImage" />
        <dc:title></dc:title>
      </cc:Work>
    </rdf:RDF>
  </metadata>
  <g
     id="layer1"
     inkscape:label="Layer 1"
     inkscape:groupmode="layer">
    <g
       style="fill:#ffffff;fill-opacity:1;stroke:#808080;stroke-opacity:1;display:inline"
       id="g4990"
       transform="matrix(1.214565,0,0,1.214565,-26.404448,-26.404448)">
      <path
         style="fill:#ffffff;fill-opacity:1;stroke:#808080;stroke-opacity:1;display:inline"
         d="m 34.387912,54.063753 c -6.830156,-0.05977 -6.453781,-0.02344 -7.927082,-0.765381 -1.611721,-0.811647 -2.77058,-2.002359 -3.520029,-3.616776 -0.498175,-1.073126 -0.700962,-2.014417 -0.700962,-3.253627 0,-2.049969 0.684577,-3.795446 2.074844,-5.290257 0.874009,-0.939732 2.302814,-1.802149 3.510443,-2.118886 l 0.637756,-0.167271 0.0082,-0.701947 c 0.03357,-2.881597 2.738356,-5.119509 5.595444,-4.629573 0.746448,0.128002 1.589033,0.462741 2.021955,0.803277 l 0.252196,0.198378 0.245758,-0.462208 c 1.023698,-1.925312 2.540832,-3.365 4.522367,-4.291513 3.167829,-1.481192 7.048505,-1.067158 9.790605,1.04457 2.23201,1.718903 3.517465,4.075295 3.793104,6.953215 l 0.117128,1.222952 0.548875,0.158596 c 0.301881,0.08723 0.883564,0.332283 1.292636,0.544568 4.83562,2.509454 5.547329,9.101063 1.365529,12.647302 -0.779416,0.660959 -1.698844,1.150135 -2.803487,1.491578 l -0.892516,0.275874 -6.892169,0.0055 c -3.7907,0.003 -9.658961,-0.01875 -13.040589,-0.04834 z"
         id="path4967"
         inkscape:connector-curvature="0" />
      <path
         inkscape:connector-curvature="0"
         d="m 34.387912,54.063753 c -6.830156,-0.05977 -6.453781,-0.02344 -7.927082,-0.765381 -1.611721,-0.811647 -2.77058,-2.002359 -3.520029,-3.616776 -0.498175,-1.073126 -0.700962,-2.014417 -0.700962,-3.253627 0,-2.049969 0.684577,-3.795446 2.074844,-5.290257 0.874009,-0.939732 2.302814,-1.802149 3.510443,-2.118886 l 0.637756,-0.167271 0.0082,-0.701947 c 0.03357,-2.881597 2.738356,-5.119509 5.595444,-4.629573 0.746448,0.128002 1.589033,0.462741 2.021955,0.803277 l 0.252196,0.198378 0.245758,-0.462208 c 1.023698,-1.925312 2.540832,-3.365 4.522367,-4.291513 3.167829,-1.481192 7.048505,-1.067158 9.790605,1.04457 2.23201,1.718903 3.517465,4.075295 3.793104,6.953215 l 0.117128,1.222952 0.548875,0.158596 c 0.301881,0.08723 0.883564,0.332283 1.292636,0.544568 4.83562,2.509454 5.547329,9.101063 1.365529,12.647302 -0.779416,0.660959 -1.698844,1.150135 -2.803487,1.491578 l -0.892516,0.275874 -6.892169,0.0055 c -3.7907,0.003 -9.658961,-0.01875 -13.040589,-0.04834 z m 20.50662,-0.666108 c 1.30794,-0.372639 2.287585,-0.948309 3.247746,-1.90847 1.228054,-1.228054 1.856864,-2.515945 2.083765,-4.267862 0.175753,-1.356958 -0.223525,-3.166808 -0.973355,-4.412023 -0.470347,-0.781089 -1.482911,-1.828701 -2.251549,-2.329489 -0.522603,-0.34049 -2.211296,-1.059629 -2.283527,-0.972453 -0.01297,0.01565 -0.06364,0.202797 -0.112627,0.415891 -0.05589,0.243166 -0.151325,0.396583 -0.256272,0.411987 -0.150876,0.02215 -0.166935,-0.127183 -0.164298,-1.527876 0.0025,-1.335953 -0.03117,-1.683782 -0.24178,-2.494514 -0.42108,-1.62111 -1.148345,-2.954527 -2.229882,-4.088405 -3.281692,-3.440513 -8.588683,-3.792266 -12.290175,-0.814605 -1.169502,0.940804 -1.987948,2.019458 -2.692446,3.548463 -0.434084,0.94212 -0.675373,1.094633 -0.632328,0.399683 0.0225,-0.363118 -0.0062,-0.407865 -0.446258,-0.69594 -1.710027,-1.119449 -3.921151,-0.888342 -5.391519,0.563525 -0.855244,0.844482 -1.27373,1.81112 -1.275698,2.946679 -0.0012,0.554045 0.01998,0.619799 0.197266,0.619799 0.127629,0 0.198336,0.06611 0.198336,0.185449 0,0.138438 -0.119409,0.215583 -0.471049,0.304331 -2.365073,0.596901 -3.60966,1.33096 -4.701089,2.772707 -3.372799,4.455363 -0.620375,10.942617 4.874634,11.489151 0.409067,0.04068 6.21039,0.07397 12.891835,0.07397 l 12.148073,0 0.772197,-0.220002 z"
         style="fill:#ffffff;fill-opacity:1;stroke:#808080;stroke-opacity:1"
         id="path4907" />
    </g>
  </g>
</svg>
