<?xml version="1.0" encoding="UTF-8" standalone="no"?>
<!-- Converted with SVG Converter - Version 0.9.5 (Compiled Mon May 30 09:08:51 2011) - Copyright (C) 2011 Nokia -->

<svg
   xmlns:dc="http://purl.org/dc/elements/1.1/"
   xmlns:cc="http://creativecommons.org/ns#"
   xmlns:rdf="http://www.w3.org/1999/02/22-rdf-syntax-ns#"
   xmlns:svg="http://www.w3.org/2000/svg"
   xmlns="http://www.w3.org/2000/svg"
   xmlns:xlink="http://www.w3.org/1999/xlink"
   xmlns:sodipodi="http://sodipodi.sourceforge.net/DTD/sodipodi-0.dtd"
   xmlns:inkscape="http://www.inkscape.org/namespaces/inkscape"
   width="30"
   x="0px"
   y="0px"
   version="1.1"
   viewBox="0 0 30 30"
   height="30"
   id="Ebene_1"
   xml:space="preserve"
   inkscape:version="0.48.2 r9819"
   sodipodi:docname="compress_inverted.svg"><sodipodi:namedview
   pagecolor="#ffffff"
   bordercolor="#666666"
   borderopacity="1"
   objecttolerance="10"
   gridtolerance="10"
   guidetolerance="10"
   inkscape:pageopacity="0"
   inkscape:pageshadow="2"
   inkscape:window-width="1920"
   inkscape:window-height="1032"
   id="namedview40"
   showgrid="false"
   inkscape:zoom="27.133333"
   inkscape:cx="8.4398034"
   inkscape:cy="15"
   inkscape:window-x="0"
   inkscape:window-y="0"
   inkscape:window-maximized="0"
   inkscape:current-layer="Ebene_1"
   inkscape:snap-bbox="true"
   inkscape:snap-bbox-edge-midpoints="false"
   inkscape:bbox-nodes="false"
   inkscape:bbox-paths="true"
   showguides="true"
   inkscape:guide-bbox="true" />
 <metadata
   id="metadata24"><rdf:RDF><cc:Work
       rdf:about=""><dc:format>image/svg+xml</dc:format><dc:type
         rdf:resource="http://purl.org/dc/dcmitype/StillImage" /></cc:Work></rdf:RDF></metadata>
 <defs
   id="defs22">
  <linearGradient
   gradientTransform="matrix(1,0,0,-1,-137.48,-214.0195)"
   id="linearGradient3007"
   y1="-250.1494"
   x1="170.4805"
   y2="-212.0137"
   gradientUnits="userSpaceOnUse"
   x2="170.4805">
   <stop
   offset="0"
   style="stop-color:#D0CBC5"
   id="stop10" />
   <stop
   offset="0.5031"
   style="stop-color:#FAFCEF"
   id="stop12" />
   <stop
   offset="0.9693"
   style="stop-color:#FFFFFF"
   id="stop14" />
  </linearGradient>
  <linearGradient
   gradientTransform="matrix(1,0,0,-1,-137.48,-214.0195)"
   id="linearGradient3007-1"
   y1="-250.1494"
   x1="170.4805"
   y2="-212.0137"
   gradientUnits="userSpaceOnUse"
   x2="170.4805">
   <stop
   offset="0"
   style="stop-color:#D0CBC5"
   id="stop10-4" />
   <stop
   offset="0.5031"
   style="stop-color:#FAFCEF"
   id="stop12-0" />
   <stop
   offset="0.9693"
   style="stop-color:#FFFFFF"
   id="stop14-9" />
  </linearGradient>
  <linearGradient
   gradientTransform="matrix(1,0,0,-1,-137.48,-214.0195)"
   id="SVGID_1_-7"
   y1="-250.1494"
   x1="170.4805"
   y2="-212.0137"
   gradientUnits="userSpaceOnUse"
   x2="170.4805">
   <stop
   offset="0"
   style="stop-color:#D0CBC5"
   id="stop15" />
   <stop
   offset="0.5031"
   style="stop-color:#FAFCEF"
   id="stop17" />
   <stop
   offset="0.9693"
   style="stop-color:#FFFFFF"
   id="stop19" />
  </linearGradient>
 
  
 
   
   
  
    
    
   <linearGradient
   y2="-212.0137"
   x2="170.4805"
   y1="-250.1494"
   x1="170.4805"
   gradientTransform="matrix(0.21737534,0,0,-0.21737534,-36.064542,-43.81402)"
   gradientUnits="userSpaceOnUse"
   id="linearGradient3787"
   xlink:href="#SVGID_1_-72"
   inkscape:collect="always" /><linearGradient
   y2="-212.0137"
   x2="170.4805"
   y1="-250.1494"
   x1="170.4805"
   gradientTransform="matrix(1,0,0,-1,-222.98,-199.87967)"
   gradientUnits="userSpaceOnUse"
   id="linearGradient3783"
   xlink:href="#SVGID_1_-72"
   inkscape:collect="always" /><linearGradient
   y2="-212.0137"
   x2="170.4805"
   y1="-250.1494"
   x1="170.4805"
   gradientTransform="matrix(1,0,0,-1,-222.98,-199.87967)"
   gradientUnits="userSpaceOnUse"
   id="linearGradient3007-4"
   xlink:href="#SVGID_1_-72"
   inkscape:collect="always" /><linearGradient
   inkscape:collect="always"
   xlink:href="#SVGID_1_"
   id="linearGradient4410"
   x1="-12.89182"
   y1="34.958115"
   x2="-12.946469"
   y2="26.66807"
   gradientUnits="userSpaceOnUse"
   gradientTransform="translate(0,-0.200113)" /><linearGradient
   inkscape:collect="always"
   xlink:href="#SVGID_1_"
   id="linearGradient4416"
   gradientUnits="userSpaceOnUse"
   gradientTransform="translate(0,-0.200113)"
   x1="-12.89182"
   y1="34.958115"
   x2="-12.946469"
   y2="26.66807" /><linearGradient
   inkscape:collect="always"
   xlink:href="#SVGID_1_"
   id="linearGradient4633"
   gradientUnits="userSpaceOnUse"
   gradientTransform="matrix(1.3151799,0,0,1.3151799,-3.8763554,-28.632876)"
   x1="-12.89182"
   y1="34.958115"
   x2="-12.946469"
   y2="26.66807" /><linearGradient
   inkscape:collect="always"
   xlink:href="#SVGID_1_"
   id="linearGradient4730"
   gradientUnits="userSpaceOnUse"
   gradientTransform="matrix(1.3151799,0,0,1.3151799,-3.8763554,-28.632876)"
   x1="-12.89182"
   y1="34.958115"
   x2="-12.946469"
   y2="26.66807" /></defs>
 <linearGradient
   gradientTransform="matrix(1,0,0,-1,-137.48,-214.0195)"
   id="SVGID_1_"
   y1="-250.1494"
   x1="170.4805"
   y2="-212.0137"
   gradientUnits="userSpaceOnUse"
   x2="170.4805">
  <stop
   offset="0"
   style="stop-color:#D0CBC5"
   id="stop22" />
  <stop
   offset="0.5031"
   style="stop-color:#FAFCEF"
   id="stop24" />
  <stop
   offset="0.9693"
   style="stop-color:#FFFFFF"
   id="stop26" />
 </linearGradient>
 
 
<rect
   style="opacity:0.3;fill:none;stroke:none"
   id="rect5120"
   width="30"
   height="30"
   x="0"
   y="0" /><path
   inkscape:connector-curvature="0"
   style="fill:#000000;fill-opacity:1;stroke:none;opacity:0.15"
   d="M 8.384636,1.0032519 A 0.81481823,0.81481823 0 0 0 7.9846825,1.2214084 L 6.1303524,2.9666602 A 0.81481823,0.81481823 0 0 0 5.8758365,3.5484108 l 0,1.1635012 a 0.81481823,0.81481823 0 0 0 0.7999071,0.799907 l 10.2897134,0 2.690597,2.4360807 a 0.81481823,0.81481823 0 0 0 0.545391,0.181797 l 0.290875,0 0,10.2897133 -0.290875,0 a 0.81481823,0.81481823 0 0 0 -0.545391,0.181798 l -2.690597,2.43608 -10.2897134,0 a 0.81481823,0.81481823 0 0 0 -0.7999071,0.799907 l 0,1.163501 a 0.81481823,0.81481823 0 0 0 0.2545159,0.581751 l 1.8543301,1.745252 a 0.81481823,0.81481823 0 0 0 0.5453911,0.218156 l 9.9261194,0 a 0.81481823,0.81481823 0 0 0 0.545391,-0.218156 l 1.018064,-0.945345 c -0.122497,0.256144 -0.327235,0.463811 -0.327235,0.763548 l 0,1.890689 C 19.692413,28.118443 20.57397,29 21.655822,29 l 4.472207,0 c 1.081851,0 1.963409,-0.881557 1.963409,-1.963409 l 0,-1.890689 c 0,-1.052578 -0.848384,-1.880358 -1.89069,-1.927049 l 0,-0.254516 0.436313,0 a 0.81481823,0.81481823 0 0 0 0.799907,-0.799907 l 0,-2.945112 a 0.81481823,0.81481823 0 0 0 -0.03636,-0.145438 0.81481823,0.81481823 0 0 0 0,-0.109078 l 0,-11.3804965 a 0.81481823,0.81481823 0 0 0 0,-0.072719 0.81481823,0.81481823 0 0 0 0.03636,-0.181797 l 0,-2.9451125 a 0.81481823,0.81481823 0 0 0 -0.799907,-0.799907 l -5.090318,0 -2.545159,-2.3633618 A 0.81481823,0.81481823 0 0 0 18.456193,1.0032519 l -9.9261194,0 a 0.81481823,0.81481823 0 0 0 -0.1454376,0 z m 13.162107,21.9610851 0.145438,0 0,0.218157 -0.03636,0 c -0.258372,0 -0.426939,0.198305 -0.65447,0.290875 l 0.545391,-0.509032 z"
   id="path4620" /><g
   id="g4638"
   transform="matrix(1.1635012,0,0,1.1635012,34.563413,-0.48748403)"><path
     d="m -26.71875,5.6875 c -0.412464,0 -0.777711,0.1284114 -1.03125,0.40625 -0.181418,0.200058 -0.308973,0.527157 -0.28125,0.90625 8.75e-4,0.011959 -0.0012,0.019172 0,0.03125 -1.58e-4,0.00636 7.4e-4,0.1790604 0,0.4375 -7.93e-4,0.2768995 0.0014,0.6603862 0,1.125 -0.0029,0.9292276 -0.02729,2.146042 -0.03125,3.375 -0.0079,2.457916 0,4.871384 0,4.96875 0,0.620916 0.528686,1.09375 1.125,1.09375 l 11.8125,0 c 0.596314,0 1.09375,-0.497436 1.09375,-1.09375 l 0,-8.65625 c 0,-0.5963143 -0.472834,-1.125 -1.09375,-1.125 l -7.15625,0 -0.75,-0.8125 c -0.01098,-0.014189 -0.01999,-0.017666 -0.03125,-0.03125 -0.252232,-0.3042704 -0.559111,-0.4515052 -0.8125,-0.53125 -0.264701,-0.083305 -0.460781,-0.092479 -0.53125,-0.09375 l -2.3125,0 z"
     id="path4636"
     style="fill:#000000;fill-opacity:1"
     inkscape:original="M -26.71875 6.125 C -27.028365 6.125 -27.279405 6.2330027 -27.4375 6.40625 C -27.537571 6.5166028 -27.62205 6.7072514 -27.59375 7 C -27.59285 7.113212 -27.625 16.83915 -27.625 16.9375 C -27.625 17.312013 -27.312013 17.59375 -26.9375 17.59375 L -15.125 17.59375 C -14.750487 17.59375 -14.46875 17.312013 -14.46875 16.9375 L -14.46875 8.28125 C -14.46875 7.9067367 -14.750487 7.59375 -15.125 7.59375 L -22.46875 7.59375 L -23.375 6.625 C -23.74351 6.1487077 -24.37452 6.1255721 -24.40625 6.125 L -26.71875 6.125 z "
     inkscape:radius="0.44226044"
     sodipodi:type="inkscape:offset" /><path
     style="fill:url(#linearGradient4730);fill-opacity:1"
     inkscape:connector-curvature="0"
     id="path5"
     d="m -15.140604,7.9107539 h -7.440799 L -23.606024,6.8335295 C -23.893055,6.4495824 -24.416801,6.440434 -24.416801,6.440434 h -2.301396 c -0.638673,0 -0.616088,0.4505583 -0.604653,0.5734908 8.57e-4,0.012231 -0.0037,9.9363122 -0.0037,9.9363122 0,0.216131 0.176966,0.393095 0.393097,0.393095 h 11.792866 c 0.216417,0 0.393096,-0.176964 0.393096,-0.393095 V 8.3038493 c 0,-0.2161301 -0.176679,-0.3930954 -0.393096,-0.3930954 z"
     enable-background="new    " /></g><g
   id="g4642"
   style="fill:#000000;fill-opacity:1"
   transform="matrix(1.1635012,0,0,1.1635012,34.563413,-0.48748403)"><g
     style="fill:#000000;fill-opacity:1"
     id="g4531"><g
       style="fill:#000000;fill-opacity:1"
       id="g4562"><path
         inkscape:connector-curvature="0"
         style="fill:#000000;fill-opacity:1;stroke:none"
         d="m -6.8125,13.6875 -4.6875,2 0,0.96875 4.6875,-2 0,-0.96875 z"
         id="path4560" /><path
         inkscape:connector-curvature="0"
         style="fill:#000000;fill-opacity:1;stroke:none"
         d="m -6.8125,11.9375 -4.6875,2 0,0.96875 4.6875,-2 0,-0.96875 z"
         id="path4558" /><path
         inkscape:connector-curvature="0"
         style="fill:#000000;fill-opacity:1;stroke:none"
         d="m -6.8125,10.1875 -4.6875,2 0,0.96875 4.6875,-2 0,-0.96875 z"
         id="path4556" /><path
         inkscape:connector-curvature="0"
         style="fill:#000000;fill-opacity:1;stroke:none"
         d="m -6.8125,8.40625 -4.6875,2 0,0.96875 4.6875,-2 0,-0.96875 z"
         id="path4554" /><path
         inkscape:connector-curvature="0"
         style="fill:#000000;fill-opacity:1;stroke:none"
         d="m -6.8125,6.65625 -4.6875,2 0,0.96875 4.6875,-2 0,-0.96875 z"
         id="path4552" /><path
         inkscape:connector-curvature="0"
         style="fill:#000000;fill-opacity:1;stroke:none"
         d="m -6.8125,4.90625 -4.6875,2 0,0.96875 4.6875,-2 0,-0.96875 z"
         id="path4549" /><path
         inkscape:connector-curvature="0"
         style="fill:#000000;fill-opacity:1;stroke:none"
         d="m -11.491483,17.435058 4.6635883,-2 0,0.969642 -4.6635883,2 z"
         id="path4547" /><path
         inkscape:connector-curvature="0"
         style="fill:#000000;fill-opacity:1;stroke:none"
         d="m -12.352902,6.7075992 -2.488072,-2.239677 -9.11726,0 0,-1.006755 1.579439,-1.480572 8.544197,0 2.374441,2.222096 4.6322623,0 0,2.504908 z"
         id="path4545" /><path
         inkscape:connector-curvature="0"
         style="fill:#000000;fill-opacity:1;stroke:none"
         d="m -10.375,6.65625 0,14.375 -0.71875,0 c -0.554,0 -1,0.446 -1,1 l 0,1.625 c 0,0.554 0.446,1 1,1 l 3.84375,0 c 0.554,0 1,-0.446 1,-1 l 0,-1.625 c 0,-0.554 -0.446,-1 -1,-1 l -0.625,0 0,-14.375 -2.5,0 z"
         id="path4543" /><path
         inkscape:connector-curvature="0"
         style="fill:#000000;fill-opacity:1;stroke:none"
         d="m -12.352902,16.950237 -2.488072,2.239677 -9.11726,0 0,1.006755 1.579439,1.480572 8.544197,0 2.374441,-2.222096 4.6322623,0 0,-2.504908 z"
         id="path4032" /></g></g><path
     inkscape:connector-curvature="0"
     d="m -11.491483,17.435058 4.6635883,-2 0,0.969642 -4.6635883,2 z M -6.8125,4.90625 l -4.6875,2 0,0.96875 4.6875,-2 0,-0.96875 z m 0,1.75 -4.6875,2 0,0.96875 4.6875,-2 0,-0.96875 z m 0,1.75 -4.6875,2 0,0.96875 4.6875,-2 0,-0.96875 z m 0,1.78125 -4.6875,2 0,0.96875 4.6875,-2 0,-0.96875 z m 0,1.75 -4.6875,2 0,0.96875 4.6875,-2 0,-0.96875 z m 0,1.75 -4.6875,2 0,0.96875 4.6875,-2 0,-0.96875 z"
     style="fill:#000000;fill-opacity:1;stroke:none"
     id="path4590" /></g></svg>