<?xml version="1.0" encoding="UTF-8" standalone="no"?>
<!-- Converted with SVG Converter - Version 0.9.5 (Compiled Mon May 30 09:08:51 2011) - Copyright (C) 2011 Nokia -->

<svg
   xmlns:dc="http://purl.org/dc/elements/1.1/"
   xmlns:cc="http://creativecommons.org/ns#"
   xmlns:rdf="http://www.w3.org/1999/02/22-rdf-syntax-ns#"
   xmlns:svg="http://www.w3.org/2000/svg"
   xmlns="http://www.w3.org/2000/svg"
   xmlns:sodipodi="http://sodipodi.sourceforge.net/DTD/sodipodi-0.dtd"
   xmlns:inkscape="http://www.inkscape.org/namespaces/inkscape"
   width="30"
   x="0px"
   y="0px"
   version="1.1"
   viewBox="0 0 30 30"
   height="30"
   id="Ebene_1"
   xml:space="preserve"
   inkscape:version="0.48.2 r9819"
   sodipodi:docname="compress_inverted.svg"><sodipodi:namedview
   pagecolor="#ffffff"
   bordercolor="#666666"
   borderopacity="1"
   objecttolerance="10"
   gridtolerance="10"
   guidetolerance="10"
   inkscape:pageopacity="0"
   inkscape:pageshadow="2"
   inkscape:window-width="1920"
   inkscape:window-height="1032"
   id="namedview40"
   showgrid="false"
   inkscape:zoom="27.133333"
   inkscape:cx="8.4398034"
   inkscape:cy="14.881077"
   inkscape:window-x="0"
   inkscape:window-y="0"
   inkscape:window-maximized="0"
   inkscape:current-layer="Ebene_1" />
 <metadata
   id="metadata24"><rdf:RDF><cc:Work
       rdf:about=""><dc:format>image/svg+xml</dc:format><dc:type
         rdf:resource="http://purl.org/dc/dcmitype/StillImage" /><dc:title></dc:title></cc:Work></rdf:RDF></metadata>
 <defs
   id="defs22">
  <linearGradient
   gradientTransform="matrix(1,0,0,-1,-137.48,-214.0195)"
   id="linearGradient3007"
   y1="-250.1494"
   x1="170.4805"
   y2="-212.0137"
   gradientUnits="userSpaceOnUse"
   x2="170.4805">
   <stop
   offset="0"
   style="stop-color:#D0CBC5"
   id="stop10" />
   <stop
   offset="0.5031"
   style="stop-color:#FAFCEF"
   id="stop12" />
   <stop
   offset="0.9693"
   style="stop-color:#FFFFFF"
   id="stop14" />
  </linearGradient>
  <linearGradient
   gradientTransform="matrix(1,0,0,-1,-137.48,-214.0195)"
   id="linearGradient3007-1"
   y1="-250.1494"
   x1="170.4805"
   y2="-212.0137"
   gradientUnits="userSpaceOnUse"
   x2="170.4805">
   <stop
   offset="0"
   style="stop-color:#D0CBC5"
   id="stop10-4" />
   <stop
   offset="0.5031"
   style="stop-color:#FAFCEF"
   id="stop12-0" />
   <stop
   offset="0.9693"
   style="stop-color:#FFFFFF"
   id="stop14-9" />
  </linearGradient>
  <linearGradient
   gradientTransform="matrix(1,0,0,-1,-137.48,-214.0195)"
   id="SVGID_1_-7"
   y1="-250.1494"
   x1="170.4805"
   y2="-212.0137"
   gradientUnits="userSpaceOnUse"
   x2="170.4805">
   <stop
   offset="0"
   style="stop-color:#D0CBC5"
   id="stop15" />
   <stop
   offset="0.5031"
   style="stop-color:#FAFCEF"
   id="stop17" />
   <stop
   offset="0.9693"
   style="stop-color:#FFFFFF"
   id="stop19" />
  </linearGradient>
 
  
 
   
   
  
    
    
   </defs>
 <linearGradient
   gradientTransform="matrix(1,0,0,-1,-137.48,-214.0195)"
   id="SVGID_1_"
   y1="-250.1494"
   x1="170.4805"
   y2="-212.0137"
   gradientUnits="userSpaceOnUse"
   x2="170.4805">
  <stop
   offset="0"
   style="stop-color:#D0CBC5"
   id="stop22" />
  <stop
   offset="0.5031"
   style="stop-color:#FAFCEF"
   id="stop24" />
  <stop
   offset="0.9693"
   style="stop-color:#FFFFFF"
   id="stop26" />
 </linearGradient>
 
 
<g
   id="g5122"><path
     d="m 1.09375,8.46875 a 0.7003157,0.7003157 0 0 0 -0.5625,0.6875 l 0,2.28125 a 0.7003157,0.7003157 0 0 0 0.6875,0.6875 l 4.625,0 L 0.5,18.5625 A 0.7003157,0.7003157 0 0 0 0.34375,19 l 0,1.84375 a 0.7003157,0.7003157 0 0 0 0.6875,0.6875 l 10.1875,0 a 0.7003157,0.7003157 0 0 0 0.6875,-0.6875 l 0,-2.28125 a 0.7003157,0.7003157 0 0 0 -0.6875,-0.6875 l -4.96875,0 5.3125,-6.4375 A 0.7003157,0.7003157 0 0 0 11.71875,11 l 0,-1.84375 a 0.7003157,0.7003157 0 0 0 -0.6875,-0.6875 l -9.8125,0 a 0.7003157,0.7003157 0 0 0 -0.125,0 z m 12.15625,0 a 0.7003157,0.7003157 0 0 0 -0.5625,0.6875 l 0,11.6875 a 0.7003157,0.7003157 0 0 0 0.6875,0.6875 l 3.03125,0 a 0.7003157,0.7003157 0 0 0 0.6875,-0.6875 l 0,-11.6875 a 0.7003157,0.7003157 0 0 0 -0.6875,-0.6875 l -3.03125,0 a 0.7003157,0.7003157 0 0 0 -0.125,0 z m 5.96875,0 a 0.7003157,0.7003157 0 0 0 -0.5625,0.6875 l 0,11.6875 a 0.7003157,0.7003157 0 0 0 0.6875,0.6875 l 3.03125,0 a 0.7003157,0.7003157 0 0 0 0.6875,-0.6875 l 0,-3.375 1.28125,0 c 1.582649,4e-6 2.884066,-0.329477 3.84375,-1.125 0.959169,-0.796178 1.468738,-1.990132 1.46875,-3.375 C 29.656238,11.588416 29.143362,10.412203 28.1875,9.625 27.234398,8.8286812 25.934585,8.4687625 24.34375,8.46875 l -5,0 a 0.7003157,0.7003157 0 0 0 -0.125,0 z m 3.84375,3.5625 0.96875,0 c 0.458287,7e-6 0.702635,0.128674 0.875,0.28125 0.162454,0.143819 0.249994,0.270802 0.25,0.65625 -6e-6,0.385468 -0.098,0.550452 -0.25,0.6875 -0.153086,0.135519 -0.391713,0.250005 -0.875,0.25 l -0.96875,0 0,-1.875 z"
     id="path4551"
     style="font-size:16px;font-style:normal;font-weight:bold;line-height:125%;letter-spacing:0px;word-spacing:0px;opacity:0.15;fill:#000000;fill-opacity:1;stroke:none;font-family:Sans;-inkscape-font-specification:Sans Bold"
     inkscape:original="M 1.21875 9.15625 L 1.21875 11.4375 L 7.3125 11.4375 L 1.03125 19 L 1.03125 20.84375 L 11.21875 20.84375 L 11.21875 18.5625 L 4.78125 18.5625 L 11.03125 11 L 11.03125 9.15625 L 1.21875 9.15625 z M 13.375 9.15625 L 13.375 20.84375 L 16.40625 20.84375 L 16.40625 9.15625 L 13.375 9.15625 z M 19.34375 9.15625 L 19.34375 20.84375 L 22.375 20.84375 L 22.375 16.78125 L 24.34375 16.78125 C 25.828117 16.781254 26.958324 16.468754 27.75 15.8125 C 28.546864 15.151047 28.968739 14.192715 28.96875 12.96875 C 28.968739 11.750009 28.546864 10.81251 27.75 10.15625 C 26.958324 9.494803 25.828117 9.1562617 24.34375 9.15625 L 19.34375 9.15625 z M 22.375 11.34375 L 24.03125 11.34375 C 24.614577 11.343759 25.057284 11.500009 25.375 11.78125 C 25.692701 12.062509 25.843742 12.447925 25.84375 12.96875 C 25.843742 13.489591 25.692701 13.901049 25.375 14.1875 C 25.057284 14.468756 24.614577 14.593756 24.03125 14.59375 L 22.375 14.59375 L 22.375 11.34375 z "
     inkscape:radius="0.70024568"
     sodipodi:type="inkscape:offset" /><path
     d="m 1.21875,9.15625 0,2.28125 6.09375,0 L 1.03125,19 l 0,1.84375 10.1875,0 0,-2.28125 -6.4375,0 6.25,-7.5625 0,-1.84375 -9.8125,0 z m 12.15625,0 0,11.6875 3.03125,0 0,-11.6875 -3.03125,0 z m 5.96875,0 0,11.6875 3.03125,0 0,-4.0625 1.96875,0 c 1.484367,4e-6 2.614574,-0.312496 3.40625,-0.96875 0.796864,-0.661453 1.218739,-1.619785 1.21875,-2.84375 -1.1e-5,-1.218741 -0.421886,-2.15624 -1.21875,-2.8125 -0.791676,-0.661447 -1.921883,-0.9999883 -3.40625,-1 l -5,0 z m 3.03125,2.1875 1.65625,0 c 0.583327,9e-6 1.026034,0.156259 1.34375,0.4375 0.317701,0.281259 0.468742,0.666675 0.46875,1.1875 -8e-6,0.520841 -0.151049,0.932299 -0.46875,1.21875 -0.317716,0.281256 -0.760423,0.406256 -1.34375,0.40625 l -1.65625,0 0,-3.25 z"
     id="path4039"
     style="font-size:16px;font-style:normal;font-weight:bold;line-height:125%;letter-spacing:0px;word-spacing:0px;fill:#000000;fill-opacity:1;stroke:none;font-family:Sans;-inkscape-font-specification:Sans Bold"
     inkscape:original="M 1.21875 9.15625 L 1.21875 11.4375 L 7.3125 11.4375 L 1.03125 19 L 1.03125 20.84375 L 11.21875 20.84375 L 11.21875 18.5625 L 4.78125 18.5625 L 11.03125 11 L 11.03125 9.15625 L 1.21875 9.15625 z M 13.375 9.15625 L 13.375 20.84375 L 16.40625 20.84375 L 16.40625 9.15625 L 13.375 9.15625 z M 19.34375 9.15625 L 19.34375 20.84375 L 22.375 20.84375 L 22.375 16.78125 L 24.34375 16.78125 C 25.828117 16.781254 26.958324 16.468754 27.75 15.8125 C 28.546864 15.151047 28.968739 14.192715 28.96875 12.96875 C 28.968739 11.750009 28.546864 10.81251 27.75 10.15625 C 26.958324 9.494803 25.828117 9.1562617 24.34375 9.15625 L 19.34375 9.15625 z M 22.375 11.34375 L 24.03125 11.34375 C 24.614577 11.343759 25.057284 11.500009 25.375 11.78125 C 25.692701 12.062509 25.843742 12.447925 25.84375 12.96875 C 25.843742 13.489591 25.692701 13.901049 25.375 14.1875 C 25.057284 14.468756 24.614577 14.593756 24.03125 14.59375 L 22.375 14.59375 L 22.375 11.34375 z "
     inkscape:radius="0"
     sodipodi:type="inkscape:offset" /><rect
     y="0"
     x="0"
     height="30"
     width="30"
     id="rect5120"
     style="opacity:0.3;fill:none;stroke:none" /></g></svg>