<?xml version="1.0" encoding="UTF-8" standalone="no"?>
<!-- Converted with SVG Converter - Version 0.9.5 (Compiled Mon May 30 09:08:51 2011) - Copyright (C) 2011 Nokia -->

<svg
   xmlns:dc="http://purl.org/dc/elements/1.1/"
   xmlns:cc="http://creativecommons.org/ns#"
   xmlns:rdf="http://www.w3.org/1999/02/22-rdf-syntax-ns#"
   xmlns:svg="http://www.w3.org/2000/svg"
   xmlns="http://www.w3.org/2000/svg"
   xmlns:sodipodi="http://sodipodi.sourceforge.net/DTD/sodipodi-0.dtd"
   xmlns:inkscape="http://www.inkscape.org/namespaces/inkscape"
   width="30px"
   x="0px"
   y="0px"
   version="1.1"
   viewBox="0 0 30 30"
   height="30px"
   id="svg2"
   xml:space="preserve"
   inkscape:version="0.48.2 r9819"
   sodipodi:docname="copy_inverted.svg"><sodipodi:namedview
   pagecolor="#ffffff"
   bordercolor="#666666"
   borderopacity="1"
   objecttolerance="10"
   gridtolerance="10"
   guidetolerance="10"
   inkscape:pageopacity="0"
   inkscape:pageshadow="2"
   inkscape:window-width="1920"
   inkscape:window-height="955"
   id="namedview19"
   showgrid="false"
   inkscape:zoom="10.1"
   inkscape:cx="-0.2970297"
   inkscape:cy="15"
   inkscape:window-x="-4"
   inkscape:window-y="-4"
   inkscape:window-maximized="1"
   inkscape:current-layer="svg2" />
 <metadata
   id="metadata19"><rdf:RDF><cc:Work
       rdf:about=""><dc:format>image/svg+xml</dc:format><dc:type
         rdf:resource="http://purl.org/dc/dcmitype/StillImage" /></cc:Work></rdf:RDF></metadata>
 <defs
   id="defs17">
  
 
   
   
   
   
  
  
 
   
   
   
   
  </defs>
 <g
   id="DO_NOT_EDIT_-_BOUNDING_BOX">
  <rect
   width="30"
   fill="none"
   height="30"
   id="BOUNDING_BOX" />
 </g>
 <path
   style="opacity:0.3"
   id="path2998-1"
   d="M 16.814787,1.077024 H 4.3741103 c -0.4268712,0 -0.7775428,0.349894 -0.7775428,0.7775423 V 20.515583 c 0,0.427649 0.3506716,0.777543 0.7775428,0.777543 H 19.924957 c 0.428426,0 0.777542,-0.349894 0.777542,-0.777543 V 4.964736 L 16.814787,1.077024 z m 0.852187,15.528299 H 6.6320933 c -0.429981,0 -0.777543,-0.347562 -0.777543,-0.777543 0,-0.429981 0.347562,-0.777542 0.777543,-0.777542 H 17.666196 c 0.429981,0 0.777543,0.347561 0.777543,0.777542 0,0.429981 -0.347562,0.777543 -0.776765,0.777543 z m 0,-3.11017 H 6.6320933 c -0.429981,0 -0.777543,-0.347561 -0.777543,-0.777542 0,-0.429981 0.347562,-0.777543 0.777543,-0.777543 H 17.666196 c 0.429981,0 0.777543,0.347562 0.777543,0.777543 0,0.429981 -0.347562,0.777542 -0.776765,0.777542 z m 0,-3.110169 H 6.6320933 c -0.429981,0 -0.777543,-0.347562 -0.777543,-0.777543 0,-0.429981 0.347562,-0.777542 0.777543,-0.777542 H 17.666196 c 0.429981,0 0.777543,0.347561 0.777543,0.777542 0,0.429981 -0.347562,0.777543 -0.776765,0.777543 z m 0,-3.11017 H 6.6320933 c -0.429981,0 -0.777543,-0.347561 -0.777543,-0.777542 0,-0.429981 0.347562,-0.777543 0.777543,-0.777543 H 17.666196 c 0.429981,0 0.777543,0.347562 0.777543,0.777543 0,0.429981 -0.347562,0.777542 -0.776765,0.777542 z"
   inkscape:connector-curvature="0" /><path
   style="fill:#000000;fill-opacity:1;stroke:none"
   id="path3000-7"
   d="m 4.3741103,22.84821 c -0.8576297,0 -1.5550852,-0.697455 -1.5550852,-1.555084 V 2.6321087 c 0,-0.8576292 0.6974555,-1.5550847 1.5550852,-1.5550847 H 16.814787 c 0.206827,0 0.404323,0.081642 0.549723,0.2278199 l 3.887712,3.8877121 c 0.146178,0.1454 0.22782,0.343673 0.22782,0.549722 v 15.550848 c 0,0.857629 -0.697456,1.555084 -1.555085,1.555084 H 4.3741103 z m 2.257205,-6.242887 H 17.666974 6.6320933 6.6313153 z m 0,-3.11017 H 17.666974 6.6320933 6.6313153 z m 0,-3.110169 H 17.666974 6.6320933 6.6313153 z m 0,-3.11017 H 17.666974 6.6320933 6.6313153 z"
   inkscape:connector-curvature="0" /><path
   style="opacity:0.15"
   id="path3002-4"
   d="M 16.814787,1.8545663 H 4.3741103 c -0.4268712,0 -0.7775428,0.3498941 -0.7775428,0.7775424 V 21.293126 c 0,0.427648 0.3506716,0.777542 0.7775428,0.777542 H 19.924957 c 0.428426,0 0.777542,-0.349894 0.777542,-0.777542 V 5.742278 L 16.814787,1.8545663 z M 17.666974,17.382865 H 6.6320933 c -0.429981,0 -0.777543,-0.347561 -0.777543,-0.777542 0,-0.429981 0.347562,-0.777543 0.777543,-0.777543 H 17.666196 c 0.429981,0 0.777543,0.347562 0.777543,0.777543 0,0.429981 -0.347562,0.777542 -0.776765,0.777542 z m 0,-3.110169 H 6.6320933 c -0.429981,0 -0.777543,-0.347562 -0.777543,-0.777543 0,-0.429981 0.347562,-0.777542 0.777543,-0.777542 H 17.666196 c 0.429981,0 0.777543,0.347561 0.777543,0.777542 0,0.429981 -0.347562,0.777543 -0.776765,0.777543 z m 0,-3.11017 H 6.6320933 c -0.429981,0 -0.777543,-0.347561 -0.777543,-0.777542 0,-0.429981 0.347562,-0.777543 0.777543,-0.777543 H 17.666196 c 0.429981,0 0.777543,0.347562 0.777543,0.777543 0,0.429981 -0.347562,0.777542 -0.776765,0.777542 z m 0,-3.110169 H 6.6320933 c -0.429981,0 -0.777543,-0.347562 -0.777543,-0.777543 0,-0.429981 0.347562,-0.777542 0.777543,-0.777542 H 17.666196 c 0.429981,0 0.777543,0.347561 0.777543,0.777542 0,0.429981 -0.347562,0.777543 -0.776765,0.777543 z"
   inkscape:connector-curvature="0" /><path
   style="fill:#ffffff"
   id="path3004-0"
   d="M 16.814787,1.8545663 H 4.3741103 c -0.4268712,0 -0.7775428,0.3498941 -0.7775428,0.7775424 V 21.293126 c 0,0.427648 0.3506716,0.777542 0.7775428,0.777542 H 19.924957 c 0.428426,0 0.777542,-0.349894 0.777542,-0.777542 V 5.742278 L 16.814787,1.8545663 z M 17.666974,17.382865 H 6.6320933 c -0.429981,0 -0.777543,-0.347561 -0.777543,-0.777542 0,-0.429981 0.347562,-0.777543 0.777543,-0.777543 H 17.666196 c 0.429981,0 0.777543,0.347562 0.777543,0.777543 0,0.429981 -0.347562,0.777542 -0.776765,0.777542 z m 0,-3.110169 H 6.6320933 c -0.429981,0 -0.777543,-0.347562 -0.777543,-0.777543 0,-0.429981 0.347562,-0.777542 0.777543,-0.777542 H 17.666196 c 0.429981,0 0.777543,0.347561 0.777543,0.777542 0,0.429981 -0.347562,0.777543 -0.776765,0.777543 z m 0,-3.11017 H 6.6320933 c -0.429981,0 -0.777543,-0.347561 -0.777543,-0.777542 0,-0.429981 0.347562,-0.777543 0.777543,-0.777543 H 17.666196 c 0.429981,0 0.777543,0.347562 0.777543,0.777543 0,0.429981 -0.347562,0.777542 -0.776765,0.777542 z m 0,-3.110169 H 6.6320933 c -0.429981,0 -0.777543,-0.347562 -0.777543,-0.777543 0,-0.429981 0.347562,-0.777542 0.777543,-0.777542 H 17.666196 c 0.429981,0 0.777543,0.347561 0.777543,0.777542 0,0.429981 -0.347562,0.777543 -0.776765,0.777543 z"
   inkscape:connector-curvature="0" />
 <path
   style="opacity:0.3"
   id="path3844"
   d="M 22.814787,7.077024 H 10.37411 c -0.4268709,0 -0.7775425,0.349894 -0.7775425,0.7775423 V 26.515583 c 0,0.427649 0.3506716,0.777543 0.7775425,0.777543 h 15.550847 c 0.428426,0 0.777542,-0.349894 0.777542,-0.777543 V 10.964736 L 22.814787,7.077024 z m 0.852187,15.528299 H 12.632093 c -0.429981,0 -0.777543,-0.347562 -0.777543,-0.777543 0,-0.429981 0.347562,-0.777542 0.777543,-0.777542 h 11.034103 c 0.429981,0 0.777543,0.347561 0.777543,0.777542 0,0.429981 -0.347562,0.777543 -0.776765,0.777543 z m 0,-3.11017 H 12.632093 c -0.429981,0 -0.777543,-0.347561 -0.777543,-0.777542 0,-0.429981 0.347562,-0.777543 0.777543,-0.777543 h 11.034103 c 0.429981,0 0.777543,0.347562 0.777543,0.777543 0,0.429981 -0.347562,0.777542 -0.776765,0.777542 z m 0,-3.110169 H 12.632093 c -0.429981,0 -0.777543,-0.347562 -0.777543,-0.777543 0,-0.429981 0.347562,-0.777542 0.777543,-0.777542 h 11.034103 c 0.429981,0 0.777543,0.347561 0.777543,0.777542 0,0.429981 -0.347562,0.777543 -0.776765,0.777543 z m 0,-3.11017 H 12.632093 c -0.429981,0 -0.777543,-0.347561 -0.777543,-0.777542 0,-0.429981 0.347562,-0.777543 0.777543,-0.777543 h 11.034103 c 0.429981,0 0.777543,0.347562 0.777543,0.777543 0,0.429981 -0.347562,0.777542 -0.776765,0.777542 z"
   inkscape:connector-curvature="0" /><path
   style="fill:#000000;fill-opacity:1;stroke:none"
   id="path3846"
   d="m 10.37411,28.84821 c -0.8576294,0 -1.5550849,-0.697455 -1.5550849,-1.555084 V 8.6321087 c 0,-0.8576292 0.6974555,-1.5550847 1.5550849,-1.5550847 h 12.440677 c 0.206827,0 0.404323,0.081642 0.549723,0.2278199 l 3.887712,3.8877121 c 0.146178,0.1454 0.22782,0.343673 0.22782,0.549722 v 15.550848 c 0,0.857629 -0.697456,1.555084 -1.555085,1.555084 H 10.37411 z m 2.257205,-6.242887 h 11.035659 -11.034881 -7.78e-4 z m 0,-3.11017 h 11.035659 -11.034881 -7.78e-4 z m 0,-3.110169 h 11.035659 -11.034881 -7.78e-4 z m 0,-3.11017 h 11.035659 -11.034881 -7.78e-4 z"
   inkscape:connector-curvature="0" /><path
   style="opacity:0.15"
   id="path3848"
   d="M 22.814787,7.8545663 H 10.37411 c -0.4268709,0 -0.7775425,0.3498941 -0.7775425,0.7775424 V 27.293126 c 0,0.427648 0.3506716,0.777542 0.7775425,0.777542 h 15.550847 c 0.428426,0 0.777542,-0.349894 0.777542,-0.777542 V 11.742278 L 22.814787,7.8545663 z M 23.666974,23.382865 H 12.632093 c -0.429981,0 -0.777543,-0.347561 -0.777543,-0.777542 0,-0.429981 0.347562,-0.777543 0.777543,-0.777543 h 11.034103 c 0.429981,0 0.777543,0.347562 0.777543,0.777543 0,0.429981 -0.347562,0.777542 -0.776765,0.777542 z m 0,-3.110169 H 12.632093 c -0.429981,0 -0.777543,-0.347562 -0.777543,-0.777543 0,-0.429981 0.347562,-0.777542 0.777543,-0.777542 h 11.034103 c 0.429981,0 0.777543,0.347561 0.777543,0.777542 0,0.429981 -0.347562,0.777543 -0.776765,0.777543 z m 0,-3.11017 H 12.632093 c -0.429981,0 -0.777543,-0.347561 -0.777543,-0.777542 0,-0.429981 0.347562,-0.777543 0.777543,-0.777543 h 11.034103 c 0.429981,0 0.777543,0.347562 0.777543,0.777543 0,0.429981 -0.347562,0.777542 -0.776765,0.777542 z m 0,-3.110169 H 12.632093 c -0.429981,0 -0.777543,-0.347562 -0.777543,-0.777543 0,-0.429981 0.347562,-0.777542 0.777543,-0.777542 h 11.034103 c 0.429981,0 0.777543,0.347561 0.777543,0.777542 0,0.429981 -0.347562,0.777543 -0.776765,0.777543 z"
   inkscape:connector-curvature="0" /><path
   style="fill:#ffffff"
   id="path3850"
   d="M 22.814787,7.8545663 H 10.37411 c -0.4268709,0 -0.7775425,0.3498941 -0.7775425,0.7775424 V 27.293126 c 0,0.427648 0.3506716,0.777542 0.7775425,0.777542 h 15.550847 c 0.428426,0 0.777542,-0.349894 0.777542,-0.777542 V 11.742278 L 22.814787,7.8545663 z M 23.666974,23.382865 H 12.632093 c -0.429981,0 -0.777543,-0.347561 -0.777543,-0.777542 0,-0.429981 0.347562,-0.777543 0.777543,-0.777543 h 11.034103 c 0.429981,0 0.777543,0.347562 0.777543,0.777543 0,0.429981 -0.347562,0.777542 -0.776765,0.777542 z m 0,-3.110169 H 12.632093 c -0.429981,0 -0.777543,-0.347562 -0.777543,-0.777543 0,-0.429981 0.347562,-0.777542 0.777543,-0.777542 h 11.034103 c 0.429981,0 0.777543,0.347561 0.777543,0.777542 0,0.429981 -0.347562,0.777543 -0.776765,0.777543 z m 0,-3.11017 H 12.632093 c -0.429981,0 -0.777543,-0.347561 -0.777543,-0.777542 0,-0.429981 0.347562,-0.777543 0.777543,-0.777543 h 11.034103 c 0.429981,0 0.777543,0.347562 0.777543,0.777543 0,0.429981 -0.347562,0.777542 -0.776765,0.777542 z m 0,-3.110169 H 12.632093 c -0.429981,0 -0.777543,-0.347562 -0.777543,-0.777543 0,-0.429981 0.347562,-0.777542 0.777543,-0.777542 h 11.034103 c 0.429981,0 0.777543,0.347561 0.777543,0.777542 0,0.429981 -0.347562,0.777543 -0.776765,0.777543 z"
   inkscape:connector-curvature="0" />
</svg>