<?xml version="1.0" encoding="UTF-8" standalone="no"?>
<!-- Generator: Adobe Illustrator 15.0.0, SVG Export Plug-In . SVG Version: 6.00 Build 0)  -->

<svg
   xmlns:dc="http://purl.org/dc/elements/1.1/"
   xmlns:cc="http://creativecommons.org/ns#"
   xmlns:rdf="http://www.w3.org/1999/02/22-rdf-syntax-ns#"
   xmlns:svg="http://www.w3.org/2000/svg"
   xmlns="http://www.w3.org/2000/svg"
   xmlns:sodipodi="http://sodipodi.sourceforge.net/DTD/sodipodi-0.dtd"
   xmlns:inkscape="http://www.inkscape.org/namespaces/inkscape"
   version="1.1"
   x="0px"
   y="0px"
   width="30px"
   height="30px"
   viewBox="0 0 30 30"
   enable-background="new 0 0 30 30"
   xml:space="preserve"
   id="svg2"
   inkscape:version="0.48.2 r9819"
   sodipodi:docname="copy.svg"><metadata
   id="metadata19"><rdf:RDF><cc:Work
       rdf:about=""><dc:format>image/svg+xml</dc:format><dc:type
         rdf:resource="http://purl.org/dc/dcmitype/StillImage" /></cc:Work></rdf:RDF></metadata><defs
   id="defs17" /><sodipodi:namedview
   pagecolor="#ffffff"
   bordercolor="#666666"
   borderopacity="1"
   objecttolerance="10"
   gridtolerance="10"
   guidetolerance="10"
   inkscape:pageopacity="0"
   inkscape:pageshadow="2"
   inkscape:window-width="1024"
   inkscape:window-height="712"
   id="namedview15"
   showgrid="false"
   inkscape:zoom="17.833333"
   inkscape:cx="16.586916"
   inkscape:cy="15"
   inkscape:window-x="-4"
   inkscape:window-y="-4"
   inkscape:window-maximized="1"
   inkscape:current-layer="layer2" />
<g
   id="DO_NOT_EDIT_-_BOUNDING_BOX">
	<rect
   id="BOUNDING_BOX"
   fill="none"
   width="30"
   height="30" />
</g>

<g
   inkscape:groupmode="layer"
   id="layer1"
   inkscape:label="Back"><g
     transform="translate(-5.9267377,-5.829755)"
     id="g5242"><path
       style="opacity:0.3"
       inkscape:connector-curvature="0"
       id="path2998-1"
       d="M 22.741525,6.906779 H 10.300848 c -0.4268712,0 -0.7775428,0.349894 -0.7775428,0.7775423 V 26.345338 c 0,0.427649 0.3506716,0.777543 0.7775428,0.777543 h 15.550847 c 0.428426,0 0.777542,-0.349894 0.777542,-0.777543 V 10.794491 L 22.741525,6.906779 z m 0.852187,15.528299 H 12.558831 c -0.429981,0 -0.777543,-0.347562 -0.777543,-0.777543 0,-0.429981 0.347562,-0.777542 0.777543,-0.777542 h 11.034103 c 0.429981,0 0.777543,0.347561 0.777543,0.777542 0,0.429981 -0.347562,0.777543 -0.776765,0.777543 z m 0,-3.11017 H 12.558831 c -0.429981,0 -0.777543,-0.347561 -0.777543,-0.777542 0,-0.429981 0.347562,-0.777543 0.777543,-0.777543 h 11.034103 c 0.429981,0 0.777543,0.347562 0.777543,0.777543 0,0.429981 -0.347562,0.777542 -0.776765,0.777542 z m 0,-3.110169 H 12.558831 c -0.429981,0 -0.777543,-0.347562 -0.777543,-0.777543 0,-0.429981 0.347562,-0.777542 0.777543,-0.777542 h 11.034103 c 0.429981,0 0.777543,0.347561 0.777543,0.777542 0,0.429981 -0.347562,0.777543 -0.776765,0.777543 z m 0,-3.11017 H 12.558831 c -0.429981,0 -0.777543,-0.347561 -0.777543,-0.777542 0,-0.429981 0.347562,-0.777543 0.777543,-0.777543 h 11.034103 c 0.429981,0 0.777543,0.347562 0.777543,0.777543 0,0.429981 -0.347562,0.777542 -0.776765,0.777542 z" /><path
       style="fill:#808080;fill-opacity:1;stroke:none"
       inkscape:connector-curvature="0"
       id="path3000-7"
       d="m 10.300848,28.677965 c -0.8576297,0 -1.5550852,-0.697455 -1.5550852,-1.555084 V 8.4618637 c 0,-0.8576292 0.6974555,-1.5550847 1.5550852,-1.5550847 h 12.440677 c 0.206827,0 0.404323,0.081642 0.549723,0.2278199 l 3.887712,3.8877121 c 0.146178,0.1454 0.22782,0.343673 0.22782,0.549722 v 15.550848 c 0,0.857629 -0.697456,1.555084 -1.555085,1.555084 H 10.300848 z m 2.257205,-6.242887 h 11.035659 -11.034881 -7.78e-4 z m 0,-3.11017 h 11.035659 -11.034881 -7.78e-4 z m 0,-3.110169 h 11.035659 -11.034881 -7.78e-4 z m 0,-3.11017 h 11.035659 -11.034881 -7.78e-4 z" /><path
       style="opacity:0.15"
       inkscape:connector-curvature="0"
       id="path3002-4"
       d="M 22.741525,7.6843213 H 10.300848 c -0.4268712,0 -0.7775428,0.3498941 -0.7775428,0.7775424 V 27.122881 c 0,0.427648 0.3506716,0.777542 0.7775428,0.777542 h 15.550847 c 0.428426,0 0.777542,-0.349894 0.777542,-0.777542 V 11.572033 L 22.741525,7.6843213 z M 23.593712,23.21262 H 12.558831 c -0.429981,0 -0.777543,-0.347561 -0.777543,-0.777542 0,-0.429981 0.347562,-0.777543 0.777543,-0.777543 h 11.034103 c 0.429981,0 0.777543,0.347562 0.777543,0.777543 0,0.429981 -0.347562,0.777542 -0.776765,0.777542 z m 0,-3.110169 H 12.558831 c -0.429981,0 -0.777543,-0.347562 -0.777543,-0.777543 0,-0.429981 0.347562,-0.777542 0.777543,-0.777542 h 11.034103 c 0.429981,0 0.777543,0.347561 0.777543,0.777542 0,0.429981 -0.347562,0.777543 -0.776765,0.777543 z m 0,-3.11017 H 12.558831 c -0.429981,0 -0.777543,-0.347561 -0.777543,-0.777542 0,-0.429981 0.347562,-0.777543 0.777543,-0.777543 h 11.034103 c 0.429981,0 0.777543,0.347562 0.777543,0.777543 0,0.429981 -0.347562,0.777542 -0.776765,0.777542 z m 0,-3.110169 H 12.558831 c -0.429981,0 -0.777543,-0.347562 -0.777543,-0.777543 0,-0.429981 0.347562,-0.777542 0.777543,-0.777542 h 11.034103 c 0.429981,0 0.777543,0.347561 0.777543,0.777542 0,0.429981 -0.347562,0.777543 -0.776765,0.777543 z" /><path
       style="fill:#ffffff"
       inkscape:connector-curvature="0"
       id="path3004-0"
       d="M 22.741525,7.6843213 H 10.300848 c -0.4268712,0 -0.7775428,0.3498941 -0.7775428,0.7775424 V 27.122881 c 0,0.427648 0.3506716,0.777542 0.7775428,0.777542 h 15.550847 c 0.428426,0 0.777542,-0.349894 0.777542,-0.777542 V 11.572033 L 22.741525,7.6843213 z M 23.593712,23.21262 H 12.558831 c -0.429981,0 -0.777543,-0.347561 -0.777543,-0.777542 0,-0.429981 0.347562,-0.777543 0.777543,-0.777543 h 11.034103 c 0.429981,0 0.777543,0.347562 0.777543,0.777543 0,0.429981 -0.347562,0.777542 -0.776765,0.777542 z m 0,-3.110169 H 12.558831 c -0.429981,0 -0.777543,-0.347562 -0.777543,-0.777543 0,-0.429981 0.347562,-0.777542 0.777543,-0.777542 h 11.034103 c 0.429981,0 0.777543,0.347561 0.777543,0.777542 0,0.429981 -0.347562,0.777543 -0.776765,0.777543 z m 0,-3.11017 H 12.558831 c -0.429981,0 -0.777543,-0.347561 -0.777543,-0.777542 0,-0.429981 0.347562,-0.777543 0.777543,-0.777543 h 11.034103 c 0.429981,0 0.777543,0.347562 0.777543,0.777543 0,0.429981 -0.347562,0.777542 -0.776765,0.777542 z m 0,-3.110169 H 12.558831 c -0.429981,0 -0.777543,-0.347562 -0.777543,-0.777543 0,-0.429981 0.347562,-0.777542 0.777543,-0.777542 h 11.034103 c 0.429981,0 0.777543,0.347561 0.777543,0.777542 0,0.429981 -0.347562,0.777543 -0.776765,0.777543 z" /></g></g><g
   inkscape:groupmode="layer"
   id="layer2"
   inkscape:label="Front"><g
     id="g3842"
     transform="translate(0.0732623,0.170245)"><path
       d="M 22.741525,6.906779 H 10.300848 c -0.4268712,0 -0.7775428,0.349894 -0.7775428,0.7775423 V 26.345338 c 0,0.427649 0.3506716,0.777543 0.7775428,0.777543 h 15.550847 c 0.428426,0 0.777542,-0.349894 0.777542,-0.777543 V 10.794491 L 22.741525,6.906779 z m 0.852187,15.528299 H 12.558831 c -0.429981,0 -0.777543,-0.347562 -0.777543,-0.777543 0,-0.429981 0.347562,-0.777542 0.777543,-0.777542 h 11.034103 c 0.429981,0 0.777543,0.347561 0.777543,0.777542 0,0.429981 -0.347562,0.777543 -0.776765,0.777543 z m 0,-3.11017 H 12.558831 c -0.429981,0 -0.777543,-0.347561 -0.777543,-0.777542 0,-0.429981 0.347562,-0.777543 0.777543,-0.777543 h 11.034103 c 0.429981,0 0.777543,0.347562 0.777543,0.777543 0,0.429981 -0.347562,0.777542 -0.776765,0.777542 z m 0,-3.110169 H 12.558831 c -0.429981,0 -0.777543,-0.347562 -0.777543,-0.777543 0,-0.429981 0.347562,-0.777542 0.777543,-0.777542 h 11.034103 c 0.429981,0 0.777543,0.347561 0.777543,0.777542 0,0.429981 -0.347562,0.777543 -0.776765,0.777543 z m 0,-3.11017 H 12.558831 c -0.429981,0 -0.777543,-0.347561 -0.777543,-0.777542 0,-0.429981 0.347562,-0.777543 0.777543,-0.777543 h 11.034103 c 0.429981,0 0.777543,0.347562 0.777543,0.777543 0,0.429981 -0.347562,0.777542 -0.776765,0.777542 z"
       id="path3844"
       inkscape:connector-curvature="0"
       style="opacity:0.3" /><path
       d="m 10.300848,28.677965 c -0.8576297,0 -1.5550852,-0.697455 -1.5550852,-1.555084 V 8.4618637 c 0,-0.8576292 0.6974555,-1.5550847 1.5550852,-1.5550847 h 12.440677 c 0.206827,0 0.404323,0.081642 0.549723,0.2278199 l 3.887712,3.8877121 c 0.146178,0.1454 0.22782,0.343673 0.22782,0.549722 v 15.550848 c 0,0.857629 -0.697456,1.555084 -1.555085,1.555084 H 10.300848 z m 2.257205,-6.242887 h 11.035659 -11.034881 -7.78e-4 z m 0,-3.11017 h 11.035659 -11.034881 -7.78e-4 z m 0,-3.110169 h 11.035659 -11.034881 -7.78e-4 z m 0,-3.11017 h 11.035659 -11.034881 -7.78e-4 z"
       id="path3846"
       inkscape:connector-curvature="0"
       style="fill:#808080;fill-opacity:1;stroke:none" /><path
       d="M 22.741525,7.6843213 H 10.300848 c -0.4268712,0 -0.7775428,0.3498941 -0.7775428,0.7775424 V 27.122881 c 0,0.427648 0.3506716,0.777542 0.7775428,0.777542 h 15.550847 c 0.428426,0 0.777542,-0.349894 0.777542,-0.777542 V 11.572033 L 22.741525,7.6843213 z M 23.593712,23.21262 H 12.558831 c -0.429981,0 -0.777543,-0.347561 -0.777543,-0.777542 0,-0.429981 0.347562,-0.777543 0.777543,-0.777543 h 11.034103 c 0.429981,0 0.777543,0.347562 0.777543,0.777543 0,0.429981 -0.347562,0.777542 -0.776765,0.777542 z m 0,-3.110169 H 12.558831 c -0.429981,0 -0.777543,-0.347562 -0.777543,-0.777543 0,-0.429981 0.347562,-0.777542 0.777543,-0.777542 h 11.034103 c 0.429981,0 0.777543,0.347561 0.777543,0.777542 0,0.429981 -0.347562,0.777543 -0.776765,0.777543 z m 0,-3.11017 H 12.558831 c -0.429981,0 -0.777543,-0.347561 -0.777543,-0.777542 0,-0.429981 0.347562,-0.777543 0.777543,-0.777543 h 11.034103 c 0.429981,0 0.777543,0.347562 0.777543,0.777543 0,0.429981 -0.347562,0.777542 -0.776765,0.777542 z m 0,-3.110169 H 12.558831 c -0.429981,0 -0.777543,-0.347562 -0.777543,-0.777543 0,-0.429981 0.347562,-0.777542 0.777543,-0.777542 h 11.034103 c 0.429981,0 0.777543,0.347561 0.777543,0.777542 0,0.429981 -0.347562,0.777543 -0.776765,0.777543 z"
       id="path3848"
       inkscape:connector-curvature="0"
       style="opacity:0.15" /><path
       d="M 22.741525,7.6843213 H 10.300848 c -0.4268712,0 -0.7775428,0.3498941 -0.7775428,0.7775424 V 27.122881 c 0,0.427648 0.3506716,0.777542 0.7775428,0.777542 h 15.550847 c 0.428426,0 0.777542,-0.349894 0.777542,-0.777542 V 11.572033 L 22.741525,7.6843213 z M 23.593712,23.21262 H 12.558831 c -0.429981,0 -0.777543,-0.347561 -0.777543,-0.777542 0,-0.429981 0.347562,-0.777543 0.777543,-0.777543 h 11.034103 c 0.429981,0 0.777543,0.347562 0.777543,0.777543 0,0.429981 -0.347562,0.777542 -0.776765,0.777542 z m 0,-3.110169 H 12.558831 c -0.429981,0 -0.777543,-0.347562 -0.777543,-0.777543 0,-0.429981 0.347562,-0.777542 0.777543,-0.777542 h 11.034103 c 0.429981,0 0.777543,0.347561 0.777543,0.777542 0,0.429981 -0.347562,0.777543 -0.776765,0.777543 z m 0,-3.11017 H 12.558831 c -0.429981,0 -0.777543,-0.347561 -0.777543,-0.777542 0,-0.429981 0.347562,-0.777543 0.777543,-0.777543 h 11.034103 c 0.429981,0 0.777543,0.347562 0.777543,0.777543 0,0.429981 -0.347562,0.777542 -0.776765,0.777542 z m 0,-3.110169 H 12.558831 c -0.429981,0 -0.777543,-0.347562 -0.777543,-0.777543 0,-0.429981 0.347562,-0.777542 0.777543,-0.777542 h 11.034103 c 0.429981,0 0.777543,0.347561 0.777543,0.777542 0,0.429981 -0.347562,0.777543 -0.776765,0.777543 z"
       id="path3850"
       inkscape:connector-curvature="0"
       style="fill:#ffffff" /></g></g></svg>