<?xml version="1.0" encoding="UTF-8" standalone="no"?>
<!-- Converted with SVG Converter - Version 0.9.5 (Compiled Mon May 30 09:08:51 2011) - Copyright (C) 2011 Nokia -->

<svg
   xmlns:dc="http://purl.org/dc/elements/1.1/"
   xmlns:cc="http://creativecommons.org/ns#"
   xmlns:rdf="http://www.w3.org/1999/02/22-rdf-syntax-ns#"
   xmlns:svg="http://www.w3.org/2000/svg"
   xmlns="http://www.w3.org/2000/svg"
   xmlns:sodipodi="http://sodipodi.sourceforge.net/DTD/sodipodi-0.dtd"
   xmlns:inkscape="http://www.inkscape.org/namespaces/inkscape"
   width="30px"
   x="0px"
   version="1.1"
   y="0px"
   height="30px"
   viewBox="0 0 30 30"
   xml:space="preserve"
   id="svg2"
   inkscape:version="0.48.2 r9819"
   sodipodi:docname="delete_inverted.svg"><metadata
   id="metadata23"><rdf:RDF><cc:Work
       rdf:about=""><dc:format>image/svg+xml</dc:format><dc:type
         rdf:resource="http://purl.org/dc/dcmitype/StillImage" /></cc:Work></rdf:RDF></metadata><defs
   id="defs21">
  
 
   
   
   
   
   
  </defs><sodipodi:namedview
   pagecolor="#ffffff"
   bordercolor="#666666"
   borderopacity="1"
   objecttolerance="10"
   gridtolerance="10"
   guidetolerance="10"
   inkscape:pageopacity="0"
   inkscape:pageshadow="2"
   inkscape:window-width="1920"
   inkscape:window-height="955"
   id="namedview19"
   showgrid="false"
   inkscape:zoom="25.933333"
   inkscape:cx="9.0424165"
   inkscape:cy="15"
   inkscape:window-x="-4"
   inkscape:window-y="-4"
   inkscape:window-maximized="1"
   inkscape:current-layer="svg2" />
 <g
   id="DO_NOT_EDIT_-_BOUNDING_BOX">
  <rect
   width="30"
   fill="none"
   height="30"
   id="BOUNDING_BOX" />
 </g>
 <path
   d="M 7,26 H 23 L 24,7 H 6 L 7,26 z M 18,11 c 0,-0.553 0.447,-1 1,-1 0.553,0 1,0.447 1,1 v 10 c 0,0.553 -0.447,1 -1,1 -0.553,0 -1,-0.447 -1,-1 V 11 z m -4,0 c 0,-0.553 0.447,-1 1,-1 0.553,0 1,0.447 1,1 v 10 c 0,0.553 -0.447,1 -1,1 -0.553,0 -1,-0.447 -1,-1 V 11 z m -4,0 c 0,-0.553 0.447,-1 1,-1 0.553,0 1,0.447 1,1 v 10 c 0,0.553 -0.447,1 -1,1 -0.553,0 -1,-0.447 -1,-1 V 11 z M 24,3 H 18.5 V 2 C 18.5,1.174 17.828,0.5 17,0.5 H 13 C 12.174,0.5 11.5,1.174 11.5,2 V 3 H 6 C 5.447,3 5,3.448 5,4 V 5 H 25 V 4 C 25,3.448 24.551,3 24,3 z M 17,3 H 13 V 2 h 4 v 1 z"
   id="path9"
   inkscape:connector-curvature="0"
   style="fill-opacity:0.3;stroke-opacity:0.3" /><path
   d="M 7,28 C 6.468,28 6.029,27.584 6.001,27.053 l -1,-19 C 4.987,7.779 5.086,7.511 5.274,7.312 5.463,7.113 5.726,7 6,7 H 5 C 4.448,7 4,6.552 4,6 V 5 C 4,3.897 4.897,3 6,3 h 4.5 c 0,-1.378 1.122,-2.5 2.5,-2.5 h 4 c 1.379,0 2.5,1.122 2.5,2.5 H 24 c 1.103,0 2,0.897 2,2 v 1 c 0,0.552 -0.447,1 -1,1 h -1 c 0.274,0 0.537,0.113 0.726,0.312 0.188,0.199 0.287,0.467 0.273,0.741 l -1,19 C 23.971,27.584 23.532,28 23,28 H 7 z"
   id="path11"
   inkscape:connector-curvature="0"
   style="fill-opacity:0.15;stroke-opacity:0.15" /><path
   d="M 7,27 H 23 L 24,8 H 6 L 7,27 z M 18,12 c 0,-0.553 0.447,-1 1,-1 0.553,0 1,0.447 1,1 v 10 c 0,0.553 -0.447,1 -1,1 -0.553,0 -1,-0.447 -1,-1 V 12 z m -4,0 c 0,-0.553 0.447,-1 1,-1 0.553,0 1,0.447 1,1 v 10 c 0,0.553 -0.447,1 -1,1 -0.553,0 -1,-0.447 -1,-1 V 12 z m -4,0 c 0,-0.553 0.447,-1 1,-1 0.553,0 1,0.447 1,1 v 10 c 0,0.553 -0.447,1 -1,1 -0.553,0 -1,-0.447 -1,-1 V 12 z M 24,4 H 18.5 V 3 C 18.5,2.174 17.828,1.5 17,1.5 H 13 C 12.174,1.5 11.5,2.174 11.5,3 V 4 H 6 C 5.447,4 5,4.448 5,5 V 6 H 25 V 5 C 25,4.448 24.551,4 24,4 z M 17,4 H 13 V 3 h 4 v 1 z"
   id="path13"
   inkscape:connector-curvature="0"
   style="fill-opacity:0.15;stroke-opacity:0.15" /><path
   d="M 7,27 H 23 L 24,8 H 6 L 7,27 z M 18,12 c 0,-0.553 0.447,-1 1,-1 0.553,0 1,0.447 1,1 v 10 c 0,0.553 -0.447,1 -1,1 -0.553,0 -1,-0.447 -1,-1 V 12 z m -4,0 c 0,-0.553 0.447,-1 1,-1 0.553,0 1,0.447 1,1 v 10 c 0,0.553 -0.447,1 -1,1 -0.553,0 -1,-0.447 -1,-1 V 12 z m -4,0 c 0,-0.553 0.447,-1 1,-1 0.553,0 1,0.447 1,1 v 10 c 0,0.553 -0.447,1 -1,1 -0.553,0 -1,-0.447 -1,-1 V 12 z M 24,4 H 18.5 V 3 C 18.5,2.174 17.828,1.5 17,1.5 H 13 C 12.174,1.5 11.5,2.174 11.5,3 V 4 H 6 C 5.447,4 5,4.448 5,5 V 6 H 25 V 5 C 25,4.448 24.551,4 24,4 z M 17,4 H 13 V 3 h 4 v 1 z"
   id="path15"
   inkscape:connector-curvature="0"
   style="fill:#000000;fill-opacity:1" /><rect
   width="30"
   height="30"
   id="rect17"
   x="0"
   y="0"
   style="fill:none" />
</svg>