<?xml version="1.0"?>
<!-- Converted with SVG Converter - Version 0.9.5 (Compiled Mon May 30 09:08:51 2011) - Copyright (C) 2011 Nokia -->
<svg xmlns="http://www.w3.org/2000/svg" width="30px" x="0px" version="1.1" y="0px" height="30px" viewBox="0 0 30 30" xmlns:xlink="http://www.w3.org/1999/xlink" baseProfile="tiny" xml:space="preserve">
 <g id="DO_NOT_EDIT_-_BOUNDING_BOX">
  <rect width="30" fill="none" height="30" id="BOUNDING_BOX"/>
 </g>
 <g id="PLACE_YOUR_GRAPHIC_HERE">
  <g>
   <path stroke-opacity="0.3" fill-opacity="0.3" d="M7,26h16l1-19H6L7,26z M18,11c0-0.553,0.447-1,1-1s1,0.447,1,1v10c0,0.553-0.447,1-1,1s-1-0.447-1-1V11z&#xd;&#xa;&#x9;&#x9;&#x9; M14,11c0-0.553,0.447-1,1-1s1,0.447,1,1v10c0,0.553-0.447,1-1,1s-1-0.447-1-1V11z M10,11c0-0.553,0.447-1,1-1s1,0.447,1,1v10&#xd;&#xa;&#x9;&#x9;&#x9;c0,0.553-0.447,1-1,1s-1-0.447-1-1V11z M24,3h-5.5V2c0-0.826-0.672-1.5-1.5-1.5h-4c-0.826,0-1.5,0.674-1.5,1.5v1H6&#xd;&#xa;&#x9;&#x9;&#x9;C5.447,3,5,3.448,5,4v1h20V4C25,3.448,24.551,3,24,3z M17,3h-4V2h4V3z"/>
   <path stroke-opacity="0.15" fill-opacity="0.15" d="M7,28c-0.532,0-0.971-0.416-0.999-0.947l-1-19C4.987,7.779,5.086,7.511,5.274,7.312&#xd;&#xa;&#x9;&#x9;&#x9;C5.463,7.113,5.726,7,6,7H5C4.448,7,4,6.552,4,6V5c0-1.103,0.897-2,2-2h4.5c0-1.378,1.122-2.5,2.5-2.5h4&#xd;&#xa;&#x9;&#x9;&#x9;c1.379,0,2.5,1.122,2.5,2.5H24c1.103,0,2,0.897,2,2v1c0,0.552-0.447,1-1,1h-1c0.274,0,0.537,0.113,0.726,0.312&#xd;&#xa;&#x9;&#x9;&#x9;c0.188,0.199,0.287,0.467,0.273,0.741l-1,19C23.971,27.584,23.532,28,23,28H7z"/>
   <path stroke-opacity="0.15" fill-opacity="0.15" d="M7,27h16l1-19H6L7,27z M18,12c0-0.553,0.447-1,1-1s1,0.447,1,1v10c0,0.553-0.447,1-1,1s-1-0.447-1-1V12z&#xd;&#xa;&#x9;&#x9;&#x9; M14,12c0-0.553,0.447-1,1-1s1,0.447,1,1v10c0,0.553-0.447,1-1,1s-1-0.447-1-1V12z M10,12c0-0.553,0.447-1,1-1s1,0.447,1,1v10&#xd;&#xa;&#x9;&#x9;&#x9;c0,0.553-0.447,1-1,1s-1-0.447-1-1V12z M24,4h-5.5V3c0-0.826-0.672-1.5-1.5-1.5h-4c-0.826,0-1.5,0.674-1.5,1.5v1H6&#xd;&#xa;&#x9;&#x9;&#x9;C5.447,4,5,4.448,5,5v1h20V5C25,4.448,24.551,4,24,4z M17,4h-4V3h4V4z"/>
   <path fill="#FFFFFF" d="M7,27h16l1-19H6L7,27z M18,12c0-0.553,0.447-1,1-1s1,0.447,1,1v10c0,0.553-0.447,1-1,1s-1-0.447-1-1V12z&#xd;&#xa;&#x9;&#x9;&#x9; M14,12c0-0.553,0.447-1,1-1s1,0.447,1,1v10c0,0.553-0.447,1-1,1s-1-0.447-1-1V12z M10,12c0-0.553,0.447-1,1-1s1,0.447,1,1v10&#xd;&#xa;&#x9;&#x9;&#x9;c0,0.553-0.447,1-1,1s-1-0.447-1-1V12z M24,4h-5.5V3c0-0.826-0.672-1.5-1.5-1.5h-4c-0.826,0-1.5,0.674-1.5,1.5v1H6&#xd;&#xa;&#x9;&#x9;&#x9;C5.447,4,5,4.448,5,5v1h20V5C25,4.448,24.551,4,24,4z M17,4h-4V3h4V4z"/>
   <rect width="30" fill="none" height="30"/>
  </g>
 </g>
</svg>
