<?xml version="1.0" encoding="UTF-8" standalone="no"?>
<!-- Generator: Adobe Illustrator 15.0.2, SVG Export Plug-In  -->

<svg
   xmlns:dc="http://purl.org/dc/elements/1.1/"
   xmlns:cc="http://creativecommons.org/ns#"
   xmlns:rdf="http://www.w3.org/1999/02/22-rdf-syntax-ns#"
   xmlns:svg="http://www.w3.org/2000/svg"
   xmlns="http://www.w3.org/2000/svg"
   xmlns:xlink="http://www.w3.org/1999/xlink"
   xmlns:sodipodi="http://sodipodi.sourceforge.net/DTD/sodipodi-0.dtd"
   xmlns:inkscape="http://www.inkscape.org/namespaces/inkscape"
   version="1.1"
   x="0px"
   y="0px"
   width="67px"
   height="57px"
   viewBox="0 0 67 57"
   enable-background="new 0 0 67 57"
   xml:space="preserve"
   id="svg2"
   inkscape:version="0.48.2 r9819"
   sodipodi:docname="delete_list.svg"><metadata
   id="metadata40"><rdf:RDF><cc:Work
       rdf:about=""><dc:format>image/svg+xml</dc:format><dc:type
         rdf:resource="http://purl.org/dc/dcmitype/StillImage" /></cc:Work></rdf:RDF></metadata><sodipodi:namedview
   pagecolor="#ffffff"
   bordercolor="#666666"
   borderopacity="1"
   objecttolerance="10"
   gridtolerance="10"
   guidetolerance="10"
   inkscape:pageopacity="0"
   inkscape:pageshadow="2"
   inkscape:window-width="1920"
   inkscape:window-height="1032"
   id="namedview38"
   showgrid="false"
   inkscape:zoom="14.280702"
   inkscape:cx="34.236222"
   inkscape:cy="28.5"
   inkscape:window-x="0"
   inkscape:window-y="0"
   inkscape:window-maximized="0"
   inkscape:current-layer="svg2" />
<defs
   id="defs4"><linearGradient
   y2="5.5005"
   x2="33.5005"
   y1="51.5"
   x1="33.5005"
   gradientUnits="userSpaceOnUse"
   id="linearGradient3881">
	<stop
   id="stop3883"
   style="stop-color:#D0CBC5"
   offset="0" />
	<stop
   id="stop3885"
   style="stop-color:#FAFCEF"
   offset="0.16711636" />
	<stop
   id="stop3887"
   style="stop-color:#FFFFFF"
   offset="0.9693" />
</linearGradient>
<linearGradient
   inkscape:collect="always"
   xlink:href="#SVGID_1_"
   id="linearGradient3820"
   gradientUnits="userSpaceOnUse"
   x1="33.5005"
   y1="51.5"
   x2="33.5005"
   y2="5.5005" /></defs>
<path
   sodipodi:type="inkscape:offset"
   inkscape:radius="-0.59140992"
   inkscape:original="M 29.90625 3.59375 C 27.410393 3.59375 25.384548 5.6141163 25.3125 8.09375 L 17.25 8.09375 C 15.206838 8.09375 13.5625 9.7816048 13.5625 11.8125 L 13.5625 13.625 C 13.5625 14.66954 14.42421 15.53125 15.46875 15.53125 L 16.75 15.53125 C 16.437594 15.629027 16.098266 15.671171 15.875 15.90625 C 15.479432 16.322747 15.348996 16.868736 15.375 17.34375 L 17.15625 51.625 C 17.20937 52.632389 18.066785 53.40625 19.0625 53.40625 L 47.9375 53.40625 C 48.933215 53.40625 49.79063 52.632389 49.84375 51.625 L 51.65625 17.34375 A 0.91041042 0.91041042 0 0 0 51.65625 17.3125 C 51.683936 16.770655 51.483905 16.286155 51.125 15.90625 C 50.901032 15.670432 50.562178 15.628783 50.25 15.53125 L 51.53125 15.53125 C 52.575899 15.53125 53.4375 14.668441 53.4375 13.625 L 53.4375 11.8125 C 53.4375 9.7816048 51.793162 8.09375 49.75 8.09375 L 41.6875 8.09375 C 41.615478 5.6143877 39.59035 3.59375 37.09375 3.59375 L 29.90625 3.59375 z "
   style="fill:#000000;fill-opacity:1"
   id="path3842"
   d="m 29.90625,4.1875 c -2.176698,0 -3.937029,1.7702552 -4,3.9375 A 0.59146906,0.59146906 0 0 1 25.3125,8.6875 l -8.0625,0 c -1.717453,0 -3.09375,1.413333 -3.09375,3.125 l 0,1.8125 c 0,0.719278 0.593222,1.3125 1.3125,1.3125 l 1.28125,0 a 0.59146906,0.59146906 0 0 1 0.1875,1.15625 c -0.382678,0.119771 -0.583485,0.175039 -0.625,0.21875 -0.262543,0.276434 -0.362502,0.657464 -0.34375,1 L 17.75,51.59375 c 0.03634,0.689112 0.623211,1.21875 1.3125,1.21875 l 28.875,0 c 0.689289,0 1.276163,-0.529638 1.3125,-1.21875 l 1.8125,-34.25 c 2.95e-4,-0.01718 2.95e-4,-0.01407 0,-0.03125 a 0.59146906,0.59146906 0 0 1 0,-0.03125 c 0.01936,-0.378917 -0.113138,-0.691566 -0.375,-0.96875 -0.04279,-0.04505 -0.242291,-0.09918 -0.625,-0.21875 A 0.59146906,0.59146906 0 0 1 50.25,14.9375 l 1.28125,0 c 0.719006,0 1.3125,-0.594622 1.3125,-1.3125 l 0,-1.8125 c 0,-1.711667 -1.376297,-3.125 -3.09375,-3.125 l -8.0625,0 A 0.59146906,0.59146906 0 0 1 41.09375,8.125 c -0.06295,-2.1670517 -1.822507,-3.9375 -4,-3.9375 l -7.1875,0 z" /><rect
   style="fill:#d5d1ca;fill-opacity:1;stroke:none"
   id="rect3863"
   width="27.519655"
   height="26.609337"
   x="19.60688"
   y="20.167076" /><rect
   id="BOUNDING_BOX_1_"
   fill="none"
   width="67"
   height="57" />

<path
   style="opacity:0;fill:#d1ccc6;fill-opacity:1"
   d="m 40.716,23.638 c -0.443,0 -0.804,0.36 -0.804,0.804 V 42.48 c 0,0.443 0.36,0.804 0.804,0.804 0.444,0 0.804,-0.36 0.804,-0.804 V 24.441 c 0,-0.443 -0.361,-0.803 -0.804,-0.803 z"
   id="path3795" /><path
   style="opacity:0;fill:#d1ccc6;fill-opacity:1"
   d="m 33.5,23.638 c -0.443,0 -0.804,0.36 -0.804,0.804 V 42.48 c 0,0.443 0.36,0.804 0.804,0.804 0.444,0 0.804,-0.36 0.804,-0.804 V 24.441 c 0,-0.443 -0.361,-0.803 -0.804,-0.803 z"
   id="path3793" /><path
   style="opacity:0;fill:#d1ccc6;fill-opacity:1"
   d="m 26.284,23.638 c -0.443,0 -0.804,0.36 -0.804,0.804 V 42.48 c 0,0.443 0.36,0.804 0.804,0.804 0.444,0 0.804,-0.36 0.804,-0.804 V 24.441 c 0,-0.443 -0.36,-0.803 -0.804,-0.803 z"
   id="path3791" />

<linearGradient
   id="SVGID_1_"
   gradientUnits="userSpaceOnUse"
   x1="33.5005"
   y1="51.5"
   x2="33.5005"
   y2="5.5005">
	<stop
   offset="0"
   style="stop-color:#D0CBC5"
   id="stop14" />
	<stop
   offset="0.5031"
   style="stop-color:#FAFCEF"
   id="stop16" />
	<stop
   offset="0.9693"
   style="stop-color:#FFFFFF"
   id="stop18" />
</linearGradient>
<path
   inkscape:connector-curvature="0"
   style="fill:url(#linearGradient3820)"
   d="M 19.069,51.5 H 47.932 L 49.736,17.226 H 17.265 L 19.069,51.5 z M 38.912,24.441 c 0,-0.997 0.807,-1.804 1.804,-1.804 0.997,0 1.804,0.807 1.804,1.804 V 42.48 c 0,0.997 -0.807,1.804 -1.804,1.804 -0.997,0 -1.804,-0.807 -1.804,-1.804 V 24.441 z m -7.216,0 c 0,-0.997 0.807,-1.804 1.804,-1.804 0.997,0 1.804,0.807 1.804,1.804 V 42.48 c 0,0.997 -0.807,1.804 -1.804,1.804 -0.997,0 -1.804,-0.807 -1.804,-1.804 V 24.441 z m -7.216,0 c 0,-0.997 0.807,-1.804 1.804,-1.804 0.997,0 1.804,0.807 1.804,1.804 V 42.48 c 0,0.997 -0.807,1.804 -1.804,1.804 -0.997,0 -1.804,-0.807 -1.804,-1.804 V 24.441 z M 49.735,10.01 H 39.813 V 8.206 C 39.813,6.715 38.601,5.5 37.107,5.5 h -7.215 c -1.491,0 -2.706,1.215 -2.706,2.706 v 1.804 h -9.922 c -0.997,0 -1.804,0.809 -1.804,1.804 v 1.804 H 51.538 V 11.814 C 51.539,10.818 50.729,10.01 49.735,10.01 z m -12.628,0 H 29.892 V 8.206 h 7.215 v 1.804 z"
   id="path20" />







<g
   id="g3829"><path
     id="path22"
     d="M26.284,45.284c0.997,0,1.804-0.807,1.804-1.804v-1c0,0.997-0.807,1.804-1.804,1.804  s-1.804-0.807-1.804-1.804v1C24.48,44.478,25.287,45.284,26.284,45.284z"
     fill="#FFFFFF" /><path
     id="path30"
     d="M33.5,45.284c0.997,0,1.804-0.807,1.804-1.804v-1c0,0.997-0.807,1.804-1.804,1.804s-1.804-0.807-1.804-1.804  v1C31.696,44.478,32.503,45.284,33.5,45.284z"
     fill="#FFFFFF" /><path
     id="path36"
     d="M40.716,45.284c0.997,0,1.804-0.807,1.804-1.804v-1c0,0.997-0.807,1.804-1.804,1.804  s-1.804-0.807-1.804-1.804v1C38.912,44.478,39.719,45.284,40.716,45.284z"
     fill="#FFFFFF" /></g>
</svg>