<?xml version="1.0" encoding="UTF-8" standalone="no"?>
<!-- Converted with SVG Converter - Version 0.9.5 (Compiled Mon May 30 09:08:51 2011) - Copyright (C) 2011 Nokia -->

<svg
   xmlns:dc="http://purl.org/dc/elements/1.1/"
   xmlns:cc="http://creativecommons.org/ns#"
   xmlns:rdf="http://www.w3.org/1999/02/22-rdf-syntax-ns#"
   xmlns:svg="http://www.w3.org/2000/svg"
   xmlns="http://www.w3.org/2000/svg"
   xmlns:xlink="http://www.w3.org/1999/xlink"
   xmlns:sodipodi="http://sodipodi.sourceforge.net/DTD/sodipodi-0.dtd"
   xmlns:inkscape="http://www.inkscape.org/namespaces/inkscape"
   width="67px"
   x="0px"
   version="1.1"
   y="0px"
   height="57px"
   viewBox="0 0 67 57"
   id="Ebene_1"
   xml:space="preserve"
   inkscape:version="0.48.2 r9819"
   sodipodi:docname="device.svg"><metadata
   id="metadata30"><rdf:RDF><cc:Work
       rdf:about=""><dc:format>image/svg+xml</dc:format><dc:type
         rdf:resource="http://purl.org/dc/dcmitype/StillImage" /></cc:Work></rdf:RDF></metadata><defs
   id="defs28"><linearGradient
     inkscape:collect="always"
     xlink:href="#SVGID_1_"
     id="linearGradient3796"
     gradientUnits="userSpaceOnUse"
     gradientTransform="matrix(1,0,0,-1,-137.48,-203.0195)"
     x1="171.4805"
     y1="-255.0195"
     x2="171.4805"
     y2="-207.0195" /></defs><sodipodi:namedview
   pagecolor="#ffffff"
   bordercolor="#666666"
   borderopacity="1"
   objecttolerance="10"
   gridtolerance="10"
   guidetolerance="10"
   inkscape:pageopacity="0"
   inkscape:pageshadow="2"
   inkscape:window-width="1890"
   inkscape:window-height="985"
   id="namedview26"
   showgrid="false"
   inkscape:zoom="14.175439"
   inkscape:cx="33.499999"
   inkscape:cy="28.499999"
   inkscape:window-x="26"
   inkscape:window-y="-4"
   inkscape:window-maximized="1"
   inkscape:current-layer="Ebene_1" />
 <path
   sodipodi:type="inkscape:offset"
   inkscape:radius="-0.49228567"
   inkscape:original="M 21.5 3.125 C 20.360111 3.125 19.266832 3.8803901 18.84375 4.9375 L 17.59375 8.0625 C 17.312872 8.7658107 17.125 9.7433662 17.125 10.5 L 17.125 46.5 C 17.125 47.256634 17.312872 48.23419 17.59375 48.9375 L 18.84375 52.0625 C 19.266832 53.11961 20.360111 53.875 21.5 53.875 L 45.5 53.875 C 46.639889 53.875 47.733168 53.11961 48.15625 52.0625 L 49.40625 48.9375 C 49.687128 48.23419 49.875 47.256634 49.875 46.5 L 49.875 10.5 C 49.875 9.7433662 49.687128 8.7658107 49.40625 8.0625 L 48.15625 4.9375 C 47.73325 3.8794043 46.639586 3.125 45.5 3.125 L 21.5 3.125 z "
   style="font-size:medium;font-style:normal;font-variant:normal;font-weight:normal;font-stretch:normal;text-indent:0;text-align:start;text-decoration:none;line-height:normal;letter-spacing:normal;word-spacing:normal;text-transform:none;direction:ltr;block-progression:tb;writing-mode:lr-tb;text-anchor:start;baseline-shift:baseline;color:#000000;fill:none;stroke:#000000;stroke-width:1;stroke-opacity:1;marker:none;visibility:visible;display:inline;overflow:visible;enable-background:accumulate;font-family:Sans;-inkscape-font-specification:Sans"
   id="path3764"
   d="m 21.5,3.625 c -0.922401,0 -1.843063,0.6393927 -2.1875,1.5 l -1.25,3.125 C 17.811852,8.8776159 17.625,9.8248558 17.625,10.5 l 0,36 c 0,0.675144 0.186852,1.622385 0.4375,2.25 l 1.25,3.125 c 0.344437,0.860607 1.265099,1.5 2.1875,1.5 l 24,0 c 0.922401,0 1.843063,-0.639393 2.1875,-1.5 l 1.25,-3.125 c 0.250648,-0.627615 0.4375,-1.574856 0.4375,-2.25 l 0,-36 c 0,-0.6751442 -0.186852,-1.6223841 -0.4375,-2.25 l -1.25,-3.125 C 47.343131,4.2635932 46.422324,3.625 45.5,3.625 l -24,0 z" /><g
   id="g3">
  <rect
   width="67"
   fill="none"
   height="57"
   id="rect5" />
 </g>
 <g
   id="g7">
  <rect
   width="46"
   x="10.5"
   y="5.5"
   fill="none"
   height="46"
   id="rect9" />
 </g>
 
 
 <linearGradient
   gradientTransform="matrix(1 0 0 -1 -137.48 -203.0195)"
   id="SVGID_1_"
   y1="-255.0195"
   x1="171.4805"
   y2="-207.0195"
   gradientUnits="userSpaceOnUse"
   x2="171.4805">
  <stop
   offset="0"
   style="stop-color:#D0CBC5"
   id="stop16" />
  <stop
   offset="0.5031"
   style="stop-color:#FAFCEF"
   id="stop18" />
  <stop
   offset="0.9693"
   style="stop-color:#FFFFFF"
   id="stop20" />
 </linearGradient>
 
 <g
   id="g3790"
   transform="translate(-0.5,0.5)"><path
     d="m 22,3 c -0.956,0 -1.9575,0.6755 -2.3125,1.5625 l -1.25,3.125 C 18.1855,8.3185 18,9.32 18,10 l 0,36 c 0,0.68 0.1855,1.6815 0.4375,2.3125 l 1.25,3.125 C 20.0425,52.3245 21.044,53 22,53 l 24,0 c 0.956,0 1.9575,-0.6755 2.3125,-1.5625 l 1.25,-3.125 C 49.8145,47.6815 50,46.68 50,46 L 50,10 C 50,9.32 49.8145,8.3185 49.5625,7.6875 l -1.25,-3.125 C 47.9575,3.6745 46.956,3 46,3 L 22,3 z m 1,8 22,0 0,31 -22,0 0,-31 z m 4.5,36 13,0 c 0.275,0 0.5,0.225 0.5,0.5 0,0.275 -0.225,0.5 -0.5,0.5 l -13,0 C 27.225,48 27,47.775 27,47.5 27,47.225 27.225,47 27.5,47 z"
     id="path3763"
     style="fill:#000000;fill-opacity:1;stroke-opacity:0.15"
     inkscape:original="M 22 3 C 21.044 3 20.0425 3.6755 19.6875 4.5625 L 18.4375 7.6875 C 18.1855 8.3185 18 9.32 18 10 L 18 46 C 18 46.68 18.1855 47.6815 18.4375 48.3125 L 19.6875 51.4375 C 20.0425 52.3245 21.044 53 22 53 L 46 53 C 46.956 53 47.9575 52.3245 48.3125 51.4375 L 49.5625 48.3125 C 49.8145 47.6815 50 46.68 50 46 L 50 10 C 50 9.32 49.8145 8.3185 49.5625 7.6875 L 48.3125 4.5625 C 47.9575 3.6745 46.956 3 46 3 L 22 3 z M 23 11 L 45 11 L 45 42 L 23 42 L 23 11 z M 27.5 47 L 40.5 47 C 40.775 47 41 47.225 41 47.5 C 41 47.775 40.775 48 40.5 48 L 27.5 48 C 27.225 48 27 47.775 27 47.5 C 27 47.225 27.225 47 27.5 47 z "
     inkscape:radius="0"
     sodipodi:type="inkscape:offset" /><path
     id="path13"
     d="M 48.629,9.071 47.371,5.928 C 47.167,5.418 46.55,5 46,5 H 22 C 21.45,5 20.833,5.418 20.629,5.929 L 19.371,9.072 C 19.167,9.582 19,10.45 19,11 v 36 c 0,0.551 0.167,1.418 0.371,1.93 l 1.258,3.143 C 20.833,52.582 21.45,53 22,53 h 24 c 0.55,0 1.167,-0.418 1.371,-0.928 l 1.258,-3.143 C 48.833,48.417 49,47.55 49,47 V 11 C 49,10.45 48.833,9.582 48.629,9.071 z M 40.5,50 h -13 C 26.672,50 26,49.328 26,48.5 26,47.672 26.672,47 27.5,47 h 13 c 0.828,0 1.5,0.672 1.5,1.5 0,0.828 -0.672,1.5 -1.5,1.5 z M 46,44 H 22 V 11 h 24 v 33 z"
     inkscape:connector-curvature="0"
     style="fill-opacity:0.3;stroke-opacity:0.3" /><path
     id="path22"
     d="M 48.629,8.071 47.371,4.928 C 47.167,4.418 46.55,4 46,4 H 22 C 21.45,4 20.833,4.418 20.629,4.929 L 19.371,8.072 C 19.167,8.582 19,9.45 19,10 v 36 c 0,0.551 0.167,1.418 0.371,1.93 l 1.258,3.143 C 20.833,51.582 21.45,52 22,52 h 24 c 0.55,0 1.167,-0.418 1.371,-0.928 l 1.258,-3.143 C 48.833,47.417 49,46.55 49,46 V 10 C 49,9.45 48.833,8.582 48.629,8.071 z M 40.5,49 h -13 C 26.672,49 26,48.328 26,47.5 26,46.672 26.672,46 27.5,46 h 13 c 0.828,0 1.5,0.672 1.5,1.5 0,0.828 -0.672,1.5 -1.5,1.5 z M 46,43 H 22 V 10 h 24 v 33 z"
     style="fill:url(#linearGradient3796)"
     inkscape:connector-curvature="0" /><path
     id="path24"
     d="M 22,44 H 46 V 43 H 22 v 1 z m 18.5,5 h -13 C 26.848,49 26.299,48.582 26.092,48 26.036,48.158 26,48.324 26,48.5 c 0,0.828 0.672,1.5 1.5,1.5 h 13 C 41.328,50 42,49.328 42,48.5 42,48.324 41.964,48.158 41.908,48 41.701,48.582 41.152,49 40.5,49 z M 48.629,8.071 47.371,4.928 C 47.167,4.418 46.55,4 46,4 H 22 C 21.45,4 20.833,4.418 20.629,4.929 L 19.371,8.072 C 19.167,8.582 19,9.45 19,10 v 1 c 0,-0.55 0.167,-1.418 0.371,-1.929 L 20.629,5.928 C 20.833,5.418 21.45,5 22,5 h 24 c 0.55,0 1.167,0.418 1.371,0.929 l 1.258,3.143 C 48.833,9.582 49,10.45 49,11 V 10 C 49,9.45 48.833,8.582 48.629,8.071 z"
     inkscape:connector-curvature="0"
     style="fill:#ffffff" /></g>
</svg>