<?xml version="1.0"?>
<!-- Converted with SVG Converter - Version 0.9.5 (Compiled Mon May 30 09:08:51 2011) - Copyright (C) 2011 Nokia -->
<svg xmlns="http://www.w3.org/2000/svg" width="67px" x="0px" version="1.1" y="0px" height="57px" viewBox="0 0 67 57" xmlns:xlink="http://www.w3.org/1999/xlink" baseProfile="tiny" id="Ebene_1" xml:space="preserve">
 <g>
  <rect width="67" fill="none" height="57"/>
 </g>
 <g>
  <rect width="46" x="10.5" y="5.5" fill="none" height="46"/>
 </g>
 <path stroke-opacity="0.15" fill-opacity="0.15" d="M22,53c-0.956,0-1.945-0.67-2.3-1.557L18.442,48.3C18.19,47.669,18,46.68,18,46&#xd;&#xa;&#x9;V10c0-0.68,0.19-1.669,0.442-2.3L19.7,4.557C20.055,3.67,21.044,3,22,3h24c0.956,0,1.945,0.67,2.3,1.558L49.559,7.7&#xd;&#xa;&#x9;C49.811,8.331,50,9.32,50,10v36c0,0.68-0.189,1.67-0.441,2.301L48.3,51.443C47.945,52.33,46.956,53,46,53H22z M27.5,47&#xd;&#xa;&#x9;c-0.275,0-0.5,0.225-0.5,0.5s0.225,0.5,0.5,0.5h13c0.275,0,0.5-0.225,0.5-0.5S40.775,47,40.5,47H27.5z M45,42V11H23v31H45z"/>
 <path stroke-opacity="0.3" fill-opacity="0.3" d="M48.629,9.071l-1.258-3.143C47.167,5.418,46.55,5,46,5H22&#xd;&#xa;&#x9;c-0.55,0-1.167,0.418-1.371,0.929l-1.258,3.143C19.167,9.582,19,10.45,19,11v36c0,0.551,0.167,1.418,0.371,1.93l1.258,3.143&#xd;&#xa;&#x9;C20.833,52.582,21.45,53,22,53h24c0.55,0,1.167-0.418,1.371-0.928l1.258-3.143C48.833,48.417,49,47.55,49,47V11&#xd;&#xa;&#x9;C49,10.45,48.833,9.582,48.629,9.071z M40.5,50h-13c-0.828,0-1.5-0.672-1.5-1.5s0.672-1.5,1.5-1.5h13c0.828,0,1.5,0.672,1.5,1.5&#xd;&#xa;&#x9;S41.328,50,40.5,50z M46,44H22V11h24V44z"/>
 <linearGradient gradientTransform="matrix(1 0 0 -1 -137.48 -203.0195)" id="SVGID_1_" y1="-255.0195" x1="171.4805" y2="-207.0195" gradientUnits="userSpaceOnUse" x2="171.4805">
  <stop offset="0" style="stop-color:#D0CBC5"/>
  <stop offset="0.5031" style="stop-color:#FAFCEF"/>
  <stop offset="0.9693" style="stop-color:#FFFFFF"/>
 </linearGradient>
 <path fill="url(#SVGID_1_)" d="M48.629,8.071l-1.258-3.143C47.167,4.418,46.55,4,46,4H22c-0.55,0-1.167,0.418-1.371,0.929&#xd;&#xa;&#x9;l-1.258,3.143C19.167,8.582,19,9.45,19,10v36c0,0.551,0.167,1.418,0.371,1.93l1.258,3.143C20.833,51.582,21.45,52,22,52h24&#xd;&#xa;&#x9;c0.55,0,1.167-0.418,1.371-0.928l1.258-3.143C48.833,47.417,49,46.55,49,46V10C49,9.45,48.833,8.582,48.629,8.071z M40.5,49h-13&#xd;&#xa;&#x9;c-0.828,0-1.5-0.672-1.5-1.5s0.672-1.5,1.5-1.5h13c0.828,0,1.5,0.672,1.5,1.5S41.328,49,40.5,49z M46,43H22V10h24V43z"/>
 <path fill="#FFFFFF" d="M22,44h24v-1H22V44z M40.5,49h-13c-0.652,0-1.201-0.418-1.408-1C26.036,48.158,26,48.324,26,48.5&#xd;&#xa;&#x9;c0,0.828,0.672,1.5,1.5,1.5h13c0.828,0,1.5-0.672,1.5-1.5c0-0.176-0.036-0.342-0.092-0.5C41.701,48.582,41.152,49,40.5,49z&#xd;&#xa;&#x9; M48.629,8.071l-1.258-3.143C47.167,4.418,46.55,4,46,4H22c-0.55,0-1.167,0.418-1.371,0.929l-1.258,3.143&#xd;&#xa;&#x9;C19.167,8.582,19,9.45,19,10v1c0-0.55,0.167-1.418,0.371-1.929l1.258-3.143C20.833,5.418,21.45,5,22,5h24&#xd;&#xa;&#x9;c0.55,0,1.167,0.418,1.371,0.929l1.258,3.143C48.833,9.582,49,10.45,49,11v-1C49,9.45,48.833,8.582,48.629,8.071z"/>
</svg>
