<?xml version="1.0" encoding="UTF-8" standalone="no"?>
<!-- Converted with SVG Converter - Version 0.9.5 (Compiled Mon May 30 09:08:51 2011) - Copyright (C) 2011 Nokia -->

<svg
   xmlns:dc="http://purl.org/dc/elements/1.1/"
   xmlns:cc="http://creativecommons.org/ns#"
   xmlns:rdf="http://www.w3.org/1999/02/22-rdf-syntax-ns#"
   xmlns:svg="http://www.w3.org/2000/svg"
   xmlns="http://www.w3.org/2000/svg"
   xmlns:sodipodi="http://sodipodi.sourceforge.net/DTD/sodipodi-0.dtd"
   xmlns:inkscape="http://www.inkscape.org/namespaces/inkscape"
   width="30px"
   x="0px"
   version="1.1"
   y="0px"
   height="30px"
   viewBox="0 0 30 30"
   xml:space="preserve"
   id="svg2"
   inkscape:version="0.48.2 r9819"
   sodipodi:docname="download_inverted.svg"><metadata
   id="metadata23"><rdf:RDF><cc:Work
       rdf:about=""><dc:format>image/svg+xml</dc:format><dc:type
         rdf:resource="http://purl.org/dc/dcmitype/StillImage" /></cc:Work></rdf:RDF></metadata><defs
   id="defs21">
  
 
   
   
   
   
   
  </defs><sodipodi:namedview
   pagecolor="#ffffff"
   bordercolor="#666666"
   borderopacity="1"
   objecttolerance="10"
   gridtolerance="10"
   guidetolerance="10"
   inkscape:pageopacity="0"
   inkscape:pageshadow="2"
   inkscape:window-width="1920"
   inkscape:window-height="955"
   id="namedview19"
   showgrid="false"
   inkscape:zoom="25.933333"
   inkscape:cx="9.0424165"
   inkscape:cy="15"
   inkscape:window-x="-4"
   inkscape:window-y="-4"
   inkscape:window-maximized="1"
   inkscape:current-layer="svg2" />
 <g
   id="DO_NOT_EDIT_-_BOUNDING_BOX">
  <rect
   width="30"
   fill="none"
   height="30"
   id="BOUNDING_BOX" />
 </g>
 <path
   d="M 25.957,0 H 4.044 C 3.471,0 3,0.47 3,1.044 V 3.13 C 3,3.704 3.471,4.174 4.044,4.174 H 25.957 C 26.531,4.174 27,3.704 27,3.13 V 1.044 C 27,0.47 26.531,0 25.957,0 z M 21.429,14 H 19 c -0.55,0 -1,-0.45 -1,-1 V 7 C 18,6.45 17.55,6 17,6 h -4 c -0.55,0 -1,0.45 -1,1 v 6 c 0,0.55 -0.45,1 -1,1 H 8.571 c -0.55,0 -0.777,0.391 -0.504,0.868 l 2.724,4.764 c 0.273,0.478 0.719,1.259 0.992,1.736 l 2.721,4.764 c 0.273,0.478 0.719,0.478 0.992,0 l 2.722,-4.764 c 0.272,-0.478 0.72,-1.259 0.992,-1.736 l 2.723,-4.764 C 22.205,14.391 21.979,14 21.429,14 z"
   id="path9"
   inkscape:connector-curvature="0"
   style="fill-opacity:0.3;stroke-opacity:0.3" /><rect
   width="30"
   height="30"
   id="rect11"
   x="0"
   y="0"
   style="fill:none" /><path
   d="m 15,28.49 c -0.554,0 -1.051,-0.314 -1.364,-0.862 L 7.199,16.364 C 6.887,15.819 6.868,15.232 7.146,14.753 7.423,14.274 7.943,14 8.571,14 H 11 V 8 C 11,7.187 11.487,6.486 12.185,6.174 H 4.044 C 2.917,6.174 2,5.257 2,4.13 V 2.044 C 2,0.917 2.917,0 4.044,0 H 25.957 C 27.084,0 28,0.917 28,2.044 V 4.13 c 0,1.127 -0.916,2.044 -2.043,2.044 H 17.815 C 18.513,6.486 19,7.188 19,8 v 6 h 2.429 c 0.628,0 1.147,0.274 1.425,0.752 0.278,0.479 0.259,1.066 -0.053,1.611 L 16.364,27.628 C 16.051,28.176 15.554,28.49 15,28.49 z"
   id="path13"
   inkscape:connector-curvature="0"
   style="fill-opacity:0.15;stroke-opacity:0.15" /><path
   d="M 25.957,1 H 4.044 C 3.471,1 3,1.47 3,2.044 V 4.13 C 3,4.704 3.471,5.174 4.044,5.174 H 25.957 C 26.531,5.174 27,4.704 27,4.13 V 2.044 C 27,1.47 26.531,1 25.957,1 z M 21.429,15 H 19 c -0.55,0 -1,-0.45 -1,-1 V 8 C 18,7.45 17.55,7 17,7 h -4 c -0.55,0 -1,0.45 -1,1 v 6 c 0,0.55 -0.45,1 -1,1 H 8.571 c -0.55,0 -0.777,0.391 -0.504,0.868 l 2.724,4.764 c 0.273,0.478 0.719,1.259 0.992,1.736 l 2.721,4.764 c 0.273,0.478 0.719,0.478 0.992,0 l 2.722,-4.764 c 0.272,-0.478 0.72,-1.259 0.992,-1.736 l 2.723,-4.764 C 22.205,15.391 21.979,15 21.429,15 z"
   id="path15"
   inkscape:connector-curvature="0"
   style="fill-opacity:0.15;stroke-opacity:0.15" /><path
   d="M 25.957,1 H 4.044 C 3.471,1 3,1.47 3,2.044 V 4.13 C 3,4.704 3.471,5.174 4.044,5.174 H 25.957 C 26.531,5.174 27,4.704 27,4.13 V 2.044 C 27,1.47 26.531,1 25.957,1 z M 21.429,15 H 19 c -0.55,0 -1,-0.45 -1,-1 V 8 C 18,7.45 17.55,7 17,7 h -4 c -0.55,0 -1,0.45 -1,1 v 6 c 0,0.55 -0.45,1 -1,1 H 8.571 c -0.55,0 -0.777,0.391 -0.504,0.868 l 2.724,4.764 c 0.273,0.478 0.719,1.259 0.992,1.736 l 2.721,4.764 c 0.273,0.478 0.719,0.478 0.992,0 l 2.722,-4.764 c 0.272,-0.478 0.72,-1.259 0.992,-1.736 l 2.723,-4.764 C 22.205,15.391 21.979,15 21.429,15 z"
   id="path17"
   inkscape:connector-curvature="0"
   style="fill:#000000;fill-opacity:1" />
</svg>