<?xml version="1.0" encoding="UTF-8" standalone="no"?>
<!-- Generator: Adobe Illustrator 15.0.0, SVG Export Plug-In . SVG Version: 6.00 Build 0)  -->

<svg
   xmlns:dc="http://purl.org/dc/elements/1.1/"
   xmlns:cc="http://creativecommons.org/ns#"
   xmlns:rdf="http://www.w3.org/1999/02/22-rdf-syntax-ns#"
   xmlns:svg="http://www.w3.org/2000/svg"
   xmlns="http://www.w3.org/2000/svg"
   xmlns:sodipodi="http://sodipodi.sourceforge.net/DTD/sodipodi-0.dtd"
   xmlns:inkscape="http://www.inkscape.org/namespaces/inkscape"
   version="1.1"
   x="0px"
   y="0px"
   width="30px"
   height="30px"
   viewBox="0 0 30 30"
   enable-background="new 0 0 30 30"
   xml:space="preserve"
   id="svg2"
   inkscape:version="0.48.2 r9819"
   sodipodi:docname="drilldown.svg"><metadata
   id="metadata23"><rdf:RDF><cc:Work
       rdf:about=""><dc:format>image/svg+xml</dc:format><dc:type
         rdf:resource="http://purl.org/dc/dcmitype/StillImage" /><dc:title /></cc:Work></rdf:RDF></metadata><defs
   id="defs21" /><sodipodi:namedview
   pagecolor="#ffffff"
   bordercolor="#666666"
   borderopacity="1"
   objecttolerance="10"
   gridtolerance="10"
   guidetolerance="10"
   inkscape:pageopacity="0"
   inkscape:pageshadow="2"
   inkscape:window-width="1920"
   inkscape:window-height="955"
   id="namedview19"
   showgrid="false"
   inkscape:zoom="25.933333"
   inkscape:cx="8.039846"
   inkscape:cy="15"
   inkscape:window-x="-4"
   inkscape:window-y="-4"
   inkscape:window-maximized="1"
   inkscape:current-layer="layer2"
   showguides="true"
   inkscape:guide-bbox="true"><sodipodi:guide
     orientation="0,1"
     position="11.105399,30.154242"
     id="guide3791" /><sodipodi:guide
     orientation="0,1"
     position="10.025707,-0.23136247"
     id="guide3793" /><sodipodi:guide
     orientation="1,0"
     position="-6.4781492,19.858612"
     id="guide3795" /><sodipodi:guide
     orientation="1,0"
     position="35.089975,18.74036"
     id="guide3797" /></sodipodi:namedview>
<g
   id="DO_NOT_EDIT_-_BOUNDING_BOX">
	<rect
   id="BOUNDING_BOX"
   fill="none"
   width="30"
   height="30" />
</g>

<g
   inkscape:groupmode="layer"
   id="layer3"
   inkscape:label="Glow"
   style="display:inline"
   sodipodi:insensitive="true"><g
     transform="scale(0.65112073,1.5358135)"
     style="font-size:14px;font-style:normal;font-variant:normal;font-weight:normal;font-stretch:normal;line-height:125%;letter-spacing:0px;word-spacing:0px;fill:none;stroke:#000000;stroke-opacity:0.14901961;font-family:Century Gothic;-inkscape-font-specification:Century Gothic"
     id="text2990-4" /><path
     sodipodi:type="inkscape:offset"
     inkscape:radius="1.311054"
     inkscape:original="M 8.84375 1.71875 C 8.2792882 1.7436527 7.7298735 1.9635133 7.375 2.40625 C 6.756454 3.1775246 6.817282 4.4411029 7.53125 5.125 L 17.40625 15.03125 L 7.53125 24.875 C 6.773539 25.611583 6.784027 27.002778 7.53125 27.75 C 8.278472 28.497221 9.6384193 28.476462 10.375 27.71875 L 23.0625 15.03125 C 18.826452 10.790676 14.603074 6.5297736 10.375 2.28125 C 9.9825171 1.8714849 9.4082118 1.6938473 8.84375 1.71875 z "
     style="font-size:medium;font-style:normal;font-variant:normal;font-weight:normal;font-stretch:normal;text-indent:0;text-align:start;text-decoration:none;line-height:normal;letter-spacing:normal;word-spacing:normal;text-transform:none;direction:ltr;block-progression:tb;writing-mode:lr-tb;text-anchor:start;baseline-shift:baseline;color:#000000;fill:#000000;fill-opacity:0.23529412;stroke:none;stroke-width:4;marker:none;visibility:visible;display:inline;overflow:visible;enable-background:accumulate;font-family:Sans;-inkscape-font-specification:Sans"
     id="path3827"
     d="M 8.78125,0.40625 C 7.9147616,0.44447739 6.9791602,0.80101847 6.34375,1.59375 5.2680368,2.9350735 5.3765306,4.8140336 6.625,6.03125 l 0,0.03125 8.90625,8.96875 -8.90625,8.90625 0,0.03125 c -1.3342965,1.317104 -1.3432387,3.406763 -0.03125,4.71875 1.3118178,1.311816 3.3955281,1.246003 4.6875,-0.0625 l 0.03125,0 L 24,15.96875 a 1.3111851,1.3111851 0 0 0 0,-1.875 C 19.77157,9.8608023 15.53659,5.6195624 11.3125,1.375 c -0.0065,-0.00674 -0.02475,0.00667 -0.03125,0 -0.70156,-0.71926581 -1.6302207,-1.00712257 -2.5,-0.96875 z" /></g><g
   inkscape:groupmode="layer"
   id="layer2"
   inkscape:label="Shadow"
   style="display:inline"><path
     sodipodi:type="inkscape:offset"
     inkscape:radius="-0.38427076"
     inkscape:original="M 8.8125 1.1875 C 8.1170664 1.2181809 7.4106581 1.4721926 6.9375 2.0625 C 6.1229795 3.0781382 6.2162496 4.5817048 7.15625 5.5 A 0.17997576 0.17997576 0 0 1 7.15625 5.53125 A 0.17997576 0.17997576 0 0 1 7.1875 5.53125 A 0.17997576 0.17997576 0 0 1 7.1875 5.5625 A 0.17997576 0.17997576 0 0 1 7.21875 5.59375 A 0.17997576 0.17997576 0 0 1 7.21875 5.625 L 16.46875 14.90625 A 0.17997576 0.17997576 0 0 1 16.5 14.9375 A 0.17997576 0.17997576 0 0 1 16.53125 15 A 0.17997576 0.17997576 0 0 1 16.53125 15.03125 A 0.17997576 0.17997576 0 0 1 16.53125 15.0625 A 0.17997576 0.17997576 0 0 1 16.5 15.09375 A 0.17997576 0.17997576 0 0 1 16.5 15.125 A 0.17997576 0.17997576 0 0 1 16.46875 15.15625 L 7.21875 24.375 A 0.17997576 0.17997576 0 0 1 7.21875 24.40625 L 7.15625 24.46875 A 0.17997576 0.17997576 0 0 1 7.15625 24.5 C 6.1549393 25.492969 6.1365727 27.167824 7.125 28.15625 C 8.1123031 29.143552 9.7696824 29.082722 10.75 28.09375 A 0.17997576 0.17997576 0 0 1 10.78125 28.09375 A 0.17997576 0.17997576 0 0 1 10.78125 28.0625 A 0.17997576 0.17997576 0 0 1 10.8125 28.0625 A 0.17997576 0.17997576 0 0 1 10.84375 28.03125 L 10.875 28.03125 L 23.46875 15.4375 C 23.474193 15.432045 23.494697 15.411841 23.5 15.40625 C 23.505014 15.400398 23.526386 15.380977 23.53125 15.375 C 23.535961 15.368902 23.526694 15.349965 23.53125 15.34375 C 23.535647 15.337422 23.558265 15.350187 23.5625 15.34375 C 23.566735 15.337313 23.558429 15.319043 23.5625 15.3125 C 23.566235 15.30576 23.590187 15.288082 23.59375 15.28125 C 23.597139 15.27433 23.590537 15.257004 23.59375 15.25 C 23.596605 15.242843 23.591077 15.225977 23.59375 15.21875 C 23.596423 15.211523 23.622511 15.226043 23.625 15.21875 C 23.627489 15.211457 23.622696 15.194853 23.625 15.1875 C 23.627117 15.180091 23.623071 15.16371 23.625 15.15625 C 23.626549 15.148702 23.623642 15.132585 23.625 15.125 C 23.626165 15.117383 23.624028 15.101394 23.625 15.09375 C 23.625779 15.086084 23.624416 15.070184 23.625 15.0625 C 23.625584 15.054816 23.65586 15.070196 23.65625 15.0625 C 23.65664 15.054804 23.656055 15.038953 23.65625 15.03125 C 23.656055 15.023547 23.65664 15.007696 23.65625 15 C 23.65586 14.992304 23.625584 15.007684 23.625 15 C 23.624416 14.992316 23.625779 14.976416 23.625 14.96875 C 23.624028 14.961106 23.626165 14.945117 23.625 14.9375 C 23.623642 14.929915 23.626549 14.913798 23.625 14.90625 C 23.623071 14.89879 23.627117 14.882409 23.625 14.875 C 23.622696 14.867647 23.627489 14.851043 23.625 14.84375 C 23.622511 14.836457 23.596423 14.850977 23.59375 14.84375 C 23.591077 14.836523 23.596605 14.819657 23.59375 14.8125 C 23.590537 14.805496 23.597139 14.78817 23.59375 14.78125 C 23.590187 14.774418 23.566235 14.75674 23.5625 14.75 C 23.558429 14.743457 23.566735 14.725187 23.5625 14.71875 C 23.558265 14.712313 23.535647 14.725078 23.53125 14.71875 C 23.526694 14.712535 23.535961 14.693598 23.53125 14.6875 C 23.526386 14.681523 23.505014 14.662102 23.5 14.65625 C 23.494697 14.650659 23.474193 14.630455 23.46875 14.625 C 19.260055 10.411808 15.046763 6.1919946 10.84375 1.96875 C 10.842614 1.968467 10.750814 1.9070803 10.75 1.90625 C 10.224671 1.370151 9.4996223 1.1571858 8.8125 1.1875 z "
     style="font-size:medium;font-style:normal;font-variant:normal;font-weight:normal;font-stretch:normal;text-indent:0;text-align:start;text-decoration:none;line-height:normal;letter-spacing:normal;word-spacing:normal;text-transform:none;direction:ltr;block-progression:tb;writing-mode:lr-tb;text-anchor:start;baseline-shift:baseline;color:#000000;fill:#000000;fill-opacity:0.23529412;stroke:none;stroke-width:4;marker:none;visibility:visible;display:inline;overflow:visible;enable-background:accumulate;font-family:Sans;-inkscape-font-specification:Sans"
     id="path3833"
     d="M 8.84375,1.5625 C 8.2301685,1.5895698 7.6400681,1.8258548 7.25,2.3125 6.5602432,3.1725684 6.6383918,4.4380937 7.4375,5.21875 L 7.40625,5.28125 A 0.38430918,0.38430918 0 0 1 7.5,5.34375 l 9.25,9.28125 a 0.38430918,0.38430918 0 0 1 0.09375,0.375 0.38430918,0.38430918 0 0 1 0,0.0625 0.38430918,0.38430918 0 0 1 -0.09375,0.375 L 7.5,24.65625 a 0.38430918,0.38430918 0 0 1 0,0.03125 l -0.03125,0 L 7.4375,24.75 a 0.38430918,0.38430918 0 0 1 0,0.03125 c -0.849575,0.842497 -0.8645204,2.260481 -0.03125,3.09375 0.8296774,0.829677 2.2290844,0.778273 3.0625,-0.0625 l 0.28125,0.28125 0,0.1875 0.03125,-0.1875 0.03125,0 0.0625,0 -0.03125,-0.0625 0,-0.03125 -0.25,-0.25 12.5625,-12.53125 0.03125,0 c 0.0035,-0.01396 -8.2e-5,-0.031 0,-0.03125 0.0054,-0.01 -0.0054,-0.02128 0,-0.03125 0.0037,-0.0078 0.02638,0.01039 0.03125,0 0.0033,-0.01476 -0.0031,-0.01908 0,-0.03125 0.0031,-0.01217 -1.11e-4,-0.03095 0,-0.03125 0.004,-0.0059 0.02551,0.0082 0.03125,0 -0.0044,-0.01103 0.0026,-0.02472 0,-0.03125 0.0046,-0.0066 -0.006,-0.02256 0,-0.03125 -0.006,-0.0087 0.0046,-0.02462 0,-0.03125 -0.0083,-0.01194 -0.03121,-0.03115 -0.03125,-0.03125 -1.11e-4,-3.01e-4 0.0031,-0.01908 0,-0.03125 -0.0043,-0.01205 0.002,-0.02333 0,-0.03125 -0.0049,-0.01039 -0.02759,0.0078 -0.03125,0 -0.0054,-0.01 0.0054,-0.02128 0,-0.03125 -0.009,-0.01662 -0.03118,-0.03106 -0.03125,-0.03125 C 18.968286,10.651297 14.7763,6.4526489 10.59375,2.25 l -0.03125,0 c -0.0046,-0.00312 -0.02778,-0.028893 -0.03125,-0.03125 0,0 -0.03125,0 -0.03125,0 0,0 0,-0.03125 0,-0.03125 a 0.38430918,0.38430918 0 0 1 -0.03125,0 C 10.031522,1.7413086 9.4398123,1.5362031 8.84375,1.5625 z"
     transform="translate(-0.03856041,-0.65038592)" /></g><g
   inkscape:groupmode="layer"
   id="layer1"
   inkscape:label="Icon"
   style="display:inline"
   sodipodi:insensitive="true"><path
     id="path3785"
     style="font-size:medium;font-style:normal;font-variant:normal;font-weight:normal;font-stretch:normal;text-indent:0;text-align:start;text-decoration:none;line-height:normal;letter-spacing:normal;word-spacing:normal;text-transform:none;direction:ltr;block-progression:tb;writing-mode:lr-tb;text-anchor:start;baseline-shift:baseline;color:#000000;fill:#ffffff;fill-opacity:1;stroke:none;stroke-width:4;marker:none;visibility:visible;display:inline;overflow:visible;enable-background:accumulate;font-family:Sans;-inkscape-font-specification:Sans"
     d="M 7.3615663,2.4170853 C 6.7430203,3.1883599 6.8243753,4.4290329 7.5383433,5.11293 l 9.8592207,9.913753 -9.8611757,9.861176 c -0.757711,0.736583 -0.767363,2.101347 -0.02014,2.848569 0.747222,0.747221 2.111988,0.737572 2.8485687,-0.02014 4.229865,-4.229869 8.459734,-8.459737 12.689601,-12.689605 C 18.81837,10.786109 14.594844,6.5330265 10.36677,2.2845029 9.5818043,1.4649728 8.0713133,1.5316118 7.3615663,2.4170853 z"
     inkscape:connector-curvature="0" /></g></svg>