<?xml version="1.0" encoding="UTF-8" standalone="no"?>
<!-- Generator: Adobe Illustrator 15.0.0, SVG Export Plug-In . SVG Version: 6.00 Build 0)  -->

<svg
   xmlns:dc="http://purl.org/dc/elements/1.1/"
   xmlns:cc="http://creativecommons.org/ns#"
   xmlns:rdf="http://www.w3.org/1999/02/22-rdf-syntax-ns#"
   xmlns:svg="http://www.w3.org/2000/svg"
   xmlns="http://www.w3.org/2000/svg"
   xmlns:sodipodi="http://sodipodi.sourceforge.net/DTD/sodipodi-0.dtd"
   xmlns:inkscape="http://www.inkscape.org/namespaces/inkscape"
   version="1.1"
   id="Ebene_1"
   x="0px"
   y="0px"
   width="30px"
   height="30px"
   viewBox="0 0 30 30"
   enable-background="new 0 0 30 30"
   xml:space="preserve"
   inkscape:version="0.48.2 r9819"
   sodipodi:docname="edit_inverted.svg"><metadata
   id="metadata22"><rdf:RDF><cc:Work
       rdf:about=""><dc:format>image/svg+xml</dc:format><dc:type
         rdf:resource="http://purl.org/dc/dcmitype/StillImage" /></cc:Work></rdf:RDF></metadata><defs
   id="defs20">
	

		
		
		
		
		
	</defs><sodipodi:namedview
   pagecolor="#ffffff"
   bordercolor="#666666"
   borderopacity="1"
   objecttolerance="10"
   gridtolerance="10"
   guidetolerance="10"
   inkscape:pageopacity="0"
   inkscape:pageshadow="2"
   inkscape:window-width="1890"
   inkscape:window-height="985"
   id="namedview18"
   showgrid="false"
   inkscape:zoom="26.933333"
   inkscape:cx="15"
   inkscape:cy="15"
   inkscape:window-x="26"
   inkscape:window-y="-4"
   inkscape:window-maximized="1"
   inkscape:current-layer="Ebene_1" />
<g
   id="DO_NOT_EDIT_-_BOUNDING_BOX">
	<rect
   id="BOUNDING_BOX"
   fill="none"
   width="30"
   height="30" />
</g>
<path
   enable-background="new    "
   d="M 2.422,28.999 C 1.947,28.999 1.526,28.792 1.265,28.432 1.099,28.203 0.858,27.705 1.103,26.966 L 3.412,20.037 C 3.645,19.342 4.211,18.428 4.728,17.908 L 17.844,4.804 C 18.039,4.609 18.873,3.772 19.253,3.39 L 20.732,1.907 C 21.316,1.321 22.098,1 22.926,1 c 0.829,0 1.608,0.321 2.192,0.904 l 2.976,2.977 C 28.68,5.465 29.001,6.245 29,7.076 29,7.907 28.678,8.685 28.093,9.269 l -1.474,1.48 c -0.188,0.188 -1.227,1.23 -1.414,1.418 L 12.094,25.27 c -0.526,0.521 -1.441,1.088 -2.132,1.317 L 3.035,28.895 C 2.827,28.964 2.62,28.999 2.422,28.999 l 0,0 z"
   id="path10"
   inkscape:connector-curvature="0"
   style="opacity:0.15" /><path
   enable-background="new    "
   d="m 5.438,18.613 c -0.408,0.41 -0.893,1.193 -1.076,1.74 l -2.309,6.928 c -0.182,0.547 0.117,0.848 0.666,0.664 l 6.926,-2.307 c 0.549,-0.185 1.33,-0.668 1.742,-1.076 L 24.498,11.458 18.551,5.511 5.438,18.613 z M 8.811,24.162 5.657,25.266 4.74,24.342 5.842,21.188 6.461,20.565 9.432,23.543 8.811,24.162 z M 27.387,5.588 24.412,2.612 c -0.818,-0.816 -2.154,-0.816 -2.973,0 l -1.479,1.483 5.949,5.947 1.478,-1.482 c 0.818,-0.816 0.818,-2.155 0,-2.972 z"
   id="path12"
   inkscape:connector-curvature="0"
   style="opacity:0.15" /><path
   d="m 5.438,18.613 c -0.408,0.41 -0.893,1.193 -1.076,1.74 l -2.309,6.928 c -0.182,0.547 0.117,0.848 0.666,0.664 l 6.926,-2.307 c 0.549,-0.185 1.33,-0.668 1.742,-1.076 L 24.498,11.458 18.551,5.511 5.438,18.613 z M 8.811,24.162 5.657,25.266 4.74,24.342 5.842,21.188 6.461,20.565 9.432,23.543 8.811,24.162 z M 27.387,5.588 24.412,2.612 c -0.818,-0.816 -2.154,-0.816 -2.973,0 l -1.479,1.483 5.949,5.947 1.478,-1.482 c 0.818,-0.816 0.818,-2.155 0,-2.972 z"
   id="path14"
   inkscape:connector-curvature="0"
   style="fill:#000000;fill-opacity:1" /><rect
   width="30"
   height="30"
   id="rect16"
   x="0"
   y="0"
   style="fill:none" />
</svg>