<?xml version="1.0" encoding="UTF-8" standalone="no"?>
<!-- Generator: Adobe Illustrator 15.0.0, SVG Export Plug-In . SVG Version: 6.00 Build 0)  -->

<svg
   xmlns:dc="http://purl.org/dc/elements/1.1/"
   xmlns:cc="http://creativecommons.org/ns#"
   xmlns:rdf="http://www.w3.org/1999/02/22-rdf-syntax-ns#"
   xmlns:svg="http://www.w3.org/2000/svg"
   xmlns="http://www.w3.org/2000/svg"
   xmlns:sodipodi="http://sodipodi.sourceforge.net/DTD/sodipodi-0.dtd"
   xmlns:inkscape="http://www.inkscape.org/namespaces/inkscape"
   version="1.1"
   x="0px"
   y="0px"
   width="30px"
   height="30px"
   viewBox="0 0 30 30"
   enable-background="new 0 0 30 30"
   xml:space="preserve"
   id="svg2"
   inkscape:version="0.48.2 r9819"
   sodipodi:docname="favourite_inverted.svg"><metadata
   id="metadata19"><rdf:RDF><cc:Work
       rdf:about=""><dc:format>image/svg+xml</dc:format><dc:type
         rdf:resource="http://purl.org/dc/dcmitype/StillImage" /></cc:Work></rdf:RDF></metadata><defs
   id="defs17">
	
	
	
	
</defs><sodipodi:namedview
   pagecolor="#ffffff"
   bordercolor="#666666"
   borderopacity="1"
   objecttolerance="10"
   gridtolerance="10"
   guidetolerance="10"
   inkscape:pageopacity="0"
   inkscape:pageshadow="2"
   inkscape:window-width="1920"
   inkscape:window-height="1032"
   id="namedview15"
   showgrid="false"
   inkscape:zoom="27.133333"
   inkscape:cx="15"
   inkscape:cy="15"
   inkscape:window-x="0"
   inkscape:window-y="0"
   inkscape:window-maximized="0"
   inkscape:current-layer="svg2" />


<path
   style="opacity:0.15"
   inkscape:connector-curvature="0"
   id="path9"
   d="m 23.063,29.125 c -0.421,0 -0.833,-0.144 -1.191,-0.414 C 21.834,28.688 15,23.812 15,23.812 L 8.077,28.75 c -0.049,0.035 -0.102,0.065 -0.155,0.091 -0.312,0.188 -0.645,0.284 -0.993,0.284 -1.09,0 -1.978,-0.878 -1.978,-1.957 0,-0.269 0.059,-0.529 0.179,-0.796 L 7.705,18.606 0.976,13.816 C 0.953,13.799 0.93,13.781 0.908,13.762 0.349,13.405 0,12.786 0,12.124 c 0,-1.082 0.887,-1.962 1.977,-1.962 0.021,0 8.522,0.006 8.522,0.006 L 13.132,2.206 C 13.16,2.12 13.199,2.04 13.248,1.968 c 0.331,-0.662 1.013,-1.092 1.761,-1.092 0.841,0 1.59,0.537 1.863,1.336 l 2.632,7.957 c 0,0 8.493,-0.006 8.518,-0.006 0.045,0 0.091,0.003 0.137,0.01 1.056,0.085 1.841,0.921 1.841,1.951 0,0.569 -0.25,1.094 -0.693,1.468 -0.044,0.048 -0.094,0.092 -0.148,0.131 l -6.861,4.883 c 0,0 2.631,7.934 2.638,7.962 0.016,0.045 0.027,0.092 0.035,0.138 0.032,0.113 0.073,0.27 0.073,0.462 -0.001,1.079 -0.89,1.957 -1.981,1.957 z" /><path
   d="m 29,13.124 c 0,-0.526 -0.428,-0.945 -0.957,-0.959 h -0.01 c -0.004,0 -0.008,-0.003 -0.012,-0.003 -0.006,0 -0.01,0.003 -0.014,0.003 L 18.78,12.168 15.925,3.535 c -0.13,-0.38 -0.486,-0.66 -0.917,-0.66 -0.425,0 -0.777,0.271 -0.912,0.645 H 14.08 L 11.221,12.168 2.064,12.165 2.06,12.176 c -0.03,0 -0.054,-0.014 -0.084,-0.014 -0.538,0 -0.976,0.43 -0.976,0.962 0,0.381 0.231,0.706 0.563,0.861 l -0.007,0.017 7.331,5.218 -2.826,8.522 c -0.064,0.132 -0.109,0.269 -0.109,0.426 0,0.528 0.438,0.957 0.978,0.957 0.212,0 0.398,-0.08 0.559,-0.195 l 0.009,0.006 7.502,-5.353 7.369,5.259 c 0.008,0.008 0.02,0.012 0.027,0.019 l 0.064,0.044 h 0.002 c 0.168,0.13 0.369,0.221 0.6,0.221 0.541,0 0.98,-0.429 0.98,-0.957 0,-0.086 -0.029,-0.16 -0.049,-0.239 L 24,27.926 23.979,27.861 c -0.01,-0.03 -0.016,-0.063 -0.029,-0.093 L 21.116,19.22 28.579,13.908 28.575,13.894 C 28.826,13.721 29,13.447 29,13.124 z"
   id="path3773"
   inkscape:connector-curvature="0"
   style="fill:#ffffff;fill-opacity:1" /><path
   style="fill:#000000;fill-opacity:1"
   inkscape:connector-curvature="0"
   id="path13"
   d="m 29,12.124 c 0,-0.526 -0.428,-0.945 -0.957,-0.959 h -0.01 c -0.004,0 -0.008,-0.003 -0.012,-0.003 -0.006,0 -0.01,0.003 -0.014,0.003 L 18.78,11.168 15.925,2.535 c -0.13,-0.38 -0.486,-0.66 -0.917,-0.66 -0.425,0 -0.777,0.271 -0.912,0.645 H 14.08 L 11.221,11.168 2.064,11.165 2.06,11.176 c -0.03,0 -0.054,-0.014 -0.084,-0.014 -0.538,0 -0.976,0.43 -0.976,0.962 0,0.381 0.231,0.706 0.563,0.861 l -0.007,0.017 7.331,5.218 -2.826,8.522 c -0.064,0.132 -0.109,0.269 -0.109,0.426 0,0.528 0.438,0.957 0.978,0.957 0.212,0 0.398,-0.08 0.559,-0.195 l 0.009,0.006 7.502,-5.353 7.369,5.259 c 0.008,0.008 0.02,0.012 0.027,0.019 l 0.064,0.044 h 0.002 c 0.168,0.13 0.369,0.221 0.6,0.221 0.541,0 0.98,-0.429 0.98,-0.957 0,-0.086 -0.029,-0.16 -0.049,-0.239 L 24,26.926 23.979,26.861 c -0.01,-0.03 -0.016,-0.063 -0.029,-0.093 L 21.116,18.22 28.579,12.908 28.575,12.894 C 28.826,12.721 29,12.447 29,12.124 z" /><g
   id="DO_NOT_EDIT_-_BOUNDING_BOX">
	<rect
   style="fill:none"
   y="0"
   x="0"
   id="BOUNDING_BOX"
   width="30"
   height="30" />
</g><path
   style="opacity:0.15"
   inkscape:connector-curvature="0"
   id="path11"
   d="m 29,12.124 c 0,-0.526 -0.428,-0.945 -0.957,-0.959 h -0.01 c -0.004,0 -0.008,-0.003 -0.012,-0.003 -0.006,0 -0.01,0.003 -0.014,0.003 L 18.78,11.168 15.925,2.535 c -0.13,-0.38 -0.486,-0.66 -0.917,-0.66 -0.425,0 -0.777,0.271 -0.912,0.645 H 14.08 L 11.221,11.168 2.064,11.165 2.06,11.176 c -0.03,0 -0.054,-0.014 -0.084,-0.014 -0.538,0 -0.976,0.43 -0.976,0.962 0,0.381 0.231,0.706 0.563,0.861 l -0.007,0.017 7.331,5.218 -2.826,8.522 c -0.064,0.132 -0.109,0.269 -0.109,0.426 0,0.528 0.438,0.957 0.978,0.957 0.212,0 0.398,-0.08 0.559,-0.195 l 0.009,0.006 7.502,-5.353 7.369,5.259 c 0.008,0.008 0.02,0.012 0.027,0.019 l 0.064,0.044 h 0.002 c 0.168,0.13 0.369,0.221 0.6,0.221 0.541,0 0.98,-0.429 0.98,-0.957 0,-0.086 -0.029,-0.16 -0.049,-0.239 L 24,26.926 23.979,26.861 c -0.01,-0.03 -0.016,-0.063 -0.029,-0.093 L 21.116,18.22 28.579,12.908 28.575,12.894 C 28.826,12.721 29,12.447 29,12.124 z" /></svg>