<?xml version="1.0" encoding="UTF-8" standalone="no"?>
<!-- Converted with SVG Converter - Version 0.9.5 (Compiled Mon May 30 09:08:51 2011) - Copyright (C) 2011 Nokia -->

<svg
   xmlns:dc="http://purl.org/dc/elements/1.1/"
   xmlns:cc="http://creativecommons.org/ns#"
   xmlns:rdf="http://www.w3.org/1999/02/22-rdf-syntax-ns#"
   xmlns:svg="http://www.w3.org/2000/svg"
   xmlns="http://www.w3.org/2000/svg"
   xmlns:xlink="http://www.w3.org/1999/xlink"
   xmlns:sodipodi="http://sodipodi.sourceforge.net/DTD/sodipodi-0.dtd"
   xmlns:inkscape="http://www.inkscape.org/namespaces/inkscape"
   width="30"
   x="0px"
   y="0px"
   version="1.1"
   viewBox="0 0 30 30"
   height="30"
   id="Ebene_1"
   xml:space="preserve"
   inkscape:version="0.48.2 r9819"
   sodipodi:docname="folder_add_inverted.svg"><sodipodi:namedview
   pagecolor="#ffffff"
   bordercolor="#666666"
   borderopacity="1"
   objecttolerance="10"
   gridtolerance="10"
   guidetolerance="10"
   inkscape:pageopacity="0"
   inkscape:pageshadow="2"
   inkscape:window-width="1920"
   inkscape:window-height="955"
   id="namedview40"
   showgrid="false"
   inkscape:zoom="25.933333"
   inkscape:cx="15"
   inkscape:cy="15"
   inkscape:window-x="-4"
   inkscape:window-y="-4"
   inkscape:window-maximized="1"
   inkscape:current-layer="Ebene_1" />
 <metadata
   id="metadata24"><rdf:RDF><cc:Work
       rdf:about=""><dc:format>image/svg+xml</dc:format><dc:type
         rdf:resource="http://purl.org/dc/dcmitype/StillImage" /></cc:Work></rdf:RDF></metadata>
 <defs
   id="defs22">
  <linearGradient
   gradientTransform="matrix(1,0,0,-1,-137.48,-214.0195)"
   id="linearGradient3007"
   y1="-250.1494"
   x1="170.4805"
   y2="-212.0137"
   gradientUnits="userSpaceOnUse"
   x2="170.4805">
   <stop
   offset="0"
   style="stop-color:#D0CBC5"
   id="stop10" />
   <stop
   offset="0.5031"
   style="stop-color:#FAFCEF"
   id="stop12" />
   <stop
   offset="0.9693"
   style="stop-color:#FFFFFF"
   id="stop14" />
  </linearGradient>
  <linearGradient
   gradientTransform="matrix(1,0,0,-1,-137.48,-214.0195)"
   id="linearGradient3007-1"
   y1="-250.1494"
   x1="170.4805"
   y2="-212.0137"
   gradientUnits="userSpaceOnUse"
   x2="170.4805">
   <stop
   offset="0"
   style="stop-color:#000000;stop-opacity:1;"
   id="stop10-4" />
   <stop
   offset="0.50309998"
   style="stop-color:#000000;stop-opacity:1;"
   id="stop12-0" />
   <stop
   offset="0.96929997"
   style="stop-color:#d0cbc5;stop-opacity:1;"
   id="stop14-9" />
  </linearGradient>
  <linearGradient
   gradientTransform="matrix(1,0,0,-1,-137.48,-214.0195)"
   id="SVGID_1_-7"
   y1="-250.1494"
   x1="170.4805"
   y2="-212.0137"
   gradientUnits="userSpaceOnUse"
   x2="170.4805">
   <stop
   offset="0"
   style="stop-color:#D0CBC5"
   id="stop15" />
   <stop
   offset="0.5031"
   style="stop-color:#FAFCEF"
   id="stop17" />
   <stop
   offset="0.9693"
   style="stop-color:#FFFFFF"
   id="stop19" />
  </linearGradient>
 
  
 
   
   
  
  
 <linearGradient
   inkscape:collect="always"
   xlink:href="#linearGradient3007-1"
   id="linearGradient3797"
   gradientUnits="userSpaceOnUse"
   gradientTransform="matrix(1,0,0,-1,-137.48,-214.0195)"
   x1="170.4805"
   y1="-250.1494"
   x2="170.4805"
   y2="-212.0137" />
   
   
   
   
  <linearGradient
   inkscape:collect="always"
   xlink:href="#linearGradient3007-1"
   id="linearGradient3801"
   gradientUnits="userSpaceOnUse"
   gradientTransform="matrix(0.65211868,0,0,-0.65211868,-96.180369,-135.5423)"
   x1="170.4805"
   y1="-250.1494"
   x2="170.4805"
   y2="-212.0137" /></defs>
 <linearGradient
   gradientTransform="matrix(1,0,0,-1,-137.48,-214.0195)"
   id="SVGID_1_"
   y1="-250.1494"
   x1="170.4805"
   y2="-212.0137"
   gradientUnits="userSpaceOnUse"
   x2="170.4805">
  <stop
   offset="0"
   style="stop-color:#D0CBC5"
   id="stop22" />
  <stop
   offset="0.5031"
   style="stop-color:#FAFCEF"
   id="stop24" />
  <stop
   offset="0.9693"
   style="stop-color:#FFFFFF"
   id="stop26" />
 </linearGradient>
 <path
   style="opacity:0.3"
   id="path5"
   d="M 28.442772,6.7255389 H 11.470079 L 9.1328861,4.2683557 C 8.4781589,3.3925603 7.2834775,3.3716925 7.2834775,3.3716925 H 2.0339221 c -1.45683308,0 -1.4053157,1.0277391 -1.37923096,1.3081501 0.001956,0.028041 -0.008478,22.6650364 -0.008478,22.6650364 0,0.493002 0.40366146,0.896664 0.89666326,0.896664 H 28.442772 c 0.493653,0 0.896663,-0.403662 0.896663,-0.896664 V 7.6222021 c 0,-0.4930017 -0.40301,-0.8966632 -0.896663,-0.8966632 z"
   inkscape:connector-curvature="0" /><path
   style="opacity:0.15"
   id="path7"
   d="m 1.5428768,28.236978 c -0.85427549,0 -1.54878188,-0.694507 -1.54878188,-1.548782 0,-0.224329 0.0104339,-22.3989725 0.0084775,-22.6572115 C -0.06198729,3.363215 0.19755595,2.9112967 0.42579749,2.6595789 0.78641912,2.264395 1.3276776,2.0635424 2.0339221,2.0635424 h 5.2495554 c 0.072385,0.0013 1.5063942,0.039127 2.3469751,1.1255569 l 2.1193854,2.2282895 h 16.693586 c 0.854275,0 1.548781,0.6945064 1.548781,1.5487819 V 26.688196 c 0,0.854275 -0.694506,1.548782 -1.548781,1.548782 H 1.5428768 z"
   inkscape:connector-curvature="0" /><path
   style="fill:url(#linearGradient3801)"
   id="path16"
   d="M 28.442772,6.0695075 H 11.470079 L 9.1328861,3.6123243 C 8.4781589,2.7365289 7.2834775,2.7156611 7.2834775,2.7156611 H 2.0339221 c -1.45683308,0 -1.4053157,1.0277391 -1.37923096,1.3081501 0.001956,0.028041 -0.008478,22.6643848 -0.008478,22.6643848 0,0.493654 0.40366146,0.896663 0.89666326,0.896663 H 28.442772 c 0.493653,0 0.896663,-0.403009 0.896663,-0.896663 V 6.9661707 c 0,-0.4930017 -0.40301,-0.8966632 -0.896663,-0.8966632 z"
   inkscape:connector-curvature="0" /><path
   style="fill:#ffffff;fill-opacity:1"
   id="path18"
   d="M 28.442772,6.0695075 H 11.470079 L 9.1328861,3.6123243 C 8.4781589,2.7365289 7.2834775,2.7156611 7.2834775,2.7156611 H 2.0339221 c -1.45683308,0 -1.4053157,1.0277391 -1.37923096,1.3081501 v 0.3260593 c 0.043692,-0.406922 0.2895407,-0.9820907 1.37923096,-0.9820907 h 5.2495554 c 0,0 1.1946814,0.020868 1.8494086,0.8966632 l 2.3371929,2.4571832 h 16.972693 c 0.493653,0 0.896663,0.4036614 0.896663,0.8966632 V 6.9661707 c 0,-0.4930017 -0.40301,-0.8966632 -0.896663,-0.8966632 z"
   inkscape:connector-curvature="0" />
 <g
   id="g3786"
   transform="translate(0.07712082,0)"><g
     transform="matrix(0.65211868,0,0,0.65211868,-2.7506198,1.3433527)"
     id="g3775">
    <path
   inkscape:connector-curvature="0"
   d="m 38.643934,25.846062 c -0.28867,0.288671 -0.672857,0.446802 -1.080922,0.445211 l -7.78349,0 0.0011,7.784551 c 5.31e-4,0.408065 -0.158132,0.791721 -0.446272,1.07986 -0.28814,0.288141 -0.671796,0.446803 -1.07986,0.446273 l -2.327406,0 c -0.841603,0 -1.526663,-0.685062 -1.526663,-1.526664 l 0,-7.78349 -7.784552,0 c -0.407524,0.0011 -0.79171,-0.158132 -1.07985,-0.447333 -0.28814,-0.289201 -0.447864,-0.672857 -0.446802,-1.080391 l 5.3e-4,-2.325814 c -5.3e-4,-0.408066 0.158662,-0.791191 0.447333,-1.079861 0.28867,-0.288671 0.671795,-0.446802 1.079331,-0.446802 l 7.783489,0 0.001,-7.784551 c -0.001,-0.406473 0.157601,-0.790129 0.445741,-1.078269 0.28814,-0.28814 0.671796,-0.446802 1.079331,-0.446802 l 2.327406,0 c 0.406473,-0.0021 0.790129,0.15654 1.07986,0.44521 0.28867,0.288671 0.447864,0.672857 0.446802,1.081453 l -5.3e-4,7.78402 7.784551,-0.0011 c 0.841602,0 1.526664,0.685061 1.526664,1.526663 l 0,2.327406 c 0,0.408596 -0.158663,0.792252 -0.446803,1.080392 z"
   id="path3771"
   style="fill:#000000;fill-opacity:0.14901961" />
    <path
   inkscape:connector-curvature="0"
   d="m 29.028821,22.341653 5.3e-4,-8.535412 c 5.31e-4,-0.42823 -0.348102,-0.776864 -0.775802,-0.775802 l -2.327405,0 c -0.428761,0 -0.776333,0.347572 -0.775272,0.775271 l -0.001,8.534883 -8.53382,0 c -0.428761,0 -0.776333,0.347571 -0.776333,0.776332 l 0,2.327405 c -0.001,0.4277 0.347572,0.776333 0.775802,0.775802 l 8.535413,-5.31e-4 -0.001,8.534883 c 0,0.42876 0.347572,0.776332 0.776332,0.776332 l 2.327407,0 c 0.42876,0 0.776332,-0.347572 0.776332,-0.776332 l -10e-4,-8.534883 8.535943,0 c 0.4277,0.0011 0.775272,-0.346511 0.775272,-0.775271 l 0,-2.327405 c 0,-0.428761 -0.347572,-0.776332 -0.776333,-0.776332 l -8.534882,0.001 z"
   id="path3773"
   style="fill:#000000;fill-opacity:0.40392157" />
   </g><path
     inkscape:connector-curvature="0"
     d="m 16.179617,15.47019 3.45e-4,-5.5661014 C 16.180308,9.6248318 15.952958,9.397481 15.674047,9.3981736 l -1.517744,0 c -0.279603,0 -0.506261,0.2266582 -0.505569,0.5055687 l -6.53e-4,5.5657567 -5.565063,0 c -0.2796031,0 -0.5062613,0.226657 -0.5062613,0.506261 l 0,1.517744 c -6.521e-4,0.278911 0.2266582,0.506261 0.505915,0.505915 l 5.5661023,-3.46e-4 -6.52e-4,5.565756 c 0,0.279603 0.226658,0.506261 0.50626,0.506261 l 1.517746,0 c 0.279602,0 0.506261,-0.226658 0.506261,-0.506261 l -6.53e-4,-5.565756 5.566448,0 c 0.278912,7.17e-4 0.50557,-0.225967 0.50557,-0.505569 l 0,-1.517744 c 0,-0.279604 -0.226658,-0.506261 -0.506262,-0.506261 l -5.565756,6.52e-4 z"
     id="path5072"
     style="fill:#ffffff;fill-opacity:1" /></g>
</svg>