<?xml version="1.0" encoding="UTF-8" standalone="no"?>
<!-- Generator: Adobe Illustrator 15.0.0, SVG Export Plug-In . SVG Version: 6.00 Build 0)  -->

<svg
   xmlns:dc="http://purl.org/dc/elements/1.1/"
   xmlns:cc="http://creativecommons.org/ns#"
   xmlns:rdf="http://www.w3.org/1999/02/22-rdf-syntax-ns#"
   xmlns:svg="http://www.w3.org/2000/svg"
   xmlns="http://www.w3.org/2000/svg"
   xmlns:xlink="http://www.w3.org/1999/xlink"
   xmlns:sodipodi="http://sodipodi.sourceforge.net/DTD/sodipodi-0.dtd"
   xmlns:inkscape="http://www.inkscape.org/namespaces/inkscape"
   version="1.1"
   id="Ebene_1"
   x="0px"
   y="0px"
   width="48"
   height="48"
   viewBox="0 0 48 48"
   enable-background="new 0 0 67 57"
   xml:space="preserve"
   inkscape:version="0.48.2 r9819"
   sodipodi:docname="folder.svg"><metadata
   id="metadata24"><rdf:RDF><cc:Work
       rdf:about=""><dc:format>image/svg+xml</dc:format><dc:type
         rdf:resource="http://purl.org/dc/dcmitype/StillImage" /></cc:Work></rdf:RDF></metadata><defs
   id="defs22"><linearGradient
     inkscape:collect="always"
     xlink:href="#SVGID_1_"
     id="linearGradient3007"
     gradientUnits="userSpaceOnUse"
     gradientTransform="matrix(1,0,0,-1,-137.48,-214.0195)"
     x1="170.4805"
     y1="-250.1494"
     x2="170.4805"
     y2="-212.0137" /></defs><sodipodi:namedview
   pagecolor="#ffffff"
   bordercolor="#666666"
   borderopacity="1"
   objecttolerance="10"
   gridtolerance="10"
   guidetolerance="10"
   inkscape:pageopacity="0"
   inkscape:pageshadow="2"
   inkscape:window-width="1024"
   inkscape:window-height="673"
   id="namedview20"
   showgrid="false"
   inkscape:zoom="4.1403509"
   inkscape:cx="4.6377119"
   inkscape:cy="28.5"
   inkscape:window-x="-4"
   inkscape:window-y="-4"
   inkscape:window-maximized="1"
   inkscape:current-layer="Ebene_1" />



<linearGradient
   id="SVGID_1_"
   gradientUnits="userSpaceOnUse"
   x1="170.4805"
   y1="-250.1494"
   x2="170.4805"
   y2="-212.0137"
   gradientTransform="matrix(1,0,0,-1,-137.48,-214.0195)">
	<stop
   offset="0"
   style="stop-color:#D0CBC5"
   id="stop10" />
	<stop
   offset="0.5031"
   style="stop-color:#FAFCEF"
   id="stop12" />
	<stop
   offset="0.9693"
   style="stop-color:#FFFFFF"
   id="stop14" />
</linearGradient>

<g
   id="g3001"
   transform="translate(-8.9993108,6.9345)"><path
     style="opacity:0.3"
     inkscape:connector-curvature="0"
     id="path5"
     d="M 53.625,4.143 H 27.598 L 24.014,0.375 C 23.01,-0.968 21.178,-1 21.178,-1 h -8.05 C 10.894,-1 10.973,0.576 11.013,1.006 11.016,1.049 11,35.762 11,35.762 c 0,0.756 0.619,1.375 1.375,1.375 h 41.25 C 54.382,37.137 55,36.518 55,35.762 V 5.518 C 55,4.762 54.382,4.143 53.625,4.143 z"
     enable-background="new    " /><path
     style="opacity:0.15"
     inkscape:connector-curvature="0"
     id="path7"
     d="M 12.375,37.13 C 11.065,37.13 10,36.065 10,34.755 10,34.411 10.016,0.407 10.013,0.011 c -0.099,-1.024 0.299,-1.717 0.649,-2.103 0.553,-0.606 1.383,-0.914 2.466,-0.914 h 8.05 c 0.111,0.002 2.31,0.06 3.599,1.726 l 3.25,3.417 h 25.599 c 1.31,0 2.375,1.065 2.375,2.375 v 30.243 c 0,1.31 -1.065,2.375 -2.375,2.375 H 12.375 z"
     enable-background="new    " /><path
     style="fill:url(#linearGradient3007)"
     inkscape:connector-curvature="0"
     id="path16"
     d="M 53.625,3.137 H 27.598 L 24.014,-0.631 C 23.01,-1.974 21.178,-2.006 21.178,-2.006 h -8.05 C 10.894,-2.006 10.973,-0.43 11.013,0 11.016,0.043 11,34.755 11,34.755 c 0,0.757 0.619,1.375 1.375,1.375 h 41.25 C 54.382,36.13 55,35.512 55,34.755 V 4.512 C 55,3.756 54.382,3.137 53.625,3.137 z" /><path
     style="fill:#ffffff"
     inkscape:connector-curvature="0"
     id="path18"
     d="M 53.625,3.137 H 27.598 L 24.014,-0.631 C 23.01,-1.974 21.178,-2.006 21.178,-2.006 h -8.05 c -2.234,0 -2.155,1.576 -2.115,2.006 v 0.5 c 0.067,-0.624 0.444,-1.506 2.115,-1.506 h 8.05 c 0,0 1.832,0.032 2.836,1.375 l 3.584,3.768 H 53.625 C 54.382,4.137 55,4.756 55,5.512 v -1 C 55,3.756 54.382,3.137 53.625,3.137 z" /></g>
</svg>