<?xml version="1.0" encoding="UTF-8" standalone="no"?>
<!-- Generator: Adobe Illustrator 15.0.0, SVG Export Plug-In . SVG Version: 6.00 Build 0)  -->

<svg
   xmlns:dc="http://purl.org/dc/elements/1.1/"
   xmlns:cc="http://creativecommons.org/ns#"
   xmlns:rdf="http://www.w3.org/1999/02/22-rdf-syntax-ns#"
   xmlns:svg="http://www.w3.org/2000/svg"
   xmlns="http://www.w3.org/2000/svg"
   xmlns:xlink="http://www.w3.org/1999/xlink"
   xmlns:sodipodi="http://sodipodi.sourceforge.net/DTD/sodipodi-0.dtd"
   xmlns:inkscape="http://www.inkscape.org/namespaces/inkscape"
   version="1.1"
   id="Ebene_1"
   x="0px"
   y="0px"
   width="48"
   height="48"
   viewBox="0 0 48 48"
   enable-background="new 0 0 67 57"
   xml:space="preserve"
   inkscape:version="0.48.2 r9819"
   sodipodi:docname="folder_add.svg"><metadata
   id="metadata24"><rdf:RDF><cc:Work
       rdf:about=""><dc:format>image/svg+xml</dc:format><dc:type
         rdf:resource="http://purl.org/dc/dcmitype/StillImage" /><dc:title /></cc:Work></rdf:RDF></metadata><defs
   id="defs22"><linearGradient
     inkscape:collect="always"
     xlink:href="#SVGID_1_"
     id="linearGradient3007"
     gradientUnits="userSpaceOnUse"
     gradientTransform="matrix(1,0,0,-1,-137.48,-214.0195)"
     x1="170.4805"
     y1="-250.1494"
     x2="170.4805"
     y2="-212.0137" /><linearGradient
     inkscape:collect="always"
     xlink:href="#SVGID_1_-7"
     id="linearGradient3007-1"
     gradientUnits="userSpaceOnUse"
     gradientTransform="matrix(1,0,0,-1,-137.48,-214.0195)"
     x1="170.4805"
     y1="-250.1494"
     x2="170.4805"
     y2="-212.0137" /><linearGradient
     id="SVGID_1_-7"
     gradientUnits="userSpaceOnUse"
     x1="170.4805"
     y1="-250.1494"
     x2="170.4805"
     y2="-212.0137"
     gradientTransform="matrix(1,0,0,-1,-137.48,-214.0195)"><stop
       offset="0"
       style="stop-color:#D0CBC5"
       id="stop10-4" /><stop
       offset="0.5031"
       style="stop-color:#FAFCEF"
       id="stop12-0" /><stop
       offset="0.9693"
       style="stop-color:#FFFFFF"
       id="stop14-9" /></linearGradient></defs><sodipodi:namedview
   pagecolor="#ffffff"
   bordercolor="#666666"
   borderopacity="1"
   objecttolerance="10"
   gridtolerance="10"
   guidetolerance="10"
   inkscape:pageopacity="0"
   inkscape:pageshadow="2"
   inkscape:window-width="1920"
   inkscape:window-height="955"
   id="namedview20"
   showgrid="false"
   inkscape:zoom="16.208333"
   inkscape:cx="14.467866"
   inkscape:cy="24"
   inkscape:window-x="-4"
   inkscape:window-y="-4"
   inkscape:window-maximized="1"
   inkscape:current-layer="layer2" />



<linearGradient
   id="SVGID_1_"
   gradientUnits="userSpaceOnUse"
   x1="170.4805"
   y1="-250.1494"
   x2="170.4805"
   y2="-212.0137"
   gradientTransform="matrix(1,0,0,-1,-137.48,-214.0195)">
	<stop
   offset="0"
   style="stop-color:#D0CBC5"
   id="stop10" />
	<stop
   offset="0.5031"
   style="stop-color:#FAFCEF"
   id="stop12" />
	<stop
   offset="0.9693"
   style="stop-color:#FFFFFF"
   id="stop14" />
</linearGradient>


<g
   inkscape:groupmode="layer"
   id="layer1"
   inkscape:label="Layer"
   sodipodi:insensitive="true"><g
     id="g3001"
     transform="translate(-8.9993108,6.9345)"><path
       style="opacity:0.3"
       inkscape:connector-curvature="0"
       id="path5"
       d="M 53.625,4.143 H 27.598 L 24.014,0.375 C 23.01,-0.968 21.178,-1 21.178,-1 h -8.05 C 10.894,-1 10.973,0.576 11.013,1.006 11.016,1.049 11,35.762 11,35.762 c 0,0.756 0.619,1.375 1.375,1.375 h 41.25 C 54.382,37.137 55,36.518 55,35.762 V 5.518 C 55,4.762 54.382,4.143 53.625,4.143 z"
       enable-background="new    " /><path
       style="opacity:0.15"
       inkscape:connector-curvature="0"
       id="path7"
       d="M 12.375,37.13 C 11.065,37.13 10,36.065 10,34.755 10,34.411 10.016,0.407 10.013,0.011 c -0.099,-1.024 0.299,-1.717 0.649,-2.103 0.553,-0.606 1.383,-0.914 2.466,-0.914 h 8.05 c 0.111,0.002 2.31,0.06 3.599,1.726 l 3.25,3.417 h 25.599 c 1.31,0 2.375,1.065 2.375,2.375 v 30.243 c 0,1.31 -1.065,2.375 -2.375,2.375 H 12.375 z"
       enable-background="new    " /><path
       style="fill:url(#linearGradient3007-1)"
       inkscape:connector-curvature="0"
       id="path16"
       d="M 53.625,3.137 H 27.598 L 24.014,-0.631 C 23.01,-1.974 21.178,-2.006 21.178,-2.006 h -8.05 C 10.894,-2.006 10.973,-0.43 11.013,0 11.016,0.043 11,34.755 11,34.755 c 0,0.757 0.619,1.375 1.375,1.375 h 41.25 C 54.382,36.13 55,35.512 55,34.755 V 4.512 C 55,3.756 54.382,3.137 53.625,3.137 z" /><path
       style="fill:#ffffff"
       inkscape:connector-curvature="0"
       id="path18"
       d="M 53.625,3.137 H 27.598 L 24.014,-0.631 C 23.01,-1.974 21.178,-2.006 21.178,-2.006 h -8.05 c -2.234,0 -2.155,1.576 -2.115,2.006 v 0.5 c 0.067,-0.624 0.444,-1.506 2.115,-1.506 h 8.05 c 0,0 1.832,0.032 2.836,1.375 l 3.584,3.768 H 53.625 C 54.382,4.137 55,4.756 55,5.512 v -1 C 55,3.756 54.382,3.137 53.625,3.137 z" /></g></g><g
   inkscape:groupmode="layer"
   id="layer2"
   inkscape:label="Layer#1"><g
     id="g3775"
     transform="translate(-13.220348,2.6334332)"><path
       id="path5068"
       d="m 52.624666,26.975478 c -0.384868,0.384869 -0.897084,0.595697 -1.441136,0.593575 l -10.37731,0 0.0014,10.378726 c 7.07e-4,0.544051 -0.210829,1.055559 -0.594991,1.43972 -0.384161,0.384162 -0.895669,0.595698 -1.43972,0.594991 l -3.103006,0 c -1.122063,0 -2.035418,-0.913356 -2.035418,-2.035419 l 0,-10.377311 -10.378726,0 c -0.54333,0.0014 -1.055545,-0.210829 -1.439707,-0.596405 -0.384161,-0.385576 -0.597112,-0.897084 -0.595697,-1.440428 l 7.07e-4,-3.100883 c -7.07e-4,-0.544052 0.211536,-1.054852 0.596405,-1.439721 0.384869,-0.384869 0.895669,-0.595697 1.439014,-0.595697 l 10.37731,0 0.0014,-10.378726 c -0.0014,-0.5419299 0.210121,-1.0534375 0.594282,-1.4375989 0.384162,-0.3841614 0.89567,-0.5956979 1.439015,-0.5956979 l 3.103005,0 c 0.541929,-0.0028 1.053437,0.208707 1.43972,0.5935758 0.384869,0.3848688 0.597113,0.8970837 0.595698,1.441843 l -7.07e-4,10.378018 10.378725,-0.0014 c 1.122063,0 2.035419,0.913355 2.035419,2.035418 l 0,3.103005 c 0,0.544759 -0.211536,1.056268 -0.595698,1.440429 z"
       inkscape:connector-curvature="0"
       style="fill:#000000;fill-opacity:1" /><path
       id="path5072"
       d="m 39.80545,21.398405 7.07e-4,-11.379809 C 39.806865,9.44766 39.342051,8.982846 38.771822,8.984261 l -3.103005,0 c -0.571644,0 -1.035043,0.463399 -1.033628,1.033628 l -0.0014,11.379102 -11.377686,0 c -0.571644,0 -1.035043,0.463399 -1.035043,1.035042 l 0,3.103005 c -0.0014,0.570229 0.463399,1.035043 1.034335,1.034335 l 11.379809,-7.07e-4 -0.0014,11.379102 c 0,0.571643 0.463399,1.035042 1.035043,1.035042 l 3.103006,0 c 0.571643,0 1.035043,-0.463399 1.035043,-1.035042 l -0.0014,-11.379102 11.380516,0 c 0.570229,0.0014 1.033628,-0.461985 1.033628,-1.033628 l 0,-3.103005 c 0,-0.571643 -0.463399,-1.035042 -1.035043,-1.035042 l -11.379101,0.0014 z"
       inkscape:connector-curvature="0"
       style="fill:#ffffff;fill-opacity:1" /></g></g></svg>