<?xml version="1.0" encoding="UTF-8" standalone="no"?>
<!-- Converted with SVG Converter - Version 0.9.5 (Compiled Mon May 30 09:08:51 2011) - Copyright (C) 2011 Nokia -->

<svg
   xmlns:dc="http://purl.org/dc/elements/1.1/"
   xmlns:cc="http://creativecommons.org/ns#"
   xmlns:rdf="http://www.w3.org/1999/02/22-rdf-syntax-ns#"
   xmlns:svg="http://www.w3.org/2000/svg"
   xmlns="http://www.w3.org/2000/svg"
   xmlns:sodipodi="http://sodipodi.sourceforge.net/DTD/sodipodi-0.dtd"
   xmlns:inkscape="http://www.inkscape.org/namespaces/inkscape"
   width="30"
   x="0px"
   y="0px"
   version="1.1"
   viewBox="0 0 30 30"
   height="30"
   id="Ebene_1"
   xml:space="preserve"
   inkscape:version="0.48.2 r9819"
   sodipodi:docname="folder_add.svg"><sodipodi:namedview
   pagecolor="#ffffff"
   bordercolor="#666666"
   borderopacity="1"
   objecttolerance="10"
   gridtolerance="10"
   guidetolerance="10"
   inkscape:pageopacity="0"
   inkscape:pageshadow="2"
   inkscape:window-width="1920"
   inkscape:window-height="955"
   id="namedview40"
   showgrid="false"
   inkscape:zoom="25.933333"
   inkscape:cx="10.392031"
   inkscape:cy="15"
   inkscape:window-x="-4"
   inkscape:window-y="-4"
   inkscape:window-maximized="1"
   inkscape:current-layer="Ebene_1" />
 <metadata
   id="metadata24"><rdf:RDF><cc:Work
       rdf:about=""><dc:format>image/svg+xml</dc:format><dc:type
         rdf:resource="http://purl.org/dc/dcmitype/StillImage" /></cc:Work></rdf:RDF></metadata>
 <defs
   id="defs22">
  <linearGradient
   gradientTransform="matrix(1,0,0,-1,-137.48,-214.0195)"
   id="linearGradient3007"
   y1="-250.1494"
   x1="170.4805"
   y2="-212.0137"
   gradientUnits="userSpaceOnUse"
   x2="170.4805">
   <stop
   offset="0"
   style="stop-color:#D0CBC5"
   id="stop10" />
   <stop
   offset="0.5031"
   style="stop-color:#FAFCEF"
   id="stop12" />
   <stop
   offset="0.9693"
   style="stop-color:#FFFFFF"
   id="stop14" />
  </linearGradient>
  <linearGradient
   gradientTransform="matrix(1,0,0,-1,-137.48,-214.0195)"
   id="linearGradient3007-1"
   y1="-250.1494"
   x1="170.4805"
   y2="-212.0137"
   gradientUnits="userSpaceOnUse"
   x2="170.4805">
   <stop
   offset="0"
   style="stop-color:#D0CBC5"
   id="stop10-4" />
   <stop
   offset="0.5031"
   style="stop-color:#FAFCEF"
   id="stop12-0" />
   <stop
   offset="0.9693"
   style="stop-color:#FFFFFF"
   id="stop14-9" />
  </linearGradient>
  <linearGradient
   gradientTransform="matrix(1,0,0,-1,-137.48,-214.0195)"
   id="SVGID_1_-7"
   y1="-250.1494"
   x1="170.4805"
   y2="-212.0137"
   gradientUnits="userSpaceOnUse"
   x2="170.4805">
   <stop
   offset="0"
   style="stop-color:#D0CBC5"
   id="stop15" />
   <stop
   offset="0.5031"
   style="stop-color:#FAFCEF"
   id="stop17" />
   <stop
   offset="0.9693"
   style="stop-color:#FFFFFF"
   id="stop19" />
  </linearGradient>
 </defs>
 <linearGradient
   gradientTransform="matrix(1,0,0,-1,-137.48,-214.0195)"
   id="SVGID_1_"
   y1="-250.1494"
   x1="170.4805"
   y2="-212.0137"
   gradientUnits="userSpaceOnUse"
   x2="170.4805">
  <stop
   offset="0"
   style="stop-color:#D0CBC5"
   id="stop22" />
  <stop
   offset="0.5031"
   style="stop-color:#FAFCEF"
   id="stop24" />
  <stop
   offset="0.9693"
   style="stop-color:#FFFFFF"
   id="stop26" />
 </linearGradient>
 <g
   id="layer1"
   transform="matrix(0.65211868,0,0,0.65211868,-0.65847322,-0.49830581)">
  <g
   id="g3001"
   transform="translate(-8.9993108,6.9345)">
   <path
   style="opacity:0.3"
   id="path5"
   d="M 53.625,4.143 H 27.598 L 24.014,0.375 C 23.01,-0.968 21.178,-1 21.178,-1 h -8.05 C 10.894,-1 10.973,0.576 11.013,1.006 11.016,1.049 11,35.762 11,35.762 c 0,0.756 0.619,1.375 1.375,1.375 h 41.25 C 54.382,37.137 55,36.518 55,35.762 V 5.518 C 55,4.762 54.382,4.143 53.625,4.143 z"
   inkscape:connector-curvature="0" />
   <path
   style="opacity:0.15"
   id="path7"
   d="M 12.375,37.13 C 11.065,37.13 10,36.065 10,34.755 10,34.411 10.016,0.407 10.013,0.011 c -0.099,-1.024 0.299,-1.717 0.649,-2.103 0.553,-0.606 1.383,-0.914 2.466,-0.914 h 8.05 c 0.111,0.002 2.31,0.06 3.599,1.726 l 3.25,3.417 h 25.599 c 1.31,0 2.375,1.065 2.375,2.375 v 30.243 c 0,1.31 -1.065,2.375 -2.375,2.375 H 12.375 z"
   inkscape:connector-curvature="0" />
   <path
   style="fill:url(#linearGradient3007-1)"
   id="path16"
   d="M 53.625,3.137 H 27.598 L 24.014,-0.631 C 23.01,-1.974 21.178,-2.006 21.178,-2.006 h -8.05 C 10.894,-2.006 10.973,-0.43 11.013,0 11.016,0.043 11,34.755 11,34.755 c 0,0.757 0.619,1.375 1.375,1.375 h 41.25 C 54.382,36.13 55,35.512 55,34.755 V 4.512 C 55,3.756 54.382,3.137 53.625,3.137 z"
   inkscape:connector-curvature="0" />
   <path
   style="fill:#ffffff"
   id="path18"
   d="M 53.625,3.137 H 27.598 L 24.014,-0.631 C 23.01,-1.974 21.178,-2.006 21.178,-2.006 h -8.05 c -2.234,0 -2.155,1.576 -2.115,2.006 v 0.5 c 0.067,-0.624 0.444,-1.506 2.115,-1.506 h 8.05 c 0,0 1.832,0.032 2.836,1.375 l 3.584,3.768 H 53.625 C 54.382,4.137 55,4.756 55,5.512 v -1 C 55,3.756 54.382,3.137 53.625,3.137 z"
   inkscape:connector-curvature="0" />
  </g>
 </g>
 <g
   id="layer2"
   transform="matrix(0.65211868,0,0,0.65211868,-0.6508483,-0.49830581)">
  <g
   id="g3779"
   transform="translate(-1.920287,2)">
   <path
   style="fill:#000000;fill-opacity:1"
   id="path5072"
   d="m 27.85914,22.487101 5.3e-4,-8.535412 c 5.31e-4,-0.42823 -0.348102,-0.776864 -0.775802,-0.775802 l -2.327405,0 c -0.428761,0 -0.776333,0.347572 -0.775272,0.775271 l -10e-4,8.534883 -8.53382,0 c -0.428761,0 -0.776333,0.347571 -0.776333,0.776332 l 0,2.327405 c -10e-4,0.4277 0.347572,0.776333 0.775802,0.775802 l 8.535413,-5.31e-4 -10e-4,8.534883 c 0,0.42876 0.347572,0.776332 0.776332,0.776332 l 2.327407,0 c 0.42876,0 0.776332,-0.347572 0.776332,-0.776332 l -10e-4,-8.534883 8.535943,0 c 0.4277,0.0011 0.775272,-0.346511 0.775272,-0.775271 l 0,-2.327405 c 0,-0.428761 -0.347572,-0.776332 -0.776333,-0.776332 l -8.534882,0.001 z"
   inkscape:connector-curvature="0" />
   <g
   id="g3775"
   transform="translate(-1.1696814,0.82411584)">
    <path
   style="fill:#000000;fill-opacity:0.14901961"
   id="path3771"
   d="m 38.643934,25.846062 c -0.28867,0.288671 -0.672857,0.446802 -1.080922,0.445211 l -7.78349,0 0.0011,7.784551 c 5.31e-4,0.408065 -0.158132,0.791721 -0.446272,1.07986 -0.28814,0.288141 -0.671796,0.446803 -1.07986,0.446273 l -2.327406,0 c -0.841603,0 -1.526663,-0.685062 -1.526663,-1.526664 l 0,-7.78349 -7.784552,0 c -0.407524,0.0011 -0.79171,-0.158132 -1.07985,-0.447333 -0.28814,-0.289201 -0.447864,-0.672857 -0.446802,-1.080391 l 5.3e-4,-2.325814 c -5.3e-4,-0.408066 0.158662,-0.791191 0.447333,-1.079861 0.28867,-0.288671 0.671795,-0.446802 1.079331,-0.446802 l 7.783489,0 0.001,-7.784551 c -0.001,-0.406473 0.157601,-0.790129 0.445741,-1.078269 0.28814,-0.28814 0.671796,-0.446802 1.079331,-0.446802 l 2.327406,0 c 0.406473,-0.0021 0.790129,0.15654 1.07986,0.44521 0.28867,0.288671 0.447864,0.672857 0.446802,1.081453 l -5.3e-4,7.78402 7.784551,-0.0011 c 0.841602,0 1.526664,0.685061 1.526664,1.526663 l 0,2.327406 c 0,0.408596 -0.158663,0.792252 -0.446803,1.080392 z"
   inkscape:connector-curvature="0" />
    <path
   style="fill:#000000;fill-opacity:0.40392157"
   id="path3773"
   d="m 29.028821,22.341653 5.3e-4,-8.535412 c 5.31e-4,-0.42823 -0.348102,-0.776864 -0.775802,-0.775802 l -2.327405,0 c -0.428761,0 -0.776333,0.347572 -0.775272,0.775271 l -0.001,8.534883 -8.53382,0 c -0.428761,0 -0.776333,0.347571 -0.776333,0.776332 l 0,2.327405 c -0.001,0.4277 0.347572,0.776333 0.775802,0.775802 l 8.535413,-5.31e-4 -0.001,8.534883 c 0,0.42876 0.347572,0.776332 0.776332,0.776332 l 2.327407,0 c 0.42876,0 0.776332,-0.347572 0.776332,-0.776332 l -10e-4,-8.534883 8.535943,0 c 0.4277,0.0011 0.775272,-0.346511 0.775272,-0.775271 l 0,-2.327405 c 0,-0.428761 -0.347572,-0.776332 -0.776333,-0.776332 l -8.534882,0.001 z"
   inkscape:connector-curvature="0" />
   </g>
  </g>
 </g>
</svg>