<?xml version="1.0" encoding="UTF-8" standalone="no"?>
<!-- Converted with SVG Converter - Version 0.9.5 (Compiled Mon May 30 09:08:51 2011) - Copyright (C) 2011 Nokia -->

<svg
   xmlns:dc="http://purl.org/dc/elements/1.1/"
   xmlns:cc="http://creativecommons.org/ns#"
   xmlns:rdf="http://www.w3.org/1999/02/22-rdf-syntax-ns#"
   xmlns:svg="http://www.w3.org/2000/svg"
   xmlns="http://www.w3.org/2000/svg"
   xmlns:sodipodi="http://sodipodi.sourceforge.net/DTD/sodipodi-0.dtd"
   xmlns:inkscape="http://www.inkscape.org/namespaces/inkscape"
   width="30"
   x="0px"
   y="0px"
   version="1.1"
   viewBox="0 0 30 30"
   height="30"
   id="Ebene_1"
   xml:space="preserve"
   inkscape:version="0.48.2 r9819"
   sodipodi:docname="folder_add.svg"><sodipodi:namedview
   pagecolor="#ffffff"
   bordercolor="#666666"
   borderopacity="1"
   objecttolerance="10"
   gridtolerance="10"
   guidetolerance="10"
   inkscape:pageopacity="0"
   inkscape:pageshadow="2"
   inkscape:window-width="1890"
   inkscape:window-height="985"
   id="namedview40"
   showgrid="false"
   inkscape:zoom="25.933333"
   inkscape:cx="-1.5231362"
   inkscape:cy="15"
   inkscape:window-x="26"
   inkscape:window-y="-4"
   inkscape:window-maximized="1"
   inkscape:current-layer="Ebene_1" />
 <metadata
   id="metadata24"><rdf:RDF><cc:Work
       rdf:about=""><dc:format>image/svg+xml</dc:format><dc:type
         rdf:resource="http://purl.org/dc/dcmitype/StillImage" /></cc:Work></rdf:RDF></metadata>
 <defs
   id="defs22">
  <linearGradient
   gradientTransform="matrix(1,0,0,-1,-137.48,-214.0195)"
   id="linearGradient3007"
   y1="-250.1494"
   x1="170.4805"
   y2="-212.0137"
   gradientUnits="userSpaceOnUse"
   x2="170.4805">
   <stop
   offset="0"
   style="stop-color:#D0CBC5"
   id="stop10" />
   <stop
   offset="0.5031"
   style="stop-color:#FAFCEF"
   id="stop12" />
   <stop
   offset="0.9693"
   style="stop-color:#FFFFFF"
   id="stop14" />
  </linearGradient>
  <linearGradient
   gradientTransform="matrix(1,0,0,-1,-137.48,-214.0195)"
   id="linearGradient3007-1"
   y1="-250.1494"
   x1="170.4805"
   y2="-212.0137"
   gradientUnits="userSpaceOnUse"
   x2="170.4805">
   <stop
   offset="0"
   style="stop-color:#D0CBC5"
   id="stop10-4" />
   <stop
   offset="0.5031"
   style="stop-color:#FAFCEF"
   id="stop12-0" />
   <stop
   offset="0.9693"
   style="stop-color:#FFFFFF"
   id="stop14-9" />
  </linearGradient>
  <linearGradient
   gradientTransform="matrix(1,0,0,-1,-137.48,-214.0195)"
   id="SVGID_1_-7"
   y1="-250.1494"
   x1="170.4805"
   y2="-212.0137"
   gradientUnits="userSpaceOnUse"
   x2="170.4805">
   <stop
   offset="0"
   style="stop-color:#D0CBC5"
   id="stop15" />
   <stop
   offset="0.5031"
   style="stop-color:#FAFCEF"
   id="stop17" />
   <stop
   offset="0.9693"
   style="stop-color:#FFFFFF"
   id="stop19" />
  </linearGradient>
 
  
 
   
   
  
    
    
   </defs>
 <linearGradient
   gradientTransform="matrix(1,0,0,-1,-137.48,-214.0195)"
   id="SVGID_1_"
   y1="-250.1494"
   x1="170.4805"
   y2="-212.0137"
   gradientUnits="userSpaceOnUse"
   x2="170.4805">
  <stop
   offset="0"
   style="stop-color:#D0CBC5"
   id="stop22" />
  <stop
   offset="0.5031"
   style="stop-color:#FAFCEF"
   id="stop24" />
  <stop
   offset="0.9693"
   style="stop-color:#FFFFFF"
   id="stop26" />
 </linearGradient>
 <g
   id="layer1"
   transform="matrix(0.65211868,0,0,0.65211868,-0.65847322,-0.49830581)">
  <g
   id="g3001"
   transform="translate(-8.9993108,6.9345)">
   <path
   style="opacity:0.3"
   id="path5"
   d="M 53.625,4.143 H 27.598 L 24.014,0.375 C 23.01,-0.968 21.178,-1 21.178,-1 h -8.05 C 10.894,-1 10.973,0.576 11.013,1.006 11.016,1.049 11,35.762 11,35.762 c 0,0.756 0.619,1.375 1.375,1.375 h 41.25 C 54.382,37.137 55,36.518 55,35.762 V 5.518 C 55,4.762 54.382,4.143 53.625,4.143 z"
   inkscape:connector-curvature="0" />
   <path
   style="opacity:0.15"
   id="path7"
   d="M 12.375,37.13 C 11.065,37.13 10,36.065 10,34.755 10,34.411 10.016,0.407 10.013,0.011 c -0.099,-1.024 0.299,-1.717 0.649,-2.103 0.553,-0.606 1.383,-0.914 2.466,-0.914 h 8.05 c 0.111,0.002 2.31,0.06 3.599,1.726 l 3.25,3.417 h 25.599 c 1.31,0 2.375,1.065 2.375,2.375 v 30.243 c 0,1.31 -1.065,2.375 -2.375,2.375 H 12.375 z"
   inkscape:connector-curvature="0" />
   <path
   style="fill:url(#linearGradient3007-1)"
   id="path16"
   d="M 53.625,3.137 H 27.598 L 24.014,-0.631 C 23.01,-1.974 21.178,-2.006 21.178,-2.006 h -8.05 C 10.894,-2.006 10.973,-0.43 11.013,0 11.016,0.043 11,34.755 11,34.755 c 0,0.757 0.619,1.375 1.375,1.375 h 41.25 C 54.382,36.13 55,35.512 55,34.755 V 4.512 C 55,3.756 54.382,3.137 53.625,3.137 z"
   inkscape:connector-curvature="0" />
   <path
   style="fill:#ffffff"
   id="path18"
   d="M 53.625,3.137 H 27.598 L 24.014,-0.631 C 23.01,-1.974 21.178,-2.006 21.178,-2.006 h -8.05 c -2.234,0 -2.155,1.576 -2.115,2.006 v 0.5 c 0.067,-0.624 0.444,-1.506 2.115,-1.506 h 8.05 c 0,0 1.832,0.032 2.836,1.375 l 3.584,3.768 H 53.625 C 54.382,4.137 55,4.756 55,5.512 v -1 C 55,3.756 54.382,3.137 53.625,3.137 z"
   inkscape:connector-curvature="0" />
  </g>
 </g>
 <path
   sodipodi:type="inkscape:offset"
   inkscape:radius="0.81068623"
   inkscape:original="M 14.25 9.40625 C 13.970397 9.40625 13.749308 9.6273395 13.75 9.90625 L 13.75 15.46875 L 8.15625 15.46875 C 7.8766469 15.46875 7.65625 15.689146 7.65625 15.96875 L 7.65625 17.5 C 7.6555979 17.778911 7.8769932 18.000346 8.15625 18 L 13.75 18 L 13.75 23.5625 C 13.75 23.842103 13.970398 24.0625 14.25 24.0625 L 15.75 24.0625 C 16.029602 24.0625 16.25 23.842103 16.25 23.5625 L 16.25 18 L 21.84375 18 C 22.122661 18.000717 22.34375 17.779602 22.34375 17.5 L 22.34375 15.96875 C 22.34375 15.689146 22.123353 15.46875 21.84375 15.46875 L 16.25 15.46875 L 16.25 9.90625 C 16.250346 9.6269932 16.028911 9.4055574 15.75 9.40625 L 14.25 9.40625 z "
   style="fill:#ffffff;fill-opacity:1"
   id="path3006"
   d="m 14.25,8.59375 c -0.706957,0 -1.314258,0.6041164 -1.3125,1.3125 l 0,4.75 -4.78125,0 c -0.7056165,0 -1.3125,0.606882 -1.3125,1.3125 l 0,1.53125 c -0.00166,0.708918 0.6041608,1.313378 1.3125,1.3125 l 4.78125,0 0,4.75 c 0,0.70562 0.606881,1.3125 1.3125,1.3125 l 1.5,0 c 0.705619,0 1.3125,-0.60688 1.3125,-1.3125 l 0,-4.75 4.78125,0 c 0.708472,0.0018 1.3125,-0.605543 1.3125,-1.3125 l 0,-1.53125 c 0,-0.705618 -0.606883,-1.3125 -1.3125,-1.3125 l -4.78125,0 0,-4.75 C 17.063378,9.1979107 16.459058,8.5919892 15.75,8.59375 l -1.5,0 z" /><path
   style="fill:#000000;fill-opacity:1"
   id="path5072"
   d="m 16.264362,15.47019 3.46e-4,-5.5661014 C 16.265054,9.6248318 16.037704,9.397481 15.758793,9.3981736 l -1.517744,0 c -0.279603,0 -0.506262,0.2266582 -0.50557,0.5055687 l -6.52e-4,5.5657567 -5.5650632,0 c -0.2796031,0 -0.5062613,0.226657 -0.5062613,0.506261 l 0,1.517744 c -6.521e-4,0.278911 0.2266582,0.506261 0.505915,0.505915 l 5.5661025,-3.46e-4 -6.52e-4,5.565756 c 0,0.279603 0.226658,0.506261 0.50626,0.506261 l 1.517746,0 c 0.279602,0 0.50626,-0.226658 0.50626,-0.506261 l -6.52e-4,-5.565756 5.566448,0 c 0.278911,7.17e-4 0.50557,-0.225967 0.50557,-0.505569 l 0,-1.517744 c 0,-0.279604 -0.226659,-0.506261 -0.506262,-0.506261 l -5.565756,6.52e-4 z"
   inkscape:connector-curvature="0" />
</svg>