<?xml version="1.0" encoding="UTF-8" standalone="no"?>
<!-- Generator: Adobe Illustrator 15.0.0, SVG Export Plug-In . SVG Version: 6.00 Build 0)  -->

<svg
   xmlns:dc="http://purl.org/dc/elements/1.1/"
   xmlns:cc="http://creativecommons.org/ns#"
   xmlns:rdf="http://www.w3.org/1999/02/22-rdf-syntax-ns#"
   xmlns:svg="http://www.w3.org/2000/svg"
   xmlns="http://www.w3.org/2000/svg"
   xmlns:sodipodi="http://sodipodi.sourceforge.net/DTD/sodipodi-0.dtd"
   xmlns:inkscape="http://www.inkscape.org/namespaces/inkscape"
   version="1.1"
   x="0px"
   y="0px"
   width="30px"
   height="30px"
   viewBox="0 0 30 30"
   enable-background="new 0 0 30 30"
   xml:space="preserve"
   id="svg2"
   inkscape:version="0.48.2 r9819"
   sodipodi:docname="grid_inverted.svg"><metadata
   id="metadata23"><rdf:RDF><cc:Work
       rdf:about=""><dc:format>image/svg+xml</dc:format><dc:type
         rdf:resource="http://purl.org/dc/dcmitype/StillImage" /></cc:Work></rdf:RDF></metadata><defs
   id="defs21">
	
	
	
	
	
	
</defs><sodipodi:namedview
   pagecolor="#ffffff"
   bordercolor="#666666"
   borderopacity="1"
   objecttolerance="10"
   gridtolerance="10"
   guidetolerance="10"
   inkscape:pageopacity="0"
   inkscape:pageshadow="2"
   inkscape:window-width="1130"
   inkscape:window-height="867"
   id="namedview19"
   showgrid="false"
   inkscape:zoom="21.5"
   inkscape:cx="15"
   inkscape:cy="15"
   inkscape:window-x="0"
   inkscape:window-y="0"
   inkscape:window-maximized="0"
   inkscape:current-layer="svg2" />

<g
   id="g3774"><g
     id="DO_NOT_EDIT_-_BOUNDING_BOX">
	<rect
   height="30"
   width="30"
   fill="none"
   id="BOUNDING_BOX" />
</g><path
     d="m 24.8,2.983 h -3.074 c -0.771,0 -1.4,0.631 -1.4,1.4 V 7.46 c 0,0.77 0.63,1.398 1.4,1.398 H 24.8 c 0.77,0 1.4,-0.629 1.4,-1.398 V 4.384 c 0,-0.77 -0.631,-1.401 -1.4,-1.401 z M 8.275,11.062 H 5.2 c -0.771,0 -1.4,0.629 -1.4,1.4 v 3.074 c 0,0.77 0.63,1.4 1.4,1.4 h 3.075 c 0.771,0 1.4,-0.631 1.4,-1.4 v -3.074 c 10e-4,-0.772 -0.629,-1.4 -1.4,-1.4 z m 0,8.078 H 5.2 c -0.771,0 -1.4,0.631 -1.4,1.4 v 3.076 c 0,0.77 0.63,1.4 1.4,1.4 h 3.075 c 0.771,0 1.4,-0.631 1.4,-1.4 V 20.54 c 10e-4,-0.769 -0.629,-1.4 -1.4,-1.4 z m 8.079,0 h -3.075 c -0.77,0 -1.399,0.631 -1.399,1.4 v 3.076 c 0,0.77 0.63,1.4 1.399,1.4 h 3.075 c 0.771,0 1.4,-0.631 1.4,-1.4 V 20.54 c 0,-0.769 -0.63,-1.4 -1.4,-1.4 z M 8.275,2.983 H 5.2 c -0.771,0 -1.4,0.631 -1.4,1.4 V 7.46 c 0,0.77 0.63,1.398 1.4,1.398 h 3.075 c 0.771,0 1.4,-0.629 1.4,-1.398 V 4.384 C 9.676,3.614 9.046,2.983 8.275,2.983 z M 24.8,19.14 h -3.074 c -0.771,0 -1.4,0.631 -1.4,1.4 v 3.076 c 0,0.77 0.63,1.4 1.4,1.4 H 24.8 c 0.77,0 1.4,-0.631 1.4,-1.4 V 20.54 c 0,-0.769 -0.631,-1.4 -1.4,-1.4 z m 0,-8.078 h -3.074 c -0.771,0 -1.4,0.629 -1.4,1.4 v 3.074 c 0,0.77 0.63,1.4 1.4,1.4 H 24.8 c 0.77,0 1.4,-0.631 1.4,-1.4 v -3.074 c 0,-0.772 -0.631,-1.4 -1.4,-1.4 z M 16.354,2.983 h -3.075 c -0.77,0 -1.399,0.631 -1.399,1.4 V 7.46 c 0,0.77 0.63,1.398 1.399,1.398 h 3.075 c 0.771,0 1.4,-0.629 1.4,-1.398 V 4.384 c 0,-0.77 -0.63,-1.401 -1.4,-1.401 z m 0,8.079 h -3.075 c -0.77,0 -1.399,0.629 -1.399,1.4 v 3.074 c 0,0.77 0.63,1.4 1.399,1.4 h 3.075 c 0.771,0 1.4,-0.631 1.4,-1.4 v -3.074 c 0,-0.772 -0.63,-1.4 -1.4,-1.4 z"
     id="path7"
     inkscape:connector-curvature="0"
     style="opacity:0.3" /><rect
     x="3.8"
     y="3.8"
     width="22.4"
     height="22.4"
     id="rect9"
     style="fill:none" /><path
     d="m 21.726,27.017 c -1.323,0 -2.4,-1.077 -2.4,-2.4 V 21.54 c 0,-1.323 1.077,-2.4 2.4,-2.4 H 24.8 c 1.323,0 2.4,1.077 2.4,2.4 v 3.076 c 0,1.323 -1.077,2.4 -2.4,2.4 h -3.074 z m -8.448,0 c -1.323,0 -2.399,-1.077 -2.399,-2.4 V 21.54 c 0,-1.323 1.076,-2.4 2.399,-2.4 h 3.075 c 1.323,0 2.4,1.077 2.4,2.4 v 3.076 c 0,1.323 -1.077,2.4 -2.4,2.4 h -3.075 z m -8.078,0 c -1.324,0 -2.4,-1.077 -2.4,-2.4 V 21.54 c 0,-1.323 1.077,-2.4 2.4,-2.4 h 3.075 c 1.324,0 2.4,1.077 2.4,2.4 v 3.076 c 0,1.323 -1.077,2.4 -2.4,2.4 H 5.2 z m 16.526,-8.08 c -1.323,0 -2.4,-1.077 -2.4,-2.4 v -3.074 c 0,-1.324 1.077,-2.4 2.4,-2.4 H 24.8 c 1.323,0 2.4,1.077 2.4,2.4 v 3.074 c 0,1.323 -1.077,2.4 -2.4,2.4 h -3.074 z m -8.448,0 c -1.323,0 -2.399,-1.077 -2.399,-2.4 v -3.074 c 0,-1.324 1.076,-2.4 2.399,-2.4 h 3.075 c 1.323,0 2.4,1.077 2.4,2.4 v 3.074 c 0,1.323 -1.077,2.4 -2.4,2.4 h -3.075 z m -8.078,0 c -1.324,0 -2.4,-1.077 -2.4,-2.4 v -3.074 c 0,-1.324 1.077,-2.4 2.4,-2.4 h 3.075 c 1.324,0 2.4,1.077 2.4,2.4 v 3.074 c 0,1.323 -1.077,2.4 -2.4,2.4 H 5.2 z m 16.526,-8.079 c -1.323,0 -2.4,-1.076 -2.4,-2.398 V 5.384 c 0,-1.324 1.077,-2.4 2.4,-2.4 H 24.8 c 1.323,0 2.4,1.077 2.4,2.4 V 8.46 c 0,1.322 -1.077,2.398 -2.4,2.398 h -3.074 z m -8.448,0 c -1.323,0 -2.399,-1.076 -2.399,-2.398 V 5.384 c 0,-1.324 1.076,-2.4 2.399,-2.4 h 3.075 c 1.323,0 2.4,1.077 2.4,2.4 V 8.46 c 0,1.322 -1.077,2.398 -2.4,2.398 h -3.075 z m -8.078,0 C 3.876,10.858 2.8,9.782 2.8,8.46 V 5.384 c 0,-1.324 1.077,-2.4 2.4,-2.4 h 3.075 c 1.324,0 2.4,1.077 2.4,2.4 V 8.46 c 0,1.322 -1.077,2.398 -2.4,2.398 H 5.2 z"
     id="path11"
     inkscape:connector-curvature="0"
     style="opacity:0.15" /><path
     d="m 24.8,3.983 h -3.074 c -0.771,0 -1.4,0.631 -1.4,1.4 V 8.46 c 0,0.77 0.63,1.398 1.4,1.398 H 24.8 c 0.77,0 1.4,-0.629 1.4,-1.398 V 5.384 c 0,-0.77 -0.631,-1.401 -1.4,-1.401 z M 8.275,12.062 H 5.2 c -0.771,0 -1.4,0.629 -1.4,1.4 v 3.074 c 0,0.77 0.63,1.4 1.4,1.4 h 3.075 c 0.771,0 1.4,-0.631 1.4,-1.4 v -3.074 c 10e-4,-0.772 -0.629,-1.4 -1.4,-1.4 z m 0,8.078 H 5.2 c -0.771,0 -1.4,0.631 -1.4,1.4 v 3.076 c 0,0.77 0.63,1.4 1.4,1.4 h 3.075 c 0.771,0 1.4,-0.631 1.4,-1.4 V 21.54 c 10e-4,-0.769 -0.629,-1.4 -1.4,-1.4 z m 8.079,0 h -3.075 c -0.77,0 -1.399,0.631 -1.399,1.4 v 3.076 c 0,0.77 0.63,1.4 1.399,1.4 h 3.075 c 0.771,0 1.4,-0.631 1.4,-1.4 V 21.54 c 0,-0.769 -0.63,-1.4 -1.4,-1.4 z M 8.275,3.983 H 5.2 c -0.771,0 -1.4,0.631 -1.4,1.4 V 8.46 c 0,0.77 0.63,1.398 1.4,1.398 h 3.075 c 0.771,0 1.4,-0.629 1.4,-1.398 V 5.384 C 9.676,4.614 9.046,3.983 8.275,3.983 z M 24.8,20.14 h -3.074 c -0.771,0 -1.4,0.631 -1.4,1.4 v 3.076 c 0,0.77 0.63,1.4 1.4,1.4 H 24.8 c 0.77,0 1.4,-0.631 1.4,-1.4 V 21.54 c 0,-0.769 -0.631,-1.4 -1.4,-1.4 z m 0,-8.078 h -3.074 c -0.771,0 -1.4,0.629 -1.4,1.4 v 3.074 c 0,0.77 0.63,1.4 1.4,1.4 H 24.8 c 0.77,0 1.4,-0.631 1.4,-1.4 v -3.074 c 0,-0.772 -0.631,-1.4 -1.4,-1.4 z M 16.354,3.983 h -3.075 c -0.77,0 -1.399,0.631 -1.399,1.4 V 8.46 c 0,0.77 0.63,1.398 1.399,1.398 h 3.075 c 0.771,0 1.4,-0.629 1.4,-1.398 V 5.384 c 0,-0.77 -0.63,-1.401 -1.4,-1.401 z m 0,8.079 h -3.075 c -0.77,0 -1.399,0.629 -1.399,1.4 v 3.074 c 0,0.77 0.63,1.4 1.399,1.4 h 3.075 c 0.771,0 1.4,-0.631 1.4,-1.4 v -3.074 c 0,-0.772 -0.63,-1.4 -1.4,-1.4 z"
     id="path13"
     inkscape:connector-curvature="0"
     style="opacity:0.15" /><path
     d="m 24.8,3.983 h -3.074 c -0.771,0 -1.4,0.631 -1.4,1.4 V 8.46 c 0,0.77 0.63,1.398 1.4,1.398 H 24.8 c 0.77,0 1.4,-0.629 1.4,-1.398 V 5.384 c 0,-0.77 -0.631,-1.401 -1.4,-1.401 z M 8.275,12.062 H 5.2 c -0.771,0 -1.4,0.629 -1.4,1.4 v 3.074 c 0,0.77 0.63,1.4 1.4,1.4 h 3.075 c 0.771,0 1.4,-0.631 1.4,-1.4 v -3.074 c 10e-4,-0.772 -0.629,-1.4 -1.4,-1.4 z m 0,8.078 H 5.2 c -0.771,0 -1.4,0.631 -1.4,1.4 v 3.076 c 0,0.77 0.63,1.4 1.4,1.4 h 3.075 c 0.771,0 1.4,-0.631 1.4,-1.4 V 21.54 c 10e-4,-0.769 -0.629,-1.4 -1.4,-1.4 z m 8.079,0 h -3.075 c -0.77,0 -1.399,0.631 -1.399,1.4 v 3.076 c 0,0.77 0.63,1.4 1.399,1.4 h 3.075 c 0.771,0 1.4,-0.631 1.4,-1.4 V 21.54 c 0,-0.769 -0.63,-1.4 -1.4,-1.4 z M 8.275,3.983 H 5.2 c -0.771,0 -1.4,0.631 -1.4,1.4 V 8.46 c 0,0.77 0.63,1.398 1.4,1.398 h 3.075 c 0.771,0 1.4,-0.629 1.4,-1.398 V 5.384 C 9.676,4.614 9.046,3.983 8.275,3.983 z M 24.8,20.14 h -3.074 c -0.771,0 -1.4,0.631 -1.4,1.4 v 3.076 c 0,0.77 0.63,1.4 1.4,1.4 H 24.8 c 0.77,0 1.4,-0.631 1.4,-1.4 V 21.54 c 0,-0.769 -0.631,-1.4 -1.4,-1.4 z m 0,-8.078 h -3.074 c -0.771,0 -1.4,0.629 -1.4,1.4 v 3.074 c 0,0.77 0.63,1.4 1.4,1.4 H 24.8 c 0.77,0 1.4,-0.631 1.4,-1.4 v -3.074 c 0,-0.772 -0.631,-1.4 -1.4,-1.4 z M 16.354,3.983 h -3.075 c -0.77,0 -1.399,0.631 -1.399,1.4 V 8.46 c 0,0.77 0.63,1.398 1.399,1.398 h 3.075 c 0.771,0 1.4,-0.629 1.4,-1.398 V 5.384 c 0,-0.77 -0.63,-1.401 -1.4,-1.401 z m 0,8.079 h -3.075 c -0.77,0 -1.399,0.629 -1.399,1.4 v 3.074 c 0,0.77 0.63,1.4 1.399,1.4 h 3.075 c 0.771,0 1.4,-0.631 1.4,-1.4 v -3.074 c 0,-0.772 -0.63,-1.4 -1.4,-1.4 z"
     id="path15"
     inkscape:connector-curvature="0"
     style="fill:#000000;fill-opacity:1" /><rect
     width="30"
     height="30"
     id="rect17"
     x="0"
     y="0"
     style="fill:none" /></g>
</svg>