<?xml version="1.0" encoding="UTF-8" standalone="no"?>
<!-- Generator: Adobe Illustrator 15.0.0, SVG Export Plug-In . SVG Version: 6.00 Build 0)  -->

<svg
   xmlns:dc="http://purl.org/dc/elements/1.1/"
   xmlns:cc="http://creativecommons.org/ns#"
   xmlns:rdf="http://www.w3.org/1999/02/22-rdf-syntax-ns#"
   xmlns:svg="http://www.w3.org/2000/svg"
   xmlns="http://www.w3.org/2000/svg"
   xmlns:sodipodi="http://sodipodi.sourceforge.net/DTD/sodipodi-0.dtd"
   xmlns:inkscape="http://www.inkscape.org/namespaces/inkscape"
   version="1.1"
   x="0px"
   y="0px"
   width="30px"
   height="30px"
   viewBox="0 0 30 30"
   enable-background="new 0 0 30 30"
   xml:space="preserve"
   id="svg2"
   inkscape:version="0.48.2 r9819"
   sodipodi:docname="information_userguide_inverted.svg"><metadata
   id="metadata19"><rdf:RDF><cc:Work
       rdf:about=""><dc:format>image/svg+xml</dc:format><dc:type
         rdf:resource="http://purl.org/dc/dcmitype/StillImage" /></cc:Work></rdf:RDF></metadata><defs
   id="defs17">
	
	
	
	
</defs><sodipodi:namedview
   pagecolor="#ffffff"
   bordercolor="#666666"
   borderopacity="1"
   objecttolerance="10"
   gridtolerance="10"
   guidetolerance="10"
   inkscape:pageopacity="0"
   inkscape:pageshadow="2"
   inkscape:window-width="1056"
   inkscape:window-height="814"
   id="namedview15"
   showgrid="false"
   inkscape:zoom="21.233333"
   inkscape:cx="7.7237049"
   inkscape:cy="15"
   inkscape:window-x="0"
   inkscape:window-y="0"
   inkscape:window-maximized="0"
   inkscape:current-layer="svg2" />
<g
   id="DO_NOT_EDIT_-_BOUNDING_BOX">
	<rect
   id="BOUNDING_BOX"
   fill="none"
   width="30"
   height="30" />
</g>
<path
   style="opacity:1;stroke:#000000;stroke-opacity:1"
   inkscape:connector-curvature="0"
   id="path9"
   d="M 15,29 C 7.28,29 1,22.72 1,15 1,7.28 7.28,1 15,1 c 7.72,0 14,6.28 14,14 0,7.72 -6.28,14 -14,14 z" /><path
   style="opacity:0.15"
   inkscape:connector-curvature="0"
   id="path11"
   d="M 15,2 C 7.82,2 2,7.82 2,15 2,22.18 7.82,28 15,28 22.18,28 28,22.18 28,15 28,7.82 22.18,2 15,2 z m 2,22 c 0,0.551 -0.451,1 -1,1 h -2 c -0.55,0 -1,-0.449 -1,-1 v -9 c 0,-0.549 -0.45,-1 -1,-1 h -1 c -0.55,0 -1,-0.449 -1,-1 0,-0.549 0.45,-1 1,-1 h 5 c 0.549,0 1,0.451 1,1 V 24 z M 15.001,10 C 13.621,10 12.5,8.879 12.5,7.5 12.5,6.121 13.621,5 15.001,5 16.381,5 17.5,6.121 17.5,7.5 17.5,8.879 16.381,10 15.001,10 z" /><path
   style="fill:#ffffff"
   inkscape:connector-curvature="0"
   id="path13"
   d="M 15,2 C 7.82,2 2,7.82 2,15 2,22.18 7.82,28 15,28 22.18,28 28,22.18 28,15 28,7.82 22.18,2 15,2 z m 2,22 c 0,0.551 -0.451,1 -1,1 h -2 c -0.55,0 -1,-0.449 -1,-1 v -9 c 0,-0.549 -0.45,-1 -1,-1 h -1 c -0.55,0 -1,-0.449 -1,-1 0,-0.549 0.45,-1 1,-1 h 5 c 0.549,0 1,0.451 1,1 V 24 z M 15.001,10 C 13.621,10 12.5,8.879 12.5,7.5 12.5,6.121 13.621,5 15.001,5 16.381,5 17.5,6.121 17.5,7.5 17.5,8.879 16.381,10 15.001,10 z" />
</svg>