<?xml version="1.0" encoding="UTF-8" standalone="no"?>
<!-- Generator: Adobe Illustrator 15.0.0, SVG Export Plug-In . SVG Version: 6.00 Build 0)  -->

<svg
   xmlns:dc="http://purl.org/dc/elements/1.1/"
   xmlns:cc="http://creativecommons.org/ns#"
   xmlns:rdf="http://www.w3.org/1999/02/22-rdf-syntax-ns#"
   xmlns:svg="http://www.w3.org/2000/svg"
   xmlns="http://www.w3.org/2000/svg"
   xmlns:sodipodi="http://sodipodi.sourceforge.net/DTD/sodipodi-0.dtd"
   xmlns:inkscape="http://www.inkscape.org/namespaces/inkscape"
   version="1.1"
   x="0px"
   y="0px"
   width="30px"
   height="30px"
   viewBox="0 0 30 30"
   enable-background="new 0 0 30 30"
   xml:space="preserve"
   id="svg2"
   inkscape:version="0.48.2 r9819"
   sodipodi:docname="internet_inverted.svg"><metadata
   id="metadata25"><rdf:RDF><cc:Work
       rdf:about=""><dc:format>image/svg+xml</dc:format><dc:type
         rdf:resource="http://purl.org/dc/dcmitype/StillImage" /></cc:Work></rdf:RDF></metadata><defs
   id="defs23">
	

		
		
		
		
		
	</defs><sodipodi:namedview
   pagecolor="#ffffff"
   bordercolor="#666666"
   borderopacity="1"
   objecttolerance="10"
   gridtolerance="10"
   guidetolerance="10"
   inkscape:pageopacity="0"
   inkscape:pageshadow="2"
   inkscape:window-width="919"
   inkscape:window-height="792"
   id="namedview21"
   showgrid="false"
   inkscape:zoom="7.8666667"
   inkscape:cx="-4.6398305"
   inkscape:cy="15"
   inkscape:window-x="0"
   inkscape:window-y="0"
   inkscape:window-maximized="0"
   inkscape:current-layer="svg2" />
<g
   id="DO_NOT_EDIT_-_BOUNDING_BOX">
	<rect
   id="BOUNDING_BOX"
   fill="none"
   width="30"
   height="30" />
</g>
<path
   d="M 15,1 C 7.822,1 2,6.822 2,13.996 2,21.18 7.822,27 15,27 22.182,27 28,21.18 28,13.996 28,6.822 22.182,1 15,1 z m -2.848,17.549 c -0.252,0.506 -0.811,0.695 -0.76,1.621 0.08,1.486 -1.115,1.367 -1.391,2.381 C 9.733,23.524 9.419,24.162 9.419,24.162 8.636,23.732 7.909,23.213 7.251,22.621 7.429,21.672 7.11,19.334 6.724,19.072 5.613,18.314 5.652,18.533 5.556,15.566 5.503,13.92 8.292,14.388 8.894,15.043 c 0.576,0.627 0.48,1.539 2.156,2.24 0.475,0.197 1.356,0.76 1.102,1.266 z M 11.248,5.66 C 10.656,5.875 10.424,5.836 10.016,5.566 9.443,5.184 8.197,6.203 8.967,6.563 9.229,6.684 9.701,6.725 10.449,6.981 11.642,7.393 11.988,8.1 11.297,8.286 7.846,9.222 9.461,10.298 8.152,11.608 7.48,12.28 7.525,12.549 7.05,12.71 6.468,12.903 6.374,12.056 5.825,12.032 5.63,12.022 4.024,12.059 3.618,12.059 3.561,12.059 3.63,11.627 3.63,11.627 4.182,8.93 5.676,6.576 7.75,4.918 c 0,0 2.146,-1.627 3.949,-2.037 0.797,-0.18 2.383,-0.533 2.277,0.016 -0.115,0.593 -2.132,2.552 -2.728,2.763 z m 14.154,8.643 c -0.721,-0.131 -1.191,-2.002 -1.965,-1.416 -1.295,0.977 1.99,2.605 1.99,3.119 0,0.514 -0.695,1.268 -0.994,1.51 -0.451,0.363 -0.371,1.754 -0.371,1.754 0,0.98 -0.658,2.152 -0.996,2.602 -0.34,0.449 -1.809,2.125 -2.666,1.09 -0.639,-0.77 -0.1,-2.352 -0.287,-4.043 -0.066,-0.607 0.049,-2.334 -2.551,-2.648 -2.313,-0.277 -2.113,-1.961 -1.963,-2.814 0.209,-1.174 0.338,-1.871 1.33,-2.111 0.557,-0.137 2.227,-0.352 3.391,0.111 0.549,0.215 1.426,0.127 1.557,-0.598 0.145,-0.773 -0.369,-0.824 -1.617,-1.174 -1.121,-0.316 -2.182,0.631 -3.092,0.629 -0.408,0 -0.389,-0.344 -0.379,-0.826 0.004,-0.48 1.764,-1.719 1.949,-1.859 0.357,-0.273 1.4,-0.162 1.422,-0.162 1.15,0.035 0.898,-0.744 0.121,-0.781 C 18.918,6.62 19.019,5.905 19.004,5.69 18.986,5.473 19.203,4.928 20.25,4.901 c 0.34,-0.01 1.672,-0.064 2.033,0.039 0.09,0.068 0.586,0.5 0.586,0.5 1.951,1.797 3.283,4.254 3.645,7.018 0.02,0.416 0.068,0.855 0.053,0.988 -0.034,0.238 -0.514,0.978 -1.165,0.857 z"
   id="path9"
   inkscape:connector-curvature="0"
   style="opacity:0.3" /><g
   id="g11">
			<rect
   width="30"
   height="30"
   id="rect13"
   x="0"
   y="0"
   style="fill:none" />
		</g><path
   d="M 15,29 C 7.28,29 1,22.718 1,14.996 1,7.279 7.28,1 15,1 22.72,1 29,7.279 29,14.996 29,22.718 22.72,29 15,29 z"
   id="path15"
   inkscape:connector-curvature="0"
   style="opacity:0.15" /><path
   d="M 15,2 C 7.822,2 2,7.822 2,14.996 2,22.18 7.822,28 15,28 22.182,28 28,22.18 28,14.996 28,7.822 22.182,2 15,2 z m -2.848,17.549 c -0.252,0.506 -0.811,0.695 -0.76,1.621 0.08,1.486 -1.115,1.367 -1.391,2.381 C 9.733,24.524 9.419,25.162 9.419,25.162 8.636,24.732 7.909,24.213 7.251,23.621 7.429,22.672 7.11,20.334 6.724,20.072 5.613,19.314 5.652,19.533 5.556,16.566 5.503,14.92 8.292,15.388 8.894,16.043 c 0.576,0.627 0.48,1.539 2.156,2.24 0.475,0.197 1.356,0.76 1.102,1.266 z M 11.248,6.66 C 10.656,6.875 10.424,6.836 10.016,6.566 9.443,6.184 8.197,7.203 8.967,7.563 9.229,7.684 9.701,7.725 10.449,7.981 11.642,8.393 11.988,9.1 11.297,9.286 7.846,10.222 9.461,11.298 8.152,12.608 7.48,13.28 7.525,13.549 7.05,13.71 6.468,13.903 6.374,13.056 5.825,13.032 5.63,13.022 4.024,13.059 3.618,13.059 3.561,13.059 3.63,12.627 3.63,12.627 4.182,9.93 5.676,7.576 7.75,5.918 c 0,0 2.146,-1.627 3.949,-2.037 0.797,-0.18 2.383,-0.533 2.277,0.016 -0.115,0.593 -2.132,2.552 -2.728,2.763 z m 14.154,8.643 c -0.721,-0.131 -1.191,-2.002 -1.965,-1.416 -1.295,0.977 1.99,2.605 1.99,3.119 0,0.514 -0.695,1.268 -0.994,1.51 -0.451,0.363 -0.371,1.754 -0.371,1.754 0,0.98 -0.658,2.152 -0.996,2.602 -0.34,0.449 -1.809,2.125 -2.666,1.09 -0.639,-0.77 -0.1,-2.352 -0.287,-4.043 -0.066,-0.607 0.049,-2.334 -2.551,-2.648 -2.313,-0.277 -2.113,-1.961 -1.963,-2.814 0.209,-1.174 0.338,-1.871 1.33,-2.111 0.557,-0.137 2.227,-0.352 3.391,0.111 0.549,0.215 1.426,0.127 1.557,-0.598 0.145,-0.773 -0.369,-0.824 -1.617,-1.174 -1.121,-0.316 -2.182,0.631 -3.092,0.629 -0.408,0 -0.389,-0.344 -0.379,-0.826 0.004,-0.48 1.764,-1.719 1.949,-1.859 0.357,-0.273 1.4,-0.162 1.422,-0.162 1.15,0.035 0.898,-0.744 0.121,-0.781 C 18.918,7.62 19.019,6.905 19.004,6.69 18.986,6.473 19.203,5.928 20.25,5.901 c 0.34,-0.01 1.672,-0.064 2.033,0.039 0.09,0.068 0.586,0.5 0.586,0.5 1.951,1.797 3.283,4.254 3.645,7.018 0.02,0.416 0.068,0.855 0.053,0.988 -0.034,0.238 -0.514,0.978 -1.165,0.857 z"
   id="path17"
   inkscape:connector-curvature="0"
   style="opacity:0.15" /><path
   d="M 15,2 C 7.822,2 2,7.822 2,14.996 2,22.18 7.822,28 15,28 22.182,28 28,22.18 28,14.996 28,7.822 22.182,2 15,2 z m -2.848,17.549 c -0.252,0.506 -0.811,0.695 -0.76,1.621 0.08,1.486 -1.115,1.367 -1.391,2.381 C 9.733,24.524 9.419,25.162 9.419,25.162 8.636,24.732 7.909,24.213 7.251,23.621 7.429,22.672 7.11,20.334 6.724,20.072 5.613,19.314 5.652,19.533 5.556,16.566 5.503,14.92 8.292,15.388 8.894,16.043 c 0.576,0.627 0.48,1.539 2.156,2.24 0.475,0.197 1.356,0.76 1.102,1.266 z M 11.248,6.66 C 10.656,6.875 10.424,6.836 10.016,6.566 9.443,6.184 8.197,7.203 8.967,7.563 9.229,7.684 9.701,7.725 10.449,7.981 11.642,8.393 11.988,9.1 11.297,9.286 7.846,10.222 9.461,11.298 8.152,12.608 7.48,13.28 7.525,13.549 7.05,13.71 6.468,13.903 6.374,13.056 5.825,13.032 5.63,13.022 4.024,13.059 3.618,13.059 3.561,13.059 3.63,12.627 3.63,12.627 4.182,9.93 5.676,7.576 7.75,5.918 c 0,0 2.146,-1.627 3.949,-2.037 0.797,-0.18 2.383,-0.533 2.277,0.016 -0.115,0.593 -2.132,2.552 -2.728,2.763 z m 14.154,8.643 c -0.721,-0.131 -1.191,-2.002 -1.965,-1.416 -1.295,0.977 1.99,2.605 1.99,3.119 0,0.514 -0.695,1.268 -0.994,1.51 -0.451,0.363 -0.371,1.754 -0.371,1.754 0,0.98 -0.658,2.152 -0.996,2.602 -0.34,0.449 -1.809,2.125 -2.666,1.09 -0.639,-0.77 -0.1,-2.352 -0.287,-4.043 -0.066,-0.607 0.049,-2.334 -2.551,-2.648 -2.313,-0.277 -2.113,-1.961 -1.963,-2.814 0.209,-1.174 0.338,-1.871 1.33,-2.111 0.557,-0.137 2.227,-0.352 3.391,0.111 0.549,0.215 1.426,0.127 1.557,-0.598 0.145,-0.773 -0.369,-0.824 -1.617,-1.174 -1.121,-0.316 -2.182,0.631 -3.092,0.629 -0.408,0 -0.389,-0.344 -0.379,-0.826 0.004,-0.48 1.764,-1.719 1.949,-1.859 0.357,-0.273 1.4,-0.162 1.422,-0.162 1.15,0.035 0.898,-0.744 0.121,-0.781 C 18.918,7.62 19.019,6.905 19.004,6.69 18.986,6.473 19.203,5.928 20.25,5.901 c 0.34,-0.01 1.672,-0.064 2.033,0.039 0.09,0.068 0.586,0.5 0.586,0.5 1.951,1.797 3.283,4.254 3.645,7.018 0.02,0.416 0.068,0.855 0.053,0.988 -0.034,0.238 -0.514,0.978 -1.165,0.857 z"
   id="path19"
   inkscape:connector-curvature="0"
   style="fill:#000000;fill-opacity:1" />
</svg>