<?xml version="1.0" encoding="UTF-8" standalone="no"?>
<!-- Generator: Adobe Illustrator 15.0.0, SVG Export Plug-In . SVG Version: 6.00 Build 0)  -->

<svg
   xmlns:dc="http://purl.org/dc/elements/1.1/"
   xmlns:cc="http://creativecommons.org/ns#"
   xmlns:rdf="http://www.w3.org/1999/02/22-rdf-syntax-ns#"
   xmlns:svg="http://www.w3.org/2000/svg"
   xmlns="http://www.w3.org/2000/svg"
   xmlns:sodipodi="http://sodipodi.sourceforge.net/DTD/sodipodi-0.dtd"
   xmlns:inkscape="http://www.inkscape.org/namespaces/inkscape"
   version="1.1"
   x="0px"
   y="0px"
   width="30px"
   height="30px"
   viewBox="0 0 30 30"
   enable-background="new 0 0 30 30"
   xml:space="preserve"
   id="svg2"
   inkscape:version="0.48.2 r9819"
   sodipodi:docname="mail_inverted.svg"><metadata
   id="metadata23"><rdf:RDF><cc:Work
       rdf:about=""><dc:format>image/svg+xml</dc:format><dc:type
         rdf:resource="http://purl.org/dc/dcmitype/StillImage" /></cc:Work></rdf:RDF></metadata><defs
   id="defs21">
	

		
		
		
		
		
	</defs><sodipodi:namedview
   pagecolor="#ffffff"
   bordercolor="#666666"
   borderopacity="1"
   objecttolerance="10"
   gridtolerance="10"
   guidetolerance="10"
   inkscape:pageopacity="0"
   inkscape:pageshadow="2"
   inkscape:window-width="1920"
   inkscape:window-height="955"
   id="namedview19"
   showgrid="false"
   inkscape:zoom="7.8666667"
   inkscape:cx="-4.6398305"
   inkscape:cy="15"
   inkscape:window-x="-4"
   inkscape:window-y="-4"
   inkscape:window-maximized="1"
   inkscape:current-layer="svg2" />
<g
   id="DO_NOT_EDIT_-_BOUNDING_BOX">
	<rect
   id="BOUNDING_BOX"
   fill="none"
   width="30"
   height="30" />
</g>
<path
   d="m 15.343,0.086 c -8.381,0 -13.689,4.234 -13.689,13.869 0,10.766 4.861,13.957 13.689,13.957 1.432,0 4.385,-0.297 4.385,-0.297 l -0.119,-3.164 c 0,0 -3.072,0.27 -4.266,0.27 -7.486,0 -10.408,-2.863 -10.408,-10.766 0,-7.277 3.49,-10.709 10.408,-10.709 6.83,0 9.693,2.627 9.693,9.367 v 0.537 c 0,5.041 -0.744,5.756 -2.236,5.756 -1.402,0 -1.791,-0.447 -1.791,-6.115 V 6.826 h -3.25 v 0.418 c 0,0 -1.998,-0.686 -3.074,-0.686 -4.65,0 -5.813,3.041 -5.813,7.963 0,5.906 2.234,7.486 5.428,7.486 1.67,0 3.668,-0.834 4.801,-1.4 0.775,1.104 1.939,1.43 3.699,1.43 3.52,0 5.547,-1.818 5.547,-8.887 V 12.642 C 28.347,4.41 24.202,0.086 15.343,0.086 z m -0.805,18.73 c -1.373,0 -2.387,-0.805 -2.387,-4.268 0,-3.637 0.537,-4.92 3.223,-4.92 0.863,0 2.385,0.447 2.385,0.447 v 4.057 c 0,1.611 0.061,2.895 0.24,3.908 -0.896,0.327 -2.268,0.776 -3.461,0.776 z"
   id="path9"
   inkscape:connector-curvature="0"
   style="opacity:0.3" /><rect
   width="30"
   height="30"
   id="rect11"
   x="0"
   y="0"
   style="opacity:0.31000001;fill:none" /><path
   d="M 15.343,29.912 C 5.047,29.912 0.654,25.439 0.654,14.955 0.654,5.367 5.871,0.086 15.343,0.086 c 9.292,0 14.004,4.561 14.004,13.557 v 0.508 c 0,6.93 -1.958,9.887 -6.547,9.887 -1.348,0 -2.832,-0.158 -3.952,-1.203 -1.199,0.539 -2.952,1.174 -4.548,1.174 -4.325,0 -6.428,-2.776 -6.428,-8.486 0,-4.173 0.774,-8.963 6.813,-8.963 0.736,0 1.756,0.247 2.489,0.457 0.164,-0.119 0.366,-0.189 0.585,-0.189 h 3.25 c 0.553,0 1,0.448 1,1 v 5.965 c 0,1.15 0,4.648 0.425,5.097 -0.001,-0.001 0,-0.001 0.002,-0.001 0.017,0 0.108,0.02 0.364,0.02 0.579,0 1.236,0 1.236,-4.756 v -0.537 c 0,-6.1 -2.356,-8.367 -8.693,-8.367 -6.418,0 -9.408,3.085 -9.408,9.709 0,7.302 2.374,9.766 9.408,9.766 1.137,0 4.147,-0.263 4.179,-0.266 0.028,-0.003 0.058,-0.004 0.087,-0.004 0.242,0 0.479,0.088 0.661,0.25 0.206,0.182 0.328,0.438 0.338,0.712 l 0.119,3.164 c 0.021,0.528 -0.374,0.98 -0.899,1.033 -0.123,0.009 -3.02,0.299 -4.485,0.299 z m 0.031,-18.283 c -1.651,0 -2.223,0.19 -2.223,3.92 0,3.268 0.902,3.268 1.387,3.268 0.771,0 1.688,-0.24 2.356,-0.453 -0.093,-0.851 -0.136,-1.887 -0.136,-3.23 v -3.285 c -0.494,-0.117 -1.048,-0.22 -1.384,-0.22 z"
   id="path13"
   inkscape:connector-curvature="0"
   style="opacity:0.15" /><path
   d="m 15.343,1.086 c -8.381,0 -13.689,4.234 -13.689,13.869 0,10.766 4.861,13.957 13.689,13.957 1.432,0 4.385,-0.297 4.385,-0.297 l -0.119,-3.164 c 0,0 -3.072,0.27 -4.266,0.27 -7.486,0 -10.408,-2.863 -10.408,-10.766 0,-7.277 3.49,-10.709 10.408,-10.709 6.83,0 9.693,2.627 9.693,9.367 v 0.537 c 0,5.041 -0.744,5.756 -2.236,5.756 -1.402,0 -1.791,-0.447 -1.791,-6.115 V 7.826 h -3.25 v 0.418 c 0,0 -1.998,-0.686 -3.074,-0.686 -4.65,0 -5.813,3.041 -5.813,7.963 0,5.906 2.234,7.486 5.428,7.486 1.67,0 3.668,-0.834 4.801,-1.4 0.775,1.104 1.939,1.43 3.699,1.43 3.52,0 5.547,-1.818 5.547,-8.887 V 13.642 C 28.347,5.41 24.202,1.086 15.343,1.086 z m -0.805,18.73 c -1.373,0 -2.387,-0.805 -2.387,-4.268 0,-3.637 0.537,-4.92 3.223,-4.92 0.863,0 2.385,0.447 2.385,0.447 v 4.057 c 0,1.611 0.061,2.895 0.24,3.908 -0.896,0.327 -2.268,0.776 -3.461,0.776 z"
   id="path15"
   inkscape:connector-curvature="0"
   style="opacity:0.15" /><path
   d="m 15.343,1.086 c -8.381,0 -13.689,4.234 -13.689,13.869 0,10.766 4.861,13.957 13.689,13.957 1.432,0 4.385,-0.297 4.385,-0.297 l -0.119,-3.164 c 0,0 -3.072,0.27 -4.266,0.27 -7.486,0 -10.408,-2.863 -10.408,-10.766 0,-7.277 3.49,-10.709 10.408,-10.709 6.83,0 9.693,2.627 9.693,9.367 v 0.537 c 0,5.041 -0.744,5.756 -2.236,5.756 -1.402,0 -1.791,-0.447 -1.791,-6.115 V 7.826 h -3.25 v 0.418 c 0,0 -1.998,-0.686 -3.074,-0.686 -4.65,0 -5.813,3.041 -5.813,7.963 0,5.906 2.234,7.486 5.428,7.486 1.67,0 3.668,-0.834 4.801,-1.4 0.775,1.104 1.939,1.43 3.699,1.43 3.52,0 5.547,-1.818 5.547,-8.887 V 13.642 C 28.347,5.41 24.202,1.086 15.343,1.086 z m -0.805,18.73 c -1.373,0 -2.387,-0.805 -2.387,-4.268 0,-3.637 0.537,-4.92 3.223,-4.92 0.863,0 2.385,0.447 2.385,0.447 v 4.057 c 0,1.611 0.061,2.895 0.24,3.908 -0.896,0.327 -2.268,0.776 -3.461,0.776 z"
   id="path17"
   inkscape:connector-curvature="0"
   style="fill:#000000;fill-opacity:1" />
</svg>