<?xml version="1.0" encoding="UTF-8" standalone="no"?>
<!-- Generator: Adobe Illustrator 15.0.0, SVG Export Plug-In . SVG Version: 6.00 Build 0)  -->

<svg
   xmlns:dc="http://purl.org/dc/elements/1.1/"
   xmlns:cc="http://creativecommons.org/ns#"
   xmlns:rdf="http://www.w3.org/1999/02/22-rdf-syntax-ns#"
   xmlns:svg="http://www.w3.org/2000/svg"
   xmlns="http://www.w3.org/2000/svg"
   xmlns:sodipodi="http://sodipodi.sourceforge.net/DTD/sodipodi-0.dtd"
   xmlns:inkscape="http://www.inkscape.org/namespaces/inkscape"
   version="1.1"
   x="0px"
   y="0px"
   width="30px"
   height="30px"
   viewBox="0 0 30 30"
   enable-background="new 0 0 30 30"
   xml:space="preserve"
   id="svg2"
   inkscape:version="0.48.2 r9819"
   sodipodi:docname="messaging_inverted.svg"><metadata
   id="metadata25"><rdf:RDF><cc:Work
       rdf:about=""><dc:format>image/svg+xml</dc:format><dc:type
         rdf:resource="http://purl.org/dc/dcmitype/StillImage" /><dc:title></dc:title></cc:Work></rdf:RDF></metadata><defs
   id="defs23">
	

		
		
		
		
		
		
	</defs><sodipodi:namedview
   pagecolor="#ffffff"
   bordercolor="#666666"
   borderopacity="1"
   objecttolerance="10"
   gridtolerance="10"
   guidetolerance="10"
   inkscape:pageopacity="0"
   inkscape:pageshadow="2"
   inkscape:window-width="1920"
   inkscape:window-height="955"
   id="namedview21"
   showgrid="false"
   inkscape:zoom="25.933333"
   inkscape:cx="9.0424165"
   inkscape:cy="15"
   inkscape:window-x="-4"
   inkscape:window-y="-4"
   inkscape:window-maximized="1"
   inkscape:current-layer="svg2" />
<g
   id="DO_NOT_EDIT_-_BOUNDING_BOX">
	<rect
   id="BOUNDING_BOX"
   fill="none"
   width="30"
   height="30" />
</g>
<path
   d="M 28,6 H 2 L 15,16.001 28,6 z M 2,7.893 v 15.108 c 0,0.55 0.45,1 1,1 h 24 c 0.551,0 1,-0.45 1,-1 V 7.893 L 15,17.894 2,7.893 z"
   id="path9"
   inkscape:connector-curvature="0"
   style="opacity:0.3" /><rect
   width="30"
   height="30"
   id="rect11"
   x="0"
   y="0"
   style="fill:none" /><rect
   width="30"
   height="30"
   id="rect13"
   x="0"
   y="0"
   style="fill:none" /><path
   d="m 3,26.001 c -1.103,0 -2,-0.897 -2,-2 V 8.893 C 1,8.512 0.916,7.084 1.053,6.678 1.191,6.272 1.572,6 2,6 h 26 c 0.428,0 0.809,0.272 0.946,0.678 C 29.085,7.083 29,8.512 29,8.893 v 15.108 c 0,1.103 -0.897,2 -2,2 H 3 z"
   id="path15"
   inkscape:connector-curvature="0"
   style="opacity:0.15" /><path
   d="M 28,7 H 2 L 15,17.001 28,7 z M 2,8.893 v 15.108 c 0,0.55 0.45,1 1,1 h 24 c 0.551,0 1,-0.45 1,-1 V 8.893 L 15,18.894 2,8.893 z"
   id="path17"
   inkscape:connector-curvature="0"
   style="opacity:0.15" /><path
   d="M 28,7 H 2 L 15,17.001 28,7 z M 2,8.893 v 15.108 c 0,0.55 0.45,1 1,1 h 24 c 0.551,0 1,-0.45 1,-1 V 8.893 L 15,18.894 2,8.893 z"
   id="path19"
   inkscape:connector-curvature="0"
   style="fill:#000000;fill-opacity:1" />
</svg>