<?xml version="1.0" encoding="UTF-8" standalone="no"?>
<!-- Converted with SVG Converter - Version 0.9.5 (Compiled Mon May 30 09:08:51 2011) - Copyright (C) 2011 Nokia -->

<svg
   xmlns:dc="http://purl.org/dc/elements/1.1/"
   xmlns:cc="http://creativecommons.org/ns#"
   xmlns:rdf="http://www.w3.org/1999/02/22-rdf-syntax-ns#"
   xmlns:svg="http://www.w3.org/2000/svg"
   xmlns="http://www.w3.org/2000/svg"
   xmlns:xlink="http://www.w3.org/1999/xlink"
   xmlns:sodipodi="http://sodipodi.sourceforge.net/DTD/sodipodi-0.dtd"
   xmlns:inkscape="http://www.inkscape.org/namespaces/inkscape"
   width="67px"
   x="0px"
   version="1.1"
   y="0px"
   height="57px"
   viewBox="0 0 67 57"
   xml:space="preserve"
   id="svg2"
   inkscape:version="0.48.2 r9819"
   sodipodi:docname="music_player_update.svg"><metadata
   id="metadata29"><rdf:RDF><cc:Work
       rdf:about=""><dc:format>image/svg+xml</dc:format><dc:type
         rdf:resource="http://purl.org/dc/dcmitype/StillImage" /></cc:Work></rdf:RDF></metadata><defs
   id="defs27">
  
  
  
  <linearGradient
   x2="33.5005"
   gradientUnits="userSpaceOnUse"
   y2="6.4194"
   x1="33.5005"
   y1="50.5811"
   id="SVGID_1_">
   <stop
   id="stop14"
   style="stop-color:#D0CBC5"
   offset="0" />
   <stop
   id="stop16"
   style="stop-color:#FAFCEF"
   offset="0.5031" />
   <stop
   id="stop18"
   style="stop-color:#FFFFFF"
   offset="0.9693" />
  </linearGradient>
  
  
 <linearGradient
   inkscape:collect="always"
   xlink:href="#SVGID_1_"
   id="linearGradient3012"
   gradientUnits="userSpaceOnUse"
   x1="33.5005"
   y1="50.5811"
   x2="33.5005"
   y2="6.4194" /></defs><sodipodi:namedview
   pagecolor="#ffffff"
   bordercolor="#666666"
   borderopacity="1"
   objecttolerance="10"
   gridtolerance="10"
   guidetolerance="10"
   inkscape:pageopacity="0"
   inkscape:pageshadow="2"
   inkscape:window-width="1890"
   inkscape:window-height="985"
   id="namedview25"
   showgrid="false"
   inkscape:zoom="14.175439"
   inkscape:cx="33.5"
   inkscape:cy="28.5"
   inkscape:window-x="26"
   inkscape:window-y="-4"
   inkscape:window-maximized="1"
   inkscape:current-layer="svg2" />
 <path
   sodipodi:type="inkscape:offset"
   inkscape:radius="-0.23051521"
   inkscape:original="M 30.75 5.40625 C 19.038 5.40625 9.5 14.94425 9.5 26.65625 C 9.5 38.36825 19.038 47.90625 30.75 47.90625 C 33.519 47.90625 36.21825 47.3595 38.78125 46.3125 C 38.87525 46.2745 38.95525 46.21925 39.03125 46.15625 C 38.96825 46.42325 38.9375 46.717 38.9375 47 C 38.9375 49.571 41.6245 51.59375 45.0625 51.59375 C 48.4955 51.59375 51.1885 49.572 51.1875 47 L 51.1875 35.75 C 52.8915 36.049 54.60475 36.426 56.21875 36.875 C 56.30775 36.9 56.41 36.9375 56.5 36.9375 C 56.715 36.9375 56.91775 36.85275 57.09375 36.71875 C 57.34375 36.52975 57.5 36.2505 57.5 35.9375 L 57.5 29.9375 C 57.5 29.4815 57.191 29.08375 56.75 28.96875 C 54.907 28.49175 53.10075 28.12775 51.34375 27.84375 C 51.43975 27.80075 51.51275 27.7535 51.59375 27.6875 C 51.81375 27.5075 51.95575 27.19025 51.96875 26.90625 C 51.97275 26.82025 51.96875 26.74225 51.96875 26.65625 C 51.96875 14.94425 42.461 5.40625 30.75 5.40625 z "
   style="fill:none;stroke:#000000;stroke-width:3;stroke-miterlimit:4;stroke-opacity:1;stroke-dasharray:none"
   id="path3802"
   d="m 30.75,5.625 c -11.586849,0 -21.03125,9.444401 -21.03125,21.03125 0,11.586849 9.444401,21.03125 21.03125,21.03125 2.738656,0 5.400944,-0.557552 7.9375,-1.59375 0.06415,-0.02593 0.12171,-0.07046 0.1875,-0.125 a 0.23053826,0.23053826 0 0 1 0.0625,-0.03125 0.23053826,0.23053826 0 0 1 0.0625,0 0.23053826,0.23053826 0 0 1 0.09375,0 0.23053826,0.23053826 0 0 1 0.0625,0.03125 0.23053826,0.23053826 0 0 1 0.09375,0.09375 0.23053826,0.23053826 0 0 1 0,0.09375 0.23053826,0.23053826 0 0 1 0,0.0625 c -0.05817,0.246537 -0.09375,0.514948 -0.09375,0.78125 0,1.205195 0.63195,2.269939 1.6875,3.0625 1.05555,0.792561 2.544958,1.3125 4.21875,1.3125 1.671249,0 3.162423,-0.520015 4.21875,-1.3125 1.056327,-0.792485 1.687969,-1.856977 1.6875,-3.0625 l 0,-11.25 a 0.23053826,0.23053826 0 0 1 0,-0.03125 A 0.23053826,0.23053826 0 0 1 51,35.625 a 0.23053826,0.23053826 0 0 1 0.09375,-0.09375 0.23053826,0.23053826 0 0 1 0.0625,0 0.23053826,0.23053826 0 0 1 0.0625,0 c 1.710582,0.300155 3.440019,0.673641 5.0625,1.125 0.102525,0.0288 0.192782,0.0625 0.21875,0.0625 0.154423,0 0.323367,-0.07681 0.46875,-0.1875 0.199726,-0.150993 0.3125,-0.357466 0.3125,-0.59375 l 0,-6 c 0,-0.351864 -0.25289,-0.661114 -0.59375,-0.75 -1.83517,-0.474974 -3.624062,-0.84198 -5.375,-1.125 a 0.23053826,0.23053826 0 0 1 -0.0625,0 0.23053826,0.23053826 0 0 1 -0.09375,-0.09375 0.23053826,0.23053826 0 0 1 -0.03125,-0.0625 0.23053826,0.23053826 0 0 1 0,-0.09375 0.23053826,0.23053826 0 0 1 0,-0.0625 0.23053826,0.23053826 0 0 1 0.125,-0.125 c 0.07829,-0.03507 0.117312,-0.06781 0.1875,-0.125 0.154885,-0.126724 0.302648,-0.378514 0.3125,-0.59375 0.0034,-0.07241 0,-0.156852 0,-0.25 C 51.75,15.069004 42.335838,5.625 30.75,5.625 z" /><g
   id="DO_NOT_EDIT_-_BOUNDING_BOX">
  <rect
   width="67"
   fill="none"
   height="57"
   id="BOUNDING_BOX" />
 </g>
 <path
   style="fill-opacity:1;stroke-opacity:0.14999999999999999;opacity:1;fill:#000000"
   inkscape:connector-curvature="0"
   id="path9"
   d="m 45.07,51.581 c -3.438,0 -6.131,-2.014 -6.131,-4.585 0,-0.283 0.032,-0.559 0.095,-0.826 -0.076,0.063 -0.163,0.115 -0.257,0.153 C 36.214,47.37 33.51,47.9 30.741,47.9 19.029,47.9 9.5,38.372 9.5,26.66 9.5,14.948 19.029,5.419 30.741,5.419 c 11.711,0 21.239,9.529 21.239,21.241 0,0.086 -0.004,0.171 -0.008,0.257 -0.013,0.284 -0.148,0.584 -0.368,0.764 -0.081,0.066 -0.172,0.124 -0.268,0.167 1.757,0.284 3.571,0.629 5.414,1.106 0.441,0.115 0.749,0.512 0.749,0.968 v 6.004 c 0,0.313 -0.146,0.607 -0.396,0.796 -0.176,0.134 -0.389,0.204 -0.604,0.204 -0.09,0 -0.18,-0.012 -0.269,-0.037 -1.614,-0.449 -3.336,-0.837 -5.04,-1.136 v 11.242 c 0.001,2.572 -2.687,4.586 -6.12,4.586 z m -13.573,-8.87 c 4.015,-0.186 7.758,-1.831 10.61,-4.683 1.199,-1.2 2.202,-2.6 2.982,-4.161 0.172,-0.344 0.522,-0.553 0.895,-0.553 0.076,0 0.153,0.009 0.229,0.026 0.26,0.062 0.476,0.221 0.612,0.434 v -4.176 c 0,-0.636 0.21,-1.12 0.529,-1.461 -0.041,0.005 -0.084,0.008 -0.126,0.008 h -1.67 c -0.339,3.436 -1.836,6.623 -4.274,9.06 -2.631,2.629 -6.082,4.152 -9.788,4.335 v 1.171 z M 45.07,42.412 c 0.593,0 1.185,0.067 1.756,0.197 v -2.104 c -0.026,0.041 -0.056,0.081 -0.089,0.118 -0.561,0.642 -1.107,1.202 -1.672,1.715 -0.029,0.026 -0.061,0.052 -0.093,0.075 0.034,-10e-4 0.066,-10e-4 0.098,-10e-4 z M 31.497,36.375 c 2.325,-0.176 4.481,-1.162 6.137,-2.82 1.471,-1.468 2.421,-3.359 2.733,-5.409 H 39.19 c -0.302,1.734 -1.126,3.338 -2.374,4.59 -1.444,1.438 -3.31,2.301 -5.319,2.472 v 1.167 z M 30.741,22.283 c -2.414,0 -4.378,1.963 -4.378,4.377 0,2.413 1.964,4.376 4.378,4.376 2.412,0 4.374,-1.963 4.374,-4.376 0,-2.413 -1.962,-4.377 -4.374,-4.377 z m -8.453,2.891 c 0.302,-1.738 1.129,-3.341 2.379,-4.589 1.435,-1.437 3.3,-2.3 5.315,-2.473 v -1.167 c -2.324,0.175 -4.482,1.161 -6.142,2.819 -1.469,1.468 -2.417,3.36 -2.729,5.41 h 1.177 z m -6.37,0 c 0.339,-3.439 1.835,-6.626 4.271,-9.061 2.63,-2.629 6.083,-4.153 9.792,-4.335 v -1.167 c -4.015,0.183 -7.76,1.828 -10.613,4.681 -2.663,2.665 -4.283,6.142 -4.624,9.882 h 1.174 z M 30.741,29.5 c -1.567,0 -2.842,-1.274 -2.842,-2.84 0,-1.566 1.275,-2.841 2.842,-2.841 1.565,0 2.838,1.274 2.838,2.841 0,1.566 -1.273,2.84 -2.838,2.84 z" /><path
   style="fill-opacity:0.15;stroke-opacity:0.15"
   inkscape:connector-curvature="0"
   id="path11"
   d="m 32.579,26.66 c 0,-1.015 -0.824,-1.841 -1.838,-1.841 -1.018,0 -1.842,0.826 -1.842,1.841 0,1.014 0.824,1.84 1.842,1.84 1.014,0 1.838,-0.826 1.838,-1.84 z m 16.406,1.843 c 0,0 -1.159,-0.118 -1.159,1.096 v 14.393 c -0.802,-0.36 -1.742,-0.579 -2.756,-0.579 -2.837,0 -5.131,1.604 -5.131,3.584 0,1.98 2.294,3.585 5.131,3.585 2.83,0 5.121,-1.604 5.121,-3.585 v -12.42 c 2.358,0.359 4.518,0.852 6.309,1.351 v -6.004 c -2.725,-0.707 -5.433,-1.122 -7.515,-1.421 z m -3.001,11.462 v -5.65 c -0.795,1.591 -1.842,3.092 -3.17,4.421 -3.397,3.396 -7.867,5.053 -12.317,4.991 v -3.17 c 3.642,0.063 7.306,-1.285 10.081,-4.059 2.59,-2.588 3.928,-5.952 4.046,-9.353 h 2.605 c 0.462,-0.31 1.037,-0.485 1.672,-0.485 0.064,0 0.209,0.008 0.27,0.013 0.597,0.085 1.197,0.175 1.8,0.27 0.004,-0.095 0.01,-0.188 0.01,-0.282 C 50.981,15.483 41.919,6.42 30.742,6.42 19.56,6.419 10.5,15.482 10.5,26.66 c 0,11.177 9.06,20.24 20.241,20.24 2.71,0 5.293,-0.537 7.658,-1.503 0.796,-2.08 3.115,-3.593 5.994,-3.8 0.565,-0.512 1.091,-1.06 1.591,-1.632 z M 41.47,27.146 c -0.118,2.585 -1.151,5.143 -3.128,7.116 -2.159,2.162 -5.016,3.202 -7.845,3.14 v -3.167 c 2.021,0.067 4.068,-0.668 5.611,-2.205 1.354,-1.358 2.082,-3.104 2.194,-4.884 H 41.47 z M 13.684,26.174 c 0.118,-4.209 1.771,-8.38 4.978,-11.59 3.398,-3.396 7.87,-5.053 12.32,-4.988 v 3.165 c -3.642,-0.063 -7.31,1.284 -10.085,4.06 -2.59,2.588 -3.924,5.953 -4.043,9.354 h -3.17 z m 6.325,0 c 0.117,-2.588 1.15,-5.144 3.124,-7.117 2.163,-2.161 5.016,-3.201 7.849,-3.137 v 3.164 c -2.021,-0.064 -4.068,0.666 -5.608,2.209 -1.357,1.354 -2.085,3.102 -2.198,4.881 h -3.167 z m 5.354,0.486 c 0,-2.964 2.409,-5.377 5.378,-5.377 2.961,0 5.374,2.413 5.374,5.377 0,2.965 -2.413,5.376 -5.374,5.376 -2.969,0 -5.378,-2.411 -5.378,-5.376 z" /><path
   style="fill-opacity:1;stroke-opacity:0.29999999999999999;fill:#000000"
   inkscape:connector-curvature="0"
   id="path7"
   d="m 32.579,27.66 c 0,-1.015 -0.824,-1.841 -1.838,-1.841 -1.018,0 -1.842,0.826 -1.842,1.841 0,1.014 0.824,1.84 1.842,1.84 1.014,0 1.838,-0.826 1.838,-1.84 z m 16.406,1.843 c 0,0 -1.159,-0.118 -1.159,1.096 v 14.393 c -0.802,-0.36 -1.742,-0.579 -2.756,-0.579 -2.837,0 -5.131,1.604 -5.131,3.584 0,1.98 2.294,3.585 5.131,3.585 2.83,0 5.121,-1.604 5.121,-3.585 v -12.42 c 2.358,0.359 4.518,0.852 6.309,1.351 v -6.004 c -2.725,-0.707 -5.433,-1.122 -7.515,-1.421 z m -3.001,11.462 v -5.65 c -0.795,1.591 -1.842,3.092 -3.17,4.421 -3.397,3.396 -7.867,5.053 -12.317,4.991 v -3.17 c 3.642,0.063 7.306,-1.285 10.081,-4.059 2.59,-2.588 3.928,-5.952 4.046,-9.353 h 2.605 c 0.462,-0.31 1.037,-0.485 1.672,-0.485 0.064,0 0.209,0.008 0.27,0.013 0.597,0.085 1.197,0.175 1.8,0.27 0.004,-0.095 0.01,-0.188 0.01,-0.282 C 50.981,16.483 41.919,7.42 30.742,7.42 19.56,7.419 10.5,16.482 10.5,27.66 c 0,11.177 9.06,20.24 20.241,20.24 2.71,0 5.293,-0.537 7.658,-1.503 0.796,-2.08 3.115,-3.593 5.994,-3.8 0.565,-0.512 1.091,-1.06 1.591,-1.632 z M 41.47,28.146 c -0.118,2.585 -1.151,5.143 -3.128,7.116 -2.159,2.162 -5.016,3.202 -7.845,3.14 v -3.167 c 2.021,0.067 4.068,-0.668 5.611,-2.205 1.354,-1.358 2.082,-3.104 2.194,-4.884 H 41.47 z M 13.684,27.174 c 0.118,-4.209 1.771,-8.38 4.978,-11.59 3.398,-3.396 7.87,-5.053 12.32,-4.988 v 3.165 c -3.642,-0.063 -7.31,1.284 -10.085,4.06 -2.59,2.588 -3.924,5.953 -4.043,9.354 h -3.17 z m 6.325,0 c 0.117,-2.588 1.15,-5.144 3.124,-7.117 2.163,-2.161 5.016,-3.201 7.849,-3.137 v 3.164 c -2.021,-0.064 -4.068,0.666 -5.608,2.209 -1.357,1.354 -2.085,3.102 -2.198,4.881 h -3.167 z m 5.354,0.486 c 0,-2.964 2.409,-5.377 5.378,-5.377 2.961,0 5.374,2.413 5.374,5.377 0,2.965 -2.413,5.376 -5.374,5.376 -2.969,0 -5.378,-2.411 -5.378,-5.376 z" /><path
   inkscape:connector-curvature="0"
   style="fill:url(#linearGradient3012)"
   id="path20"
   d="m 32.579,26.66 c 0,-1.015 -0.824,-1.841 -1.838,-1.841 -1.018,0 -1.842,0.826 -1.842,1.841 0,1.014 0.824,1.84 1.842,1.84 1.014,0 1.838,-0.826 1.838,-1.84 z m 16.406,1.843 c 0,0 -1.159,-0.118 -1.159,1.096 v 14.393 c -0.802,-0.36 -1.742,-0.579 -2.756,-0.579 -2.837,0 -5.131,1.604 -5.131,3.584 0,1.98 2.294,3.585 5.131,3.585 2.83,0 5.121,-1.604 5.121,-3.585 v -12.42 c 2.358,0.359 4.518,0.852 6.309,1.351 v -6.004 c -2.725,-0.707 -5.433,-1.122 -7.515,-1.421 z m -3.001,11.462 v -5.65 c -0.795,1.591 -1.842,3.092 -3.17,4.421 -3.397,3.396 -7.867,5.053 -12.317,4.991 v -3.17 c 3.642,0.063 7.306,-1.285 10.081,-4.059 2.59,-2.588 3.928,-5.952 4.046,-9.353 h 2.605 c 0.462,-0.31 1.037,-0.485 1.672,-0.485 0.064,0 0.209,0.008 0.27,0.013 0.597,0.085 1.197,0.175 1.8,0.27 0.004,-0.095 0.01,-0.188 0.01,-0.282 C 50.981,15.483 41.919,6.42 30.742,6.42 19.56,6.419 10.5,15.482 10.5,26.66 c 0,11.177 9.06,20.24 20.241,20.24 2.71,0 5.293,-0.537 7.658,-1.503 0.796,-2.08 3.115,-3.593 5.994,-3.8 0.565,-0.512 1.091,-1.06 1.591,-1.632 z M 41.47,27.146 c -0.118,2.585 -1.151,5.143 -3.128,7.116 -2.159,2.162 -5.016,3.202 -7.845,3.14 v -3.167 c 2.021,0.067 4.068,-0.668 5.611,-2.205 1.354,-1.358 2.082,-3.104 2.194,-4.884 H 41.47 z M 13.684,26.174 c 0.118,-4.209 1.771,-8.38 4.978,-11.59 3.398,-3.396 7.87,-5.053 12.32,-4.988 v 3.165 c -3.642,-0.063 -7.31,1.284 -10.085,4.06 -2.59,2.588 -3.924,5.953 -4.043,9.354 h -3.17 z m 6.325,0 c 0.117,-2.588 1.15,-5.144 3.124,-7.117 2.163,-2.161 5.016,-3.201 7.849,-3.137 v 3.164 c -2.021,-0.064 -4.068,0.666 -5.608,2.209 -1.357,1.354 -2.085,3.102 -2.198,4.881 h -3.167 z m 5.354,0.486 c 0,-2.964 2.409,-5.377 5.378,-5.377 2.961,0 5.374,2.413 5.374,5.377 0,2.965 -2.413,5.376 -5.374,5.376 -2.969,0 -5.378,-2.411 -5.378,-5.376 z" /><path
   style="fill:#ffffff"
   inkscape:connector-curvature="0"
   id="path22"
   d="m 32.579,26.66 c 0,0.174 -0.032,0.34 -0.078,0.5 -0.219,-0.771 -0.921,-1.341 -1.76,-1.341 -0.843,0 -1.545,0.57 -1.764,1.341 -0.045,-0.16 -0.078,-0.326 -0.078,-0.5 0,-1.015 0.824,-1.841 1.842,-1.841 1.014,0 1.838,0.827 1.838,1.841 z m 10.235,12.075 c -3.397,3.396 -7.867,5.053 -12.317,4.991 v 1 c 4.45,0.062 8.92,-1.596 12.317,-4.991 1.328,-1.329 2.375,-2.83 3.17,-4.421 v -1 c -0.795,1.591 -1.841,3.092 -3.17,4.421 z M 23.175,27.174 c 0.113,-1.779 0.841,-3.526 2.198,-4.881 1.54,-1.543 3.587,-2.273 5.608,-2.209 v -1 c -2.021,-0.064 -4.068,0.666 -5.608,2.209 -1.357,1.354 -2.085,3.102 -2.198,4.881 h -3.073 c -0.046,0.332 -0.078,0.666 -0.093,1 h 3.166 z m 16.764,19.822 c 0,0.171 0.039,0.335 0.072,0.5 0.351,-1.741 2.467,-3.084 5.059,-3.084 1.014,0 1.954,0.219 2.756,0.579 v -1 c -0.802,-0.36 -1.742,-0.579 -2.756,-0.579 -2.837,0 -5.131,1.604 -5.131,3.584 z M 30.741,7.419 c 10.935,0 19.819,8.679 20.203,19.52 0.009,0.001 0.018,0.002 0.026,0.004 0.004,-0.095 0.01,-0.188 0.01,-0.282 C 50.98,15.483 41.918,6.42 30.741,6.42 19.56,6.419 10.5,15.482 10.5,26.66 c 0,0.169 0.021,0.332 0.025,0.5 C 10.793,16.216 19.729,7.419 30.741,7.419 z m 18.244,21.084 c 0,0 -1.159,-0.118 -1.159,1.096 v 1 c 0,-1.214 1.159,-1.096 1.159,-1.096 2.082,0.299 4.79,0.714 7.515,1.42 v -1 c -2.725,-0.706 -5.433,-1.121 -7.515,-1.42 z M 16.854,27.174 c 0.119,-3.4 1.453,-6.766 4.043,-9.354 2.775,-2.775 6.443,-4.122 10.085,-4.06 v -1 c -3.642,-0.063 -7.31,1.284 -10.085,4.06 -2.59,2.588 -3.924,5.953 -4.043,9.354 h -3.096 c -0.029,0.333 -0.064,0.666 -0.074,1 h 3.17 z m 13.643,10.227 v 1 c 2.829,0.063 5.686,-0.978 7.845,-3.14 1.977,-1.974 3.01,-4.531 3.128,-7.116 h -0.093 c -0.31,2.236 -1.314,4.397 -3.035,6.116 -2.159,2.163 -5.016,3.203 -7.845,3.14 z m 0.244,-4.365 c 2.961,0 5.374,-2.411 5.374,-5.376 0,-0.171 -0.035,-0.333 -0.051,-0.5 -0.257,2.728 -2.533,4.876 -5.323,4.876 -2.797,0 -5.071,-2.148 -5.327,-4.876 -0.016,0.167 -0.051,0.329 -0.051,0.5 0,2.965 2.409,5.376 5.378,5.376 z" />
 <g
   id="DO_NOT_EDIT_-_FOCAL_ZONE_GUIDES" />
</svg>