<?xml version="1.0"?>
<!-- Converted with SVG Converter - Version 0.9.5 (Compiled Mon May 30 09:08:51 2011) - Copyright (C) 2011 Nokia -->
<svg xmlns="http://www.w3.org/2000/svg" width="30px" x="0px" version="1.1" y="0px" height="30px" viewBox="0 0 30 30" xmlns:xlink="http://www.w3.org/1999/xlink" baseProfile="tiny" xml:space="preserve">
 <g id="DO_NOT_EDIT_-_BOUNDING_BOX">
  <rect width="30" fill="none" height="30" id="BOUNDING_BOX"/>
 </g>
 <g id="PLACE_YOUR_GRAPHIC_HERE">
  <path stroke-opacity="0.3" fill-opacity="0.3" d="M26.293,13.293l-9.586-9.586c-0.389-0.389-1.025-0.389-1.414,0l-1.586,1.586&#xd;&#xa;&#x9;&#x9;c-0.389,0.389-0.389,1.025,0,1.414L19,12H4c-0.55,0-1,0.451-1,1v2c0,0.551,0.45,1,1,1h15l-5.293,5.293&#xd;&#xa;&#x9;&#x9;c-0.389,0.389-0.389,1.025,0,1.414l1.586,1.586c0.389,0.389,1.025,0.389,1.414,0l9.586-9.586&#xd;&#xa;&#x9;&#x9;C26.682,14.318,26.682,13.682,26.293,13.293z"/>
  <path stroke-opacity="0.15" fill-opacity="0.15" d="M16,26.584c-0.535,0-1.037-0.207-1.414-0.584L13,24.414c-0.78-0.779-0.78-2.049,0-2.828L16.586,18H4&#xd;&#xa;&#x9;&#x9;c-1.103,0-2-0.897-2-2v-2c0-1.103,0.897-2,2-2h12.586L13,8.414c-0.78-0.78-0.78-2.048,0-2.828L14.586,4&#xd;&#xa;&#x9;&#x9;C14.963,3.623,15.465,3.416,16,3.416S17.037,3.623,17.414,4L27,13.586c0.78,0.78,0.78,2.048,0,2.828L17.414,26&#xd;&#xa;&#x9;&#x9;C17.037,26.377,16.535,26.584,16,26.584z"/>
  <path stroke-opacity="0.15" fill-opacity="0.15" d="M26.293,14.293l-9.586-9.586c-0.389-0.389-1.025-0.389-1.414,0l-1.586,1.586&#xd;&#xa;&#x9;&#x9;c-0.389,0.389-0.389,1.025,0,1.414L19,13H4c-0.55,0-1,0.451-1,1v2c0,0.551,0.45,1,1,1h15l-5.293,5.293&#xd;&#xa;&#x9;&#x9;c-0.389,0.389-0.389,1.025,0,1.414l1.586,1.586c0.389,0.389,1.025,0.389,1.414,0l9.586-9.586&#xd;&#xa;&#x9;&#x9;C26.682,15.318,26.682,14.682,26.293,14.293z"/>
  <path fill="#FFFFFF" d="M26.293,14.293l-9.586-9.586c-0.389-0.389-1.025-0.389-1.414,0l-1.586,1.586&#xd;&#xa;&#x9;&#x9;c-0.389,0.389-0.389,1.025,0,1.414L19,13H4c-0.55,0-1,0.451-1,1v2c0,0.551,0.45,1,1,1h15l-5.293,5.293&#xd;&#xa;&#x9;&#x9;c-0.389,0.389-0.389,1.025,0,1.414l1.586,1.586c0.389,0.389,1.025,0.389,1.414,0l9.586-9.586&#xd;&#xa;&#x9;&#x9;C26.682,15.318,26.682,14.682,26.293,14.293z"/>
  <rect width="30" fill="none" height="30"/>
 </g>
</svg>
