<?xml version="1.0"?>
<!-- Converted with SVG Converter - Version 0.9.5 (Compiled Mon May 30 09:08:51 2011) - Copyright (C) 2011 Nokia -->
<svg xmlns="http://www.w3.org/2000/svg" width="48" x="0px" y="0px" version="1.1" viewBox="0 0 48 48" height="48" xmlns:xlink="http://www.w3.org/1999/xlink" baseProfile="tiny" id="svg2" xml:space="preserve">
 <metadata id="metadata32"/>
 <defs id="defs4">
  <linearGradient gradientTransform="translate(0,-9)" id="linearGradient3019" y1="45.5" x1="33.5005" y2="11.5005" gradientUnits="userSpaceOnUse" x2="33.5005">
   <stop offset="0" style="stop-color:#D0CBC5" id="stop14"/>
   <stop offset="0.5031" style="stop-color:#FAFCEF" id="stop16"/>
   <stop offset="0.9693" style="stop-color:#FFFFFF" id="stop18"/>
  </linearGradient>
 </defs>
 <linearGradient gradientTransform="translate(0,-9)" id="SVGID_1_" y1="45.5" x1="33.5005" y2="11.5005" gradientUnits="userSpaceOnUse" x2="33.5005">
  <stop offset="0" style="stop-color:#D0CBC5" id="stop14"/>
  <stop offset="0.5031" style="stop-color:#FAFCEF" id="stop16"/>
  <stop offset="0.9693" style="stop-color:#FFFFFF" id="stop18"/>
 </linearGradient>
 <g id="g3009" transform="matrix(1.2777778,0,0,1.2777778,-18.805556,-0.9166671)">
  <path style="opacity:0.3" id="path7" d="m 48.5,3.5 h -30 c -1.1,0 -2,0.9 -2,2 v 30 c 0,1.1 0.9,2 2,2 h 30 c 1.1,0 2,-0.9 2,-2 v -30 c 0,-1.1 -0.9,-2 -2,-2 z M 44,27.5 H 23 c -0.825,0 -1.5,-0.675 -1.5,-1.5 0,-0.825 0.675,-1.5 1.5,-1.5 h 21 c 0.825,0 1.5,0.675 1.5,1.5 0,0.825 -0.675,1.5 -1.5,1.5 z m 0,-7 H 23 c -0.825,0 -1.5,-0.675 -1.5,-1.5 0,-0.825 0.675,-1.5 1.5,-1.5 h 21 c 0.825,0 1.5,0.675 1.5,1.5 0,0.825 -0.675,1.5 -1.5,1.5 z m 0,-7 H 23 c -0.825,0 -1.5,-0.675 -1.5,-1.5 0,-0.825 0.675,-1.5 1.5,-1.5 h 21 c 0.825,0 1.5,0.675 1.5,1.5 0,0.825 -0.675,1.5 -1.5,1.5 z"/>
  <path style="opacity:0.15" id="path9" d="m 18.5,37.5 c -1.654,0 -3,-1.346 -3,-3 v -30 c 0,-1.654 1.346,-3 3,-3 h 30 c 1.654,0 3,1.346 3,3 v 30 c 0,1.654 -1.346,3 -3,3 h -30 z m 4.5,-13 c -0.271,0 -0.5,0.229 -0.5,0.5 0,0.271 0.229,0.5 0.5,0.5 h 21 c 0.271,0 0.5,-0.229 0.5,-0.5 0,-0.271 -0.229,-0.5 -0.5,-0.5 H 23 z m 0,-7 c -0.271,0 -0.5,0.229 -0.5,0.5 0,0.271 0.229,0.5 0.5,0.5 h 21 c 0.271,0 0.5,-0.229 0.5,-0.5 0,-0.271 -0.229,-0.5 -0.5,-0.5 H 23 z m 0,-7 c -0.271,0 -0.5,0.229 -0.5,0.5 0,0.271 0.229,0.5 0.5,0.5 h 21 c 0.271,0 0.5,-0.229 0.5,-0.5 0,-0.271 -0.229,-0.5 -0.5,-0.5 H 23 z"/>
  <path style="opacity:0.15" id="path11" d="m 48.5,2.5 h -30 c -1.1,0 -2,0.9 -2,2 v 30 c 0,1.1 0.9,2 2,2 h 30 c 1.1,0 2,-0.9 2,-2 v -30 c 0,-1.1 -0.9,-2 -2,-2 z M 44,26.5 H 23 c -0.825,0 -1.5,-0.675 -1.5,-1.5 0,-0.825 0.675,-1.5 1.5,-1.5 h 21 c 0.825,0 1.5,0.675 1.5,1.5 0,0.825 -0.675,1.5 -1.5,1.5 z m 0,-7 H 23 c -0.825,0 -1.5,-0.675 -1.5,-1.5 0,-0.825 0.675,-1.5 1.5,-1.5 h 21 c 0.825,0 1.5,0.675 1.5,1.5 0,0.825 -0.675,1.5 -1.5,1.5 z m 0,-7 H 23 c -0.825,0 -1.5,-0.675 -1.5,-1.5 0,-0.825 0.675,-1.5 1.5,-1.5 h 21 c 0.825,0 1.5,0.675 1.5,1.5 0,0.825 -0.675,1.5 -1.5,1.5 z"/>
  <path style="fill:url(#linearGradient3019)" id="path20" d="m 48.5,2.5 h -30 c -1.1,0 -2,0.9 -2,2 v 30 c 0,1.1 0.9,2 2,2 h 30 c 1.1,0 2,-0.9 2,-2 v -30 c 0,-1.1 -0.9,-2 -2,-2 z M 44,26.5 H 23 c -0.825,0 -1.5,-0.675 -1.5,-1.5 0,-0.825 0.675,-1.5 1.5,-1.5 h 21 c 0.825,0 1.5,0.675 1.5,1.5 0,0.825 -0.675,1.5 -1.5,1.5 z m 0,-7 H 23 c -0.825,0 -1.5,-0.675 -1.5,-1.5 0,-0.825 0.675,-1.5 1.5,-1.5 h 21 c 0.825,0 1.5,0.675 1.5,1.5 0,0.825 -0.675,1.5 -1.5,1.5 z m 0,-7 H 23 c -0.825,0 -1.5,-0.675 -1.5,-1.5 0,-0.825 0.675,-1.5 1.5,-1.5 h 21 c 0.825,0 1.5,0.675 1.5,1.5 0,0.825 -0.675,1.5 -1.5,1.5 z"/>
  <path style="fill:#ffffff" id="path22" d="m 23,20.5 h 21 c 0.825,0 1.5,-0.675 1.5,-1.5 0,-0.176 -0.036,-0.343 -0.093,-0.5 -0.208,0.58 -0.758,1 -1.407,1 H 23 c -0.649,0 -1.2,-0.42 -1.407,-1 -0.057,0.157 -0.093,0.324 -0.093,0.5 0,0.825 0.675,1.5 1.5,1.5 z"/>
  <path style="fill:#ffffff" id="path24" d="m 23,13.5 h 21 c 0.825,0 1.5,-0.675 1.5,-1.5 0,-0.176 -0.036,-0.343 -0.093,-0.5 -0.208,0.58 -0.758,1 -1.407,1 H 23 c -0.649,0 -1.2,-0.42 -1.407,-1 -0.057,0.157 -0.093,0.324 -0.093,0.5 0,0.825 0.675,1.5 1.5,1.5 z"/>
  <path style="fill:#ffffff" id="path26" d="m 23,27.5 h 21 c 0.825,0 1.5,-0.675 1.5,-1.5 0,-0.176 -0.036,-0.343 -0.093,-0.5 -0.208,0.58 -0.758,1 -1.407,1 H 23 c -0.649,0 -1.2,-0.42 -1.407,-1 -0.057,0.157 -0.093,0.324 -0.093,0.5 0,0.825 0.675,1.5 1.5,1.5 z"/>
  <path style="fill:#ffffff" id="path28" d="m 48.5,2.5 h -30 c -1.1,0 -2,0.9 -2,2 v 1 c 0,-1.1 0.9,-2 2,-2 h 30 c 1.1,0 2,0.9 2,2 v -1 c 0,-1.1 -0.9,-2 -2,-2 z"/>
 </g>
</svg>
