<?xml version="1.0" encoding="UTF-8" standalone="no"?>
<!-- Generator: Adobe Illustrator 15.0.0, SVG Export Plug-In  -->

<svg
   xmlns:dc="http://purl.org/dc/elements/1.1/"
   xmlns:cc="http://creativecommons.org/ns#"
   xmlns:rdf="http://www.w3.org/1999/02/22-rdf-syntax-ns#"
   xmlns:svg="http://www.w3.org/2000/svg"
   xmlns="http://www.w3.org/2000/svg"
   xmlns:xlink="http://www.w3.org/1999/xlink"
   xmlns:sodipodi="http://sodipodi.sourceforge.net/DTD/sodipodi-0.dtd"
   xmlns:inkscape="http://www.inkscape.org/namespaces/inkscape"
   version="1.1"
   x="0px"
   y="0px"
   width="48"
   height="48"
   viewBox="0 0 48 48"
   enable-background="new 0 0 67 57"
   xml:space="preserve"
   id="svg2"
   inkscape:version="0.48.2 r9819"
   sodipodi:docname="notes_list_inverted.svg"><metadata
   id="metadata32"><rdf:RDF><cc:Work
       rdf:about=""><dc:format>image/svg+xml</dc:format><dc:type
         rdf:resource="http://purl.org/dc/dcmitype/StillImage" /></cc:Work></rdf:RDF></metadata><sodipodi:namedview
   pagecolor="#ffffff"
   bordercolor="#666666"
   borderopacity="1"
   objecttolerance="10"
   gridtolerance="10"
   guidetolerance="10"
   inkscape:pageopacity="0"
   inkscape:pageshadow="2"
   inkscape:window-width="1890"
   inkscape:window-height="985"
   id="namedview30"
   showgrid="false"
   inkscape:zoom="16.833333"
   inkscape:cx="14.821782"
   inkscape:cy="24"
   inkscape:window-x="26"
   inkscape:window-y="-4"
   inkscape:window-maximized="1"
   inkscape:current-layer="svg2" />
<defs
   id="defs4">
<linearGradient
   inkscape:collect="always"
   xlink:href="#SVGID_1_"
   id="linearGradient3000"
   gradientUnits="userSpaceOnUse"
   gradientTransform="translate(-9.5,-4.5000005)"
   x1="33.5005"
   y1="45.5"
   x2="33.5005"
   y2="11.5005" /></defs>




<linearGradient
   id="SVGID_1_"
   gradientUnits="userSpaceOnUse"
   x1="33.5005"
   y1="45.5"
   x2="33.5005"
   y2="11.5005"
   gradientTransform="translate(-80.427966,6.6991525)">
	<stop
   offset="0"
   style="stop-color:#D0CBC5"
   id="stop14" />
	<stop
   offset="0.5031"
   style="stop-color:#FAFCEF"
   id="stop16" />
	<stop
   offset="0.9693"
   style="stop-color:#FFFFFF"
   id="stop18" />
</linearGradient>




<path
   d="M 9,42 C 7.346,42 6,40.654 6,39 V 9 C 6,7.346 7.346,6 9,6 h 30 c 1.654,0 3,1.346 3,3 v 30 c 0,1.654 -1.346,3 -3,3 H 9 z m 4.5,-13 c -0.271,0 -0.5,0.229 -0.5,0.5 0,0.271 0.229,0.5 0.5,0.5 h 21 C 34.771,30 35,29.771 35,29.5 35,29.229 34.771,29 34.5,29 h -21 z m 0,-7 c -0.271,0 -0.5,0.229 -0.5,0.5 0,0.271 0.229,0.5 0.5,0.5 h 21 C 34.771,23 35,22.771 35,22.5 35,22.229 34.771,22 34.5,22 h -21 z m 0,-7 c -0.271,0 -0.5,0.229 -0.5,0.5 0,0.271 0.229,0.5 0.5,0.5 h 21 C 34.771,16 35,15.771 35,15.5 35,15.229 34.771,15 34.5,15 h -21 z"
   id="path9"
   inkscape:connector-curvature="0"
   style="opacity:0.51121076" /><path
   d="M 39,8 H 9 C 7.9,8 7,8.9 7,10 v 30 c 0,1.1 0.9,2 2,2 h 30 c 1.1,0 2,-0.9 2,-2 V 10 C 41,8.9 40.1,8 39,8 z m -4.5,24 h -21 C 12.675,32 12,31.325 12,30.5 12,29.675 12.675,29 13.5,29 h 21 c 0.825,0 1.5,0.675 1.5,1.5 0,0.825 -0.675,1.5 -1.5,1.5 z m 0,-7 h -21 C 12.675,25 12,24.325 12,23.5 12,22.675 12.675,22 13.5,22 h 21 c 0.825,0 1.5,0.675 1.5,1.5 0,0.825 -0.675,1.5 -1.5,1.5 z m 0,-7 h -21 C 12.675,18 12,17.325 12,16.5 12,15.675 12.675,15 13.5,15 h 21 c 0.825,0 1.5,0.675 1.5,1.5 0,0.825 -0.675,1.5 -1.5,1.5 z"
   id="path7"
   inkscape:connector-curvature="0"
   style="opacity:0.3" /><path
   d="M 39,7 H 9 C 7.9,7 7,7.9 7,9 v 30 c 0,1.1 0.9,2 2,2 h 30 c 1.1,0 2,-0.9 2,-2 V 9 C 41,7.9 40.1,7 39,7 z m -4.5,24 h -21 C 12.675,31 12,30.325 12,29.5 12,28.675 12.675,28 13.5,28 h 21 c 0.825,0 1.5,0.675 1.5,1.5 0,0.825 -0.675,1.5 -1.5,1.5 z m 0,-7 h -21 C 12.675,24 12,23.325 12,22.5 12,21.675 12.675,21 13.5,21 h 21 c 0.825,0 1.5,0.675 1.5,1.5 0,0.825 -0.675,1.5 -1.5,1.5 z m 0,-7 h -21 C 12.675,17 12,16.325 12,15.5 12,14.675 12.675,14 13.5,14 h 21 c 0.825,0 1.5,0.675 1.5,1.5 0,0.825 -0.675,1.5 -1.5,1.5 z"
   id="path11"
   inkscape:connector-curvature="0"
   style="opacity:0.15" /><path
   d="M 39,7 H 9 C 7.9,7 7,7.9 7,9 v 30 c 0,1.1 0.9,2 2,2 h 30 c 1.1,0 2,-0.9 2,-2 V 9 C 41,7.9 40.1,7 39,7 z m -4.5,24 h -21 C 12.675,31 12,30.325 12,29.5 12,28.675 12.675,28 13.5,28 h 21 c 0.825,0 1.5,0.675 1.5,1.5 0,0.825 -0.675,1.5 -1.5,1.5 z m 0,-7 h -21 C 12.675,24 12,23.325 12,22.5 12,21.675 12.675,21 13.5,21 h 21 c 0.825,0 1.5,0.675 1.5,1.5 0,0.825 -0.675,1.5 -1.5,1.5 z m 0,-7 h -21 C 12.675,17 12,16.325 12,15.5 12,14.675 12.675,14 13.5,14 h 21 c 0.825,0 1.5,0.675 1.5,1.5 0,0.825 -0.675,1.5 -1.5,1.5 z"
   id="path20"
   inkscape:connector-curvature="0"
   style="fill:url(#linearGradient3000)" /><path
   d="m 13.5,25 h 21 c 0.825,0 1.5,-0.675 1.5,-1.5 0,-0.176 -0.036,-0.343 -0.093,-0.5 -0.208,0.58 -0.758,1 -1.407,1 h -21 C 12.851,24 12.3,23.58 12.093,23 12.036,23.157 12,23.324 12,23.5 c 0,0.825 0.675,1.5 1.5,1.5 z"
   id="path22"
   inkscape:connector-curvature="0"
   style="fill:#ffffff" /><path
   d="m 13.5,18 h 21 c 0.825,0 1.5,-0.675 1.5,-1.5 0,-0.176 -0.036,-0.343 -0.093,-0.5 -0.208,0.58 -0.758,1 -1.407,1 h -21 C 12.851,17 12.3,16.58 12.093,16 12.036,16.157 12,16.324 12,16.5 c 0,0.825 0.675,1.5 1.5,1.5 z"
   id="path24"
   inkscape:connector-curvature="0"
   style="fill:#ffffff" /><path
   d="m 13.5,32 h 21 c 0.825,0 1.5,-0.675 1.5,-1.5 0,-0.176 -0.036,-0.343 -0.093,-0.5 -0.208,0.58 -0.758,1 -1.407,1 h -21 C 12.851,31 12.3,30.58 12.093,30 12.036,30.157 12,30.324 12,30.5 c 0,0.825 0.675,1.5 1.5,1.5 z"
   id="path26"
   inkscape:connector-curvature="0"
   style="fill:#ffffff" /><path
   d="M 39,7 H 9 C 7.9,7 7,7.9 7,9 v 1 C 7,8.9 7.9,8 9,8 h 30 c 1.1,0 2,0.9 2,2 V 9 C 41,7.9 40.1,7 39,7 z"
   id="path28"
   inkscape:connector-curvature="0"
   style="fill:#ffffff" />
</svg>