<?xml version="1.0" encoding="UTF-8" standalone="no"?>
<!-- Generator: Adobe Illustrator 15.0.0, SVG Export Plug-In  -->

<svg
   xmlns:dc="http://purl.org/dc/elements/1.1/"
   xmlns:cc="http://creativecommons.org/ns#"
   xmlns:rdf="http://www.w3.org/1999/02/22-rdf-syntax-ns#"
   xmlns:svg="http://www.w3.org/2000/svg"
   xmlns="http://www.w3.org/2000/svg"
   xmlns:xlink="http://www.w3.org/1999/xlink"
   xmlns:sodipodi="http://sodipodi.sourceforge.net/DTD/sodipodi-0.dtd"
   xmlns:inkscape="http://www.inkscape.org/namespaces/inkscape"
   version="1.1"
   x="0px"
   y="0px"
   width="48"
   height="48"
   viewBox="0 0 48 48"
   enable-background="new 0 0 67 57"
   xml:space="preserve"
   id="svg2"
   inkscape:version="0.48.2 r9819"
   sodipodi:docname="notes.svg"><metadata
   id="metadata32"><rdf:RDF><cc:Work
       rdf:about=""><dc:format>image/svg+xml</dc:format><dc:type
         rdf:resource="http://purl.org/dc/dcmitype/StillImage" /></cc:Work></rdf:RDF></metadata><sodipodi:namedview
   pagecolor="#ffffff"
   bordercolor="#666666"
   borderopacity="1"
   objecttolerance="10"
   gridtolerance="10"
   guidetolerance="10"
   inkscape:pageopacity="0"
   inkscape:pageshadow="2"
   inkscape:window-width="1920"
   inkscape:window-height="955"
   id="namedview30"
   showgrid="false"
   inkscape:zoom="4.1403509"
   inkscape:cx="-24.224576"
   inkscape:cy="28.5"
   inkscape:window-x="-4"
   inkscape:window-y="-4"
   inkscape:window-maximized="1"
   inkscape:current-layer="svg2" />
<defs
   id="defs4">
<linearGradient
   inkscape:collect="always"
   xlink:href="#SVGID_1_"
   id="linearGradient3019"
   gradientUnits="userSpaceOnUse"
   gradientTransform="translate(0,-9)"
   x1="33.5005"
   y1="45.5"
   x2="33.5005"
   y2="11.5005" /></defs>




<linearGradient
   id="SVGID_1_"
   gradientUnits="userSpaceOnUse"
   x1="33.5005"
   y1="45.5"
   x2="33.5005"
   y2="11.5005"
   gradientTransform="translate(0,-9)">
	<stop
   offset="0"
   style="stop-color:#D0CBC5"
   id="stop14" />
	<stop
   offset="0.5031"
   style="stop-color:#FAFCEF"
   id="stop16" />
	<stop
   offset="0.9693"
   style="stop-color:#FFFFFF"
   id="stop18" />
</linearGradient>




<g
   id="g3009"
   transform="matrix(1.2777778,0,0,1.2777778,-18.805556,-0.9166671)"><path
     style="opacity:0.3"
     inkscape:connector-curvature="0"
     id="path7"
     d="m 48.5,3.5 h -30 c -1.1,0 -2,0.9 -2,2 v 30 c 0,1.1 0.9,2 2,2 h 30 c 1.1,0 2,-0.9 2,-2 v -30 c 0,-1.1 -0.9,-2 -2,-2 z M 44,27.5 H 23 c -0.825,0 -1.5,-0.675 -1.5,-1.5 0,-0.825 0.675,-1.5 1.5,-1.5 h 21 c 0.825,0 1.5,0.675 1.5,1.5 0,0.825 -0.675,1.5 -1.5,1.5 z m 0,-7 H 23 c -0.825,0 -1.5,-0.675 -1.5,-1.5 0,-0.825 0.675,-1.5 1.5,-1.5 h 21 c 0.825,0 1.5,0.675 1.5,1.5 0,0.825 -0.675,1.5 -1.5,1.5 z m 0,-7 H 23 c -0.825,0 -1.5,-0.675 -1.5,-1.5 0,-0.825 0.675,-1.5 1.5,-1.5 h 21 c 0.825,0 1.5,0.675 1.5,1.5 0,0.825 -0.675,1.5 -1.5,1.5 z" /><path
     style="opacity:0.15"
     inkscape:connector-curvature="0"
     id="path9"
     d="m 18.5,37.5 c -1.654,0 -3,-1.346 -3,-3 v -30 c 0,-1.654 1.346,-3 3,-3 h 30 c 1.654,0 3,1.346 3,3 v 30 c 0,1.654 -1.346,3 -3,3 h -30 z m 4.5,-13 c -0.271,0 -0.5,0.229 -0.5,0.5 0,0.271 0.229,0.5 0.5,0.5 h 21 c 0.271,0 0.5,-0.229 0.5,-0.5 0,-0.271 -0.229,-0.5 -0.5,-0.5 H 23 z m 0,-7 c -0.271,0 -0.5,0.229 -0.5,0.5 0,0.271 0.229,0.5 0.5,0.5 h 21 c 0.271,0 0.5,-0.229 0.5,-0.5 0,-0.271 -0.229,-0.5 -0.5,-0.5 H 23 z m 0,-7 c -0.271,0 -0.5,0.229 -0.5,0.5 0,0.271 0.229,0.5 0.5,0.5 h 21 c 0.271,0 0.5,-0.229 0.5,-0.5 0,-0.271 -0.229,-0.5 -0.5,-0.5 H 23 z" /><path
     style="opacity:0.15"
     inkscape:connector-curvature="0"
     id="path11"
     d="m 48.5,2.5 h -30 c -1.1,0 -2,0.9 -2,2 v 30 c 0,1.1 0.9,2 2,2 h 30 c 1.1,0 2,-0.9 2,-2 v -30 c 0,-1.1 -0.9,-2 -2,-2 z M 44,26.5 H 23 c -0.825,0 -1.5,-0.675 -1.5,-1.5 0,-0.825 0.675,-1.5 1.5,-1.5 h 21 c 0.825,0 1.5,0.675 1.5,1.5 0,0.825 -0.675,1.5 -1.5,1.5 z m 0,-7 H 23 c -0.825,0 -1.5,-0.675 -1.5,-1.5 0,-0.825 0.675,-1.5 1.5,-1.5 h 21 c 0.825,0 1.5,0.675 1.5,1.5 0,0.825 -0.675,1.5 -1.5,1.5 z m 0,-7 H 23 c -0.825,0 -1.5,-0.675 -1.5,-1.5 0,-0.825 0.675,-1.5 1.5,-1.5 h 21 c 0.825,0 1.5,0.675 1.5,1.5 0,0.825 -0.675,1.5 -1.5,1.5 z" /><path
     style="fill:url(#linearGradient3019)"
     inkscape:connector-curvature="0"
     id="path20"
     d="m 48.5,2.5 h -30 c -1.1,0 -2,0.9 -2,2 v 30 c 0,1.1 0.9,2 2,2 h 30 c 1.1,0 2,-0.9 2,-2 v -30 c 0,-1.1 -0.9,-2 -2,-2 z M 44,26.5 H 23 c -0.825,0 -1.5,-0.675 -1.5,-1.5 0,-0.825 0.675,-1.5 1.5,-1.5 h 21 c 0.825,0 1.5,0.675 1.5,1.5 0,0.825 -0.675,1.5 -1.5,1.5 z m 0,-7 H 23 c -0.825,0 -1.5,-0.675 -1.5,-1.5 0,-0.825 0.675,-1.5 1.5,-1.5 h 21 c 0.825,0 1.5,0.675 1.5,1.5 0,0.825 -0.675,1.5 -1.5,1.5 z m 0,-7 H 23 c -0.825,0 -1.5,-0.675 -1.5,-1.5 0,-0.825 0.675,-1.5 1.5,-1.5 h 21 c 0.825,0 1.5,0.675 1.5,1.5 0,0.825 -0.675,1.5 -1.5,1.5 z" /><path
     style="fill:#ffffff"
     inkscape:connector-curvature="0"
     id="path22"
     d="m 23,20.5 h 21 c 0.825,0 1.5,-0.675 1.5,-1.5 0,-0.176 -0.036,-0.343 -0.093,-0.5 -0.208,0.58 -0.758,1 -1.407,1 H 23 c -0.649,0 -1.2,-0.42 -1.407,-1 -0.057,0.157 -0.093,0.324 -0.093,0.5 0,0.825 0.675,1.5 1.5,1.5 z" /><path
     style="fill:#ffffff"
     inkscape:connector-curvature="0"
     id="path24"
     d="m 23,13.5 h 21 c 0.825,0 1.5,-0.675 1.5,-1.5 0,-0.176 -0.036,-0.343 -0.093,-0.5 -0.208,0.58 -0.758,1 -1.407,1 H 23 c -0.649,0 -1.2,-0.42 -1.407,-1 -0.057,0.157 -0.093,0.324 -0.093,0.5 0,0.825 0.675,1.5 1.5,1.5 z" /><path
     style="fill:#ffffff"
     inkscape:connector-curvature="0"
     id="path26"
     d="m 23,27.5 h 21 c 0.825,0 1.5,-0.675 1.5,-1.5 0,-0.176 -0.036,-0.343 -0.093,-0.5 -0.208,0.58 -0.758,1 -1.407,1 H 23 c -0.649,0 -1.2,-0.42 -1.407,-1 -0.057,0.157 -0.093,0.324 -0.093,0.5 0,0.825 0.675,1.5 1.5,1.5 z" /><path
     style="fill:#ffffff"
     inkscape:connector-curvature="0"
     id="path28"
     d="m 48.5,2.5 h -30 c -1.1,0 -2,0.9 -2,2 v 1 c 0,-1.1 0.9,-2 2,-2 h 30 c 1.1,0 2,0.9 2,2 v -1 c 0,-1.1 -0.9,-2 -2,-2 z" /></g>
</svg>