<?xml version="1.0" encoding="UTF-8" standalone="no"?>
<!-- Converted with SVG Converter - Version 0.9.5 (Compiled Mon May 30 09:08:51 2011) - Copyright (C) 2011 Nokia -->

<svg
   xmlns:dc="http://purl.org/dc/elements/1.1/"
   xmlns:cc="http://creativecommons.org/ns#"
   xmlns:rdf="http://www.w3.org/1999/02/22-rdf-syntax-ns#"
   xmlns:svg="http://www.w3.org/2000/svg"
   xmlns="http://www.w3.org/2000/svg"
   xmlns:xlink="http://www.w3.org/1999/xlink"
   xmlns:sodipodi="http://sodipodi.sourceforge.net/DTD/sodipodi-0.dtd"
   xmlns:inkscape="http://www.inkscape.org/namespaces/inkscape"
   width="30"
   x="0px"
   y="0px"
   version="1.1"
   viewBox="0 0 30 30"
   height="30"
   id="svg2"
   xml:space="preserve"
   inkscape:version="0.48.2 r9819"
   sodipodi:docname="notes_inverted.svg"><sodipodi:namedview
   pagecolor="#ffffff"
   bordercolor="#666666"
   borderopacity="1"
   objecttolerance="10"
   gridtolerance="10"
   guidetolerance="10"
   inkscape:pageopacity="0"
   inkscape:pageshadow="2"
   inkscape:window-width="1890"
   inkscape:window-height="985"
   id="namedview26"
   showgrid="false"
   inkscape:zoom="26.933333"
   inkscape:cx="15"
   inkscape:cy="15"
   inkscape:window-x="26"
   inkscape:window-y="-4"
   inkscape:window-maximized="1"
   inkscape:current-layer="svg2" />
 <metadata
   id="metadata32"><rdf:RDF><cc:Work
       rdf:about=""><dc:format>image/svg+xml</dc:format><dc:type
         rdf:resource="http://purl.org/dc/dcmitype/StillImage" /></cc:Work></rdf:RDF></metadata>
 <defs
   id="defs4">
  <linearGradient
   gradientTransform="translate(0,-9)"
   id="linearGradient3019"
   y1="45.5"
   x1="33.5005"
   y2="11.5005"
   gradientUnits="userSpaceOnUse"
   x2="33.5005">
   <stop
   offset="0"
   style="stop-color:#000000;stop-opacity:1;"
   id="stop14" />
   <stop
   offset="0.50309998"
   style="stop-color:#000000;stop-opacity:1;"
   id="stop16" />
   <stop
   offset="0.96929997"
   style="stop-color:#d0cbc5;stop-opacity:1;"
   id="stop18" />
  </linearGradient>
 
  
  
  
  
  
  
  
  
 <linearGradient
   inkscape:collect="always"
   xlink:href="#linearGradient3019"
   id="linearGradient3003"
   gradientUnits="userSpaceOnUse"
   gradientTransform="matrix(0.83333333,0,0,0.83333333,-12.865819,-8.5974576)"
   x1="33.5005"
   y1="45.5"
   x2="33.5005"
   y2="11.5005" /></defs>
 <linearGradient
   gradientTransform="translate(0,-9)"
   id="SVGID_1_"
   y1="45.5"
   x1="33.5005"
   y2="11.5005"
   gradientUnits="userSpaceOnUse"
   x2="33.5005">
  <stop
   offset="0"
   style="stop-color:#D0CBC5"
   id="stop10" />
  <stop
   offset="0.5031"
   style="stop-color:#FAFCEF"
   id="stop12" />
  <stop
   offset="0.9693"
   style="stop-color:#FFFFFF"
   id="stop15" />
 </linearGradient>
 <path
   inkscape:connector-curvature="0"
   d="M 27.550848,1.8192091 H 2.5508476 c -0.9166667,0 -1.66666666,0.75 -1.66666666,1.6666666 V 28.485876 c 0,0.916666 0.74999996,1.666666 1.66666666,1.666666 H 27.550848 c 0.916666,0 1.666666,-0.75 1.666666,-1.666666 V 3.4858757 c 0,-0.9166666 -0.75,-1.6666666 -1.666666,-1.6666666 z m -3.75,19.9999999 H 6.3008476 c -0.6875,0 -1.25,-0.5625 -1.25,-1.25 0,-0.6875 0.5625,-1.25 1.25,-1.25 H 23.800848 c 0.6875,0 1.25,0.5625 1.25,1.25 0,0.6875 -0.5625,1.25 -1.25,1.25 z m 0,-5.833333 H 6.3008476 c -0.6875,0 -1.25,-0.5625 -1.25,-1.25 0,-0.6875 0.5625,-1.25 1.25,-1.25 H 23.800848 c 0.6875,0 1.25,0.5625 1.25,1.25 0,0.6875 -0.5625,1.25 -1.25,1.25 z m 0,-5.833334 H 6.3008476 c -0.6875,0 -1.25,-0.5624996 -1.25,-1.2499996 0,-0.6875 0.5625,-1.25 1.25,-1.25 H 23.800848 c 0.6875,0 1.25,0.5625 1.25,1.25 0,0.6875 -0.5625,1.2499996 -1.25,1.2499996 z"
   id="path7"
   style="opacity:0.3" /><path
   inkscape:connector-curvature="0"
   d="m 2.5508476,30.152542 c -1.3783333,0 -2.49999999,-1.121666 -2.49999999,-2.5 V 2.6525424 c 0,-1.3783333 1.12166669,-2.50000001 2.49999999,-2.50000001 H 27.550848 c 1.378333,0 2.499999,1.12166671 2.499999,2.50000001 V 27.652542 c 0,1.378334 -1.121666,2.5 -2.499999,2.5 H 2.5508476 z m 3.75,-10.833333 c -0.2258333,0 -0.4166667,0.190833 -0.4166667,0.416667 0,0.225833 0.1908334,0.416666 0.4166667,0.416666 H 23.800848 c 0.225833,0 0.416666,-0.190833 0.416666,-0.416666 0,-0.225834 -0.190833,-0.416667 -0.416666,-0.416667 H 6.3008476 z m 0,-5.833333 c -0.2258333,0 -0.4166667,0.190833 -0.4166667,0.416666 0,0.225834 0.1908334,0.416667 0.4166667,0.416667 H 23.800848 c 0.225833,0 0.416666,-0.190833 0.416666,-0.416667 0,-0.225833 -0.190833,-0.416666 -0.416666,-0.416666 H 6.3008476 z m 0,-5.8333336 c -0.2258333,0 -0.4166667,0.1908333 -0.4166667,0.4166666 0,0.2258334 0.1908334,0.4166667 0.4166667,0.4166667 H 23.800848 c 0.225833,0 0.416666,-0.1908333 0.416666,-0.4166667 0,-0.2258333 -0.190833,-0.4166666 -0.416666,-0.4166666 H 6.3008476 z"
   id="path9"
   style="opacity:0.15" /><path
   inkscape:connector-curvature="0"
   d="M 27.550848,0.98587572 H 2.5508476 c -0.9166667,0 -1.66666666,0.74999998 -1.66666666,1.66666668 V 27.652542 c 0,0.916667 0.74999996,1.666667 1.66666666,1.666667 H 27.550848 c 0.916666,0 1.666666,-0.75 1.666666,-1.666667 V 2.6525424 c 0,-0.9166667 -0.75,-1.66666668 -1.666666,-1.66666668 z m -3.75,20.00000028 H 6.3008476 c -0.6875,0 -1.25,-0.5625 -1.25,-1.25 0,-0.6875 0.5625,-1.25 1.25,-1.25 H 23.800848 c 0.6875,0 1.25,0.5625 1.25,1.25 0,0.6875 -0.5625,1.25 -1.25,1.25 z m 0,-5.833334 H 6.3008476 c -0.6875,0 -1.25,-0.5625 -1.25,-1.25 0,-0.6875 0.5625,-1.25 1.25,-1.25 H 23.800848 c 0.6875,0 1.25,0.5625 1.25,1.25 0,0.6875 -0.5625,1.25 -1.25,1.25 z m 0,-5.833333 H 6.3008476 c -0.6875,0 -1.25,-0.5625 -1.25,-1.25 0,-0.6875 0.5625,-1.25 1.25,-1.25 H 23.800848 c 0.6875,0 1.25,0.5625 1.25,1.25 0,0.6875 -0.5625,1.25 -1.25,1.25 z"
   id="path11"
   style="opacity:0.15" /><path
   inkscape:connector-curvature="0"
   d="M 6.3008476,15.985876 H 23.800848 c 0.6875,0 1.25,-0.5625 1.25,-1.25 0,-0.146667 -0.03,-0.285834 -0.0775,-0.416667 -0.173334,0.483333 -0.631667,0.833333 -1.1725,0.833333 H 6.3008476 c -0.5408333,0 -1,-0.35 -1.1725,-0.833333 -0.0475,0.130833 -0.0775,0.27 -0.0775,0.416667 0,0.6875 0.5625,1.25 1.25,1.25 z"
   id="path22"
   style="fill:#ffffff" /><path
   inkscape:connector-curvature="0"
   d="M 6.3008476,10.152542 H 23.800848 c 0.6875,0 1.25,-0.5624996 1.25,-1.2499996 0,-0.1466667 -0.03,-0.2858334 -0.0775,-0.4166667 -0.173334,0.4833333 -0.631667,0.8333333 -1.1725,0.8333333 H 6.3008476 c -0.5408333,0 -1,-0.35 -1.1725,-0.8333333 -0.0475,0.1308333 -0.0775,0.27 -0.0775,0.4166667 0,0.6875 0.5625,1.2499996 1.25,1.2499996 z"
   id="path24"
   style="fill:#ffffff" /><path
   inkscape:connector-curvature="0"
   d="M 6.3008476,21.819209 H 23.800848 c 0.6875,0 1.25,-0.5625 1.25,-1.25 0,-0.146667 -0.03,-0.285833 -0.0775,-0.416667 -0.173334,0.483334 -0.631667,0.833334 -1.1725,0.833334 H 6.3008476 c -0.5408333,0 -1,-0.35 -1.1725,-0.833334 -0.0475,0.130834 -0.0775,0.27 -0.0775,0.416667 0,0.6875 0.5625,1.25 1.25,1.25 z"
   id="path26"
   style="fill:#ffffff" /><path
   inkscape:connector-curvature="0"
   d="M 27.550848,0.98587572 H 2.5508476 c -0.9166667,0 -1.66666666,0.74999998 -1.66666666,1.66666668 v 0.8333333 c 0,-0.9166666 0.74999996,-1.6666666 1.66666666,-1.6666666 H 27.550848 c 0.916666,0 1.666666,0.75 1.666666,1.6666666 V 2.6525424 c 0,-0.9166667 -0.75,-1.66666668 -1.666666,-1.66666668 z"
   id="path28"
   style="fill:#ffffff" /><path
   inkscape:connector-curvature="0"
   d="M 27.550848,0.98587572 H 2.5508476 c -0.9166667,0 -1.6666667,0.74999998 -1.6666667,1.66666668 V 27.652542 c 0,0.916667 0.75,1.666667 1.6666667,1.666667 H 27.550848 c 0.916666,0 1.666666,-0.75 1.666666,-1.666667 V 2.6525424 c 0,-0.9166667 -0.75,-1.66666668 -1.666666,-1.66666668 z m -3.75,20.00000028 H 6.3008476 c -0.6875,0 -1.25,-0.5625 -1.25,-1.25 0,-0.6875 0.5625,-1.25 1.25,-1.25 H 23.800848 c 0.6875,0 1.25,0.5625 1.25,1.25 0,0.6875 -0.5625,1.25 -1.25,1.25 z m 0,-5.833334 H 6.3008476 c -0.6875,0 -1.25,-0.5625 -1.25,-1.25 0,-0.6875 0.5625,-1.25 1.25,-1.25 H 23.800848 c 0.6875,0 1.25,0.5625 1.25,1.25 0,0.6875 -0.5625,1.25 -1.25,1.25 z m 0,-5.833333 H 6.3008476 c -0.6875,0 -1.25,-0.5625 -1.25,-1.25 0,-0.6875 0.5625,-1.25 1.25,-1.25 H 23.800848 c 0.6875,0 1.25,0.5625 1.25,1.25 0,0.6875 -0.5625,1.25 -1.25,1.25 z"
   id="path20"
   style="fill:url(#linearGradient3003)" />
</svg>