<?xml version="1.0" encoding="UTF-8" standalone="no"?>
<!-- Generator: Adobe Illustrator 15.0.0, SVG Export Plug-In . SVG Version: 6.00 Build 0)  -->

<svg
   xmlns:dc="http://purl.org/dc/elements/1.1/"
   xmlns:cc="http://creativecommons.org/ns#"
   xmlns:rdf="http://www.w3.org/1999/02/22-rdf-syntax-ns#"
   xmlns:svg="http://www.w3.org/2000/svg"
   xmlns="http://www.w3.org/2000/svg"
   xmlns:sodipodi="http://sodipodi.sourceforge.net/DTD/sodipodi-0.dtd"
   xmlns:inkscape="http://www.inkscape.org/namespaces/inkscape"
   version="1.1"
   x="0px"
   y="0px"
   width="30px"
   height="30px"
   viewBox="0 0 30 30"
   enable-background="new 0 0 30 30"
   xml:space="preserve"
   id="svg2"
   inkscape:version="0.48.2 r9819"
   sodipodi:docname="ok_inverted.svg"><metadata
   id="metadata23"><rdf:RDF><cc:Work
       rdf:about=""><dc:format>image/svg+xml</dc:format><dc:type
         rdf:resource="http://purl.org/dc/dcmitype/StillImage" /></cc:Work></rdf:RDF></metadata><defs
   id="defs21">
	

		
		
		
		
		
	</defs><sodipodi:namedview
   pagecolor="#ffffff"
   bordercolor="#666666"
   borderopacity="1"
   objecttolerance="10"
   gridtolerance="10"
   guidetolerance="10"
   inkscape:pageopacity="0"
   inkscape:pageshadow="2"
   inkscape:window-width="1920"
   inkscape:window-height="955"
   id="namedview19"
   showgrid="false"
   inkscape:zoom="7.8666667"
   inkscape:cx="-4.6398305"
   inkscape:cy="15"
   inkscape:window-x="-4"
   inkscape:window-y="-4"
   inkscape:window-maximized="1"
   inkscape:current-layer="svg2" />
<g
   id="DO_NOT_EDIT_-_BOUNDING_BOX">
	<rect
   id="BOUNDING_BOX"
   fill="none"
   width="30"
   height="30" />
</g>
<path
   d="M 26.09,3.895 23.635,2.18 C 23.184,1.864 22.563,1.979 22.252,2.434 L 10.986,18.555 6.734,12.647 C 6.414,12.198 5.791,12.096 5.345,12.422 l -2.42,1.768 c -0.443,0.324 -0.543,0.953 -0.221,1.402 l 6.529,9.193 C 9.709,25.549 10.268,26 10.998,26 c 0.693,0 1.191,-0.409 1.645,-1.102 L 26.338,5.292 C 26.65,4.837 26.539,4.211 26.09,3.895 z"
   id="path9"
   inkscape:connector-curvature="0"
   style="opacity:0.3" /><path
   d="M 10.998,28 C 9.96,28 9.081,27.433 8.385,26.313 L 1.89,17.171 C 1.252,16.282 1.451,15.029 2.336,14.382 l 2.42,-1.768 c 0.342,-0.25 0.748,-0.384 1.172,-0.384 0.642,0 1.248,0.313 1.62,0.835 l 3.426,4.76 10.459,-14.964 c 0.364,-0.535 0.979,-0.86 1.638,-0.86 0.409,0 0.803,0.125 1.139,0.36 l 2.453,1.714 c 0.897,0.632 1.121,1.88 0.5,2.783 l -13.7,19.613 C 13.228,26.83 12.462,28 10.998,28 z"
   id="path11"
   inkscape:connector-curvature="0"
   style="opacity:0.15" /><path
   d="M 26.09,4.895 23.635,3.18 C 23.184,2.864 22.563,2.979 22.252,3.434 L 10.986,19.555 6.734,13.647 C 6.414,13.198 5.791,13.096 5.345,13.422 l -2.42,1.768 c -0.443,0.324 -0.543,0.953 -0.221,1.402 l 6.529,9.193 C 9.709,26.549 10.268,27 10.998,27 c 0.693,0 1.191,-0.409 1.645,-1.102 L 26.338,6.292 C 26.65,5.837 26.539,5.211 26.09,4.895 z"
   id="path13"
   inkscape:connector-curvature="0"
   style="opacity:0.15" /><path
   d="M 26.09,4.895 23.635,3.18 C 23.184,2.864 22.563,2.979 22.252,3.434 L 10.986,19.555 6.734,13.647 C 6.414,13.198 5.791,13.096 5.345,13.422 l -2.42,1.768 c -0.443,0.324 -0.543,0.953 -0.221,1.402 l 6.529,9.193 C 9.709,26.549 10.268,27 10.998,27 c 0.693,0 1.191,-0.409 1.645,-1.102 L 26.338,6.292 C 26.65,5.837 26.539,5.211 26.09,4.895 z"
   id="path15"
   inkscape:connector-curvature="0"
   style="fill:#000000;fill-opacity:1" /><rect
   width="30"
   height="30"
   id="rect17"
   x="0"
   y="0"
   style="fill:none" />
</svg>