<?xml version="1.0" encoding="UTF-8" standalone="no"?>
<!-- Generator: Adobe Illustrator 15.0.0, SVG Export Plug-In . SVG Version: 6.00 Build 0)  -->

<svg
   xmlns:dc="http://purl.org/dc/elements/1.1/"
   xmlns:cc="http://creativecommons.org/ns#"
   xmlns:rdf="http://www.w3.org/1999/02/22-rdf-syntax-ns#"
   xmlns:svg="http://www.w3.org/2000/svg"
   xmlns="http://www.w3.org/2000/svg"
   xmlns:xlink="http://www.w3.org/1999/xlink"
   xmlns:sodipodi="http://sodipodi.sourceforge.net/DTD/sodipodi-0.dtd"
   xmlns:inkscape="http://www.inkscape.org/namespaces/inkscape"
   version="1.1"
   x="0px"
   y="0px"
   width="30px"
   height="30px"
   viewBox="0 0 30 30"
   enable-background="new 0 0 30 30"
   xml:space="preserve"
   id="svg2"
   inkscape:version="0.48.2 r9819"
   sodipodi:docname="paste.svg"><metadata
   id="metadata19"><rdf:RDF><cc:Work
       rdf:about=""><dc:format>image/svg+xml</dc:format><dc:type
         rdf:resource="http://purl.org/dc/dcmitype/StillImage" /></cc:Work></rdf:RDF></metadata><defs
   id="defs17"><linearGradient
     inkscape:collect="always"
     id="linearGradient5110"><stop
       style="stop-color:#a0a0a0;stop-opacity:1;"
       offset="0"
       id="stop5112" /><stop
       style="stop-color:#a0a0a0;stop-opacity:0;"
       offset="1"
       id="stop5114" /></linearGradient><inkscape:path-effect
     effect="skeletal"
     id="path-effect5079"
     is_visible="true"
     pattern="M 0,5 10,10 10,0 z"
     copytype="single_stretched"
     prop_scale="1"
     scale_y_rel="false"
     spacing="0"
     normal_offset="0"
     tang_offset="0"
     prop_units="false"
     vertical_pattern="false"
     fuse_tolerance="0" /><linearGradient
     inkscape:collect="always"
     xlink:href="#linearGradient5110"
     id="linearGradient5116"
     x1="-22.676054"
     y1="0.70204097"
     x2="-22.71685"
     y2="3.7296867"
     gradientUnits="userSpaceOnUse" /><linearGradient
     inkscape:collect="always"
     xlink:href="#linearGradient5110-7"
     id="linearGradient5116-1"
     x1="-22.676054"
     y1="0.70204097"
     x2="-22.71685"
     y2="3.7296867"
     gradientUnits="userSpaceOnUse" /><linearGradient
     id="linearGradient5110-7"><stop
       style="stop-color:#ffffff;stop-opacity:1;"
       offset="0"
       id="stop5112-4" /><stop
       style="stop-color:#a0a0a0;stop-opacity:1;"
       offset="1"
       id="stop5114-0" /></linearGradient><linearGradient
     gradientTransform="matrix(1.0313745,0,0,0.93761311,11.316286,-2.9899947)"
     y2="3.7296867"
     x2="-22.71685"
     y1="0.70204097"
     x1="-22.676054"
     gradientUnits="userSpaceOnUse"
     id="linearGradient5135"
     xlink:href="#linearGradient5110-7"
     inkscape:collect="always" /><linearGradient
     inkscape:collect="always"
     xlink:href="#linearGradient5110-7"
     id="linearGradient5200"
     gradientUnits="userSpaceOnUse"
     gradientTransform="matrix(1.0313745,0,0,0.93761311,11.316286,-2.9899947)"
     x1="-22.676054"
     y1="0.70204097"
     x2="-22.71685"
     y2="3.7296867" /></defs><sodipodi:namedview
   pagecolor="#ffffff"
   bordercolor="#666666"
   borderopacity="1"
   objecttolerance="10"
   gridtolerance="10"
   guidetolerance="10"
   inkscape:pageopacity="0"
   inkscape:pageshadow="2"
   inkscape:window-width="1024"
   inkscape:window-height="712"
   id="namedview15"
   showgrid="false"
   inkscape:zoom="17.833333"
   inkscape:cx="15"
   inkscape:cy="15"
   inkscape:window-x="-4"
   inkscape:window-y="-4"
   inkscape:window-maximized="1"
   inkscape:current-layer="layer3"
   showguides="true"
   inkscape:guide-bbox="true"
   inkscape:object-paths="false"
   inkscape:snap-nodes="true"
   inkscape:object-nodes="true"
   inkscape:snap-smooth-nodes="true"
   inkscape:snap-bbox="true"
   inkscape:snap-grids="true"
   inkscape:snap-to-guides="false"><sodipodi:guide
     orientation="1,0"
     position="-18.985796,21.973881"
     id="guide5057" /><sodipodi:guide
     orientation="1,0"
     position="-5.2481133,21.979037"
     id="guide5061" /><sodipodi:guide
     orientation="1,0"
     position="-18.099526,22.248551"
     id="guide5063" /><sodipodi:guide
     orientation="1,0"
     position="-6.1174583,22.001248"
     id="guide5065" /><sodipodi:guide
     orientation="0,1"
     position="-12.134762,14.648884"
     id="guide5067" /><sodipodi:guide
     orientation="0,1"
     position="-8.0280683,30.628137"
     id="guide5071" /><sodipodi:guide
     orientation="0,1"
     position="-6.2097593,28.356898"
     id="guide5087" /><sodipodi:guide
     orientation="1,0"
     position="-16.914549,26.742791"
     id="guide5089" /><sodipodi:guide
     orientation="1,0"
     position="-7.3355726,26.457915"
     id="guide5091" /><sodipodi:guide
     orientation="0,1"
     position="-12.036037,15.9887"
     id="guide5093" /><sodipodi:guide
     orientation="0,1"
     position="-7.3355726,29.492992"
     id="guide5095" /><sodipodi:guide
     orientation="0,1"
     position="-16.914549,13.602858"
     id="guide5099" /></sodipodi:namedview>
<g
   id="DO_NOT_EDIT_-_BOUNDING_BOX">
	<rect
   id="BOUNDING_BOX"
   fill="none"
   width="30"
   height="30" />
</g>

<g
   inkscape:groupmode="layer"
   id="layer2"
   inkscape:label="Board"
   style="display:inline" /><g
   inkscape:groupmode="layer"
   id="layer1"
   inkscape:label="Clip"><path
     style="fill:#808080;fill-opacity:1;stroke:none;display:inline"
     d="M 11.696976,0.15106221 C 10.458407,0.14674509 9.5175047,0.79136189 9.2479704,1.8266977 8.7224856,2.9786987 8.406347,2.7693343 7.151139,2.98244 l -3.1878651,0 c -0.8642595,0 -1.5467405,0.8136305 -1.5467405,1.6799485 l 0,20.0646615 c 0,0.866317 0.682481,1.54674 1.5467405,1.54674 l 15.5533341,0 c 0.86426,0 1.589706,-0.680423 1.589706,-1.54674 l 0,-20.0646615 c 0,-0.866318 -0.760984,-1.6799485 -1.625243,-1.6799485 l -3.249913,0 C 14.879715,2.9579797 14.951615,2.6739576 14.274877,1.9126277 13.975263,0.80831966 13.019857,0.15573681 11.696976,0.15106221 z"
     id="rect5097"
     inkscape:connector-curvature="0" /><path
     inkscape:connector-curvature="0"
     id="path5085"
     style="fill:#e0e0e0;fill-opacity:1;stroke:none;stroke-width:0.10524074999999999;stroke-linecap:round;stroke-linejoin:round;stroke-miterlimit:4;stroke-opacity:1"
     d="m 12.510538,2.1667315 c 0,0.4183139 -0.33911,0.7574245 -0.757423,0.7574245 -0.418315,0 -0.757425,-0.3391106 -0.757425,-0.7574245 0,-0.4183141 0.33911,-0.7574245 0.757425,-0.7574245 0.418313,0 0.757423,0.3391104 0.757423,0.7574245 z M 16.385693,4.5431302 15.922212,3.9886574 C 15.667296,3.6836978 15.15592,3.2632897 14.785817,3.0544165 14.415717,2.8455446 14.094777,2.6138485 14.072617,2.5395374 14.050454,2.4652257 13.997548,2.2466551 13.955037,2.0538226 13.912526,1.86099 13.646708,1.4661821 13.364322,1.1764702 12.732443,0.52819342 12.077944,0.4177215 11.209518,0.49316972 10.588017,0.54716539 9.655738,1.5625709 9.5506998,2.0377928 9.5061262,2.2394423 9.4515297,2.4652279 9.4293804,2.5395374 9.4072173,2.6138497 9.0862817,2.8455446 8.7161804,3.0544165 8.3460778,3.2632897 7.838927,3.6786425 7.5891772,3.9774231 L 7.1350858,4.5206604 z" /><path
     inkscape:connector-curvature="0"
     style="fill:#ffffff;fill-opacity:1;stroke:none;stroke-width:0.17186004999999999;stroke-linecap:round;stroke-linejoin:round;stroke-miterlimit:4;stroke-opacity:1"
     d="m 4.9005642,4.5431291 13.7241498,0 c 0.761684,0 1.37488,0.6131966 1.37488,1.3748804 l 0,17.6591125 c 0,0.761684 -0.613196,1.37488 -1.37488,1.37488 l -13.7241498,0 c -0.7616837,0 -1.3748804,-0.613196 -1.3748804,-1.37488 l 0,-17.6591125 c 0,-0.7616838 0.6131967,-1.3748804 1.3748804,-1.3748804 z"
     id="path5174" /></g><g
   inkscape:groupmode="layer"
   id="layer3"
   inkscape:label="Paper"><g
     id="g5242"><path
       style="opacity:0.3"
       inkscape:connector-curvature="0"
       id="path2998"
       d="M 22.741525,6.906779 H 10.300848 c -0.4268712,0 -0.7775428,0.349894 -0.7775428,0.7775423 V 26.345338 c 0,0.427649 0.3506716,0.777543 0.7775428,0.777543 h 15.550847 c 0.428426,0 0.777542,-0.349894 0.777542,-0.777543 V 10.794491 L 22.741525,6.906779 z m 0.852187,15.528299 H 12.558831 c -0.429981,0 -0.777543,-0.347562 -0.777543,-0.777543 0,-0.429981 0.347562,-0.777542 0.777543,-0.777542 h 11.034103 c 0.429981,0 0.777543,0.347561 0.777543,0.777542 0,0.429981 -0.347562,0.777543 -0.776765,0.777543 z m 0,-3.11017 H 12.558831 c -0.429981,0 -0.777543,-0.347561 -0.777543,-0.777542 0,-0.429981 0.347562,-0.777543 0.777543,-0.777543 h 11.034103 c 0.429981,0 0.777543,0.347562 0.777543,0.777543 0,0.429981 -0.347562,0.777542 -0.776765,0.777542 z m 0,-3.110169 H 12.558831 c -0.429981,0 -0.777543,-0.347562 -0.777543,-0.777543 0,-0.429981 0.347562,-0.777542 0.777543,-0.777542 h 11.034103 c 0.429981,0 0.777543,0.347561 0.777543,0.777542 0,0.429981 -0.347562,0.777543 -0.776765,0.777543 z m 0,-3.11017 H 12.558831 c -0.429981,0 -0.777543,-0.347561 -0.777543,-0.777542 0,-0.429981 0.347562,-0.777543 0.777543,-0.777543 h 11.034103 c 0.429981,0 0.777543,0.347562 0.777543,0.777543 0,0.429981 -0.347562,0.777542 -0.776765,0.777542 z" /><path
       style="opacity:1;stroke:none;stroke-opacity:1;fill:#808080;fill-opacity:1"
       inkscape:connector-curvature="0"
       id="path3000"
       d="m 10.300848,28.677965 c -0.8576297,0 -1.5550852,-0.697455 -1.5550852,-1.555084 V 8.4618637 c 0,-0.8576292 0.6974555,-1.5550847 1.5550852,-1.5550847 h 12.440677 c 0.206827,0 0.404323,0.081642 0.549723,0.2278199 l 3.887712,3.8877121 c 0.146178,0.1454 0.22782,0.343673 0.22782,0.549722 v 15.550848 c 0,0.857629 -0.697456,1.555084 -1.555085,1.555084 H 10.300848 z m 2.257205,-6.242887 h 11.035659 -11.034881 -7.78e-4 z m 0,-3.11017 h 11.035659 -11.034881 -7.78e-4 z m 0,-3.110169 h 11.035659 -11.034881 -7.78e-4 z m 0,-3.11017 h 11.035659 -11.034881 -7.78e-4 z" /><path
       style="opacity:0.15"
       inkscape:connector-curvature="0"
       id="path3002"
       d="M 22.741525,7.6843213 H 10.300848 c -0.4268712,0 -0.7775428,0.3498941 -0.7775428,0.7775424 V 27.122881 c 0,0.427648 0.3506716,0.777542 0.7775428,0.777542 h 15.550847 c 0.428426,0 0.777542,-0.349894 0.777542,-0.777542 V 11.572033 L 22.741525,7.6843213 z M 23.593712,23.21262 H 12.558831 c -0.429981,0 -0.777543,-0.347561 -0.777543,-0.777542 0,-0.429981 0.347562,-0.777543 0.777543,-0.777543 h 11.034103 c 0.429981,0 0.777543,0.347562 0.777543,0.777543 0,0.429981 -0.347562,0.777542 -0.776765,0.777542 z m 0,-3.110169 H 12.558831 c -0.429981,0 -0.777543,-0.347562 -0.777543,-0.777543 0,-0.429981 0.347562,-0.777542 0.777543,-0.777542 h 11.034103 c 0.429981,0 0.777543,0.347561 0.777543,0.777542 0,0.429981 -0.347562,0.777543 -0.776765,0.777543 z m 0,-3.11017 H 12.558831 c -0.429981,0 -0.777543,-0.347561 -0.777543,-0.777542 0,-0.429981 0.347562,-0.777543 0.777543,-0.777543 h 11.034103 c 0.429981,0 0.777543,0.347562 0.777543,0.777543 0,0.429981 -0.347562,0.777542 -0.776765,0.777542 z m 0,-3.110169 H 12.558831 c -0.429981,0 -0.777543,-0.347562 -0.777543,-0.777543 0,-0.429981 0.347562,-0.777542 0.777543,-0.777542 h 11.034103 c 0.429981,0 0.777543,0.347561 0.777543,0.777542 0,0.429981 -0.347562,0.777543 -0.776765,0.777543 z" /><path
       style="fill:#ffffff"
       inkscape:connector-curvature="0"
       id="path3004"
       d="M 22.741525,7.6843213 H 10.300848 c -0.4268712,0 -0.7775428,0.3498941 -0.7775428,0.7775424 V 27.122881 c 0,0.427648 0.3506716,0.777542 0.7775428,0.777542 h 15.550847 c 0.428426,0 0.777542,-0.349894 0.777542,-0.777542 V 11.572033 L 22.741525,7.6843213 z M 23.593712,23.21262 H 12.558831 c -0.429981,0 -0.777543,-0.347561 -0.777543,-0.777542 0,-0.429981 0.347562,-0.777543 0.777543,-0.777543 h 11.034103 c 0.429981,0 0.777543,0.347562 0.777543,0.777543 0,0.429981 -0.347562,0.777542 -0.776765,0.777542 z m 0,-3.110169 H 12.558831 c -0.429981,0 -0.777543,-0.347562 -0.777543,-0.777543 0,-0.429981 0.347562,-0.777542 0.777543,-0.777542 h 11.034103 c 0.429981,0 0.777543,0.347561 0.777543,0.777542 0,0.429981 -0.347562,0.777543 -0.776765,0.777543 z m 0,-3.11017 H 12.558831 c -0.429981,0 -0.777543,-0.347561 -0.777543,-0.777542 0,-0.429981 0.347562,-0.777543 0.777543,-0.777543 h 11.034103 c 0.429981,0 0.777543,0.347562 0.777543,0.777543 0,0.429981 -0.347562,0.777542 -0.776765,0.777542 z m 0,-3.110169 H 12.558831 c -0.429981,0 -0.777543,-0.347562 -0.777543,-0.777543 0,-0.429981 0.347562,-0.777542 0.777543,-0.777542 h 11.034103 c 0.429981,0 0.777543,0.347561 0.777543,0.777542 0,0.429981 -0.347562,0.777543 -0.776765,0.777543 z" /></g></g></svg>