<?xml version="1.0"?>
<!-- Converted with SVG Converter - Version 0.9.5 (Compiled Mon May 30 09:08:51 2011) - Copyright (C) 2011 Nokia -->
<svg xmlns="http://www.w3.org/2000/svg" width="30px" x="0px" y="0px" version="1.1" viewBox="0 0 30 30" height="30px" xmlns:xlink="http://www.w3.org/1999/xlink" baseProfile="tiny" id="svg2" xml:space="preserve">
 <metadata id="metadata19"/>
 <defs id="defs17">
  <linearGradient id="linearGradient5110">
   <stop offset="0" style="stop-color:#a0a0a0;stop-opacity:1;" id="stop5112"/>
   <stop offset="1" style="stop-color:#a0a0a0;stop-opacity:0;" id="stop5114"/>
  </linearGradient>
  <linearGradient id="linearGradient5116" y1="0.70204097" x1="-22.676054" y2="3.7296867" x2="-22.71685" gradientUnits="userSpaceOnUse">
   <stop offset="0" style="stop-color:#a0a0a0;stop-opacity:1;" id="stop5112"/>
   <stop offset="1" style="stop-color:#a0a0a0;stop-opacity:0;" id="stop5114"/>
  </linearGradient>
  <linearGradient id="linearGradient5116-1" y1="0.70204097" x1="-22.676054" y2="3.7296867" x2="-22.71685" gradientUnits="userSpaceOnUse">
   <stop offset="0" style="stop-color:#ffffff;stop-opacity:1;" id="stop5112-4"/>
   <stop offset="1" style="stop-color:#a0a0a0;stop-opacity:1;" id="stop5114-0"/>
  </linearGradient>
  <linearGradient id="linearGradient5110-7">
   <stop offset="0" style="stop-color:#ffffff;stop-opacity:1;" id="stop5112-4"/>
   <stop offset="1" style="stop-color:#a0a0a0;stop-opacity:1;" id="stop5114-0"/>
  </linearGradient>
  <linearGradient gradientTransform="matrix(1.0313745,0,0,0.93761311,11.316286,-2.9899947)" id="linearGradient5135" y1="0.70204097" y2="3.7296867" x1="-22.676054" x2="-22.71685" gradientUnits="userSpaceOnUse">
   <stop offset="0" style="stop-color:#ffffff;stop-opacity:1;" id="stop5112-4"/>
   <stop offset="1" style="stop-color:#a0a0a0;stop-opacity:1;" id="stop5114-0"/>
  </linearGradient>
  <linearGradient gradientTransform="matrix(1.0313745,0,0,0.93761311,11.316286,-2.9899947)" id="linearGradient5200" y1="0.70204097" x1="-22.676054" y2="3.7296867" gradientUnits="userSpaceOnUse" x2="-22.71685">
   <stop offset="0" style="stop-color:#ffffff;stop-opacity:1;" id="stop5112-4"/>
   <stop offset="1" style="stop-color:#a0a0a0;stop-opacity:1;" id="stop5114-0"/>
  </linearGradient>
 </defs>
 <g id="DO_NOT_EDIT_-_BOUNDING_BOX">
  <rect width="30" fill="none" height="30" id="BOUNDING_BOX"/>
 </g>
 <g style="display:inline" id="layer2"/>
 <g id="layer1">
  <path style="fill:#808080;fill-opacity:1;stroke:none;display:inline" id="rect5097" d="M 11.696976,0.15106221 C 10.458407,0.14674509 9.5175047,0.79136189 9.2479704,1.8266977 8.7224856,2.9786987 8.406347,2.7693343 7.151139,2.98244 l -3.1878651,0 c -0.8642595,0 -1.5467405,0.8136305 -1.5467405,1.6799485 l 0,20.0646615 c 0,0.866317 0.682481,1.54674 1.5467405,1.54674 l 15.5533341,0 c 0.86426,0 1.589706,-0.680423 1.589706,-1.54674 l 0,-20.0646615 c 0,-0.866318 -0.760984,-1.6799485 -1.625243,-1.6799485 l -3.249913,0 C 14.879715,2.9579797 14.951615,2.6739576 14.274877,1.9126277 13.975263,0.80831966 13.019857,0.15573681 11.696976,0.15106221 z"/>
  <path style="fill:#e0e0e0;fill-opacity:1;stroke:none;stroke-width:0.10524074999999999;stroke-linecap:round;stroke-linejoin:round;stroke-miterlimit:4;stroke-opacity:1" id="path5085" d="m 12.510538,2.1667315 c 0,0.4183139 -0.33911,0.7574245 -0.757423,0.7574245 -0.418315,0 -0.757425,-0.3391106 -0.757425,-0.7574245 0,-0.4183141 0.33911,-0.7574245 0.757425,-0.7574245 0.418313,0 0.757423,0.3391104 0.757423,0.7574245 z M 16.385693,4.5431302 15.922212,3.9886574 C 15.667296,3.6836978 15.15592,3.2632897 14.785817,3.0544165 14.415717,2.8455446 14.094777,2.6138485 14.072617,2.5395374 14.050454,2.4652257 13.997548,2.2466551 13.955037,2.0538226 13.912526,1.86099 13.646708,1.4661821 13.364322,1.1764702 12.732443,0.52819342 12.077944,0.4177215 11.209518,0.49316972 10.588017,0.54716539 9.655738,1.5625709 9.5506998,2.0377928 9.5061262,2.2394423 9.4515297,2.4652279 9.4293804,2.5395374 9.4072173,2.6138497 9.0862817,2.8455446 8.7161804,3.0544165 8.3460778,3.2632897 7.838927,3.6786425 7.5891772,3.9774231 L 7.1350858,4.5206604 z"/>
  <path style="fill:#ffffff;fill-opacity:1;stroke:none;stroke-width:0.17186004999999999;stroke-linecap:round;stroke-linejoin:round;stroke-miterlimit:4;stroke-opacity:1" id="path5174" d="m 4.9005642,4.5431291 13.7241498,0 c 0.761684,0 1.37488,0.6131966 1.37488,1.3748804 l 0,17.6591125 c 0,0.761684 -0.613196,1.37488 -1.37488,1.37488 l -13.7241498,0 c -0.7616837,0 -1.3748804,-0.613196 -1.3748804,-1.37488 l 0,-17.6591125 c 0,-0.7616838 0.6131967,-1.3748804 1.3748804,-1.3748804 z"/>
 </g>
 <g id="layer3">
  <g id="g5242">
   <path style="opacity:0.3" id="path2998" d="M 22.741525,6.906779 H 10.300848 c -0.4268712,0 -0.7775428,0.349894 -0.7775428,0.7775423 V 26.345338 c 0,0.427649 0.3506716,0.777543 0.7775428,0.777543 h 15.550847 c 0.428426,0 0.777542,-0.349894 0.777542,-0.777543 V 10.794491 L 22.741525,6.906779 z m 0.852187,15.528299 H 12.558831 c -0.429981,0 -0.777543,-0.347562 -0.777543,-0.777543 0,-0.429981 0.347562,-0.777542 0.777543,-0.777542 h 11.034103 c 0.429981,0 0.777543,0.347561 0.777543,0.777542 0,0.429981 -0.347562,0.777543 -0.776765,0.777543 z m 0,-3.11017 H 12.558831 c -0.429981,0 -0.777543,-0.347561 -0.777543,-0.777542 0,-0.429981 0.347562,-0.777543 0.777543,-0.777543 h 11.034103 c 0.429981,0 0.777543,0.347562 0.777543,0.777543 0,0.429981 -0.347562,0.777542 -0.776765,0.777542 z m 0,-3.110169 H 12.558831 c -0.429981,0 -0.777543,-0.347562 -0.777543,-0.777543 0,-0.429981 0.347562,-0.777542 0.777543,-0.777542 h 11.034103 c 0.429981,0 0.777543,0.347561 0.777543,0.777542 0,0.429981 -0.347562,0.777543 -0.776765,0.777543 z m 0,-3.11017 H 12.558831 c -0.429981,0 -0.777543,-0.347561 -0.777543,-0.777542 0,-0.429981 0.347562,-0.777543 0.777543,-0.777543 h 11.034103 c 0.429981,0 0.777543,0.347562 0.777543,0.777543 0,0.429981 -0.347562,0.777542 -0.776765,0.777542 z"/>
   <path style="opacity:1;stroke:none;stroke-opacity:1;fill:#808080;fill-opacity:1" id="path3000" d="m 10.300848,28.677965 c -0.8576297,0 -1.5550852,-0.697455 -1.5550852,-1.555084 V 8.4618637 c 0,-0.8576292 0.6974555,-1.5550847 1.5550852,-1.5550847 h 12.440677 c 0.206827,0 0.404323,0.081642 0.549723,0.2278199 l 3.887712,3.8877121 c 0.146178,0.1454 0.22782,0.343673 0.22782,0.549722 v 15.550848 c 0,0.857629 -0.697456,1.555084 -1.555085,1.555084 H 10.300848 z m 2.257205,-6.242887 h 11.035659 -11.034881 -7.78e-4 z m 0,-3.11017 h 11.035659 -11.034881 -7.78e-4 z m 0,-3.110169 h 11.035659 -11.034881 -7.78e-4 z m 0,-3.11017 h 11.035659 -11.034881 -7.78e-4 z"/>
   <path style="opacity:0.15" id="path3002" d="M 22.741525,7.6843213 H 10.300848 c -0.4268712,0 -0.7775428,0.3498941 -0.7775428,0.7775424 V 27.122881 c 0,0.427648 0.3506716,0.777542 0.7775428,0.777542 h 15.550847 c 0.428426,0 0.777542,-0.349894 0.777542,-0.777542 V 11.572033 L 22.741525,7.6843213 z M 23.593712,23.21262 H 12.558831 c -0.429981,0 -0.777543,-0.347561 -0.777543,-0.777542 0,-0.429981 0.347562,-0.777543 0.777543,-0.777543 h 11.034103 c 0.429981,0 0.777543,0.347562 0.777543,0.777543 0,0.429981 -0.347562,0.777542 -0.776765,0.777542 z m 0,-3.110169 H 12.558831 c -0.429981,0 -0.777543,-0.347562 -0.777543,-0.777543 0,-0.429981 0.347562,-0.777542 0.777543,-0.777542 h 11.034103 c 0.429981,0 0.777543,0.347561 0.777543,0.777542 0,0.429981 -0.347562,0.777543 -0.776765,0.777543 z m 0,-3.11017 H 12.558831 c -0.429981,0 -0.777543,-0.347561 -0.777543,-0.777542 0,-0.429981 0.347562,-0.777543 0.777543,-0.777543 h 11.034103 c 0.429981,0 0.777543,0.347562 0.777543,0.777543 0,0.429981 -0.347562,0.777542 -0.776765,0.777542 z m 0,-3.110169 H 12.558831 c -0.429981,0 -0.777543,-0.347562 -0.777543,-0.777543 0,-0.429981 0.347562,-0.777542 0.777543,-0.777542 h 11.034103 c 0.429981,0 0.777543,0.347561 0.777543,0.777542 0,0.429981 -0.347562,0.777543 -0.776765,0.777543 z"/>
   <path style="fill:#ffffff" id="path3004" d="M 22.741525,7.6843213 H 10.300848 c -0.4268712,0 -0.7775428,0.3498941 -0.7775428,0.7775424 V 27.122881 c 0,0.427648 0.3506716,0.777542 0.7775428,0.777542 h 15.550847 c 0.428426,0 0.777542,-0.349894 0.777542,-0.777542 V 11.572033 L 22.741525,7.6843213 z M 23.593712,23.21262 H 12.558831 c -0.429981,0 -0.777543,-0.347561 -0.777543,-0.777542 0,-0.429981 0.347562,-0.777543 0.777543,-0.777543 h 11.034103 c 0.429981,0 0.777543,0.347562 0.777543,0.777543 0,0.429981 -0.347562,0.777542 -0.776765,0.777542 z m 0,-3.110169 H 12.558831 c -0.429981,0 -0.777543,-0.347562 -0.777543,-0.777543 0,-0.429981 0.347562,-0.777542 0.777543,-0.777542 h 11.034103 c 0.429981,0 0.777543,0.347561 0.777543,0.777542 0,0.429981 -0.347562,0.777543 -0.776765,0.777543 z m 0,-3.11017 H 12.558831 c -0.429981,0 -0.777543,-0.347561 -0.777543,-0.777542 0,-0.429981 0.347562,-0.777543 0.777543,-0.777543 h 11.034103 c 0.429981,0 0.777543,0.347562 0.777543,0.777543 0,0.429981 -0.347562,0.777542 -0.776765,0.777542 z m 0,-3.110169 H 12.558831 c -0.429981,0 -0.777543,-0.347562 -0.777543,-0.777543 0,-0.429981 0.347562,-0.777542 0.777543,-0.777542 h 11.034103 c 0.429981,0 0.777543,0.347561 0.777543,0.777542 0,0.429981 -0.347562,0.777543 -0.776765,0.777543 z"/>
  </g>
 </g>
</svg>
