<?xml version="1.0" encoding="UTF-8" standalone="no"?>
<!-- Generator: Adobe Illustrator 15.0.0, SVG Export Plug-In . SVG Version: 6.00 Build 0)  -->

<svg
   xmlns:dc="http://purl.org/dc/elements/1.1/"
   xmlns:cc="http://creativecommons.org/ns#"
   xmlns:rdf="http://www.w3.org/1999/02/22-rdf-syntax-ns#"
   xmlns:svg="http://www.w3.org/2000/svg"
   xmlns="http://www.w3.org/2000/svg"
   xmlns:sodipodi="http://sodipodi.sourceforge.net/DTD/sodipodi-0.dtd"
   xmlns:inkscape="http://www.inkscape.org/namespaces/inkscape"
   version="1.1"
   x="0px"
   y="0px"
   width="48"
   height="48"
   viewBox="0 0 48 48"
   enable-background="new 0 0 67 57"
   xml:space="preserve"
   id="svg2"
   inkscape:version="0.48.2 r9819"
   sodipodi:docname="photos_list.svg"><metadata
   id="metadata31"><rdf:RDF><cc:Work
       rdf:about=""><dc:format>image/svg+xml</dc:format><dc:type
         rdf:resource="http://purl.org/dc/dcmitype/StillImage" /></cc:Work></rdf:RDF></metadata><defs
   id="defs29" /><sodipodi:namedview
   pagecolor="#ffffff"
   bordercolor="#666666"
   borderopacity="1"
   objecttolerance="10"
   gridtolerance="10"
   guidetolerance="10"
   inkscape:pageopacity="0"
   inkscape:pageshadow="2"
   inkscape:window-width="1920"
   inkscape:window-height="955"
   id="namedview27"
   showgrid="false"
   inkscape:zoom="4.1403509"
   inkscape:cx="4.6377119"
   inkscape:cy="28.5"
   inkscape:window-x="-4"
   inkscape:window-y="-4"
   inkscape:window-maximized="1"
   inkscape:current-layer="svg2" />

<g
   id="PLACE_YOUR_GRAPHIC_HERE"
   transform="translate(-9.5,-4.068)">
	<path
   d="m 50.5,27.845 -7,-4.702 c 0,0 -0.348,-0.32 -0.788,-0.32 -0.442,0 -0.79,0.32 -0.79,0.32 l -10.421,7.029 -0.001,0.002 -7,-4.352 c 0,0 -0.348,-0.32 -0.789,-0.32 -0.441,0 -0.79,0.32 -0.79,0.32 L 16.5,31.314 v 10.754 h 34 V 27.845 z m 3,-16.777 h -40 c -1.101,0 -2,0.9 -2,2 v 32 c 0,1.1 0.899,2 2,2 h 40 c 1.1,0 2,-0.9 2,-2 v -32 c 0,-1.1 -0.9,-2 -2,-2 z m -1,33 h -38 v -30 h 38 v 30 z"
   id="path7"
   inkscape:connector-curvature="0"
   style="opacity:0.3" />
	<rect
   x="16.381001"
   y="16.445999"
   width="30"
   height="30"
   id="rect9"
   style="fill:none" />
	<path
   d="m 13.5,47.068 c -1.654,0 -3,-1.346 -3,-3 v -32 c 0,-1.654 1.346,-3 3,-3 h 40 c 1.654,0 3,1.346 3,3 v 32 c 0,1.654 -1.346,3 -3,3 h -40 z m 38,-5 v -1 c 0,0.553 -0.447,1 -1,1 h 1 z m -35,0 c -0.552,0 -1,-0.447 -1,-1 V 30.314 c 0,-0.292 0.128,-0.57 0.35,-0.76 l 6.421,-5.493 c 0.08,-0.075 0.65,-0.561 1.44,-0.561 0.661,0 1.167,0.339 1.377,0.508 l 6.389,3.972 9.839,-6.637 c 0.199,-0.164 0.715,-0.522 1.396,-0.522 0.678,0 1.192,0.358 1.393,0.522 l 6.953,4.67 c 0.276,0.186 0.442,0.497 0.442,0.83 V 14.068 h -36 v 28 h 1 z"
   id="path11"
   inkscape:connector-curvature="0"
   style="opacity:0.15" />
	<path
   d="m 50.5,26.845 -7,-4.702 c 0,0 -0.348,-0.32 -0.788,-0.32 -0.442,0 -0.79,0.32 -0.79,0.32 l -10.421,7.029 -0.001,0.002 -7,-4.352 c 0,0 -0.348,-0.32 -0.789,-0.32 -0.441,0 -0.79,0.32 -0.79,0.32 L 16.5,30.314 v 10.754 h 34 V 26.845 z m 3,-16.777 h -40 c -1.101,0 -2,0.9 -2,2 v 32 c 0,1.1 0.899,2 2,2 h 40 c 1.1,0 2,-0.9 2,-2 v -32 c 0,-1.1 -0.9,-2 -2,-2 z m -1,33 h -38 v -30 h 38 v 30 z"
   id="path13"
   inkscape:connector-curvature="0"
   style="opacity:0.15" />
	<linearGradient
   id="SVGID_1_"
   gradientUnits="userSpaceOnUse"
   x1="33.5005"
   y1="46.068401"
   x2="33.5005"
   y2="10.0684">
		<stop
   offset="0"
   style="stop-color:#D0CBC5"
   id="stop16" />
		<stop
   offset="0.5031"
   style="stop-color:#FAFCEF"
   id="stop18" />
		<stop
   offset="0.9693"
   style="stop-color:#FFFFFF"
   id="stop20" />
	</linearGradient>
	<path
   d="m 50.5,26.845 -7,-4.702 c 0,0 -0.348,-0.32 -0.788,-0.32 -0.442,0 -0.79,0.32 -0.79,0.32 l -10.421,7.029 -0.001,0.002 -7,-4.352 c 0,0 -0.348,-0.32 -0.789,-0.32 -0.441,0 -0.79,0.32 -0.79,0.32 L 16.5,30.314 v 10.754 h 34 V 26.845 z m 3,-16.777 h -40 c -1.101,0 -2,0.9 -2,2 v 32 c 0,1.1 0.899,2 2,2 h 40 c 1.1,0 2,-0.9 2,-2 v -32 c 0,-1.1 -0.9,-2 -2,-2 z m -1,33 h -38 v -30 h 38 v 30 z"
   id="path22"
   inkscape:connector-curvature="0"
   style="fill:url(#SVGID_1_)" />
	<path
   d="m 50.5,26.845 v 1 l -7,-4.702 c 0,0 -0.348,-0.32 -0.788,-0.32 -0.442,0 -0.79,0.32 -0.79,0.32 l -10.421,7.029 -0.001,0.002 -7,-4.352 c 0,0 -0.348,-0.32 -0.789,-0.32 -0.441,0 -0.79,0.32 -0.79,0.32 L 16.5,31.314 v -1 l 6.421,-5.493 c 0,0 0.349,-0.32 0.79,-0.32 0.441,0 0.789,0.32 0.789,0.32 l 7,4.352 0.001,-0.002 10.421,-7.029 c 0,0 0.348,-0.32 0.79,-0.32 0.44,0 0.788,0.32 0.788,0.32 l 7,4.703 z m 2,17.223 v -1 h -38 v 1 h 38 z m 1,-34 h -40 c -1.101,0 -2,0.9 -2,2 v 1 c 0,-1.1 0.899,-2 2,-2 h 40 c 1.1,0 2,0.9 2,2 v -1 c 0,-1.1 -0.9,-2 -2,-2 z"
   id="path24"
   inkscape:connector-curvature="0"
   style="fill:#ffffff" />
</g>
<g
   id="DO_NOT_EDIT_-_FOCAL_ZONE_GUIDES"
   transform="translate(0,-9)">
</g>
</svg>