<?xml version="1.0" encoding="UTF-8" standalone="no"?>
<!-- Generator: Adobe Illustrator 15.0.0, SVG Export Plug-In . SVG Version: 6.00 Build 0)  -->

<svg
   xmlns:dc="http://purl.org/dc/elements/1.1/"
   xmlns:cc="http://creativecommons.org/ns#"
   xmlns:rdf="http://www.w3.org/1999/02/22-rdf-syntax-ns#"
   xmlns:svg="http://www.w3.org/2000/svg"
   xmlns="http://www.w3.org/2000/svg"
   xmlns:xlink="http://www.w3.org/1999/xlink"
   xmlns:sodipodi="http://sodipodi.sourceforge.net/DTD/sodipodi-0.dtd"
   xmlns:inkscape="http://www.inkscape.org/namespaces/inkscape"
   version="1.1"
   x="0px"
   y="0px"
   width="48"
   height="48"
   viewBox="0 0 48 48"
   enable-background="new 0 0 67 57"
   xml:space="preserve"
   id="svg2"
   inkscape:version="0.48.2 r9819"
   sodipodi:docname="photos_list_inverted.svg"><metadata
   id="metadata31"><rdf:RDF><cc:Work
       rdf:about=""><dc:format>image/svg+xml</dc:format><dc:type
         rdf:resource="http://purl.org/dc/dcmitype/StillImage" /></cc:Work></rdf:RDF></metadata><defs
   id="defs29">
	
	
	
	
	<linearGradient
   y2="10.0684"
   x2="33.5005"
   y1="46.068401"
   x1="33.5005"
   gradientUnits="userSpaceOnUse"
   id="SVGID_1_">
		<stop
   id="stop16"
   style="stop-color:#D0CBC5"
   offset="0" />
		<stop
   id="stop18"
   style="stop-color:#FAFCEF"
   offset="0.5031" />
		<stop
   id="stop20"
   style="stop-color:#FFFFFF"
   offset="0.9693" />
	</linearGradient>
	
	
<linearGradient
   inkscape:collect="always"
   xlink:href="#SVGID_1_"
   id="linearGradient2999"
   gradientUnits="userSpaceOnUse"
   x1="33.5005"
   y1="46.068401"
   x2="33.5005"
   y2="10.0684"
   gradientTransform="translate(-9.5,-4.068)" /></defs><sodipodi:namedview
   pagecolor="#ffffff"
   bordercolor="#666666"
   borderopacity="1"
   objecttolerance="10"
   gridtolerance="10"
   guidetolerance="10"
   inkscape:pageopacity="0"
   inkscape:pageshadow="2"
   inkscape:window-width="1890"
   inkscape:window-height="985"
   id="namedview27"
   showgrid="false"
   inkscape:zoom="16.833333"
   inkscape:cx="14.821782"
   inkscape:cy="24"
   inkscape:window-x="26"
   inkscape:window-y="-4"
   inkscape:window-maximized="1"
   inkscape:current-layer="svg2" />

<path
   style="opacity:0.3"
   inkscape:connector-curvature="0"
   id="path7"
   d="m 41,23.777 -7,-4.702 c 0,0 -0.348,-0.32 -0.788,-0.32 -0.442,0 -0.79,0.32 -0.79,0.32 L 22.001,26.104 22,26.106 15,21.754 c 0,0 -0.348,-0.32 -0.789,-0.32 -0.441,0 -0.79,0.32 -0.79,0.32 L 7,27.246 V 38 H 41 V 23.777 z M 44,7 H 4 C 2.899,7 2,7.9 2,9 v 32 c 0,1.1 0.899,2 2,2 h 40 c 1.1,0 2,-0.9 2,-2 V 9 C 46,7.9 45.1,7 44,7 z M 43,40 H 5 V 10 h 38 v 30 z" /><rect
   style="fill:none"
   id="rect9"
   height="30"
   width="30"
   y="12.377999"
   x="6.8810005" /><path
   style="opacity:0.51569507"
   inkscape:connector-curvature="0"
   id="path11"
   d="M 4,43 C 2.346,43 1,41.654 1,40 V 8 C 1,6.346 2.346,5 4,5 h 40 c 1.654,0 3,1.346 3,3 v 32 c 0,1.654 -1.346,3 -3,3 H 4 z m 38,-5 v -1 c 0,0.553 -0.447,1 -1,1 h 1 z M 7,38 C 6.448,38 6,37.553 6,37 V 26.246 c 0,-0.292 0.128,-0.57 0.35,-0.76 l 6.421,-5.493 c 0.08,-0.075 0.65,-0.561 1.44,-0.561 0.661,0 1.167,0.339 1.377,0.508 l 6.389,3.972 9.839,-6.637 c 0.199,-0.164 0.715,-0.522 1.396,-0.522 0.678,0 1.192,0.358 1.393,0.522 l 6.953,4.67 C 41.834,22.131 42,22.442 42,22.775 V 10 H 6 v 28 h 1 z" /><path
   style="opacity:0.15"
   inkscape:connector-curvature="0"
   id="path13"
   d="m 41,22.777 -7,-4.702 c 0,0 -0.348,-0.32 -0.788,-0.32 -0.442,0 -0.79,0.32 -0.79,0.32 L 22.001,25.104 22,25.106 15,20.754 c 0,0 -0.348,-0.32 -0.789,-0.32 -0.441,0 -0.79,0.32 -0.79,0.32 L 7,26.246 V 37 H 41 V 22.777 z M 44,6 H 4 C 2.899,6 2,6.9 2,8 v 32 c 0,1.1 0.899,2 2,2 h 40 c 1.1,0 2,-0.9 2,-2 V 8 C 46,6.9 45.1,6 44,6 z M 43,39 H 5 V 9 h 38 v 30 z" /><path
   style="fill:url(#linearGradient2999)"
   inkscape:connector-curvature="0"
   id="path22"
   d="m 41,22.777 -7,-4.702 c 0,0 -0.348,-0.32 -0.788,-0.32 -0.442,0 -0.79,0.32 -0.79,0.32 L 22.001,25.104 22,25.106 15,20.754 c 0,0 -0.348,-0.32 -0.789,-0.32 -0.441,0 -0.79,0.32 -0.79,0.32 L 7,26.246 V 37 H 41 V 22.777 z M 44,6 H 4 C 2.899,6 2,6.9 2,8 v 32 c 0,1.1 0.899,2 2,2 h 40 c 1.1,0 2,-0.9 2,-2 V 8 C 46,6.9 45.1,6 44,6 z M 43,39 H 5 V 9 h 38 v 30 z" /><path
   style="fill:#ffffff"
   inkscape:connector-curvature="0"
   id="path24"
   d="m 41,22.777 v 1 l -7,-4.702 c 0,0 -0.348,-0.32 -0.788,-0.32 -0.442,0 -0.79,0.32 -0.79,0.32 L 22.001,26.104 22,26.106 15,21.754 c 0,0 -0.348,-0.32 -0.789,-0.32 -0.441,0 -0.79,0.32 -0.79,0.32 L 7,27.246 v -1 l 6.421,-5.493 c 0,0 0.349,-0.32 0.79,-0.32 0.441,0 0.789,0.32 0.789,0.32 l 7,4.352 0.001,-0.002 10.421,-7.029 c 0,0 0.348,-0.32 0.79,-0.32 0.44,0 0.788,0.32 0.788,0.32 l 7,4.703 z M 43,40 V 39 H 5 v 1 H 43 z M 44,6 H 4 C 2.899,6 2,6.9 2,8 V 9 C 2,7.9 2.899,7 4,7 h 40 c 1.1,0 2,0.9 2,2 V 8 C 46,6.9 45.1,6 44,6 z" />
<g
   id="DO_NOT_EDIT_-_FOCAL_ZONE_GUIDES"
   transform="translate(0,-9)">
</g>
</svg>