<?xml version="1.0" encoding="UTF-8" standalone="no"?>
<!-- Converted with SVG Converter - Version 0.9.5 (Compiled Mon May 30 09:08:51 2011) - Copyright (C) 2011 Nokia -->

<svg
   xmlns:dc="http://purl.org/dc/elements/1.1/"
   xmlns:cc="http://creativecommons.org/ns#"
   xmlns:rdf="http://www.w3.org/1999/02/22-rdf-syntax-ns#"
   xmlns:svg="http://www.w3.org/2000/svg"
   xmlns="http://www.w3.org/2000/svg"
   xmlns:sodipodi="http://sodipodi.sourceforge.net/DTD/sodipodi-0.dtd"
   xmlns:inkscape="http://www.inkscape.org/namespaces/inkscape"
   width="30px"
   x="0px"
   version="1.1"
   y="0px"
   height="30px"
   viewBox="0 0 30 30"
   xml:space="preserve"
   id="svg2"
   inkscape:version="0.48.2 r9819"
   sodipodi:docname="photos_inverted.svg"><metadata
   id="metadata19"><rdf:RDF><cc:Work
       rdf:about=""><dc:format>image/svg+xml</dc:format><dc:type
         rdf:resource="http://purl.org/dc/dcmitype/StillImage" /></cc:Work></rdf:RDF></metadata><defs
   id="defs17">
  
  
  
  
 </defs><sodipodi:namedview
   pagecolor="#ffffff"
   bordercolor="#666666"
   borderopacity="1"
   objecttolerance="10"
   gridtolerance="10"
   guidetolerance="10"
   inkscape:pageopacity="0"
   inkscape:pageshadow="2"
   inkscape:window-width="1920"
   inkscape:window-height="955"
   id="namedview15"
   showgrid="false"
   inkscape:zoom="25.933333"
   inkscape:cx="9.0424165"
   inkscape:cy="15"
   inkscape:window-x="-4"
   inkscape:window-y="-4"
   inkscape:window-maximized="1"
   inkscape:current-layer="svg2" />
 <g
   id="DO_NOT_EDIT_-_BOUNDING_BOX">
  <rect
   width="30"
   fill="none"
   height="30"
   id="BOUNDING_BOX" />
 </g>
 <path
   style="fill-opacity:0.3;stroke-opacity:0.3"
   inkscape:connector-curvature="0"
   id="path7"
   d="m 24.5,16.5 -5.146,-5.146 c -0.194,-0.193 -0.513,-0.193 -0.707,0 L 13.5,16.5 10.354,13.354 c -0.194,-0.193 -0.513,-0.193 -0.707,0 L 5.5,17.5 v 4 h 19 v -5 z M 27,5 H 3 C 2.45,5 2,5.451 2,6 v 18 c 0,0.551 0.45,1 1,1 h 24 c 0.55,0 1,-0.449 1,-1 V 6 C 28,5.451 27.55,5 27,5 z M 26,23 H 4 V 7 h 22 v 16 z" /><path
   style="fill-opacity:0.15;stroke-opacity:0.15"
   inkscape:connector-curvature="0"
   id="path9"
   d="M 3,27 C 1.897,27 1,26.103 1,25 V 7 C 1,5.897 1.897,5 3,5 h 24 c 1.103,0 2,0.897 2,2 v 18 c 0,1.103 -0.897,2 -2,2 H 3 z" /><path
   style="fill-opacity:0.15;stroke-opacity:0.15"
   inkscape:connector-curvature="0"
   id="path11"
   d="m 24.5,17.5 -5.146,-5.146 c -0.194,-0.193 -0.513,-0.193 -0.707,0 L 13.5,17.5 10.354,14.354 c -0.194,-0.193 -0.513,-0.193 -0.707,0 L 5.5,18.5 v 4 h 19 v -5 z M 27,6 H 3 C 2.45,6 2,6.451 2,7 v 18 c 0,0.551 0.45,1 1,1 h 24 c 0.55,0 1,-0.449 1,-1 V 7 C 28,6.451 27.55,6 27,6 z M 26,24 H 4 V 8 h 22 v 16 z" /><path
   style="fill:#000000;fill-opacity:1"
   inkscape:connector-curvature="0"
   id="path13"
   d="m 24.5,17.5 -5.146,-5.146 c -0.194,-0.193 -0.513,-0.193 -0.707,0 L 13.5,17.5 10.354,14.354 c -0.194,-0.193 -0.513,-0.193 -0.707,0 L 5.5,18.5 v 4 h 19 v -5 z M 27,6 H 3 C 2.45,6 2,6.451 2,7 v 18 c 0,0.551 0.45,1 1,1 h 24 c 0.55,0 1,-0.449 1,-1 V 7 C 28,6.451 27.55,6 27,6 z M 26,24 H 4 V 8 h 22 v 16 z" />
</svg>