<?xml version="1.0"?>
<!-- Converted with SVG Converter - Version 0.9.5 (Compiled Mon May 30 09:08:51 2011) - Copyright (C) 2011 Nokia -->
<svg xmlns="http://www.w3.org/2000/svg" width="30px" x="0px" version="1.1" y="0px" height="30px" viewBox="0 0 30 30" xmlns:xlink="http://www.w3.org/1999/xlink" baseProfile="tiny" xml:space="preserve">
 <g id="DO_NOT_EDIT_-_BOUNDING_BOX">
  <rect width="30" fill="none" height="30" id="BOUNDING_BOX"/>
 </g>
 <g id="PLACE_YOUR_GRAPHIC_HERE">
  <path stroke-opacity="0.3" fill-opacity="0.3" d="M6,28h18v-7H6V28z M24,1H6v9h18V1z M28,12H2c-0.551,0-1,0.45-1,1v11c0,0.55,0.449,1,1,1h2v-6h22v6h2&#xd;&#xa;&#x9;&#x9;c0.549,0,1-0.45,1-1V13C29,12.45,28.549,12,28,12z"/>
  <path stroke-opacity="0.15" fill-opacity="0.15" d="M28,12h-3V2c0-0.552-0.447-1-1-1H6C5.448,1,5,1.448,5,2v10H2c-1.103,0-2,0.897-2,2v11c0,1.103,0.897,2,2,2&#xd;&#xa;&#x9;&#x9;h3v2c0,0.553,0.448,1,1,1h18c0.553,0,1-0.447,1-1v-2h3c1.103,0,2-0.897,2-2V14C30,12.897,29.103,12,28,12z"/>
  <path stroke-opacity="0.15" fill-opacity="0.15" d="M6,29h18v-7H6V29z M24,2H6v9h18V2z M28,13H2c-0.551,0-1,0.45-1,1v11c0,0.55,0.449,1,1,1h2v-6h22v6h2&#xd;&#xa;&#x9;&#x9;c0.549,0,1-0.45,1-1V14C29,13.45,28.549,13,28,13z"/>
  <path fill="#FFFFFF" d="M6,29h18v-7H6V29z M24,2H6v9h18V2z M28,13H2c-0.551,0-1,0.45-1,1v11c0,0.55,0.449,1,1,1h2v-6h22v6h2&#xd;&#xa;&#x9;&#x9;c0.549,0,1-0.45,1-1V14C29,13.45,28.549,13,28,13z"/>
 </g>
</svg>
