<?xml version="1.0" encoding="UTF-8" standalone="no"?>
<!-- Generator: Adobe Illustrator 15.0.0, SVG Export Plug-In . SVG Version: 6.00 Build 0)  -->

<svg
   xmlns:dc="http://purl.org/dc/elements/1.1/"
   xmlns:cc="http://creativecommons.org/ns#"
   xmlns:rdf="http://www.w3.org/1999/02/22-rdf-syntax-ns#"
   xmlns:svg="http://www.w3.org/2000/svg"
   xmlns="http://www.w3.org/2000/svg"
   xmlns:sodipodi="http://sodipodi.sourceforge.net/DTD/sodipodi-0.dtd"
   xmlns:inkscape="http://www.inkscape.org/namespaces/inkscape"
   version="1.1"
   x="0px"
   y="0px"
   width="30px"
   height="30px"
   viewBox="0 0 30 30"
   enable-background="new 0 0 30 30"
   xml:space="preserve"
   id="svg2"
   inkscape:version="0.48.2 r9819"
   sodipodi:docname="question.svg"><metadata
   id="metadata19"><rdf:RDF><cc:Work
       rdf:about=""><dc:format>image/svg+xml</dc:format><dc:type
         rdf:resource="http://purl.org/dc/dcmitype/StillImage" /><dc:title /></cc:Work></rdf:RDF></metadata><defs
   id="defs17">
	
	
	
	

	
</defs><sodipodi:namedview
   pagecolor="#ffffff"
   bordercolor="#666666"
   borderopacity="1"
   objecttolerance="10"
   gridtolerance="10"
   guidetolerance="10"
   inkscape:pageopacity="0"
   inkscape:pageshadow="2"
   inkscape:window-width="1916"
   inkscape:window-height="955"
   id="namedview15"
   showgrid="false"
   inkscape:zoom="25.933333"
   inkscape:cx="10.064268"
   inkscape:cy="15"
   inkscape:window-x="-4"
   inkscape:window-y="-4"
   inkscape:window-maximized="1"
   inkscape:current-layer="layer5" />
<rect
   style="fill:none"
   y="0"
   x="0"
   height="30"
   width="30"
   id="BOUNDING_BOX" />

<g
   inkscape:groupmode="layer"
   id="layer1"
   inkscape:label="Panel"
   style="display:none"
   sodipodi:insensitive="true"><path
     inkscape:connector-curvature="0"
     style="opacity:0.15"
     d="M 15,29 C 7.28,29 1,22.72 1,15 1,7.28 7.28,1 15,1 c 7.72,0 14,6.28 14,14 0,7.72 -6.28,14 -14,14 z"
     id="path9" /></g><g
   inkscape:groupmode="layer"
   id="layer3"
   inkscape:label="Gray"
   style="display:none"
   sodipodi:insensitive="true"><path
     style="opacity:0.15"
     d="M 15,2 C 7.82,2 2,7.82 2,15 2,22.18 7.82,28 15,28 22.18,28 28,22.18 28,15 28,7.82 22.18,2 15,2 z"
     id="path3089"
     inkscape:connector-curvature="0" /></g><g
   inkscape:groupmode="layer"
   id="layer4"
   inkscape:label="Shadow"
   style="display:none"
   sodipodi:insensitive="true"><path
     style="opacity:0.3"
     d="M 15,1 C 7.82,1 2,6.82 2,14 2,21.18 7.82,27 15,27 22.18,27 28,21.18 28,14 28,6.82 22.18,1 15,1 z"
     id="path3095"
     inkscape:connector-curvature="0" /></g><g
   inkscape:groupmode="layer"
   id="layer2"
   inkscape:label="White"
   style="display:none"
   sodipodi:insensitive="true"><path
     style="fill:#ffffff"
     d="M 15,2 C 7.82,2 2,7.82 2,15 2,22.18 7.82,28 15,28 22.18,28 28,22.18 28,15 28,7.82 22.18,2 15,2 z"
     id="path3083"
     inkscape:connector-curvature="0" /></g><g
   inkscape:groupmode="layer"
   id="layer6"
   inkscape:label="IconShadow" /><g
   inkscape:groupmode="layer"
   id="layer5"
   inkscape:label="Icon"><g
     id="g3009"
     transform="matrix(1.2670537,0,0,1.2670537,-4.0007269,-4.0058075)"><g
       id="g2998"><g
         style="font-size:40px;font-style:normal;font-variant:normal;font-weight:normal;font-stretch:normal;line-height:125%;letter-spacing:0px;word-spacing:0px;fill:#000000;fill-opacity:0.40392157;stroke:none;font-family:Sans;-inkscape-font-specification:Sans"
         id="text3098"
         transform="matrix(0.71124505,0,0,0.71124505,4.3313244,3.4495761)"><path
           d="m 13.222656,22.509766 c -0.01303,-0.468743 -0.01954,-0.820305 -0.01953,-1.054688 -9e-6,-1.380199 0.195303,-2.571604 0.585938,-3.574219 0.286448,-0.755196 0.748687,-1.516914 1.386718,-2.285156 0.468739,-0.559881 1.311837,-1.376938 2.529297,-2.451172 1.217433,-1.074201 2.008448,-1.93032 2.373047,-2.568359 C 20.442692,9.9381707 20.624983,9.2415568 20.625,8.4863281 20.624983,7.1191631 20.09113,5.9179924 19.023437,4.8828125 17.955715,3.847682 16.647123,3.3301044 15.097656,3.3300781 c -1.497405,2.63e-5 -2.747404,0.4687758 -3.75,1.40625 C 10.345046,5.673852 9.6874943,7.1386943 9.375,9.1308594 L 5.7617187,8.7011719 C 6.0872375,6.0319246 7.0540334,3.9876558 8.6621094,2.5683594 10.270176,1.149117 12.395825,0.43948225 15.039063,0.43945313 c 2.799465,2.912e-5 5.032536,0.76174707 6.699218,2.28515627 1.666648,1.5234628 2.49998,3.3659089 2.5,5.5273437 -2e-5,1.2500201 -0.292988,2.4023629 -0.878906,3.4570309 -0.585956,1.054705 -1.731788,2.337255 -3.4375,3.847657 -1.145848,1.015638 -1.894545,1.764335 -2.246094,2.246093 -0.351576,0.481782 -0.611992,1.035167 -0.78125,1.660157 -0.169283,0.625009 -0.266939,1.640633 -0.292969,3.046875 z m -0.214843,7.050781 0,-4.003906 4.003906,0 0,4.003906 z"
           id="path3103"
           inkscape:connector-curvature="0"
           style="fill:#000000;fill-opacity:0.40392157" /></g><g
         transform="matrix(0.71124505,0,0,0.71124505,4.3313244,4.3313246)"
         id="g3105"
         style="font-size:40px;font-style:normal;font-variant:normal;font-weight:normal;font-stretch:normal;line-height:125%;letter-spacing:0px;word-spacing:0px;fill:#000000;fill-opacity:0.14901961;stroke:none;font-family:Sans;-inkscape-font-specification:Sans"><path
           sodipodi:type="inkscape:offset"
           inkscape:radius="1.2469535"
           inkscape:original="M 15.03125 0.4375 C 12.388012 0.43752912 10.264317 1.1432576 8.65625 2.5625 C 7.048174 3.9817964 6.0755188 6.0182527 5.75 8.6875 L 9.375 9.125 C 9.6874943 7.1328349 10.34114 5.6875239 11.34375 4.75 C 12.346346 3.8125258 13.596345 3.3437763 15.09375 3.34375 C 16.643217 3.3437763 17.963528 3.8398695 19.03125 4.875 C 20.098943 5.9101799 20.624983 7.132835 20.625 8.5 C 20.624983 9.2552287 20.458316 9.9244987 20.09375 10.5625 C 19.729151 11.200539 18.936183 12.082049 17.71875 13.15625 C 16.50129 14.230484 15.656239 15.033869 15.1875 15.59375 C 14.549469 16.361992 14.067698 17.119804 13.78125 17.875 C 13.390615 18.877615 13.218741 20.088551 13.21875 21.46875 C 13.21874 21.703133 13.20572 22.031257 13.21875 22.5 L 16.59375 22.5 C 16.61978 21.093758 16.736967 20.093759 16.90625 19.46875 C 17.075508 18.84376 17.335924 18.294282 17.6875 17.8125 C 18.039049 17.330742 18.791652 16.578138 19.9375 15.5625 C 21.643212 14.052098 22.789044 12.773455 23.375 11.71875 C 23.960918 10.664082 24.24998 9.5000201 24.25 8.25 C 24.24998 6.0885652 23.416648 4.2422128 21.75 2.71875 C 20.083318 1.1953408 17.830715 0.43752912 15.03125 0.4375 z M 13 25.5625 L 13 29.5625 L 17 29.5625 L 17 25.5625 L 13 25.5625 z "
           style="fill:#000000;fill-opacity:0.14901961"
           id="path3109"
           d="M 15.03125,-0.8125 C 12.166067,-0.81246843 9.7064276,-0.01895574 7.84375,1.625 5.9790298,3.2708119 4.8524256,5.6413672 4.5,8.53125 A 1.2470782,1.2470782 0 0 0 5.59375,9.9375 l 3.625,0.4375 a 1.2470782,1.2470782 0 0 0 1.375,-1.0625 c 0.28555,-1.8203912 0.860639,-2.9707301 1.59375,-3.65625 0.77639,-0.725961 1.669065,-1.0624783 2.90625,-1.0625 1.283321,2.18e-5 2.220673,0.3713695 3.0625,1.1875 C 19.018605,6.6173452 19.374987,7.4526835 19.375,8.5 19.374987,9.07179 19.259417,9.4835128 19,9.9375 c -0.223651,0.391384 -0.928665,1.253238 -2.09375,2.28125 -1.234084,1.088903 -2.122127,1.887196 -2.6875,2.5625 a 1.2470782,1.2470782 0 0 0 0,0.03125 c -0.698419,0.840955 -1.240979,1.69495 -1.59375,2.625 -0.469016,1.20379 -0.65626,2.547525 -0.65625,4.03125 -8e-6,0.188254 -0.01412,0.554536 0,1.0625 a 1.2470782,1.2470782 0 0 0 1.25,1.21875 l 3.375,0 a 1.2470782,1.2470782 0 0 0 1.25,-1.21875 c 0.02495,-1.347939 0.161746,-2.30878 0.28125,-2.75 0.133105,-0.491492 0.304213,-0.864807 0.5625,-1.21875 0.216539,-0.296742 0.942655,-1.06991 2.0625,-2.0625 1.759706,-1.558214 3.005421,-2.903526 3.71875,-4.1875 C 25.159277,11.069532 25.499977,9.692243 25.5,8.25 25.499977,5.7680667 24.477938,3.5348132 22.59375,1.8125 20.666083,0.050541 18.055741,-0.81246854 15.03125,-0.8125 z M 12.875,24.3125 a 1.2470782,1.2470782 0 0 0 -1.125,1.25 l 0,4 a 1.2470782,1.2470782 0 0 0 1.25,1.25 l 4,0 a 1.2470782,1.2470782 0 0 0 1.25,-1.25 l 0,-4 A 1.2470782,1.2470782 0 0 0 17,24.3125 l -4,0 a 1.2470782,1.2470782 0 0 0 -0.125,0 z" /></g></g><g
       style="font-size:40px;font-style:normal;font-variant:normal;font-weight:normal;font-stretch:normal;line-height:125%;letter-spacing:0px;word-spacing:0px;fill:#ffffff;fill-opacity:1;stroke:none;font-family:Sans;-inkscape-font-specification:Sans"
       id="g3133"
       transform="matrix(0.71124505,0,0,0.71124505,4.3313244,4.3313242)"><path
         d="m 13.222656,22.509766 c -0.01303,-0.468743 -0.01954,-0.820305 -0.01953,-1.054688 -9e-6,-1.380199 0.195303,-2.571604 0.585938,-3.574219 0.286448,-0.755196 0.748687,-1.516914 1.386718,-2.285156 0.468739,-0.559881 1.311837,-1.376938 2.529297,-2.451172 1.217433,-1.074201 2.008448,-1.93032 2.373047,-2.568359 C 20.442692,9.9381707 20.624983,9.2415568 20.625,8.4863281 20.624983,7.1191631 20.09113,5.9179924 19.023437,4.8828125 17.955715,3.847682 16.647123,3.3301044 15.097656,3.3300781 c -1.497405,2.63e-5 -2.747404,0.4687758 -3.75,1.40625 C 10.345046,5.673852 9.6874943,7.1386943 9.375,9.1308594 L 5.7617187,8.7011719 C 6.0872375,6.0319246 7.0540334,3.9876558 8.6621094,2.5683594 10.270176,1.149117 12.395825,0.43948225 15.039063,0.43945313 c 2.799465,2.912e-5 5.032536,0.76174707 6.699218,2.28515627 1.666648,1.5234628 2.49998,3.3659089 2.5,5.5273437 -2e-5,1.2500201 -0.292988,2.4023629 -0.878906,3.4570309 -0.585956,1.054705 -1.731788,2.337255 -3.4375,3.847657 -1.145848,1.015638 -1.894545,1.764335 -2.246094,2.246093 -0.351576,0.481782 -0.611992,1.035167 -0.78125,1.660157 -0.169283,0.625009 -0.266939,1.640633 -0.292969,3.046875 z m -0.214843,7.050781 0,-4.003906 4.003906,0 0,4.003906 z"
         id="path3135"
         inkscape:connector-curvature="0"
         style="fill:#ffffff;fill-opacity:1" /></g></g></g></svg>