<?xml version="1.0"?>
<!-- Converted with SVG Converter - Version 0.9.5 (Compiled Mon May 30 09:08:51 2011) - Copyright (C) 2011 Nokia -->
<svg xmlns="http://www.w3.org/2000/svg" width="30" x="0px" y="0px" version="1.1" viewBox="0 0 30 30" height="30" baseProfile="tiny" xmlns:xlink="http://www.w3.org/1999/xlink" id="svg2" xml:space="preserve">
 <metadata id="metadata32"/>
 <defs id="defs4">
  <linearGradient gradientTransform="translate(0,-9)" id="SVGID_1_-1" y1="48.866199" x1="33.5005" y2="8.1343002" gradientUnits="userSpaceOnUse" x2="33.5005">
   <stop offset="0" style="stop-color:#D0CBC5" id="stop14-7"/>
   <stop offset="0.5031" style="stop-color:#FAFCEF" id="stop16-4"/>
   <stop offset="0.9693" style="stop-color:#FFFFFF" id="stop18-0"/>
  </linearGradient>
 </defs>
 <linearGradient gradientTransform="translate(0,-9)" id="SVGID_1_" y1="48.866199" x1="33.5005" y2="8.1343002" gradientUnits="userSpaceOnUse" x2="33.5005">
  <stop offset="0" style="stop-color:#D0CBC5" id="stop14"/>
  <stop offset="0.5031" style="stop-color:#FAFCEF" id="stop16"/>
  <stop offset="0.9693" style="stop-color:#FFFFFF" id="stop18"/>
 </linearGradient>
 <g id="g3009" transform="matrix(0.70170083,0,0,0.70170083,-8.5064808,1.3171847)">
  <path style="opacity:0.3" id="path7" d="m 27.51,9.528 c 1.783,-0.985 3.822,-1.562 6,-1.561 6.911,-10e-4 12.534,5.62 12.534,12.534 h 6.267 C 52.312,10.118 43.894,1.7 33.51,1.7 c -3.375,0 -6.535,0.903 -9.27,2.464 l -2.459,-4.031 -8.658,14.1 17.254,0.002 -2.867,-4.707 z m 9.113,17.24 2.89,4.706 c -1.784,0.983 -3.823,1.561 -6.001,1.561 -6.911,0 -12.535,-5.624 -12.534,-12.534 l -6.268,10e-4 c 10e-4,10.383 8.419,18.8 18.8,18.8 3.384,0 6.55,-0.908 9.29,-2.476 l 2.482,4.041 8.595,-14.1 -17.254,0.001 z"/>
  <path style="opacity:0.15" id="path9" d="m 45.282,40.866 c -0.348,0 -0.67,-0.181 -0.853,-0.477 l -1.987,-3.235 c -2.767,1.407 -5.835,2.146 -8.933,2.146 -10.917,0 -19.799,-8.882 -19.8,-19.8 0,-0.552 0.448,-1 1,-1 l 6.268,-0.001 c 0.265,0 0.52,0.105 0.707,0.293 0.187,0.188 0.293,0.442 0.293,0.707 0,3.075 1.201,5.97 3.382,8.151 2.181,2.182 5.077,3.383 8.152,3.383 1.586,0 3.121,-0.325 4.576,-0.97 L 35.77,26.29 c -0.189,-0.309 -0.197,-0.695 -0.021,-1.012 0.176,-0.317 0.511,-0.512 0.873,-0.512 l 17.254,-10e-4 c 0.361,0 0.695,0.195 0.872,0.511 0.177,0.314 0.17,0.701 -0.019,1.01 l -8.595,14.1 c -0.181,0.297 -0.504,0.479 -0.852,0.479 0.001,10e-4 0.001,10e-4 0,10e-4 z m 0.762,-20.364 c -0.553,0 -1,-0.447 -1,-1 0,-6.36 -5.174,-11.534 -11.532,-11.534 -1.593,0 -3.128,0.326 -4.582,0.97 l 2.301,3.777 c 0.188,0.309 0.195,0.695 0.018,1.01 -0.177,0.315 -0.51,0.51 -0.872,0.51 L 13.123,14.233 c -0.362,0 -0.696,-0.196 -0.873,-0.512 -0.177,-0.316 -0.169,-0.703 0.021,-1.012 l 8.658,-14.1 c 0.182,-0.296 0.504,-0.477 0.852,-0.477 0,0 0.001,0 0.001,0 0.348,0 0.671,0.182 0.852,0.479 L 24.6,1.833 c 2.759,-1.399 5.819,-2.134 8.909,-2.134 5.289,0 10.262,2.06 14.002,5.8 3.74,3.74 5.8,8.712 5.799,14.001 0,0.553 -0.447,1 -1,1 h -6.266 z"/>
  <path style="opacity:0.15" id="path11" d="m 27.51,8.528 c 1.783,-0.985 3.822,-1.562 6,-1.561 6.911,-10e-4 12.534,5.62 12.534,12.534 h 6.267 C 52.312,9.119 43.894,0.701 33.51,0.701 c -3.375,0 -6.535,0.903 -9.27,2.464 l -2.459,-4.031 -8.658,14.1 17.254,0.002 -2.867,-4.708 z m 9.113,17.24 2.89,4.706 c -1.784,0.983 -3.823,1.561 -6.001,1.561 -6.911,0 -12.535,-5.624 -12.534,-12.534 l -6.268,10e-4 c 10e-4,10.383 8.419,18.8 18.8,18.8 3.384,0 6.55,-0.908 9.29,-2.476 l 2.482,4.041 8.595,-14.1 -17.254,0.001 z"/>
  <path style="fill:url(#SVGID_1_-1)" id="path20" d="m 27.51,8.528 c 1.783,-0.985 3.822,-1.562 6,-1.561 6.911,-10e-4 12.534,5.62 12.534,12.534 h 6.267 C 52.312,9.119 43.894,0.701 33.51,0.701 c -3.375,0 -6.535,0.903 -9.27,2.464 l -2.459,-4.031 -8.658,14.1 17.254,0.002 -2.867,-4.708 z m 9.113,17.24 2.89,4.706 c -1.784,0.983 -3.823,1.561 -6.001,1.561 -6.911,0 -12.535,-5.624 -12.534,-12.534 l -6.268,10e-4 c 10e-4,10.383 8.419,18.8 18.8,18.8 3.384,0 6.55,-0.908 9.29,-2.476 l 2.482,4.041 8.595,-14.1 -17.254,0.001 z"/>
  <path style="fill:#ffffff" id="path22" d="m 33.512,33.034 c 2.178,0 4.217,-0.577 6.001,-1.561 L 39.037,30.7 c -1.67,0.834 -3.534,1.334 -5.525,1.334 -6.911,0 -12.535,-5.624 -12.534,-12.534 l -6.268,0.001 c 0,0.337 0.033,0.667 0.051,1 L 20.978,20.5 c -0.001,6.91 5.623,12.534 12.534,12.534 z"/>
  <path style="fill:#ffffff" id="path24" d="m 27.982,9.303 c -0.156,0.078 -0.32,0.141 -0.472,0.225 l 2.258,3.707 h 0.609 L 27.982,9.303 z"/>
  <path style="fill:#ffffff" id="path26" d="m 21.781,0.134 2.459,4.031 c 2.734,-1.561 5.895,-2.464 9.27,-2.464 10.046,0 18.229,7.886 18.75,17.801 h 0.051 C 52.312,9.119 43.894,0.701 33.51,0.701 c -3.375,0 -6.535,0.903 -9.27,2.464 l -2.459,-4.031 -8.658,14.1 h 0.614 l 8.044,-13.1 z"/>
  <polygon points="53.877,34.767 36.623,34.768 37.237,35.768 53.268,35.767 " style="fill:#ffffff" id="polygon28" transform="translate(0,-9)"/>
 </g>
</svg>
