<?xml version="1.0" encoding="UTF-8" standalone="no"?>
<!-- Converted with SVG Converter - Version 0.9.5 (Compiled Mon May 30 09:08:51 2011) - Copyright (C) 2011 Nokia -->

<svg
   xmlns:dc="http://purl.org/dc/elements/1.1/"
   xmlns:cc="http://creativecommons.org/ns#"
   xmlns:rdf="http://www.w3.org/1999/02/22-rdf-syntax-ns#"
   xmlns:svg="http://www.w3.org/2000/svg"
   xmlns="http://www.w3.org/2000/svg"
   xmlns:xlink="http://www.w3.org/1999/xlink"
   xmlns:sodipodi="http://sodipodi.sourceforge.net/DTD/sodipodi-0.dtd"
   xmlns:inkscape="http://www.inkscape.org/namespaces/inkscape"
   width="30"
   x="0px"
   y="0px"
   version="1.1"
   viewBox="0 0 30 30"
   height="30"
   id="svg2"
   xml:space="preserve"
   inkscape:version="0.48.2 r9819"
   sodipodi:docname="refresh_inverted.svg"><sodipodi:namedview
   pagecolor="#ffffff"
   bordercolor="#666666"
   borderopacity="1"
   objecttolerance="10"
   gridtolerance="10"
   guidetolerance="10"
   inkscape:pageopacity="0"
   inkscape:pageshadow="2"
   inkscape:window-width="1920"
   inkscape:window-height="955"
   id="namedview22"
   showgrid="false"
   inkscape:zoom="25.933333"
   inkscape:cx="3.0848329"
   inkscape:cy="15"
   inkscape:window-x="-4"
   inkscape:window-y="-4"
   inkscape:window-maximized="1"
   inkscape:current-layer="svg2" />
 <metadata
   id="metadata32"><rdf:RDF><cc:Work
       rdf:about=""><dc:format>image/svg+xml</dc:format><dc:type
         rdf:resource="http://purl.org/dc/dcmitype/StillImage" /></cc:Work></rdf:RDF></metadata>
 <defs
   id="defs4">
  <linearGradient
   gradientTransform="translate(0,-9)"
   id="SVGID_1_-1"
   y1="48.866199"
   x1="33.5005"
   y2="8.1343002"
   gradientUnits="userSpaceOnUse"
   x2="33.5005">
   <stop
   offset="0"
   style="stop-color:#000000;stop-opacity:1;"
   id="stop14-7" />
   <stop
   offset="0.50309998"
   style="stop-color:#000000;stop-opacity:0.46902654;"
   id="stop16-4" />
   <stop
   offset="0.96929997"
   style="stop-color:#000000;stop-opacity:1;"
   id="stop18-0" />
  </linearGradient>
 <linearGradient
   inkscape:collect="always"
   xlink:href="#SVGID_1_-1"
   id="linearGradient3868"
   gradientUnits="userSpaceOnUse"
   gradientTransform="translate(0,-9)"
   x1="33.5005"
   y1="48.866199"
   x2="33.5005"
   y2="8.1343002" />
  
  
  
  
  
  
  
  
 <linearGradient
   inkscape:collect="always"
   xlink:href="#SVGID_1_-1"
   id="linearGradient3875"
   gradientUnits="userSpaceOnUse"
   gradientTransform="matrix(0.70170083,0,0,0.70170083,-8.5064808,-4.9981228)"
   x1="33.5005"
   y1="48.866199"
   x2="33.5005"
   y2="8.1343002" /></defs>
 <linearGradient
   gradientTransform="translate(0,-9)"
   id="SVGID_1_"
   y1="48.866199"
   x1="33.5005"
   y2="8.1343002"
   gradientUnits="userSpaceOnUse"
   x2="33.5005">
  <stop
   offset="0"
   style="stop-color:#D0CBC5"
   id="stop14" />
  <stop
   offset="0.5031"
   style="stop-color:#FAFCEF"
   id="stop16" />
  <stop
   offset="0.9693"
   style="stop-color:#FFFFFF"
   id="stop18" />
 </linearGradient>
 <path
   inkscape:connector-curvature="0"
   d="m 23.267936,29.992891 c -0.244192,0 -0.470139,-0.127008 -0.598551,-0.334711 l -1.394279,-2.270003 c -1.941606,0.987293 -4.094425,1.50585 -6.268294,1.50585 -7.6604676,0 -13.8929744,-6.232506 -13.8936761,-13.893676 0,-0.387339 0.314362,-0.701701 0.7017008,-0.701701 l 4.3982608,-7.02e-4 c 0.1859507,0 0.3648844,0.07368 0.4961025,0.205599 0.1312181,0.131919 0.2055983,0.310151 0.2055983,0.496102 0,2.15773 0.8427427,4.189154 2.3731522,5.719564 1.5304095,1.531111 3.5625355,2.373854 5.7202655,2.373854 1.112897,0 2.190008,-0.228053 3.210983,-0.68065 L 16.593358,19.7649 c -0.132622,-0.216826 -0.138235,-0.487683 -0.01474,-0.710122 0.1235,-0.222439 0.358569,-0.359271 0.612585,-0.359271 l 12.107146,-7.01e-4 c 0.253314,0 0.487682,0.136831 0.611883,0.358569 0.124201,0.220334 0.119289,0.491892 -0.01333,0.708718 l -6.031119,9.893981 c -0.127008,0.208406 -0.353657,0.336115 -0.597849,0.336115 7.02e-4,7.02e-4 7.02e-4,7.02e-4 0,7.02e-4 z m 0.534696,-14.289436 c -0.38804,0 -0.701701,-0.31366 -0.701701,-0.701701 0,-4.462817 -3.6306,-8.0934171 -8.092014,-8.0934171 -1.117809,0 -2.19492,0.2287545 -3.215193,0.6806498 l 1.614614,2.6503243 c 0.13192,0.216825 0.136831,0.487682 0.01263,0.708718 -0.124201,0.221035 -0.357867,0.357867 -0.611883,0.357867 l -12.10714581,-0.0014 c -0.2540157,0 -0.48838378,-0.137534 -0.61258482,-0.359271 -0.12420105,-0.221738 -0.11858744,-0.493296 0.01473571,-0.710121 L 6.1794159,0.34111885 C 6.3071254,0.1334154 6.5330731,0.00640755 6.777265,0.00640755 c 0,0 7.017e-4,0 7.017e-4,0 0.2441919,0 0.4708412,0.12770955 0.5978491,0.3361147 L 8.7553596,2.6034023 C 10.691352,1.6217229 12.838557,1.1059728 15.006812,1.1059728 c 3.711296,0 7.200854,1.4455037 9.825215,4.0698648 2.624361,2.6243611 4.069865,6.1132174 4.069163,9.8245134 0,0.38804 -0.31366,0.701701 -0.7017,0.701701 h -4.396858 z"
   id="path9"
   style="opacity:0.15" /><path
   inkscape:connector-curvature="0"
   d="m 10.797309,7.3012894 c 1.251133,-0.6911753 2.681901,-1.0960567 4.210205,-1.095355 4.849454,-7.017e-4 8.795118,3.9435586 8.795118,8.7951186 h 4.397559 C 28.200893,7.7159946 22.293975,1.809077 15.007514,1.809077 c -2.36824,0 -4.585615,0.6336358 -6.5047667,1.7289908 L 6.777265,0.70951178 0.70193919,10.603493 12.809085,10.604897 10.797309,7.3012894 z m 6.3946,12.0973226 2.027915,3.302204 c -1.251834,0.689772 -2.682602,1.095355 -4.210907,1.095355 -4.849454,0 -8.7958195,-3.946366 -8.7951178,-8.795118 l -4.3982608,7.01e-4 c 7.017e-4,7.28576 5.9076193,13.191976 13.1919756,13.191976 2.374556,0 4.59614,-0.637144 6.518801,-1.737411 l 1.741621,2.835573 6.031119,-9.893982 -12.107146,7.02e-4 z"
   id="path11"
   style="opacity:0.15" /><path
   inkscape:connector-curvature="0"
   d="m 10.797309,7.3012894 c 1.251133,-0.6911753 2.681901,-1.0960567 4.210205,-1.095355 4.849454,-7.017e-4 8.795118,3.9435586 8.795118,8.7951186 h 4.397559 C 28.200893,7.7159946 22.293975,1.809077 15.007514,1.809077 c -2.36824,0 -4.585615,0.6336358 -6.504767,1.7289908 L 6.777265,0.7095118 0.7019392,10.603493 12.809085,10.604893 10.797309,7.3012854 z m 6.3946,12.0973226 2.027915,3.302204 c -1.251834,0.689772 -2.682602,1.095355 -4.210907,1.095355 -4.849454,0 -8.795819,-3.946366 -8.795118,-8.795118 l -4.3982606,7.01e-4 c 7.017e-4,7.28576 5.9076196,13.191976 13.1919756,13.191976 2.374556,0 4.59614,-0.637144 6.518801,-1.737411 l 1.741621,2.835573 6.031119,-9.893982 -12.107146,7.02e-4 z"
   id="path20"
   style="fill:url(#linearGradient3875)" /><path
   inkscape:connector-curvature="0"
   d="m 15.008917,24.49717 c 1.528305,0 2.959073,-0.404881 4.210907,-1.095355 L 18.885815,22.8594 c -1.171841,0.585219 -2.479811,0.936069 -3.876898,0.936069 -4.849454,0 -8.7958195,-3.946365 -8.7951178,-8.795118 l -4.3982608,7.02e-4 c 0,0.236473 0.023156,0.468034 0.035787,0.7017 l 4.362474,-7.01e-4 c -7.017e-4,4.848752 3.9456638,8.795118 8.7951178,8.795118 z"
   id="path22"
   style="fill:#000000;fill-opacity:1" /><path
   inkscape:connector-curvature="0"
   d="m 11.128512,7.8451075 c -0.109466,0.054733 -0.224544,0.09894 -0.331203,0.1578827 l 1.584441,2.6012048 h 0.427335 L 11.128512,7.8451075 z"
   id="path24"
   style="fill:#000000;fill-opacity:1" /><path
   inkscape:connector-curvature="0"
   d="m 6.777265,1.4112126 1.7254823,2.8285561 c 1.9184497,-1.095355 4.1365267,-1.7289909 6.5047667,-1.7289909 7.049287,0 12.791304,5.5336128 13.156891,12.4909762 h 0.03579 C 28.200893,7.7159946 22.293975,1.809077 15.007514,1.809077 c -2.36824,0 -4.585615,0.6336358 -6.5047667,1.7289908 L 6.777265,0.70951178 0.70193919,10.603493 H 1.1327835 L 6.777265,1.4112126 z"
   id="path26"
   style="fill:#000000;fill-opacity:1" /><polygon
   transform="matrix(0.70170083,0,0,0.70170083,-8.5064808,-4.9981228)"
   id="polygon28"
   style="fill:#000000;fill-opacity:1"
   points="37.237,35.768 53.268,35.767 53.877,34.767 36.623,34.768 " />
</svg>