<?xml version="1.0" encoding="UTF-8" standalone="no"?>
<!-- Generator: Adobe Illustrator 15.0.0, SVG Export Plug-In  -->

<svg
   xmlns:dc="http://purl.org/dc/elements/1.1/"
   xmlns:cc="http://creativecommons.org/ns#"
   xmlns:rdf="http://www.w3.org/1999/02/22-rdf-syntax-ns#"
   xmlns:svg="http://www.w3.org/2000/svg"
   xmlns="http://www.w3.org/2000/svg"
   xmlns:xlink="http://www.w3.org/1999/xlink"
   xmlns:sodipodi="http://sodipodi.sourceforge.net/DTD/sodipodi-0.dtd"
   xmlns:inkscape="http://www.inkscape.org/namespaces/inkscape"
   version="1.1"
   x="0px"
   y="0px"
   width="48"
   height="48"
   viewBox="0 0 48 48"
   enable-background="new 0 0 67 57"
   xml:space="preserve"
   id="svg2"
   inkscape:version="0.48.2 r9819"
   sodipodi:docname="rename.svg"><metadata
   id="metadata32"><rdf:RDF><cc:Work
       rdf:about=""><dc:format>image/svg+xml</dc:format><dc:type
         rdf:resource="http://purl.org/dc/dcmitype/StillImage" /><dc:title /></cc:Work></rdf:RDF></metadata><sodipodi:namedview
   pagecolor="#ffffff"
   bordercolor="#666666"
   borderopacity="1"
   objecttolerance="10"
   gridtolerance="10"
   guidetolerance="10"
   inkscape:pageopacity="0"
   inkscape:pageshadow="2"
   inkscape:window-width="1920"
   inkscape:window-height="955"
   id="namedview30"
   showgrid="false"
   inkscape:zoom="10.701888"
   inkscape:cx="24"
   inkscape:cy="19.871254"
   inkscape:window-x="-4"
   inkscape:window-y="-4"
   inkscape:window-maximized="1"
   inkscape:current-layer="layer3" />
<defs
   id="defs4">
<linearGradient
   inkscape:collect="always"
   xlink:href="#SVGID_1_"
   id="linearGradient3019"
   gradientUnits="userSpaceOnUse"
   gradientTransform="translate(0,-9)"
   x1="33.5005"
   y1="45.5"
   x2="33.5005"
   y2="11.5005" /><linearGradient
   inkscape:collect="always"
   xlink:href="#SVGID_1_-7"
   id="linearGradient3019-1"
   gradientUnits="userSpaceOnUse"
   gradientTransform="translate(0,-9)"
   x1="33.5005"
   y1="45.5"
   x2="33.5005"
   y2="11.5005" /><linearGradient
   id="SVGID_1_-7"
   gradientUnits="userSpaceOnUse"
   x1="33.5005"
   y1="45.5"
   x2="33.5005"
   y2="11.5005"
   gradientTransform="translate(0,-9)"><stop
     offset="0"
     style="stop-color:#D0CBC5"
     id="stop14-4" /><stop
     offset="0.5031"
     style="stop-color:#FAFCEF"
     id="stop16-0" /><stop
     offset="0.9693"
     style="stop-color:#FFFFFF"
     id="stop18-9" /></linearGradient>

</defs>




<linearGradient
   id="SVGID_1_"
   gradientUnits="userSpaceOnUse"
   x1="33.5005"
   y1="45.5"
   x2="33.5005"
   y2="11.5005"
   gradientTransform="translate(0,-9)">
	<stop
   offset="0"
   style="stop-color:#D0CBC5"
   id="stop14" />
	<stop
   offset="0.5031"
   style="stop-color:#FAFCEF"
   id="stop16" />
	<stop
   offset="0.9693"
   style="stop-color:#FFFFFF"
   id="stop18" />
</linearGradient>





<g
   inkscape:groupmode="layer"
   id="layer1"
   inkscape:label="Layer"
   sodipodi:insensitive="true"
   style="display:none"><g
     id="g3009"
     transform="matrix(1.2777778,0,0,1.2777778,-18.805556,-0.9166667)"><path
       style="opacity:0.3"
       inkscape:connector-curvature="0"
       id="path7"
       d="m 48.5,3.5 h -30 c -1.1,0 -2,0.9 -2,2 v 30 c 0,1.1 0.9,2 2,2 h 30 c 1.1,0 2,-0.9 2,-2 v -30 c 0,-1.1 -0.9,-2 -2,-2 z M 44,27.5 H 23 c -0.825,0 -1.5,-0.675 -1.5,-1.5 0,-0.825 0.675,-1.5 1.5,-1.5 h 21 c 0.825,0 1.5,0.675 1.5,1.5 0,0.825 -0.675,1.5 -1.5,1.5 z m 0,-7 H 23 c -0.825,0 -1.5,-0.675 -1.5,-1.5 0,-0.825 0.675,-1.5 1.5,-1.5 h 21 c 0.825,0 1.5,0.675 1.5,1.5 0,0.825 -0.675,1.5 -1.5,1.5 z m 0,-7 H 23 c -0.825,0 -1.5,-0.675 -1.5,-1.5 0,-0.825 0.675,-1.5 1.5,-1.5 h 21 c 0.825,0 1.5,0.675 1.5,1.5 0,0.825 -0.675,1.5 -1.5,1.5 z" /><path
       style="opacity:0.15"
       inkscape:connector-curvature="0"
       id="path9"
       d="m 18.5,37.5 c -1.654,0 -3,-1.346 -3,-3 v -30 c 0,-1.654 1.346,-3 3,-3 h 30 c 1.654,0 3,1.346 3,3 v 30 c 0,1.654 -1.346,3 -3,3 h -30 z m 4.5,-13 c -0.271,0 -0.5,0.229 -0.5,0.5 0,0.271 0.229,0.5 0.5,0.5 h 21 c 0.271,0 0.5,-0.229 0.5,-0.5 0,-0.271 -0.229,-0.5 -0.5,-0.5 H 23 z m 0,-7 c -0.271,0 -0.5,0.229 -0.5,0.5 0,0.271 0.229,0.5 0.5,0.5 h 21 c 0.271,0 0.5,-0.229 0.5,-0.5 0,-0.271 -0.229,-0.5 -0.5,-0.5 H 23 z m 0,-7 c -0.271,0 -0.5,0.229 -0.5,0.5 0,0.271 0.229,0.5 0.5,0.5 h 21 c 0.271,0 0.5,-0.229 0.5,-0.5 0,-0.271 -0.229,-0.5 -0.5,-0.5 H 23 z" /><path
       style="opacity:0.15"
       inkscape:connector-curvature="0"
       id="path11"
       d="m 48.5,2.5 h -30 c -1.1,0 -2,0.9 -2,2 v 30 c 0,1.1 0.9,2 2,2 h 30 c 1.1,0 2,-0.9 2,-2 v -30 c 0,-1.1 -0.9,-2 -2,-2 z M 44,26.5 H 23 c -0.825,0 -1.5,-0.675 -1.5,-1.5 0,-0.825 0.675,-1.5 1.5,-1.5 h 21 c 0.825,0 1.5,0.675 1.5,1.5 0,0.825 -0.675,1.5 -1.5,1.5 z m 0,-7 H 23 c -0.825,0 -1.5,-0.675 -1.5,-1.5 0,-0.825 0.675,-1.5 1.5,-1.5 h 21 c 0.825,0 1.5,0.675 1.5,1.5 0,0.825 -0.675,1.5 -1.5,1.5 z m 0,-7 H 23 c -0.825,0 -1.5,-0.675 -1.5,-1.5 0,-0.825 0.675,-1.5 1.5,-1.5 h 21 c 0.825,0 1.5,0.675 1.5,1.5 0,0.825 -0.675,1.5 -1.5,1.5 z" /><path
       style="fill:url(#linearGradient3019-1)"
       inkscape:connector-curvature="0"
       id="path20"
       d="m 48.5,2.5 h -30 c -1.1,0 -2,0.9 -2,2 v 30 c 0,1.1 0.9,2 2,2 h 30 c 1.1,0 2,-0.9 2,-2 v -30 c 0,-1.1 -0.9,-2 -2,-2 z M 44,26.5 H 23 c -0.825,0 -1.5,-0.675 -1.5,-1.5 0,-0.825 0.675,-1.5 1.5,-1.5 h 21 c 0.825,0 1.5,0.675 1.5,1.5 0,0.825 -0.675,1.5 -1.5,1.5 z m 0,-7 H 23 c -0.825,0 -1.5,-0.675 -1.5,-1.5 0,-0.825 0.675,-1.5 1.5,-1.5 h 21 c 0.825,0 1.5,0.675 1.5,1.5 0,0.825 -0.675,1.5 -1.5,1.5 z m 0,-7 H 23 c -0.825,0 -1.5,-0.675 -1.5,-1.5 0,-0.825 0.675,-1.5 1.5,-1.5 h 21 c 0.825,0 1.5,0.675 1.5,1.5 0,0.825 -0.675,1.5 -1.5,1.5 z" /><path
       style="fill:#ffffff"
       inkscape:connector-curvature="0"
       id="path22"
       d="m 23,20.5 h 21 c 0.825,0 1.5,-0.675 1.5,-1.5 0,-0.176 -0.036,-0.343 -0.093,-0.5 -0.208,0.58 -0.758,1 -1.407,1 H 23 c -0.649,0 -1.2,-0.42 -1.407,-1 -0.057,0.157 -0.093,0.324 -0.093,0.5 0,0.825 0.675,1.5 1.5,1.5 z" /><path
       style="fill:#ffffff"
       inkscape:connector-curvature="0"
       id="path24"
       d="m 23,13.5 h 21 c 0.825,0 1.5,-0.675 1.5,-1.5 0,-0.176 -0.036,-0.343 -0.093,-0.5 -0.208,0.58 -0.758,1 -1.407,1 H 23 c -0.649,0 -1.2,-0.42 -1.407,-1 -0.057,0.157 -0.093,0.324 -0.093,0.5 0,0.825 0.675,1.5 1.5,1.5 z" /><path
       style="fill:#ffffff"
       inkscape:connector-curvature="0"
       id="path26"
       d="m 23,27.5 h 21 c 0.825,0 1.5,-0.675 1.5,-1.5 0,-0.176 -0.036,-0.343 -0.093,-0.5 -0.208,0.58 -0.758,1 -1.407,1 H 23 c -0.649,0 -1.2,-0.42 -1.407,-1 -0.057,0.157 -0.093,0.324 -0.093,0.5 0,0.825 0.675,1.5 1.5,1.5 z" /><path
       style="fill:#ffffff"
       inkscape:connector-curvature="0"
       id="path28"
       d="m 48.5,2.5 h -30 c -1.1,0 -2,0.9 -2,2 v 1 c 0,-1.1 0.9,-2 2,-2 h 30 c 1.1,0 2,0.9 2,2 v -1 c 0,-1.1 -0.9,-2 -2,-2 z" /></g></g><g
   inkscape:groupmode="layer"
   id="layer3"
   inkscape:label="Layer#2"
   style="display:inline"><path
     sodipodi:type="inkscape:offset"
     inkscape:radius="1.1820472"
     inkscape:original="M 9.09375 0 L 2.5 16.90625 L 6.125 16.90625 L 7.53125 13.0625 L 14.28125 13.0625 L 15.78125 16.90625 L 19.5 16.90625 L 12.71875 0 L 9.09375 0 z M 10.875 3.9375 L 13.1875 10.21875 L 8.59375 10.21875 L 10.875 3.9375 z M 26.0625 4.375 C 24.470266 4.3750125 23.276399 4.6808095 22.46875 5.25 C 21.661095 5.8192139 21.112001 6.6904531 20.78125 7.875 L 23.71875 8.40625 C 23.918736 7.8370563 24.176934 7.4456714 24.5 7.21875 C 24.823056 6.991848 25.26685 6.87501 25.84375 6.875 C 26.697547 6.87501 27.286065 6.9846384 27.59375 7.25 C 27.901419 7.5153809 28.031242 7.9707127 28.03125 8.59375 L 28.03125 8.90625 C 27.446656 9.1523995 26.421553 9.4341561 24.90625 9.71875 C 23.783224 9.934131 22.908621 10.180309 22.3125 10.46875 C 21.716373 10.757203 21.268251 11.176475 20.9375 11.71875 C 20.606746 12.261036 20.437499 12.87023 20.4375 13.5625 C 20.437499 14.608605 20.804361 15.47167 21.53125 16.15625 C 22.258135 16.840832 23.23852 17.1875 24.5 17.1875 C 25.215344 17.1875 25.900506 17.050467 26.53125 16.78125 C 27.161981 16.512033 27.758673 16.100936 28.3125 15.5625 C 28.335567 15.624037 28.352398 15.776453 28.40625 15.96875 C 28.529312 16.391807 28.63413 16.690876 28.71875 16.90625 L 31.9375 16.90625 C 31.652887 16.321664 31.447579 15.792764 31.34375 15.28125 C 31.239897 14.769739 31.187488 13.951873 31.1875 12.875 L 31.21875 9.09375 C 31.218738 7.6861362 31.100936 6.7144073 30.8125 6.1875 C 30.524042 5.6606141 30.020147 5.2485525 29.3125 4.90625 C 28.604834 4.5639715 27.508575 4.3750125 26.0625 4.375 z M 39.21875 4.375 C 37.626516 4.3750125 36.432649 4.6808095 35.625 5.25 C 34.817345 5.8192139 34.237001 6.6904531 33.90625 7.875 L 36.875 8.40625 C 37.074986 7.8370563 37.333184 7.4456714 37.65625 7.21875 C 37.979306 6.991848 38.4231 6.87501 39 6.875 C 39.853797 6.87501 40.442315 6.9846384 40.75 7.25 C 41.057669 7.5153809 41.187492 7.9707127 41.1875 8.59375 L 41.1875 8.90625 C 40.602906 9.1523995 39.577803 9.4341561 38.0625 9.71875 C 36.939474 9.934131 36.064871 10.180309 35.46875 10.46875 C 34.872623 10.757203 34.424501 11.176475 34.09375 11.71875 C 33.762996 12.261036 33.593749 12.87023 33.59375 13.5625 C 33.593749 14.608605 33.960611 15.47167 34.6875 16.15625 C 35.414385 16.840832 36.39477 17.1875 37.65625 17.1875 C 38.371594 17.1875 39.056756 17.050467 39.6875 16.78125 C 40.318231 16.512033 40.914923 16.100936 41.46875 15.5625 C 41.491817 15.624037 41.508648 15.776453 41.5625 15.96875 C 41.685562 16.391807 41.79038 16.690876 41.875 16.90625 L 45.09375 16.90625 C 44.809137 16.321664 44.603829 15.792764 44.5 15.28125 C 44.396147 14.769739 44.343738 13.951873 44.34375 12.875 L 44.375 9.09375 C 44.374988 7.6861362 44.225936 6.7144073 43.9375 6.1875 C 43.649042 5.6606141 43.176397 5.2485525 42.46875 4.90625 C 41.761084 4.5639715 40.664825 4.3750125 39.21875 4.375 z M 28.03125 11.03125 L 28.03125 11.6875 C 28.031242 12.464389 27.990853 12.973094 27.90625 13.25 C 27.783171 13.673059 27.54853 14.05146 27.15625 14.34375 C 26.6255 14.728349 26.05333 14.906252 25.46875 14.90625 C 24.945693 14.906252 24.52594 14.737005 24.1875 14.40625 C 23.849051 14.0755 23.687496 13.672577 23.6875 13.21875 C 23.687496 12.757238 23.88944 12.39374 24.3125 12.09375 C 24.589404 11.909149 25.162539 11.723553 26.0625 11.53125 C 26.962448 11.338957 27.615878 11.16971 28.03125 11.03125 z M 41.1875 11.03125 L 41.1875 11.6875 C 41.187492 12.464389 41.147103 12.973094 41.0625 13.25 C 40.939421 13.673059 40.70478 14.05146 40.3125 14.34375 C 39.78175 14.728349 39.20958 14.906252 38.625 14.90625 C 38.101943 14.906252 37.68219 14.737005 37.34375 14.40625 C 37.005301 14.0755 36.812496 13.672577 36.8125 13.21875 C 36.812496 12.757238 37.04569 12.39374 37.46875 12.09375 C 37.745654 11.909149 38.318789 11.723553 39.21875 11.53125 C 40.118698 11.338957 40.772128 11.16971 41.1875 11.03125 z "
     style="font-size:23.62960625px;font-style:normal;font-weight:bold;line-height:125%;letter-spacing:0px;word-spacing:0px;fill:#000000;fill-opacity:0.14901961;stroke:none;font-family:Sans;-inkscape-font-specification:Sans Bold"
     id="path4083"
     d="M 8.96875,-1.1875 A 1.1821655,1.1821655 0 0 0 8,-0.4375 L 1.40625,16.46875 A 1.1821655,1.1821655 0 0 0 2.5,18.09375 l 3.625,0 A 1.1821655,1.1821655 0 0 0 7.25,17.3125 l 1.125,-3.0625 5.09375,0 1.21875,3.09375 a 1.1821655,1.1821655 0 0 0 1.09375,0.75 l 3.71875,0 A 1.1821655,1.1821655 0 0 0 20.6875,17 c 0.0105,0.01007 0.02065,0.02126 0.03125,0.03125 0.968066,0.911727 2.303211,1.34375 3.78125,1.34375 0.866301,0 1.718197,-0.166307 2.5,-0.5 0.238964,-0.101998 0.429928,-0.3058 0.65625,-0.4375 a 1.1821655,1.1821655 0 0 0 1.0625,0.65625 l 3.21875,0 A 1.1821655,1.1821655 0 0 0 33,16.375 c -0.259716,-0.533449 -0.425001,-0.974268 -0.5,-1.34375 -0.04593,-0.226239 -0.06979,-0.857903 -0.09375,-1.40625 0.01644,1.298705 0.540516,2.532044 1.46875,3.40625 0.968066,0.911727 2.303211,1.34375 3.78125,1.34375 0.866301,0 1.718197,-0.166307 2.5,-0.5 0.238964,-0.101998 0.429928,-0.3058 0.65625,-0.4375 a 1.1821655,1.1821655 0 0 0 1.0625,0.65625 l 3.21875,0 a 1.1821655,1.1821655 0 0 0 1.0625,-1.71875 c -0.259716,-0.533449 -0.425001,-0.974268 -0.5,-1.34375 -0.0704,-0.346725 -0.125012,-1.117735 -0.125,-2.15625 L 45.5625,9.09375 c -1.3e-5,-1.4910537 -0.09375,-2.5553576 -0.59375,-3.46875 -0.424979,-0.7762493 -1.143334,-1.366864 -2,-1.78125 -0.984918,-0.4763775 -2.200958,-0.6562366 -3.75,-0.65625 -1.743575,1.37e-5 -3.1882,0.3234231 -4.28125,1.09375 -1.053958,0.7428016 -1.769554,1.8963429 -2.15625,3.28125 a 1.1821655,1.1821655 0 0 0 0.90625,1.46875 l 1.59375,0.28125 c -0.08777,0.037664 -0.229006,0.05335 -0.3125,0.09375 -0.791312,0.3828986 -1.438138,0.971254 -1.875,1.6875 -0.437138,0.716707 -0.68215,1.563809 -0.6875,2.4375 -0.01,-0.263876 -0.03125,-0.340369 -0.03125,-0.65625 L 32.40625,9.09375 C 32.406237,7.6201912 32.361021,6.5699362 31.84375,5.625 31.401502,4.8172082 30.656886,4.2521958 29.8125,3.84375 28.827582,3.3673725 27.611542,3.1875134 26.0625,3.1875 c -1.743575,1.37e-5 -3.1882,0.3234231 -4.28125,1.09375 -1.065694,0.7510727 -1.743491,1.9149182 -2.125,3.28125 A 1.1821655,1.1821655 0 0 0 20.5625,9.03125 L 22.125,9.3125 c -0.08777,0.037664 -0.229006,0.05335 -0.3125,0.09375 -0.791312,0.3828986 -1.438138,0.971254 -1.875,1.6875 -0.39787,0.652326 -0.583479,1.430053 -0.625,2.21875 l -5.5,-13.75 a 1.1821655,1.1821655 0 0 0 -1.09375,-0.75 l -3.625,0 a 1.1821655,1.1821655 0 0 0 -0.125,0 z m 1.9375,8.5625 0.59375,1.65625 -1.1875,0 0.59375,-1.65625 z m 14.9375,0.6875 c 0.437605,5.1e-6 0.410387,0.027518 0.5625,0.0625 -0.413008,0.1171894 -0.729166,0.2118077 -1.375,0.34375 0.05363,-0.077671 0.137151,-0.2678348 0.15625,-0.28125 0.06257,-0.04395 0.238937,-0.1249928 0.65625,-0.125 z M 39,8.0625 c 0.437605,5.1e-6 0.410387,0.027518 0.5625,0.0625 -0.413008,0.1171894 -0.729166,0.2118077 -1.375,0.34375 0.05363,-0.077671 0.137151,-0.2678348 0.15625,-0.28125 0.06258,-0.04395 0.238937,-0.1249928 0.65625,-0.125 z m -12.1875,4.5 c -0.0083,0.07147 -0.03207,0.346421 -0.03125,0.34375 -0.05879,0.202082 -0.157583,0.344333 -0.3125,0.46875 -0.01195,0.0096 -0.01826,0.02157 -0.03125,0.03125 -0.328497,0.228463 -0.636939,0.312501 -0.96875,0.3125 -0.268069,10e-7 -0.335558,-0.02608 -0.46875,-0.15625 -0.129728,-0.126777 -0.125002,-0.170456 -0.125,-0.34375 -1e-6,-0.116687 -0.07532,-0.0142 0.125,-0.15625 -0.01972,0.01828 0.482538,-0.197654 1.3125,-0.375 0.220511,-0.04712 0.306736,-0.0805 0.5,-0.125 z m 13.15625,0 c -0.0083,0.07147 -0.03207,0.346421 -0.03125,0.34375 -0.05879,0.202082 -0.157583,0.344333 -0.3125,0.46875 -0.01195,0.0096 -0.01826,0.02157 -0.03125,0.03125 -0.328497,0.228463 -0.636939,0.312501 -0.96875,0.3125 -0.268069,10e-7 -0.335558,-0.02608 -0.46875,-0.15625 C 38.000509,13.410302 37.999999,13.337782 38,13.21875 c 0,-0.057 -0.02687,-0.05035 0.125,-0.15625 -9.75e-4,6.5e-4 0.03169,-4.03e-4 0.03125,0 -0.01972,0.01828 0.482538,-0.197654 1.3125,-0.375 0.220511,-0.04712 0.306736,-0.0805 0.5,-0.125 z"
     transform="matrix(1.0083692,0,0,0.99170027,0,1.1590265)" /><path
     sodipodi:type="inkscape:offset"
     inkscape:radius="1.1198342"
     inkscape:original="M 2.15625 29.1875 L 2.15625 46.09375 L 7.90625 46.09375 C 10.083056 46.078366 11.462036 46.061535 12.03125 46 C 12.938885 45.900005 13.693286 45.622094 14.3125 45.1875 C 14.931686 44.752907 15.42356 44.164389 15.78125 43.4375 C 16.138909 42.710616 16.312484 41.987947 16.3125 41.21875 C 16.312484 40.241881 16.022553 39.379298 15.46875 38.65625 C 14.914917 37.933217 14.124455 37.424994 13.09375 37.125 C 13.82447 36.794256 14.416834 36.286516 14.84375 35.625 C 15.270637 34.963505 15.468735 34.229781 15.46875 33.4375 C 15.468735 32.70678 15.314872 32.057197 14.96875 31.46875 C 14.622599 30.880333 14.175441 30.416344 13.65625 30.0625 C 13.137032 29.708688 12.563898 29.48655 11.90625 29.375 C 11.248579 29.263484 10.244636 29.187517 8.90625 29.1875 L 2.15625 29.1875 z M 19.0625 29.1875 L 19.0625 46.09375 L 22.0625 46.09375 L 22.0625 44.3125 C 22.554778 44.997083 23.131759 45.525018 23.8125 45.875 C 24.493229 46.224983 25.175027 46.375 25.875 46.375 C 27.297997 46.375 28.535134 45.818214 29.53125 44.6875 C 30.527342 43.556789 30.999986 41.935959 31 39.84375 C 30.999986 37.820781 30.508112 36.268226 29.53125 35.1875 C 28.554364 34.106796 27.335974 33.562513 25.84375 33.5625 C 24.47458 33.562513 23.281195 34.142856 22.28125 35.28125 L 22.28125 29.1875 L 19.0625 29.1875 z M 33.5 29.1875 L 33.5 46.09375 L 36.5 46.09375 L 36.5 44.3125 C 36.992278 44.997083 37.569259 45.525018 38.25 45.875 C 38.930729 46.224983 39.643777 46.375 40.34375 46.375 C 41.766747 46.375 42.972634 45.818214 43.96875 44.6875 C 44.964842 43.556789 45.468736 41.935959 45.46875 39.84375 C 45.468736 37.820781 44.976862 36.268226 44 35.1875 C 43.023114 34.106796 41.773474 33.562513 40.28125 33.5625 C 38.91208 33.562513 37.749945 34.142856 36.75 35.28125 L 36.75 29.1875 L 33.5 29.1875 z M 5.5625 32 L 7.53125 32 C 9.1388545 32.000014 10.099045 32.024054 10.4375 32.0625 C 11.006692 32.131741 11.430292 32.329357 11.71875 32.65625 C 12.007186 32.98317 12.156238 33.414462 12.15625 33.9375 C 12.156238 34.483639 11.990837 34.915412 11.65625 35.25 C 11.32164 35.584609 10.865826 35.805783 10.28125 35.875 C 9.9581794 35.91347 9.143195 35.90626 7.8125 35.90625 L 5.5625 35.90625 L 5.5625 32 z M 24.96875 36.0625 C 25.76101 36.06251 26.429824 36.380809 26.9375 37 C 27.445157 37.619209 27.68749 38.631326 27.6875 40.03125 C 27.68749 41.346575 27.441311 42.294745 26.9375 42.90625 C 26.43367 43.517761 25.809091 43.812502 25.09375 43.8125 C 24.16302 43.812502 23.436505 43.392749 22.875 42.53125 C 22.475015 41.923592 22.281245 40.987923 22.28125 39.71875 C 22.281245 38.488049 22.515886 37.572575 23.03125 36.96875 C 23.546603 36.364943 24.191858 36.06251 24.96875 36.0625 z M 39.4375 36.0625 C 40.22976 36.06251 40.867324 36.380809 41.375 37 C 41.882657 37.619209 42.12499 38.631326 42.125 40.03125 C 42.12499 41.346575 41.878811 42.294745 41.375 42.90625 C 40.87117 43.517761 40.277841 43.812502 39.5625 43.8125 C 38.63177 43.812502 37.874005 43.392749 37.3125 42.53125 C 36.912515 41.923592 36.718745 40.987923 36.71875 39.71875 C 36.718745 38.488049 36.984636 37.572575 37.5 36.96875 C 38.015353 36.364943 38.660608 36.06251 39.4375 36.0625 z M 5.5625 38.75 L 8.3125 38.75 C 9.8662602 38.750007 10.878378 38.807227 11.34375 38.96875 C 11.8091 39.130287 12.160097 39.396178 12.40625 39.75 C 12.652379 40.103835 12.781238 40.523588 12.78125 41.03125 C 12.781238 41.631225 12.631703 42.111079 12.3125 42.46875 C 11.993273 42.826428 11.570156 43.06395 11.0625 43.15625 C 10.731737 43.22548 9.9494491 43.250003 8.71875 43.25 L 5.5625 43.25 L 5.5625 38.75 z "
     style="font-size:23.62960625px;font-style:normal;font-weight:bold;line-height:125%;letter-spacing:0px;word-spacing:0px;fill:#000000;fill-opacity:0.14901961;stroke:none;font-family:Sans;-inkscape-font-specification:Sans Bold"
     id="path4081"
     d="m 2.03125,28.0625 a 1.1199462,1.1199462 0 0 0 -1,1.125 l 0,16.90625 a 1.1199462,1.1199462 0 0 0 1.125,1.125 l 5.75,0 c 2.179236,-0.0154 3.510337,-0.01379 4.25,-0.09375 1.064988,-0.117331 2.026961,-0.479921 2.8125,-1.03125 0.780037,-0.547491 1.380966,-1.279297 1.8125,-2.15625 0.424103,-0.861921 0.65623,-1.781102 0.65625,-2.71875 -2e-5,-1.198433 -0.393244,-2.335416 -1.09375,-3.25 -0.347282,-0.453379 -0.768087,-0.8397 -1.25,-1.15625 0.208262,-0.222661 0.520581,-0.335106 0.6875,-0.59375 0.545869,-0.845867 0.812481,-1.802317 0.8125,-2.78125 -1.8e-5,-0.887904 -0.201066,-1.757385 -0.65625,-2.53125 -0.429407,-0.729943 -1.007861,-1.339354 -1.65625,-1.78125 -0.655872,-0.446933 -1.393947,-0.709148 -2.1875,-0.84375 -0.76022,-0.128904 -1.806746,-0.218732 -3.1875,-0.21875 l -6.75,0 a 1.1199462,1.1199462 0 0 0 -0.125,0 z m 16.90625,0 a 1.1199462,1.1199462 0 0 0 -1,1.125 l 0,16.90625 a 1.1199462,1.1199462 0 0 0 1.125,1.125 l 3,0 A 1.1199462,1.1199462 0 0 0 23.03125,46.625 c 0.107352,0.06513 0.168916,0.192247 0.28125,0.25 0.835413,0.429511 1.702526,0.625 2.5625,0.625 1.715107,0 3.320411,-0.723521 4.5,-2.0625 1.230824,-1.397167 1.749985,-3.332893 1.75,-5.59375 -1.5e-5,-2.204486 -0.540775,-4.068456 -1.75,-5.40625 -1.162067,-1.285565 -2.766728,-1.999985 -4.53125,-2 -0.85746,8e-6 -1.682467,0.222819 -2.4375,0.59375 l 0,-3.84375 a 1.1199462,1.1199462 0 0 0 -1.125,-1.125 l -3.21875,0 a 1.1199462,1.1199462 0 0 0 -0.125,0 z m 14.4375,0 a 1.1199462,1.1199462 0 0 0 -1,1.125 l 0,16.90625 a 1.1199462,1.1199462 0 0 0 1.125,1.125 l 3,0 A 1.1199462,1.1199462 0 0 0 37.46875,46.625 c 0.107352,0.06513 0.168916,0.192247 0.28125,0.25 0.847807,0.435883 1.733776,0.625 2.59375,0.625 1.715107,0 3.29684,-0.732238 4.46875,-2.0625 1.223145,-1.38845 1.781235,-3.321742 1.78125,-5.59375 -1.5e-5,-2.204486 -0.540775,-4.068456 -1.75,-5.40625 -1.170034,-1.294379 -2.797978,-1.999985 -4.5625,-2 -0.85746,8e-6 -1.658227,0.221753 -2.40625,0.59375 l 0,-3.84375 a 1.1199462,1.1199462 0 0 0 -1.125,-1.125 l -3.25,0 a 1.1199462,1.1199462 0 0 0 -0.125,0 z m -26.6875,5.0625 0.84375,0 c 1.5964444,1.4e-5 2.626781,0.04495 2.78125,0.0625 0.38176,0.04644 0.485767,0.131793 0.5625,0.21875 0.0918,0.104045 0.156243,0.220947 0.15625,0.53125 -7e-6,0.320054 -0.0318,0.406796 -0.15625,0.53125 -0.149521,0.149521 -0.343294,0.236794 -0.71875,0.28125 -0.08719,0.01038 -1.0090134,0.03126 -2.34375,0.03125 l -1.125,0 0,-1.65625 z m 18.28125,4.0625 c 0.492331,6e-6 0.772515,0.139453 1.09375,0.53125 0.239113,0.291655 0.499991,1.041804 0.5,2.3125 -9e-6,1.175602 -0.243586,1.845025 -0.5,2.15625 -0.327309,0.397264 -0.561013,0.500001 -0.96875,0.5 -0.594037,10e-7 -0.870163,-0.150533 -1.28125,-0.78125 -0.20104,-0.305421 -0.406255,-1.032309 -0.40625,-2.1875 -4e-6,-1.088363 0.207265,-1.724881 0.46875,-2.03125 0.335578,-0.393175 0.607474,-0.499994 1.09375,-0.5 z m 14.46875,0 c 0.492331,6e-6 0.726979,0.12203 1.0625,0.53125 0.239113,0.291655 0.499991,1.041804 0.5,2.3125 -9e-6,1.175602 -0.243586,1.845025 -0.5,2.15625 -0.34176,0.414802 -0.529763,0.500001 -0.9375,0.5 -0.594037,10e-7 -0.911791,-0.166456 -1.3125,-0.78125 -0.20104,-0.305421 -0.406255,-1.032309 -0.40625,-2.1875 -4e-6,-1.069406 0.224003,-1.707879 0.5,-2.03125 0.335578,-0.393175 0.607474,-0.499994 1.09375,-0.5 z m -32.75,2.6875 1.625,0 c 1.5262691,7e-6 2.588631,0.132781 2.65625,0.15625 0.270511,0.0939 0.419901,0.183696 0.53125,0.34375 0.113681,0.163427 0.156242,0.338071 0.15625,0.65625 -8e-6,0.413919 -0.08392,0.571433 -0.1875,0.6875 -0.155897,0.174675 -0.311016,0.292344 -0.59375,0.34375 a 1.1199462,1.1199462 0 0 0 -0.03125,0 c -0.03612,0.0076 -0.909178,0.0625 -2.125,0.0625 l -2.03125,0 0,-2.25 z"
     transform="matrix(1.0083692,0,0,0.99170027,0,1.1590265)" /><path
     sodipodi:type="star"
     style="fill:#000000;fill-opacity:0.14901961;fill-rule:nonzero;stroke:none;display:inline"
     id="path4020"
     sodipodi:sides="3"
     sodipodi:cx="17.336761"
     sodipodi:cy="19.064266"
     sodipodi:r1="14.565725"
     sodipodi:r2="5.569469"
     sodipodi:arg1="1.5789078"
     sodipodi:arg2="2.6261054"
     inkscape:flatsided="true"
     inkscape:rounded="0"
     inkscape:randomized="0"
     d="M 17.218613,33.629512 4.7819624,11.679324 30.009709,11.883962 z"
     inkscape:transform-center-y="1.4541766"
     transform="matrix(0.52219572,0,0,0.52219572,14.946817,12.613334)" /></g><g
   inkscape:groupmode="layer"
   id="layer2"
   inkscape:label="Layer#1"
   style="display:inline"><g
     id="g3831"
     style="fill:#000000;fill-opacity:0.40392157"
     transform="translate(0,1.1590265)"><text
       transform="scale(1.0083692,0.99170027)"
       sodipodi:linespacing="125%"
       id="text2995"
       y="16.914553"
       x="2.513392"
       style="font-size:23.62960625px;font-style:normal;font-weight:bold;line-height:125%;letter-spacing:0px;word-spacing:0px;fill:#000000;fill-opacity:0.40392157;stroke:none;font-family:Sans;-inkscape-font-specification:Sans Bold"
       xml:space="preserve"><tspan
         y="16.914553"
         x="2.513392"
         id="tspan2997"
         sodipodi:role="line">Aaa</tspan></text>
<text
       xml:space="preserve"
       style="font-size:23.62960625px;font-style:normal;font-weight:bold;line-height:125%;letter-spacing:0px;word-spacing:0px;fill:#000000;fill-opacity:0.40392157;stroke:none;font-family:Sans;-inkscape-font-specification:Sans Bold"
       x="0.41349539"
       y="46.108074"
       id="text3825"
       sodipodi:linespacing="125%"
       transform="scale(1.0083692,0.99170027)"><tspan
         sodipodi:role="line"
         id="tspan3827"
         x="0.41349539"
         y="46.108074">Bbb</tspan></text>
</g><path
     sodipodi:type="star"
     style="fill:#000000;fill-opacity:0.40392157;fill-rule:nonzero;stroke:none;display:inline"
     id="path3829-1"
     sodipodi:sides="3"
     sodipodi:cx="17.336761"
     sodipodi:cy="19.064266"
     sodipodi:r1="11.138938"
     sodipodi:r2="5.569469"
     sodipodi:arg1="1.5707963"
     sodipodi:arg2="2.6179939"
     inkscape:flatsided="true"
     inkscape:rounded="0"
     inkscape:randomized="0"
     d="m 17.336762,30.203204 -9.6466039,-16.708407 19.2932069,0 z"
     inkscape:transform-center-y="1.4541766"
     transform="matrix(0.52219572,0,0,0.52219572,14.946817,12.613334)" /><g
     id="DO_NOT_EDIT_-_BOUNDING_BOX"
     transform="translate(-30.979435,9.9254494)"><rect
       style="fill:none"
       y="0"
       x="0"
       id="BOUNDING_BOX"
       width="30"
       height="30" /></g><g
     id="g4003"
     transform="translate(0,1.863396)"><text
       xml:space="preserve"
       style="font-size:23.62960625px;font-style:normal;font-weight:bold;line-height:125%;letter-spacing:0px;word-spacing:0px;fill:#000000;fill-opacity:0.40392157;stroke:none;font-family:Sans;-inkscape-font-specification:Sans Bold"
       x="2.513392"
       y="16.914553"
       id="text3958"
       sodipodi:linespacing="125%"
       transform="scale(1.0083692,0.99170027)"><tspan
         sodipodi:role="line"
         id="tspan3960"
         x="2.513392"
         y="16.914553">Aaa</tspan></text>
<text
       transform="scale(1.0083692,0.99170027)"
       sodipodi:linespacing="125%"
       id="text3962"
       y="46.108074"
       x="0.41349539"
       style="font-size:23.62960625px;font-style:normal;font-weight:bold;line-height:125%;letter-spacing:0px;word-spacing:0px;fill:#000000;fill-opacity:0.40392157;stroke:none;font-family:Sans;-inkscape-font-specification:Sans Bold"
       xml:space="preserve"><tspan
         y="46.108074"
         x="0.41349539"
         id="tspan3964"
         sodipodi:role="line">Bbb</tspan></text>
<path
       sodipodi:type="star"
       style="fill:#000000;fill-opacity:0.40392157;fill-rule:nonzero;stroke:none;display:inline"
       id="path3966"
       sodipodi:sides="3"
       sodipodi:cx="17.336761"
       sodipodi:cy="19.064266"
       sodipodi:r1="11.138938"
       sodipodi:r2="5.569469"
       sodipodi:arg1="1.5707963"
       sodipodi:arg2="2.6179939"
       inkscape:flatsided="true"
       inkscape:rounded="0"
       inkscape:randomized="0"
       d="m 17.336762,30.203204 -9.6466039,-16.708407 19.2932069,0 z"
       inkscape:transform-center-y="1.4541766"
       transform="matrix(0.52219572,0,0,0.52219572,14.946817,11.454303)" /></g></g><g
   inkscape:groupmode="layer"
   id="layer4"
   inkscape:label="Layer#3"
   style="display:inline"><path
     sodipodi:type="star"
     style="fill:#ffffff;fill-opacity:1;fill-rule:nonzero;stroke:none"
     id="path3829"
     sodipodi:sides="3"
     sodipodi:cx="17.336761"
     sodipodi:cy="19.064266"
     sodipodi:r1="11.138938"
     sodipodi:r2="5.569469"
     sodipodi:arg1="1.5707963"
     sodipodi:arg2="2.6179939"
     inkscape:flatsided="true"
     inkscape:rounded="0"
     inkscape:randomized="0"
     d="m 17.336762,30.203204 -9.6466039,-16.708407 19.2932069,0 z"
     inkscape:transform-center-y="1.4541766"
     transform="matrix(0.52219572,0,0,0.52219572,14.946817,12.613334)" /><g
     id="g3837"
     style="fill:#ffffff;fill-opacity:1"
     transform="translate(0,1.1590265)"><text
       xml:space="preserve"
       style="font-size:23.62960625px;font-style:normal;font-weight:bold;line-height:125%;letter-spacing:0px;word-spacing:0px;fill:#ffffff;fill-opacity:1;stroke:none;font-family:Sans;-inkscape-font-specification:Sans Bold"
       x="2.513392"
       y="16.914553"
       id="text3839"
       sodipodi:linespacing="125%"
       transform="scale(1.0083692,0.99170027)"><tspan
         sodipodi:role="line"
         id="tspan3841"
         x="2.513392"
         y="16.914553">Aaa</tspan></text>
<text
       transform="scale(1.0083692,0.99170027)"
       sodipodi:linespacing="125%"
       id="text3843"
       y="46.108074"
       x="0.41349539"
       style="font-size:23.62960625px;font-style:normal;font-weight:bold;line-height:125%;letter-spacing:0px;word-spacing:0px;fill:#ffffff;fill-opacity:1;stroke:none;font-family:Sans;-inkscape-font-specification:Sans Bold"
       xml:space="preserve"><tspan
         y="46.108074"
         x="0.41349539"
         id="tspan3845"
         sodipodi:role="line">Bbb</tspan></text>
</g></g></svg>