<?xml version="1.0"?>
<!-- Converted with SVG Converter - Version 0.9.5 (Compiled Mon May 30 09:08:51 2011) - Copyright (C) 2011 Nokia -->
<svg xmlns="http://www.w3.org/2000/svg" width="67px" x="0px" version="1.1" y="0px" height="57px" viewBox="0 0 67 57" xmlns:xlink="http://www.w3.org/1999/xlink" baseProfile="tiny" xml:space="preserve">
 <g id="DO_NOT_EDIT_-_BOUNDING_BOX">
  <rect width="67" fill="none" height="57" id="BOUNDING_BOX"/>
 </g>
 <g id="PLACE_YOUR_GRAPHIC_HERE">
  <path stroke-opacity="0.3" fill-opacity="0.3" d="M48.833,9.66v14.09c0,1.06-0.86,1.917-1.916,1.917H20.083c-1.06,0-1.917-0.857-1.917-1.917V6.5h-5.75&#xd;&#xa;&#x9;&#x9;c-1.059,0-1.917,0.857-1.917,1.917v42.167c0,1.06,0.857,1.917,1.917,1.917h42.167c1.06,0,1.917-0.857,1.917-1.917V17.326&#xd;&#xa;&#x9;&#x9;L48.833,9.66z M46.797,6.5H20.188v17.263h26.609V6.5z"/>
  <rect width="30" x="16.381" y="16.446" fill="none" height="30"/>
  <path stroke-opacity="0.15" fill-opacity="0.15" d="M12.417,52.5c-1.608,0-2.917-1.309-2.917-2.917V7.417c0-1.608,1.308-2.917,2.917-2.917h5.75&#xd;&#xa;&#x9;&#x9;c0.552,0,1,0.448,1,1v17.25c0,0.177,0.051,0.343,0.139,0.484c-0.075-0.14-0.118-0.301-0.118-0.471V5.5c0-0.552,0.448-1,1-1h26.609&#xd;&#xa;&#x9;&#x9;c0.553,0,1,0.448,1,1v17.263c0,0.226-0.075,0.435-0.201,0.602c0.147-0.163,0.237-0.379,0.237-0.615V8.66&#xd;&#xa;&#x9;&#x9;c0-0.404,0.243-0.769,0.617-0.924c0.124-0.051,0.254-0.076,0.383-0.076c0.26,0,0.516,0.102,0.707,0.293l7.667,7.667&#xd;&#xa;&#x9;&#x9;c0.188,0.188,0.293,0.442,0.293,0.707v33.257c0,1.608-1.309,2.917-2.917,2.917H12.417z"/>
  <path stroke-opacity="0.15" fill-opacity="0.15" d="M48.833,8.66v14.09c0,1.06-0.86,1.917-1.916,1.917H20.083c-1.06,0-1.917-0.857-1.917-1.917V5.5h-5.75&#xd;&#xa;&#x9;&#x9;c-1.059,0-1.917,0.857-1.917,1.917v42.167c0,1.06,0.857,1.917,1.917,1.917h42.167c1.06,0,1.917-0.857,1.917-1.917V16.326&#xd;&#xa;&#x9;&#x9;L48.833,8.66z M46.797,5.5H20.188v17.263h26.609V5.5z"/>
  <linearGradient id="SVGID_1_" y1="51.5" x1="33.5005" y2="5.5005" gradientUnits="userSpaceOnUse" x2="33.5005">
   <stop offset="0" style="stop-color:#D0CBC5"/>
   <stop offset="0.5031" style="stop-color:#FAFCEF"/>
   <stop offset="0.9693" style="stop-color:#FFFFFF"/>
  </linearGradient>
  <path fill="url(#SVGID_1_)" d="M48.833,8.66v14.09c0,1.06-0.86,1.917-1.916,1.917H20.083c-1.06,0-1.917-0.857-1.917-1.917V5.5&#xd;&#xa;&#x9;&#x9;h-5.75c-1.059,0-1.917,0.857-1.917,1.917v42.167c0,1.06,0.857,1.917,1.917,1.917h42.167c1.06,0,1.917-0.857,1.917-1.917V16.326&#xd;&#xa;&#x9;&#x9;L48.833,8.66z M46.797,5.5H20.188v17.263h26.609V5.5z"/>
  <path fill="#FFFFFF" d="M46.797,6.5H20.188v-1h26.609V6.5z M18.167,23.75c0,1.06,0.857,1.917,1.917,1.917h26.833&#xd;&#xa;&#x9;&#x9;c1.056,0,1.916-0.857,1.916-1.917v-1c0,1.06-0.86,1.917-1.916,1.917H20.083c-1.06,0-1.917-0.857-1.917-1.917V23.75z M48.833,8.66v1&#xd;&#xa;&#x9;&#x9;l7.667,7.667v-1L48.833,8.66z M12.417,6.5h5.75v-1h-5.75c-1.059,0-1.917,0.857-1.917,1.917v1C10.5,7.357,11.357,6.5,12.417,6.5z"/>
 </g>
 <g id="DO_NOT_EDIT_-_FOCAL_ZONE_GUIDES"/>
</svg>
