<?xml version="1.0" encoding="UTF-8" standalone="no"?>
<!-- Generator: Adobe Illustrator 15.0.0, SVG Export Plug-In . SVG Version: 6.00 Build 0)  -->

<svg
   xmlns:dc="http://purl.org/dc/elements/1.1/"
   xmlns:cc="http://creativecommons.org/ns#"
   xmlns:rdf="http://www.w3.org/1999/02/22-rdf-syntax-ns#"
   xmlns:svg="http://www.w3.org/2000/svg"
   xmlns="http://www.w3.org/2000/svg"
   xmlns:sodipodi="http://sodipodi.sourceforge.net/DTD/sodipodi-0.dtd"
   xmlns:inkscape="http://www.inkscape.org/namespaces/inkscape"
   version="1.1"
   x="0px"
   y="0px"
   width="30px"
   height="30px"
   viewBox="0 0 30 30"
   enable-background="new 0 0 30 30"
   xml:space="preserve"
   id="svg2"
   inkscape:version="0.48.2 r9819"
   sodipodi:docname="save_inverted.svg"><metadata
   id="metadata19"><rdf:RDF><cc:Work
       rdf:about=""><dc:format>image/svg+xml</dc:format><dc:type
         rdf:resource="http://purl.org/dc/dcmitype/StillImage" /></cc:Work></rdf:RDF></metadata><defs
   id="defs17">
	
	
	
	
</defs><sodipodi:namedview
   pagecolor="#ffffff"
   bordercolor="#666666"
   borderopacity="1"
   objecttolerance="10"
   gridtolerance="10"
   guidetolerance="10"
   inkscape:pageopacity="0"
   inkscape:pageshadow="2"
   inkscape:window-width="1920"
   inkscape:window-height="955"
   id="namedview15"
   showgrid="false"
   inkscape:zoom="7.8666667"
   inkscape:cx="-4.6398305"
   inkscape:cy="15"
   inkscape:window-x="-4"
   inkscape:window-y="-4"
   inkscape:window-maximized="1"
   inkscape:current-layer="svg2" />
<g
   id="DO_NOT_EDIT_-_BOUNDING_BOX">
	<rect
   id="BOUNDING_BOX"
   fill="none"
   width="30"
   height="30" />
</g>
<path
   style="opacity:0.3"
   inkscape:connector-curvature="0"
   id="path7"
   d="M 21,2 H 9 v 8 H 21 V 2 z m 2,1.648 V 11 c 0,0.553 -0.449,1 -1,1 H 8 C 7.447,12 7,11.553 7,11 V 2 H 4 C 3.447,2 3,2.447 3,3 v 22 c 0,0.553 0.447,1 1,1 h 22 c 0.553,0 1,-0.447 1,-1 V 7.648 l -4,-4 z" /><path
   style="opacity:0.15"
   inkscape:connector-curvature="0"
   id="path9"
   d="M 4,28 C 2.897,28 2,27.103 2,26 V 4 C 2,2.897 2.897,2 4,2 h 3 c 0.552,0 14,0 14,0 0.233,0 0.447,0.08 0.617,0.213 0.233,0.183 1.898,1.537 2.09,1.728 l 4,4 C 27.895,8.129 28,8.383 28,8.648 V 26 c 0,1.103 -0.897,2 -2,2 H 4 z" /><path
   style="opacity:0.15"
   inkscape:connector-curvature="0"
   id="path11"
   d="M 21,3 H 9 v 8 H 21 V 3 z m 2,1.648 V 12 c 0,0.553 -0.449,1 -1,1 H 8 C 7.447,13 7,12.553 7,12 V 3 H 4 C 3.447,3 3,3.447 3,4 v 22 c 0,0.553 0.447,1 1,1 h 22 c 0.553,0 1,-0.447 1,-1 V 8.648 l -4,-4 z" /><path
   style="fill:#000000;fill-opacity:1"
   inkscape:connector-curvature="0"
   id="path13"
   d="M 21,3 H 9 v 8 H 21 V 3 z m 2,1.648 V 12 c 0,0.553 -0.449,1 -1,1 H 8 C 7.447,13 7,12.553 7,12 V 3 H 4 C 3.447,3 3,3.447 3,4 v 22 c 0,0.553 0.447,1 1,1 h 22 c 0.553,0 1,-0.447 1,-1 V 8.648 l -4,-4 z" />
</svg>