<?xml version="1.0" encoding="UTF-8" standalone="no"?>
<!-- Generator: Adobe Illustrator 15.0.0, SVG Export Plug-In . SVG Version: 6.00 Build 0)  -->

<svg
   xmlns:dc="http://purl.org/dc/elements/1.1/"
   xmlns:cc="http://creativecommons.org/ns#"
   xmlns:rdf="http://www.w3.org/1999/02/22-rdf-syntax-ns#"
   xmlns:svg="http://www.w3.org/2000/svg"
   xmlns="http://www.w3.org/2000/svg"
   xmlns:sodipodi="http://sodipodi.sourceforge.net/DTD/sodipodi-0.dtd"
   xmlns:inkscape="http://www.inkscape.org/namespaces/inkscape"
   version="1.1"
   x="0px"
   y="0px"
   width="30px"
   height="30px"
   viewBox="0 0 30 30"
   enable-background="new 0 0 30 30"
   xml:space="preserve"
   id="svg2"
   inkscape:version="0.48.2 r9819"
   sodipodi:docname="search_inverted.svg"><metadata
   id="metadata25"><rdf:RDF><cc:Work
       rdf:about=""><dc:format>image/svg+xml</dc:format><dc:type
         rdf:resource="http://purl.org/dc/dcmitype/StillImage" /></cc:Work></rdf:RDF></metadata><defs
   id="defs23">
	
	
	
	
	
</defs><sodipodi:namedview
   pagecolor="#ffffff"
   bordercolor="#666666"
   borderopacity="1"
   objecttolerance="10"
   gridtolerance="10"
   guidetolerance="10"
   inkscape:pageopacity="0"
   inkscape:pageshadow="2"
   inkscape:window-width="1890"
   inkscape:window-height="985"
   id="namedview21"
   showgrid="false"
   inkscape:zoom="10.1"
   inkscape:cx="-0.2970297"
   inkscape:cy="15"
   inkscape:window-x="26"
   inkscape:window-y="-4"
   inkscape:window-maximized="1"
   inkscape:current-layer="svg2" />
<g
   id="DO_NOT_EDIT_-_BOUNDING_BOX">
	<rect
   id="BOUNDING_BOX"
   fill="none"
   width="30"
   height="30" />
</g>
<g
   style="opacity:0.15"
   id="g9">
		<g
   id="g11">
			<path
   inkscape:connector-curvature="0"
   id="path13"
   d="M 27.975,23.025 23.584,18.634 C 24.513,16.898 25,14.966 25,13 25,6.383 19.617,1 13,1 6.383,1 1,6.383 1,13 c 0,6.617 5.383,12 12,12 1.964,0 3.896,-0.487 5.634,-1.417 l 4.393,4.393 c 0.661,0.66 1.54,1.024 2.475,1.024 0.935,0 1.813,-0.364 2.473,-1.025 1.364,-1.365 1.364,-3.585 0,-4.95 z M 13,19.5 C 9.416,19.5 6.5,16.584 6.5,13 6.5,9.416 9.416,6.5 13,6.5 c 3.584,0 6.5,2.916 6.5,6.5 0,3.584 -2.916,6.5 -6.5,6.5 z" />
		</g>
	</g><rect
   style="fill:none"
   y="0"
   x="0"
   id="rect15"
   height="30"
   width="30" /><path
   style="opacity:0.15"
   inkscape:connector-curvature="0"
   id="path17"
   d="M 27.268,23.732 22.334,18.798 C 23.385,17.113 24,15.131 24,13 24,6.925 19.076,2 13,2 6.926,2 2,6.925 2,13 c 0,6.074 4.926,11 11,11 2.131,0 4.113,-0.617 5.799,-1.666 l 4.934,4.934 c 0.979,0.977 2.561,0.977 3.535,0 0.976,-0.977 0.976,-2.559 0,-3.536 z M 13,20.5 C 8.863,20.5 5.5,17.137 5.5,13 5.5,8.863 8.863,5.5 13,5.5 c 4.137,0 7.5,3.363 7.5,7.5 0,4.137 -3.363,7.5 -7.5,7.5 z" /><path
   style="fill:#000000;fill-opacity:1"
   inkscape:connector-curvature="0"
   id="path19"
   d="M 27.268,23.732 22.334,18.798 C 23.385,17.113 24,15.131 24,13 24,6.925 19.076,2 13,2 6.926,2 2,6.925 2,13 c 0,6.074 4.926,11 11,11 2.131,0 4.113,-0.617 5.799,-1.666 l 4.934,4.934 c 0.979,0.977 2.561,0.977 3.535,0 0.976,-0.977 0.976,-2.559 0,-3.536 z M 13,20.5 C 8.863,20.5 5.5,17.137 5.5,13 5.5,8.863 8.863,5.5 13,5.5 c 4.137,0 7.5,3.363 7.5,7.5 0,4.137 -3.363,7.5 -7.5,7.5 z" />
</svg>