<?xml version="1.0" encoding="UTF-8" standalone="no"?>
<!-- Generator: Adobe Illustrator 15.0.0, SVG Export Plug-In . SVG Version: 6.00 Build 0)  -->

<svg
   xmlns:dc="http://purl.org/dc/elements/1.1/"
   xmlns:cc="http://creativecommons.org/ns#"
   xmlns:rdf="http://www.w3.org/1999/02/22-rdf-syntax-ns#"
   xmlns:svg="http://www.w3.org/2000/svg"
   xmlns="http://www.w3.org/2000/svg"
   xmlns:sodipodi="http://sodipodi.sourceforge.net/DTD/sodipodi-0.dtd"
   xmlns:inkscape="http://www.inkscape.org/namespaces/inkscape"
   version="1.1"
   x="0px"
   y="0px"
   width="30px"
   height="30px"
   viewBox="0 0 30 30"
   enable-background="new 0 0 30 30"
   xml:space="preserve"
   id="svg2"
   inkscape:version="0.48.2 r9819"
   sodipodi:docname="share_inverted.svg"><metadata
   id="metadata23"><rdf:RDF><cc:Work
       rdf:about=""><dc:format>image/svg+xml</dc:format><dc:type
         rdf:resource="http://purl.org/dc/dcmitype/StillImage" /><dc:title></dc:title></cc:Work></rdf:RDF></metadata><defs
   id="defs21">
	

		
		
		
		
		
	</defs><sodipodi:namedview
   pagecolor="#ffffff"
   bordercolor="#666666"
   borderopacity="1"
   objecttolerance="10"
   gridtolerance="10"
   guidetolerance="10"
   inkscape:pageopacity="0"
   inkscape:pageshadow="2"
   inkscape:window-width="1920"
   inkscape:window-height="955"
   id="namedview19"
   showgrid="false"
   inkscape:zoom="25.933333"
   inkscape:cx="8.5411311"
   inkscape:cy="15"
   inkscape:window-x="-4"
   inkscape:window-y="-4"
   inkscape:window-maximized="1"
   inkscape:current-layer="svg2" />
<g
   id="DO_NOT_EDIT_-_BOUNDING_BOX">
	<rect
   id="BOUNDING_BOX"
   fill="none"
   width="30"
   height="30" />
</g>
<rect
   width="30"
   height="30"
   id="rect11"
   x="0"
   y="0"
   style="opacity:0.31000001;fill:none" /><path
   d="m 22.967,28.549 c -3.077,0 -5.589,-2.467 -5.662,-5.527 l -4.374,-2.387 c -1.255,0.985 -2.834,1.539 -4.435,1.539 -3.951,0 -7.166,-3.216 -7.166,-7.168 0,-3.951 3.215,-7.166 7.166,-7.166 1.555,0 3.099,0.527 4.339,1.464 l 4.513,-2.459 c 0.14,-2.999 2.624,-5.396 5.658,-5.396 3.122,0 5.662,2.54 5.662,5.662 0,3.124 -2.54,5.666 -5.662,5.666 -1.229,0 -2.404,-0.397 -3.379,-1.131 l -4.054,2.223 c 0.061,0.375 0.091,0.756 0.091,1.137 0,0.342 -0.024,0.684 -0.073,1.022 l 4.103,2.247 c 0.951,-0.683 2.089,-1.053 3.273,-1.053 3.123,0 5.664,2.54 5.664,5.662 0,3.124 -2.541,5.665 -5.664,5.665 z"
   id="path13"
   inkscape:connector-curvature="0"
   style="opacity:0.15" /><path
   d="m 22.967,18.223 c -1.189,0 -2.299,0.443 -3.162,1.254 l -5.338,-2.924 c 0.131,-0.504 0.197,-1.023 0.197,-1.547 0,-0.563 -0.076,-1.115 -0.227,-1.654 l 5.314,-2.914 c 0.871,0.855 2.037,1.34 3.254,1.34 2.57,0 4.662,-2.094 4.662,-4.666 0,-2.57 -2.092,-4.662 -4.662,-4.662 -2.572,0 -4.664,2.092 -4.664,4.662 0,0.107 0.004,0.215 0.012,0.324 l -5.639,3.072 C 11.578,9.443 10.059,8.84 8.496,8.84 c -3.4,0 -6.166,2.766 -6.166,6.166 0,3.4 2.766,6.168 6.166,6.168 1.609,0 3.158,-0.635 4.303,-1.75 l 5.529,3.018 c -0.018,0.15 -0.025,0.297 -0.025,0.443 0,2.572 2.094,4.664 4.664,4.664 2.572,0 4.664,-2.092 4.664,-4.664 0,-2.571 -2.092,-4.662 -4.664,-4.662 z"
   id="path15"
   inkscape:connector-curvature="0"
   style="opacity:0.15" /><path
   d="m 22.967,17.223 c -1.189,0 -2.299,0.443 -3.162,1.254 l -5.338,-2.924 c 0.131,-0.504 0.197,-1.023 0.197,-1.547 0,-0.563 -0.076,-1.115 -0.227,-1.654 l 5.314,-2.914 c 0.871,0.855 2.037,1.34 3.254,1.34 2.57,0 4.662,-2.094 4.662,-4.666 0,-2.57 -2.092,-4.662 -4.662,-4.662 -2.572,0 -4.664,2.092 -4.664,4.662 0,0.107 0.004,0.215 0.012,0.324 L 12.714,9.508 C 11.578,8.443 10.059,7.84 8.496,7.84 c -3.4,0 -6.166,2.766 -6.166,6.166 0,3.4 2.766,6.168 6.166,6.168 1.609,0 3.158,-0.635 4.303,-1.75 l 5.529,3.018 c -0.018,0.15 -0.025,0.297 -0.025,0.443 0,2.572 2.094,4.664 4.664,4.664 2.572,0 4.664,-2.092 4.664,-4.664 0,-2.571 -2.092,-4.662 -4.664,-4.662 z"
   id="path9"
   inkscape:connector-curvature="0"
   style="opacity:0.21524664;fill:#000000;fill-opacity:1" /><path
   d="m 22.967,18.223 c -1.189,0 -2.299,0.443 -3.162,1.254 l -5.338,-2.924 c 0.131,-0.504 0.197,-1.023 0.197,-1.547 0,-0.563 -0.076,-1.115 -0.227,-1.654 l 5.314,-2.914 c 0.871,0.855 2.037,1.34 3.254,1.34 2.57,0 4.662,-2.094 4.662,-4.666 0,-2.57 -2.092,-4.662 -4.662,-4.662 -2.572,0 -4.664,2.092 -4.664,4.662 0,0.107 0.004,0.215 0.012,0.324 l -5.639,3.072 C 11.578,9.443 10.059,8.84 8.496,8.84 c -3.4,0 -6.166,2.766 -6.166,6.166 0,3.4 2.766,6.168 6.166,6.168 1.609,0 3.158,-0.635 4.303,-1.75 l 5.529,3.018 c -0.018,0.15 -0.025,0.297 -0.025,0.443 0,2.572 2.094,4.664 4.664,4.664 2.572,0 4.664,-2.092 4.664,-4.664 0,-2.571 -2.092,-4.662 -4.664,-4.662 z"
   id="path17"
   inkscape:connector-curvature="0"
   style="fill:#000000;fill-opacity:1" />
</svg>