<?xml version="1.0" encoding="UTF-8" standalone="no"?>
<!-- Converted with SVG Converter - Version 0.9.5 (Compiled Mon May 30 09:08:51 2011) - Copyright (C) 2011 Nokia -->

<svg
   xmlns:dc="http://purl.org/dc/elements/1.1/"
   xmlns:cc="http://creativecommons.org/ns#"
   xmlns:rdf="http://www.w3.org/1999/02/22-rdf-syntax-ns#"
   xmlns:svg="http://www.w3.org/2000/svg"
   xmlns="http://www.w3.org/2000/svg"
   xmlns:sodipodi="http://sodipodi.sourceforge.net/DTD/sodipodi-0.dtd"
   xmlns:inkscape="http://www.inkscape.org/namespaces/inkscape"
   width="30px"
   x="0px"
   version="1.1"
   y="0px"
   height="30px"
   viewBox="0 0 30 30"
   xml:space="preserve"
   id="svg2"
   inkscape:version="0.48.2 r9819"
   sodipodi:docname="toolbar_extension_inverted.svg"><metadata
   id="metadata21"><rdf:RDF><cc:Work
       rdf:about=""><dc:format>image/svg+xml</dc:format><dc:type
         rdf:resource="http://purl.org/dc/dcmitype/StillImage" /></cc:Work></rdf:RDF></metadata><defs
   id="defs19">
  
  
  
  
  
 </defs><sodipodi:namedview
   pagecolor="#ffffff"
   bordercolor="#666666"
   borderopacity="1"
   objecttolerance="10"
   gridtolerance="10"
   guidetolerance="10"
   inkscape:pageopacity="0"
   inkscape:pageshadow="2"
   inkscape:window-width="1920"
   inkscape:window-height="955"
   id="namedview17"
   showgrid="false"
   inkscape:zoom="25.933333"
   inkscape:cx="9.0424165"
   inkscape:cy="15"
   inkscape:window-x="-4"
   inkscape:window-y="-4"
   inkscape:window-maximized="1"
   inkscape:current-layer="svg2" />
 <g
   id="DO_NOT_EDIT_-_BOUNDING_BOX">
  <rect
   width="30"
   fill="none"
   height="30"
   id="BOUNDING_BOX" />
 </g>
 <path
   style="fill-opacity:0.3;stroke-opacity:0.3"
   inkscape:connector-curvature="0"
   id="path7"
   d="m 15,10.999 c -1.656,0 -3,1.344 -3,3 0,1.657 1.344,3.001 3,3.001 1.657,0 3,-1.344 3,-3.001 0,-1.656 -1.343,-3 -3,-3 z m -10,0 c -1.656,0 -3,1.344 -3,3 C 2,15.656 3.344,17 5,17 c 1.657,0 3,-1.344 3,-3.001 0,-1.656 -1.343,-3 -3,-3 z m 20,0 c -1.656,0 -3,1.344 -3,3 0,1.657 1.344,3.001 3,3.001 1.657,0 3,-1.344 3,-3.001 0,-1.656 -1.343,-3 -3,-3 z" /><path
   style="fill-opacity:0.15;stroke-opacity:0.15"
   inkscape:connector-curvature="0"
   id="path9"
   d="m 25,19 c -2.206,0 -4,-1.795 -4,-4.001 0,-2.206 1.794,-4 4,-4 2.206,0 4,1.794 4,4 C 29,17.205 27.206,19 25,19 z m -10,0 c -2.206,0 -4,-1.795 -4,-4.001 0,-2.206 1.794,-4 4,-4 2.206,0 4,1.794 4,4 C 19,17.205 17.206,19 15,19 z M 5,19 c -2.206,0 -4,-1.795 -4,-4.001 0,-2.206 1.794,-4 4,-4 2.206,0 4,1.794 4,4 C 9,17.205 7.206,19 5,19 z" /><path
   style="fill-opacity:0.15;stroke-opacity:0.15"
   inkscape:connector-curvature="0"
   id="path11"
   d="m 15,11.999 c -1.656,0 -3,1.344 -3,3 0,1.657 1.344,3.001 3,3.001 1.657,0 3,-1.344 3,-3.001 0,-1.656 -1.343,-3 -3,-3 z m -10,0 c -1.656,0 -3,1.344 -3,3 C 2,16.656 3.344,18 5,18 c 1.657,0 3,-1.344 3,-3.001 0,-1.656 -1.343,-3 -3,-3 z m 20,0 c -1.656,0 -3,1.344 -3,3 0,1.657 1.344,3.001 3,3.001 1.657,0 3,-1.344 3,-3.001 0,-1.656 -1.343,-3 -3,-3 z" /><path
   style="fill:#000000;fill-opacity:1"
   inkscape:connector-curvature="0"
   id="path13"
   d="m 15,11.999 c -1.656,0 -3,1.344 -3,3 0,1.657 1.344,3.001 3,3.001 1.657,0 3,-1.344 3,-3.001 0,-1.656 -1.343,-3 -3,-3 z m -10,0 c -1.656,0 -3,1.344 -3,3 C 2,16.656 3.344,18 5,18 c 1.657,0 3,-1.344 3,-3.001 0,-1.656 -1.343,-3 -3,-3 z m 20,0 c -1.656,0 -3,1.344 -3,3 0,1.657 1.344,3.001 3,3.001 1.657,0 3,-1.344 3,-3.001 0,-1.656 -1.343,-3 -3,-3 z" /><rect
   style="fill:none"
   x="0"
   id="rect15"
   height="30.000999"
   y="-0.001"
   width="30" />
</svg>