<?xml version="1.0" encoding="UTF-8" standalone="no"?>
<!-- Converted with SVG Converter - Version 0.9.5 (Compiled Mon May 30 09:08:51 2011) - Copyright (C) 2011 Nokia -->

<svg
   xmlns:dc="http://purl.org/dc/elements/1.1/"
   xmlns:cc="http://creativecommons.org/ns#"
   xmlns:rdf="http://www.w3.org/1999/02/22-rdf-syntax-ns#"
   xmlns:svg="http://www.w3.org/2000/svg"
   xmlns="http://www.w3.org/2000/svg"
   xmlns:sodipodi="http://sodipodi.sourceforge.net/DTD/sodipodi-0.dtd"
   xmlns:inkscape="http://www.inkscape.org/namespaces/inkscape"
   width="30px"
   x="0px"
   version="1.1"
   y="0px"
   height="30px"
   viewBox="0 0 30 30"
   xml:space="preserve"
   id="svg2"
   inkscape:version="0.48.2 r9819"
   sodipodi:docname="trim.svg"><metadata
   id="metadata23"><rdf:RDF><cc:Work
       rdf:about=""><dc:format>image/svg+xml</dc:format><dc:type
         rdf:resource="http://purl.org/dc/dcmitype/StillImage" /></cc:Work></rdf:RDF></metadata><defs
   id="defs21">
  
 
   
   
   
   
   
  </defs><sodipodi:namedview
   pagecolor="#ffffff"
   bordercolor="#666666"
   borderopacity="1"
   objecttolerance="10"
   gridtolerance="10"
   guidetolerance="10"
   inkscape:pageopacity="0"
   inkscape:pageshadow="2"
   inkscape:window-width="1920"
   inkscape:window-height="1032"
   id="namedview19"
   showgrid="false"
   inkscape:zoom="27.133333"
   inkscape:cx="8.4766585"
   inkscape:cy="15"
   inkscape:window-x="0"
   inkscape:window-y="0"
   inkscape:window-maximized="0"
   inkscape:current-layer="svg2" />
 <g
   id="DO_NOT_EDIT_-_BOUNDING_BOX">
  <rect
   width="30"
   fill="none"
   height="30"
   id="BOUNDING_BOX" />
 </g>
 <rect
   width="30"
   height="30"
   id="rect11"
   x="0"
   y="0"
   style="fill:none;stroke-opacity:0.31000001" /><path
   d="m 23.23,29.822 c -3.274,0 -5.938,-2.849 -5.938,-6.35 0,-0.045 10e-4,-0.09 0.002,-0.135 L 15,20.285 12.705,23.336 c 10e-4,0.045 0.002,0.091 0.002,0.137 0,3.501 -2.664,6.35 -5.938,6.35 -3.276,0 -5.941,-2.849 -5.941,-6.35 0,-3.502 2.666,-6.352 5.941,-6.352 0.953,0 1.874,0.241 2.71,0.703 L 11.333,15.406 5.419,7.541 C 3.011,3.73 4.706,1.175 5.933,0.347 6.104,0.231 6.299,0.176 6.492,0.176 c 0.301,0 0.598,0.136 0.794,0.392 L 15,10.628 22.714,0.567 c 0.196,-0.256 0.493,-0.392 0.795,-0.392 0.192,0 0.388,0.056 0.559,0.171 1.227,0.828 2.922,3.383 0.56,7.126 l -5.961,7.933 1.854,2.419 c 0.837,-0.463 1.758,-0.704 2.711,-0.704 3.275,0 5.939,2.85 5.939,6.352 -10e-4,3.502 -2.665,6.35 -5.941,6.35 z m 0,-8.267 c -0.406,0 -0.804,0.241 -1.09,0.661 -0.052,0.076 -0.102,0.163 -0.146,0.253 -0.055,0.12 -0.089,0.203 -0.118,0.292 0,0.003 -0.036,0.143 -0.037,0.146 -0.021,0.078 -0.035,0.131 -0.044,0.186 -0.019,0.121 -0.034,0.249 -0.034,0.381 0,0.122 0.016,0.241 0.033,0.358 l 0.019,0.104 c 0.02,0.093 0.033,0.136 0.046,0.18 0.042,0.139 0.087,0.264 0.145,0.38 0.278,0.562 0.736,0.896 1.227,0.896 0.797,0 1.471,-0.878 1.471,-1.918 -0.001,-1.059 -0.661,-1.919 -1.472,-1.919 z m -16.46,0 c -0.811,0 -1.471,0.86 -1.471,1.918 0,1.04 0.673,1.918 1.471,1.918 0.485,0 0.941,-0.33 1.221,-0.883 C 8.054,24.384 8.1,24.251 8.14,24.115 l 0.038,-0.14 0.028,-0.15 C 8.222,23.712 8.238,23.594 8.238,23.472 8.238,23.34 8.223,23.212 8.203,23.088 8.193,23.025 8.175,22.964 8.159,22.905 L 8.119,22.752 C 8.093,22.671 8.06,22.589 8.023,22.51 7.962,22.384 7.912,22.294 7.855,22.209 7.573,21.796 7.175,21.555 6.77,21.555 z"
   id="path13"
   inkscape:connector-curvature="0"
   style="fill-opacity:1;stroke-opacity:0.14999999999999999;fill:#000000" /><path
   d="m 23.23,18.121 c -1.1,0 -2.113,0.396 -2.936,1.055 L 17.409,15.412 23.78,6.939 C 26.249,3.027 23.507,1.175 23.507,1.175 L 15,12.271 6.492,1.176 c 0,0 -2.742,1.852 -0.273,5.764 l 6.371,8.473 -2.887,3.764 c -0.82,-0.658 -1.834,-1.055 -2.934,-1.055 -2.73,0 -4.941,2.396 -4.941,5.352 0,2.956 2.211,5.35 4.941,5.35 2.725,0 4.938,-2.395 4.938,-5.35 0,-0.15 -0.01,-0.299 -0.021,-0.445 L 15,18.621 l 3.313,4.406 c -0.01,0.146 -0.02,0.295 -0.02,0.445 0,2.955 2.213,5.35 4.938,5.35 2.73,0 4.939,-2.395 4.939,-5.35 0,-2.955 -2.209,-5.351 -4.94,-5.351 z m -14.035,5.85 c -0.01,0.066 -0.023,0.135 -0.037,0.201 -0.016,0.078 -0.039,0.154 -0.061,0.23 -0.059,0.195 -0.127,0.385 -0.215,0.557 -0.432,0.854 -1.213,1.432 -2.113,1.432 -1.365,0 -2.471,-1.307 -2.471,-2.918 0,-1.613 1.105,-2.918 2.471,-2.918 0.777,0 1.463,0.434 1.916,1.098 0.08,0.119 0.152,0.246 0.219,0.379 0.008,0.018 0.016,0.037 0.025,0.057 0.055,0.117 0.104,0.238 0.145,0.367 0.02,0.063 0.035,0.125 0.051,0.189 0.025,0.094 0.051,0.189 0.066,0.289 0.027,0.174 0.047,0.354 0.047,0.539 0,0.17 -0.019,0.336 -0.043,0.498 z m 14.035,2.42 c -0.908,0 -1.693,-0.586 -2.123,-1.453 -0.082,-0.166 -0.148,-0.344 -0.203,-0.527 -0.023,-0.08 -0.047,-0.158 -0.063,-0.24 -0.016,-0.064 -0.027,-0.133 -0.037,-0.197 -0.023,-0.164 -0.043,-0.33 -0.043,-0.5 0,-0.186 0.02,-0.365 0.047,-0.539 0.016,-0.098 0.041,-0.191 0.064,-0.283 0.018,-0.066 0.033,-0.133 0.053,-0.197 0.041,-0.127 0.09,-0.246 0.143,-0.361 l 0.029,-0.064 c 0.064,-0.131 0.137,-0.256 0.217,-0.375 0.453,-0.664 1.139,-1.098 1.916,-1.098 1.365,0 2.471,1.305 2.471,2.918 0,1.609 -1.105,2.916 -2.471,2.916 z"
   id="path15"
   inkscape:connector-curvature="0"
   style="fill-opacity:0.15;stroke-opacity:0.15" /><path
   d="m 23.23,18.121 c -1.1,0 -2.113,0.396 -2.936,1.055 L 17.409,15.412 23.78,6.939 C 26.249,3.027 23.507,1.175 23.507,1.175 L 15,12.271 6.492,1.176 c 0,0 -2.742,1.852 -0.273,5.764 l 6.371,8.473 -2.887,3.764 c -0.82,-0.658 -1.834,-1.055 -2.934,-1.055 -2.73,0 -4.941,2.396 -4.941,5.352 0,2.956 2.211,5.35 4.941,5.35 2.725,0 4.938,-2.395 4.938,-5.35 0,-0.15 -0.01,-0.299 -0.021,-0.445 L 15,18.621 l 3.313,4.406 c -0.01,0.146 -0.02,0.295 -0.02,0.445 0,2.955 2.213,5.35 4.938,5.35 2.73,0 4.939,-2.395 4.939,-5.35 0,-2.955 -2.209,-5.351 -4.94,-5.351 z m -14.035,5.85 c -0.01,0.066 -0.023,0.135 -0.037,0.201 -0.016,0.078 -0.039,0.154 -0.061,0.23 -0.059,0.195 -0.127,0.385 -0.215,0.557 -0.432,0.854 -1.213,1.432 -2.113,1.432 -1.365,0 -2.471,-1.307 -2.471,-2.918 0,-1.613 1.105,-2.918 2.471,-2.918 0.777,0 1.463,0.434 1.916,1.098 0.08,0.119 0.152,0.246 0.219,0.379 0.008,0.018 0.016,0.037 0.025,0.057 0.055,0.117 0.104,0.238 0.145,0.367 0.02,0.063 0.035,0.125 0.051,0.189 0.025,0.094 0.051,0.189 0.066,0.289 0.027,0.174 0.047,0.354 0.047,0.539 0,0.17 -0.019,0.336 -0.043,0.498 z m 14.035,2.42 c -0.908,0 -1.693,-0.586 -2.123,-1.453 -0.082,-0.166 -0.148,-0.344 -0.203,-0.527 -0.023,-0.08 -0.047,-0.158 -0.063,-0.24 -0.016,-0.064 -0.027,-0.133 -0.037,-0.197 -0.023,-0.164 -0.043,-0.33 -0.043,-0.5 0,-0.186 0.02,-0.365 0.047,-0.539 0.016,-0.098 0.041,-0.191 0.064,-0.283 0.018,-0.066 0.033,-0.133 0.053,-0.197 0.041,-0.127 0.09,-0.246 0.143,-0.361 l 0.029,-0.064 c 0.064,-0.131 0.137,-0.256 0.217,-0.375 0.453,-0.664 1.139,-1.098 1.916,-1.098 1.365,0 2.471,1.305 2.471,2.918 0,1.609 -1.105,2.916 -2.471,2.916 z"
   id="path17"
   inkscape:connector-curvature="0"
   style="fill:#ffffff" />
</svg>