<?xml version="1.0" encoding="UTF-8" standalone="no"?>
<!-- Converted with SVG Converter - Version 0.9.5 (Compiled Mon May 30 09:08:51 2011) - Copyright (C) 2011 Nokia -->

<svg
   xmlns:dc="http://purl.org/dc/elements/1.1/"
   xmlns:cc="http://creativecommons.org/ns#"
   xmlns:rdf="http://www.w3.org/1999/02/22-rdf-syntax-ns#"
   xmlns:svg="http://www.w3.org/2000/svg"
   xmlns="http://www.w3.org/2000/svg"
   xmlns:sodipodi="http://sodipodi.sourceforge.net/DTD/sodipodi-0.dtd"
   xmlns:inkscape="http://www.inkscape.org/namespaces/inkscape"
   width="30px"
   x="0px"
   version="1.1"
   y="0px"
   height="30px"
   viewBox="0 0 30 30"
   xml:space="preserve"
   id="svg2"
   inkscape:version="0.48.2 r9819"
   sodipodi:docname="upload_inverted.svg"><metadata
   id="metadata23"><rdf:RDF><cc:Work
       rdf:about=""><dc:format>image/svg+xml</dc:format><dc:type
         rdf:resource="http://purl.org/dc/dcmitype/StillImage" /></cc:Work></rdf:RDF></metadata><defs
   id="defs21">
  
 
   
   
   
   
   
  </defs><sodipodi:namedview
   pagecolor="#ffffff"
   bordercolor="#666666"
   borderopacity="1"
   objecttolerance="10"
   gridtolerance="10"
   guidetolerance="10"
   inkscape:pageopacity="0"
   inkscape:pageshadow="2"
   inkscape:window-width="1920"
   inkscape:window-height="955"
   id="namedview19"
   showgrid="false"
   inkscape:zoom="10.1"
   inkscape:cx="-0.2970297"
   inkscape:cy="15"
   inkscape:window-x="-4"
   inkscape:window-y="-4"
   inkscape:window-maximized="1"
   inkscape:current-layer="svg2" />
 <g
   id="DO_NOT_EDIT_-_BOUNDING_BOX">
  <rect
   width="30"
   fill="none"
   height="30"
   id="BOUNDING_BOX" />
 </g>
 <path
   d="M 8.571,14 H 11 c 0.55,0 1,0.45 1,1 v 6 c 0,0.55 0.45,1 1,1 h 4 c 0.55,0 1,-0.45 1,-1 v -6 c 0,-0.55 0.45,-1 1,-1 h 2.429 c 0.55,0 0.776,-0.391 0.504,-0.868 L 19.209,8.368 C 18.937,7.89 18.489,7.109 18.217,6.632 L 15.496,1.868 C 15.223,1.39 14.777,1.39 14.504,1.868 L 11.782,6.632 C 11.509,7.11 11.063,7.891 10.79,8.368 L 8.067,13.132 C 7.794,13.609 8.021,14 8.571,14 z m 17.385,9.826 H 4.043 C 3.469,23.826 3,24.297 3,24.871 v 2.086 C 3,27.531 3.469,28 4.043,28 H 25.956 C 26.529,28 27,27.531 27,26.957 v -2.086 c 0,-0.574 -0.471,-1.045 -1.044,-1.045 z"
   id="path9"
   inkscape:connector-curvature="0"
   style="fill-opacity:0.3;stroke-opacity:0.3" /><rect
   width="30"
   height="30"
   id="rect11"
   x="0"
   y="0"
   style="fill:none" /><path
   d="M 4.043,30 C 2.917,30 2,29.084 2,27.957 v -2.086 c 0,-1.128 0.917,-2.045 2.043,-2.045 h 8.142 C 11.487,23.514 11,22.813 11,22 V 16 H 8.571 C 7.943,16 7.423,15.726 7.146,15.247 6.868,14.768 6.888,14.181 7.199,13.636 L 13.636,2.372 C 13.949,1.824 14.446,1.51 15,1.51 l 0,0 c 0.554,0 1.051,0.314 1.364,0.862 l 6.437,11.263 c 0.312,0.546 0.331,1.134 0.053,1.612 C 22.576,15.726 22.057,16 21.429,16 H 19 v 6 c 0,0.813 -0.487,1.514 -1.185,1.826 h 8.141 c 1.127,0 2.044,0.917 2.044,2.045 v 2.086 C 28,29.084 27.083,30 25.956,30 H 4.043 z"
   id="path13"
   inkscape:connector-curvature="0"
   style="fill-opacity:0.15;stroke-opacity:0.15" /><path
   d="M 8.571,15 H 11 c 0.55,0 1,0.45 1,1 v 6 c 0,0.55 0.45,1 1,1 h 4 c 0.55,0 1,-0.45 1,-1 v -6 c 0,-0.55 0.45,-1 1,-1 h 2.429 c 0.55,0 0.776,-0.391 0.504,-0.868 L 19.209,9.368 C 18.937,8.89 18.489,8.109 18.217,7.632 L 15.496,2.868 C 15.223,2.39 14.777,2.39 14.504,2.868 L 11.782,7.632 C 11.509,8.11 11.063,8.891 10.79,9.368 L 8.067,14.132 C 7.794,14.609 8.021,15 8.571,15 z m 17.385,9.826 H 4.043 C 3.469,24.826 3,25.297 3,25.871 v 2.086 C 3,28.531 3.469,29 4.043,29 H 25.956 C 26.529,29 27,28.531 27,27.957 v -2.086 c 0,-0.574 -0.471,-1.045 -1.044,-1.045 z"
   id="path15"
   inkscape:connector-curvature="0"
   style="fill-opacity:0.15;stroke-opacity:0.15" /><path
   d="M 8.571,15 H 11 c 0.55,0 1,0.45 1,1 v 6 c 0,0.55 0.45,1 1,1 h 4 c 0.55,0 1,-0.45 1,-1 v -6 c 0,-0.55 0.45,-1 1,-1 h 2.429 c 0.55,0 0.776,-0.391 0.504,-0.868 L 19.209,9.368 C 18.937,8.89 18.489,8.109 18.217,7.632 L 15.496,2.868 C 15.223,2.39 14.777,2.39 14.504,2.868 L 11.782,7.632 C 11.509,8.11 11.063,8.891 10.79,9.368 L 8.067,14.132 C 7.794,14.609 8.021,15 8.571,15 z m 17.385,9.826 H 4.043 C 3.469,24.826 3,25.297 3,25.871 v 2.086 C 3,28.531 3.469,29 4.043,29 H 25.956 C 26.529,29 27,28.531 27,27.957 v -2.086 c 0,-0.574 -0.471,-1.045 -1.044,-1.045 z"
   id="path17"
   inkscape:connector-curvature="0"
   style="fill:#000000;fill-opacity:1" />
</svg>